<svg xmlns="http://www.w3.org/2000/svg" width="2228" height="398" viewBox="0 0 2228 398" fill="none">
	<g id="AELN-ACDB2">
		<g id="CBF15">
			<text id="CBF15_2" fill="black" font-family="Inter" font-size="12" letter-spacing="0em">
				<tspan x="735" y="116.864">
					CBF15
				</tspan>
			</text>
			<path id="Ellipse 49" d="M734.549 96.1346C734.549 100.037 731.598 103.143 728.026 103.143C724.454 103.143 721.502 100.037 721.502 96.1346C721.502 92.2319 724.454 89.126 728.026 89.126C731.598 89.126 734.549 92.2319 734.549 96.1346Z" stroke="black" />
			<path id="Ellipse 50" d="M734.549 124.668C734.549 128.57 731.598 131.676 728.026 131.676C724.454 131.676 721.502 128.57 721.502 124.668C721.502 120.765 724.454 117.659 728.026 117.659C731.598 117.659 734.549 120.765 734.549 124.668Z" stroke="black" />
			<path id="Vector 11" d="M719.701 91.3057L713.607 99.0863C708.844 105.167 708.316 113.554 712.28 120.184V120.184C712.948 121.301 713.731 122.345 714.616 123.3L719.701 128.783" stroke="black" />
			<line id="Line 219" y1="-0.5" x2="15.8657" y2="-0.5" transform="matrix(0.605221 0.796058 -0.514943 0.857224 707.951 98.6101)" stroke="black" />
			<line id="Line 220" y1="-0.5" x2="15.8657" y2="-0.5" transform="matrix(0.605221 0.796058 -0.514943 0.857224 706.955 103.032)" stroke="black" />
		</g>
		<g id="CBF16">
			<text id="CBF16_2" fill="black" font-family="Inter" font-size="12" letter-spacing="0em">
				<tspan x="893" y="116.864">
					CBF16
				</tspan>
			</text>
			<path id="Ellipse 51" d="M892.475 96.1346C892.475 100.037 889.523 103.143 885.951 103.143C882.379 103.143 879.428 100.037 879.428 96.1346C879.428 92.2319 882.379 89.126 885.951 89.126C889.523 89.126 892.475 92.2319 892.475 96.1346Z" stroke="black" />
			<path id="Ellipse 52" d="M892.475 124.668C892.475 128.57 889.523 131.676 885.951 131.676C882.379 131.676 879.428 128.57 879.428 124.668C879.428 120.765 882.379 117.659 885.951 117.659C889.523 117.659 892.475 120.765 892.475 124.668Z" stroke="black" />
			<path id="Vector 11_2" d="M877.701 89.3057L871.607 97.0863C866.844 103.167 866.316 111.554 870.28 118.184V118.184C870.948 119.301 871.731 120.345 872.616 121.3L877.701 126.783" stroke="black" />
			<line id="Line 221" y1="-0.5" x2="15.8657" y2="-0.5" transform="matrix(0.605221 0.796058 -0.514943 0.857224 865.877 98.6101)" stroke="black" />
			<line id="Line 222" y1="-0.5" x2="15.8657" y2="-0.5" transform="matrix(0.605221 0.796058 -0.514943 0.857224 864.881 103.032)" stroke="black" />
		</g>
		<g id="CBF21">
			<text id="CBF21_2" fill="black" font-family="Inter" font-size="12" letter-spacing="0em">
				<tspan x="1018" y="116.864">
					CBF21
				</tspan>
			</text>
			<path id="Ellipse 53" d="M1017.59 96.1349C1017.59 100.038 1014.64 103.144 1011.07 103.144C1007.5 103.144 1004.54 100.038 1004.54 96.1349C1004.54 92.2321 1007.5 89.1262 1011.07 89.1262C1014.64 89.1262 1017.59 92.2321 1017.59 96.1349Z" stroke="black" />
			<path id="Ellipse 54" d="M1017.59 124.668C1017.59 128.571 1014.64 131.676 1011.07 131.676C1007.5 131.676 1004.54 128.571 1004.54 124.668C1004.54 120.765 1007.5 117.659 1011.07 117.659C1014.64 117.659 1017.59 120.765 1017.59 124.668Z" stroke="black" />
			<path id="Vector 11_3" d="M1002.7 91.3059L996.607 99.0866C991.844 105.168 991.316 113.554 995.28 120.184V120.184C995.948 121.301 996.731 122.345 997.616 123.3L1002.7 128.783" stroke="black" />
			<line id="Line 223" y1="-0.5" x2="15.8657" y2="-0.5" transform="matrix(0.605221 0.796058 -0.514943 0.857224 990.994 98.6104)" stroke="black" />
			<line id="Line 224" y1="-0.5" x2="15.8657" y2="-0.5" transform="matrix(0.605221 0.796058 -0.514943 0.857224 989.998 103.032)" stroke="black" />
		</g>
		<g id="CBF22">
			<text id="CBF22_2" fill="black" font-family="Inter" font-size="12" letter-spacing="0em">
				<tspan x="1085" y="116.864">
					CBF22
				</tspan>
			</text>
			<path id="Ellipse 55" d="M1084.14 96.1349C1084.14 100.038 1081.19 103.144 1077.61 103.144C1074.04 103.144 1071.09 100.038 1071.09 96.1349C1071.09 92.2321 1074.04 89.1262 1077.61 89.1262C1081.19 89.1262 1084.14 92.2321 1084.14 96.1349Z" stroke="black" />
			<path id="Ellipse 56" d="M1084.14 124.668C1084.14 128.571 1081.19 131.676 1077.61 131.676C1074.04 131.676 1071.09 128.571 1071.09 124.668C1071.09 120.765 1074.04 117.659 1077.61 117.659C1081.19 117.659 1084.14 120.765 1084.14 124.668Z" stroke="black" />
			<path id="Vector 11_4" d="M1068.7 90.3059L1062.61 98.0866C1057.84 104.168 1057.32 112.554 1061.28 119.184V119.184C1061.95 120.301 1062.73 121.345 1063.62 122.3L1068.7 127.783" stroke="black" />
			<line id="Line 225" y1="-0.5" x2="15.8657" y2="-0.5" transform="matrix(0.605221 0.796058 -0.514943 0.857224 1057.54 98.6104)" stroke="black" />
			<line id="Line 226" y1="-0.5" x2="15.8657" y2="-0.5" transform="matrix(0.605221 0.796058 -0.514943 0.857224 1056.54 103.032)" stroke="black" />
		</g>
		<g id="CBF23">
			<text id="CBF23_2" fill="black" font-family="Inter" font-size="12" letter-spacing="0em">
				<tspan x="1165" y="116.864">
					CBF23
				</tspan>
			</text>
			<path id="Ellipse 57" d="M1164.49 95.5121C1164.49 99.4148 1161.54 102.521 1157.97 102.521C1154.4 102.521 1151.44 99.4148 1151.44 95.5121C1151.44 91.6093 1154.4 88.5034 1157.97 88.5034C1161.54 88.5034 1164.49 91.6093 1164.49 95.5121Z" stroke="black" />
			<path id="Ellipse 58" d="M1164.49 124.045C1164.49 127.948 1161.54 131.054 1157.97 131.054C1154.4 131.054 1151.44 127.948 1151.44 124.045C1151.44 120.142 1154.4 117.036 1157.97 117.036C1161.54 117.036 1164.49 120.142 1164.49 124.045Z" stroke="black" />
			<path id="Vector 11_5" d="M1149.7 90.3062L1143.61 98.0868C1138.84 104.168 1138.32 112.554 1142.28 119.184V119.184C1142.95 120.301 1143.73 121.346 1144.62 122.3L1149.7 127.783" stroke="black" />
			<line id="Line 227" y1="-0.5" x2="15.8657" y2="-0.5" transform="matrix(0.605221 0.796058 -0.514943 0.857224 1137.89 97.9875)" stroke="black" />
			<line id="Line 228" y1="-0.5" x2="15.8657" y2="-0.5" transform="matrix(0.605221 0.796058 -0.514943 0.857224 1136.9 102.409)" stroke="black" />
		</g>
		<g id="CBF24">
			<text id="CBF24_2" fill="black" font-family="Inter" font-size="12" letter-spacing="0em">
				<tspan x="1233" y="116.864">
					CBF24
				</tspan>
			</text>
			<path id="Ellipse 59" d="M1232.59 95.5121C1232.59 99.4148 1229.64 102.521 1226.07 102.521C1222.5 102.521 1219.55 99.4148 1219.55 95.5121C1219.55 91.6093 1222.5 88.5034 1226.07 88.5034C1229.64 88.5034 1232.59 91.6093 1232.59 95.5121Z" stroke="black" />
			<path id="Ellipse 60" d="M1232.59 124.045C1232.59 127.948 1229.64 131.054 1226.07 131.054C1222.5 131.054 1219.55 127.948 1219.55 124.045C1219.55 120.142 1222.5 117.036 1226.07 117.036C1229.64 117.036 1232.59 120.142 1232.59 124.045Z" stroke="black" />
			<path id="Vector 11_6" d="M1217.7 90.3062L1211.61 98.0868C1206.84 104.168 1206.32 112.554 1210.28 119.184V119.184C1210.95 120.301 1211.73 121.346 1212.62 122.3L1217.7 127.783" stroke="black" />
			<line id="Line 229" y1="-0.5" x2="15.8657" y2="-0.5" transform="matrix(0.605221 0.796058 -0.514943 0.857224 1206 97.9875)" stroke="black" />
			<line id="Line 230" y1="-0.5" x2="15.8657" y2="-0.5" transform="matrix(0.605221 0.796058 -0.514943 0.857224 1205 102.409)" stroke="black" />
		</g>
		<g id="CBF25">
			<text id="CBF25_2" fill="black" font-family="Inter" font-size="12" letter-spacing="0em">
				<tspan x="1354" y="116.864">
					CBF25
				</tspan>
			</text>
			<path id="Ellipse 61" d="M1353.77 96.1349C1353.77 100.038 1350.82 103.144 1347.25 103.144C1343.67 103.144 1340.72 100.038 1340.72 96.1349C1340.72 92.2321 1343.67 89.1262 1347.25 89.1262C1350.82 89.1262 1353.77 92.2321 1353.77 96.1349Z" stroke="black" />
			<path id="Ellipse 62" d="M1353.77 124.668C1353.77 128.571 1350.82 131.676 1347.25 131.676C1343.67 131.676 1340.72 128.571 1340.72 124.668C1340.72 120.765 1343.67 117.659 1347.25 117.659C1350.82 117.659 1353.77 120.765 1353.77 124.668Z" stroke="black" />
			<path id="Vector 11_7" d="M1338.7 91.3059L1332.61 99.0866C1327.84 105.168 1327.32 113.554 1331.28 120.184V120.184C1331.95 121.301 1332.73 122.345 1333.62 123.3L1338.7 128.783" stroke="black" />
			<line id="Line 231" y1="-0.5" x2="15.8657" y2="-0.5" transform="matrix(0.605221 0.796058 -0.514943 0.857224 1327.17 98.6104)" stroke="black" />
			<line id="Line 232" y1="-0.5" x2="15.8657" y2="-0.5" transform="matrix(0.605221 0.796058 -0.514943 0.857224 1326.18 103.032)" stroke="black" />
		</g>
		<g id="CBF26">
			<text id="CBF26_2" fill="black" font-family="Inter" font-size="12" letter-spacing="0em">
				<tspan x="1510" y="116.864">
					CBF26
				</tspan>
			</text>
			<path id="Ellipse 81" d="M1509.59 99.5121C1509.59 103.415 1506.64 106.521 1503.07 106.521C1499.5 106.521 1496.55 103.415 1496.55 99.5121C1496.55 95.6093 1499.5 92.5034 1503.07 92.5034C1506.64 92.5034 1509.59 95.6093 1509.59 99.5121Z" stroke="black" />
			<path id="Ellipse 82" d="M1509.59 128.045C1509.59 131.948 1506.64 135.054 1503.07 135.054C1499.5 135.054 1496.55 131.948 1496.55 128.045C1496.55 124.142 1499.5 121.036 1503.07 121.036C1506.64 121.036 1509.59 124.142 1509.59 128.045Z" stroke="black" />
			<path id="Vector 11_8" d="M1494.7 94.3062L1488.61 102.087C1483.84 108.168 1483.32 116.554 1487.28 123.184V123.184C1487.95 124.301 1488.73 125.346 1489.62 126.3L1494.7 131.783" stroke="black" />
			<line id="Line 251" y1="-0.5" x2="15.8657" y2="-0.5" transform="matrix(0.605221 0.796058 -0.514943 0.857224 1483 101.988)" stroke="black" />
			<line id="Line 252" y1="-0.5" x2="15.8657" y2="-0.5" transform="matrix(0.605221 0.796058 -0.514943 0.857224 1482 106.409)" stroke="black" />
		</g>
		<g id="CBF27">
			<text id="CBF27_2" fill="black" font-family="Inter" font-size="12" letter-spacing="0em">
				<tspan x="1628" y="116.864">
					CBF27
				</tspan>
			</text>
			<path id="Ellipse 95" d="M1627.59 99.5121C1627.59 103.415 1624.64 106.521 1621.07 106.521C1617.5 106.521 1614.55 103.415 1614.55 99.5121C1614.55 95.6093 1617.5 92.5034 1621.07 92.5034C1624.64 92.5034 1627.59 95.6093 1627.59 99.5121Z" stroke="black" />
			<path id="Ellipse 96" d="M1627.59 128.045C1627.59 131.948 1624.64 135.054 1621.07 135.054C1617.5 135.054 1614.55 131.948 1614.55 128.045C1614.55 124.142 1617.5 121.036 1621.07 121.036C1624.64 121.036 1627.59 124.142 1627.59 128.045Z" stroke="black" />
			<path id="Vector 11_9" d="M1612.7 94.3062L1606.61 102.087C1601.84 108.168 1601.32 116.554 1605.28 123.184V123.184C1605.95 124.301 1606.73 125.346 1607.62 126.3L1612.7 131.783" stroke="black" />
			<line id="Line 315" y1="-0.5" x2="15.8657" y2="-0.5" transform="matrix(0.605221 0.796058 -0.514943 0.857224 1601 101.988)" stroke="black" />
			<line id="Line 316" y1="-0.5" x2="15.8657" y2="-0.5" transform="matrix(0.605221 0.796058 -0.514943 0.857224 1600 106.409)" stroke="black" />
		</g>
		<g id="CBF28">
			<text id="CBF28_2" fill="black" font-family="Inter" font-size="12" letter-spacing="0em">
				<tspan x="1699" y="116.864">
					CBF28
				</tspan>
			</text>
			<path id="Ellipse 97" d="M1698.88 97.0897C1698.88 100.992 1695.93 104.098 1692.36 104.098C1688.78 104.098 1685.83 100.992 1685.83 97.0897C1685.83 93.187 1688.78 90.0811 1692.36 90.0811C1695.93 90.0811 1698.88 93.187 1698.88 97.0897Z" stroke="black" />
			<path id="Ellipse 98" d="M1698.88 125.623C1698.88 129.525 1695.93 132.631 1692.36 132.631C1688.78 132.631 1685.83 129.525 1685.83 125.623C1685.83 121.72 1688.78 118.614 1692.36 118.614C1695.93 118.614 1698.88 121.72 1698.88 125.623Z" stroke="black" />
			<path id="Vector 11_10" d="M1683.7 91.3062L1677.61 99.0868C1672.84 105.168 1672.32 113.554 1676.28 120.184V120.184C1676.95 121.301 1677.73 122.346 1678.62 123.3L1683.7 128.783" stroke="black" />
			<line id="Line 322" y1="-0.5" x2="15.8657" y2="-0.5" transform="matrix(0.605221 0.796058 -0.514943 0.857224 1672.28 99.5652)" stroke="black" />
			<line id="Line 323" y1="-0.5" x2="15.8657" y2="-0.5" transform="matrix(0.605221 0.796058 -0.514943 0.857224 1671.28 103.987)" stroke="black" />
		</g>
		<g id="CBF14">
			<text id="CBF14_2" fill="black" font-family="Inter" font-size="12" letter-spacing="0em">
				<tspan x="616" y="116.864">
					CBF14
				</tspan>
			</text>
			<path id="Ellipse 47" d="M615.028 97.1346C615.028 101.037 612.076 104.143 608.504 104.143C604.932 104.143 601.98 101.037 601.98 97.1346C601.98 93.2319 604.932 90.126 608.504 90.126C612.076 90.126 615.028 93.2319 615.028 97.1346Z" stroke="black" />
			<path id="Ellipse 48" d="M615.028 125.668C615.028 129.57 612.076 132.676 608.504 132.676C604.932 132.676 601.98 129.57 601.98 125.668C601.98 121.765 604.932 118.659 608.504 118.659C612.076 118.659 615.028 121.765 615.028 125.668Z" stroke="black" />
			<path id="Vector 11_11" d="M600.701 91.3057L594.607 99.0863C589.844 105.167 589.316 113.554 593.28 120.184V120.184C593.948 121.301 594.731 122.345 595.616 123.3L600.701 128.783" stroke="black" />
			<line id="Line 221_2" y1="-0.5" x2="15.8657" y2="-0.5" transform="matrix(0.605221 0.796058 -0.514943 0.857224 588.43 99.6101)" stroke="black" />
			<line id="Line 222_2" y1="-0.5" x2="15.8657" y2="-0.5" transform="matrix(0.605221 0.796058 -0.514943 0.857224 587.434 104.032)" stroke="black" />
		</g>
		<g id="CBF13">
			<text id="CBF13_2" fill="black" font-family="Inter" font-size="12" letter-spacing="0em">
				<tspan x="545" y="116.864">
					CBF13
				</tspan>
			</text>
			<path id="Ellipse 45" d="M544.887 97.1346C544.887 101.037 541.935 104.143 538.363 104.143C534.791 104.143 531.84 101.037 531.84 97.1346C531.84 93.2319 534.791 90.126 538.363 90.126C541.935 90.126 544.887 93.2319 544.887 97.1346Z" stroke="black" />
			<path id="Ellipse 46" d="M544.887 125.668C544.887 129.57 541.935 132.676 538.363 132.676C534.791 132.676 531.84 129.57 531.84 125.668C531.84 121.765 534.791 118.659 538.363 118.659C541.935 118.659 544.887 121.765 544.887 125.668Z" stroke="black" />
			<path id="Vector 11_12" d="M529.701 92.3057L523.607 100.086C518.844 106.167 518.316 114.554 522.28 121.184V121.184C522.948 122.301 523.731 123.345 524.616 124.3L529.701 129.783" stroke="black" />
			<line id="Line 223_2" y1="-0.5" x2="15.8657" y2="-0.5" transform="matrix(0.605221 0.796058 -0.514943 0.857224 518.289 99.6101)" stroke="black" />
			<line id="Line 224_2" y1="-0.5" x2="15.8657" y2="-0.5" transform="matrix(0.605221 0.796058 -0.514943 0.857224 517.293 104.032)" stroke="black" />
		</g>
		<g id="CBF10">
			<text id="CBF10_2" fill="black" font-family="Inter" font-size="12" letter-spacing="0em">
				<tspan x="377" y="116.864">
					CBF10
				</tspan>
			</text>
			<path id="Ellipse 44" d="M376.823 97.1346C376.823 101.037 373.871 104.143 370.299 104.143C366.727 104.143 363.775 101.037 363.775 97.1346C363.775 93.2319 366.727 90.126 370.299 90.126C373.871 90.126 376.823 93.2319 376.823 97.1346Z" stroke="black" />
			<path id="Ellipse 43" d="M376.823 125.668C376.823 129.57 373.871 132.676 370.299 132.676C366.727 132.676 363.775 129.57 363.775 125.668C363.775 121.765 366.727 118.659 370.299 118.659C373.871 118.659 376.823 121.765 376.823 125.668Z" stroke="black" />
			<path id="Vector 11_13" d="M361.701 92.3057L355.607 100.086C350.844 106.167 350.316 114.554 354.28 121.184V121.184C354.948 122.301 355.731 123.345 356.616 124.3L361.701 129.783" stroke="black" />
			<line id="Line 225_2" y1="-0.5" x2="15.8657" y2="-0.5" transform="matrix(0.605221 0.796058 -0.514943 0.857224 350.225 99.6101)" stroke="black" />
			<line id="Line 226_2" y1="-0.5" x2="15.8657" y2="-0.5" transform="matrix(0.605221 0.796058 -0.514943 0.857224 349.229 104.032)" stroke="black" />
		</g>
		<g id="CBF9">
			<text id="CBF9_2" fill="black" font-family="Inter" font-size="12" letter-spacing="0em">
				<tspan x="121" y="116.864">
					CBF9
				</tspan>
			</text>
			<path id="Ellipse 41" d="M118.901 97.1346C118.901 101.037 115.949 104.143 112.377 104.143C108.805 104.143 105.854 101.037 105.854 97.1346C105.854 93.2319 108.805 90.126 112.377 90.126C115.949 90.126 118.901 93.2319 118.901 97.1346Z" stroke="black" />
			<path id="Ellipse 42" d="M118.901 125.668C118.901 129.57 115.949 132.676 112.377 132.676C108.805 132.676 105.854 129.57 105.854 125.668C105.854 121.765 108.805 118.659 112.377 118.659C115.949 118.659 118.901 121.765 118.901 125.668Z" stroke="black" />
			<path id="Vector 11_14" d="M103.701 93.3062L97.6068 101.087C92.8436 107.168 92.3162 115.554 96.2798 122.184V122.184C96.9478 123.301 97.7307 124.346 98.6159 125.3L103.701 130.783" stroke="black" />
			<line id="Line 227_2" y1="-0.5" x2="15.8657" y2="-0.5" transform="matrix(0.605221 0.796058 -0.514943 0.857224 92.3027 99.6101)" stroke="black" />
			<line id="Line 228_2" y1="-0.5" x2="15.8657" y2="-0.5" transform="matrix(0.605221 0.796058 -0.514943 0.857224 91.3066 104.032)" stroke="black" />
		</g>
		<g id="CBF5">
			<path id="Ellipse 25" d="M1811.5 96.4811C1811.5 100.167 1808.38 103.188 1804.5 103.188C1800.62 103.188 1797.5 100.167 1797.5 96.4811C1797.5 92.7954 1800.62 89.7739 1804.5 89.7739C1808.38 89.7739 1811.5 92.7954 1811.5 96.4811Z" stroke="black" />
			<path id="Ellipse 26" d="M1811.5 131.941C1811.5 135.626 1808.38 138.648 1804.5 138.648C1800.62 138.648 1797.5 135.626 1797.5 131.941C1797.5 128.255 1800.62 125.233 1804.5 125.233C1808.38 125.233 1811.5 128.255 1811.5 131.941Z" stroke="black" />
			<text id="CBF37" fill="black" font-family="Open Sans" font-size="12" letter-spacing="0em">
				<tspan x="1812" y="118.389">
					CBF37
				</tspan>
			</text>
			<path id="Vector 11_15" d="M1793.7 95.0398L1787.61 102.82C1782.84 108.902 1782.32 117.288 1786.28 123.918V123.918C1786.95 125.035 1787.73 126.079 1788.62 127.034L1793.7 132.517" stroke="black" />
			<line id="Line 55" y1="-0.5" x2="13.8183" y2="-0.5" transform="matrix(0.74639 0.665509 -0.663218 0.748427 1780.15 105.168)" stroke="black" />
			<line id="Line 56" y1="-0.5" x2="13.8183" y2="-0.5" transform="matrix(0.74639 0.665509 -0.663218 0.748427 1779 108.617)" stroke="black" />
		</g>
		<g id="CBF6">
			<path id="Ellipse 27" d="M1931.5 132.037C1931.5 135.722 1928.38 138.744 1924.5 138.744C1920.62 138.744 1917.5 135.722 1917.5 132.037C1917.5 128.351 1920.62 125.329 1924.5 125.329C1928.38 125.329 1931.5 128.351 1931.5 132.037Z" stroke="black" />
			<path id="Ellipse 28" d="M1931.5 96.4811C1931.5 100.167 1928.38 103.188 1924.5 103.188C1920.62 103.188 1917.5 100.167 1917.5 96.4811C1917.5 92.7954 1920.62 89.7739 1924.5 89.7739C1928.38 89.7739 1931.5 92.7954 1931.5 96.4811Z" stroke="black" />
			<text id="CBF38" fill="black" font-family="Open Sans" font-size="12" letter-spacing="0em">
				<tspan x="1932" y="118.389">
					CBF38
				</tspan>
			</text>
			<path id="Vector 12" d="M1914.23 95.0398L1908.13 102.82C1903.37 108.902 1902.84 117.288 1906.81 123.918V123.918C1907.47 125.035 1908.26 126.079 1909.14 127.034L1914.23 132.517" stroke="black" />
			<line id="Line 57" y1="-0.5" x2="13.8183" y2="-0.5" transform="matrix(0.74639 0.665509 -0.663218 0.748427 1901.15 105.168)" stroke="black" />
			<line id="Line 58" y1="-0.5" x2="13.8183" y2="-0.5" transform="matrix(0.74639 0.665509 -0.663218 0.748427 1900 108.617)" stroke="black" />
		</g>
		<g id="CBF5_2">
			<path id="Ellipse 25_2" d="M2031.5 96.4811C2031.5 100.167 2028.38 103.188 2024.5 103.188C2020.62 103.188 2017.5 100.167 2017.5 96.4811C2017.5 92.7954 2020.62 89.7739 2024.5 89.7739C2028.38 89.7739 2031.5 92.7954 2031.5 96.4811Z" stroke="black" />
			<path id="Ellipse 26_2" d="M2031.5 132.037C2031.5 135.722 2028.38 138.744 2024.5 138.744C2020.62 138.744 2017.5 135.722 2017.5 132.037C2017.5 128.351 2020.62 125.329 2024.5 125.329C2028.38 125.329 2031.5 128.351 2031.5 132.037Z" stroke="black" />
			<text id="CBF39" fill="black" font-family="Open Sans" font-size="12" letter-spacing="0em">
				<tspan x="2032" y="118.389">
					CBF39
				</tspan>
			</text>
			<path id="Vector 11_16" d="M2013.7 95.0398L2007.61 102.82C2002.84 108.902 2002.32 117.288 2006.28 123.918V123.918C2006.95 125.035 2007.73 126.079 2008.62 127.034L2013.7 132.517" stroke="black" />
			<line id="Line 55_2" y1="-0.5" x2="13.8183" y2="-0.5" transform="matrix(0.74639 0.665509 -0.663218 0.748427 2000.15 105.168)" stroke="black" />
			<line id="Line 56_2" y1="-0.5" x2="13.8183" y2="-0.5" transform="matrix(0.74639 0.665509 -0.663218 0.748427 1999 108.617)" stroke="black" />
		</g>
		<g id="CBF6_2">
			<path id="Ellipse 27_2" d="M2151.5 132.037C2151.5 135.722 2148.38 138.744 2144.5 138.744C2140.62 138.744 2137.5 135.722 2137.5 132.037C2137.5 128.351 2140.62 125.329 2144.5 125.329C2148.38 125.329 2151.5 128.351 2151.5 132.037Z" stroke="black" />
			<path id="Ellipse 28_2" d="M2151.5 96.4811C2151.5 100.167 2148.38 103.188 2144.5 103.188C2140.62 103.188 2137.5 100.167 2137.5 96.4811C2137.5 92.7954 2140.62 89.7739 2144.5 89.7739C2148.38 89.7739 2151.5 92.7954 2151.5 96.4811Z" stroke="black" />
			<text id="CBF40" fill="black" font-family="Open Sans" font-size="12" letter-spacing="0em">
				<tspan x="2152" y="118.389">
					CBF40
				</tspan>
			</text>
			<path id="Vector 12_2" d="M2134.23 95.0398L2128.13 102.82C2123.37 108.902 2122.84 117.288 2126.81 123.918V123.918C2127.47 125.035 2128.26 126.079 2129.14 127.034L2134.23 132.517" stroke="black" />
			<line id="Line 57_2" y1="-0.5" x2="13.8183" y2="-0.5" transform="matrix(0.74639 0.665509 -0.663218 0.748427 2121.15 105.168)" stroke="black" />
			<line id="Line 58_2" y1="-0.5" x2="13.8183" y2="-0.5" transform="matrix(0.74639 0.665509 -0.663218 0.748427 2120 108.617)" stroke="black" />
		</g>
		<g id="P1A">
			<rect id="P1A_BOX" x="0.5" y="187.5" width="48.1653" height="51.5605" fill="#C6C6C6" stroke="black" />
			<path id="Vector 19" d="M7.02344 200.039V200.039C7.68569 193.903 16.5726 193.947 17.5589 200.039V200.039" stroke="black" />
			<path id="Vector 20" d="M17.5586 199.288V199.288C18.4885 205.502 27.3297 205.821 28.7059 199.691L28.7964 199.288" stroke="black" />
			<line id="Line 82" y1="-0.5" x2="69.9148" y2="-0.5" transform="matrix(0.683126 -0.730301 0.683126 0.730301 1.4043 239.835)" stroke="black" />
			<line id="Line 83" x1="28.0938" y1="224.317" x2="43.5457" y2="224.317" stroke="black" />
			<line id="Line 84" x1="28.0938" y1="228.823" x2="43.5457" y2="228.823" stroke="black" />
			<text id="P1A_2" fill="black" font-family="Open Sans" font-size="14" font-weight="bold" letter-spacing="0em">
				<tspan x="28" y="255.931">
					P1A
				</tspan>
			</text>
		</g>
		<g id="P1B">
			<rect id="P1B_BOX" x="59.498" y="187.774" width="48.1653" height="51.5605" fill="#C6C6C6" stroke="black" />
			<path id="Vector 17" d="M66.0215 200.039V200.039C66.6837 193.903 75.5706 193.947 76.5569 200.039V200.039" stroke="black" />
			<path id="Vector 18" d="M76.5566 199.288V199.288C77.4866 205.502 86.3278 205.821 87.7039 199.691L87.7944 199.288" stroke="black" />
			<line id="Line 79" y1="-0.5" x2="69.9148" y2="-0.5" transform="matrix(0.683126 -0.730301 0.683126 0.730301 60.4023 239.835)" stroke="black" />
			<line id="Line 80" x1="87.0938" y1="224.317" x2="102.546" y2="224.317" stroke="black" />
			<line id="Line 81" x1="87.0938" y1="228.823" x2="102.546" y2="228.823" stroke="black" />
			<text id="P1B_2" fill="black" font-family="Open Sans" font-size="14" font-weight="bold" letter-spacing="0em">
				<tspan x="87" y="255.931">
					P1B
				</tspan>
			</text>
		</g>
		<g id="P1C">
			<rect id="P1C_BOX" x="118.496" y="187.774" width="48.1653" height="51.5605" fill="#C6C6C6" stroke="black" />
			<path id="Vector 15" d="M125.02 200.039V200.039C125.682 193.903 134.569 193.947 135.555 200.039V200.039" stroke="black" />
			<path id="Vector 16" d="M135.555 199.288V199.288C136.485 205.502 145.326 205.821 146.702 199.691L146.792 199.288" stroke="black" />
			<line id="Line 76" y1="-0.5" x2="69.9148" y2="-0.5" transform="matrix(0.683126 -0.730301 0.683126 0.730301 119.4 239.835)" stroke="black" />
			<line id="Line 77" x1="146.09" y1="224.317" x2="161.542" y2="224.317" stroke="black" />
			<line id="Line 78" x1="146.09" y1="228.823" x2="161.542" y2="228.823" stroke="black" />
			<text id="P1C_2" fill="black" font-family="Open Sans" font-size="14" font-weight="bold" letter-spacing="0em">
				<tspan x="146" y="255.931">
					P1C
				</tspan>
			</text>
		</g>
		<g id="P1D">
			<rect id="P1D_BOX" x="177.496" y="187.5" width="48.1653" height="51.5605" fill="#C6C6C6" stroke="black" />
			<path id="Vector 21" d="M184.02 200.039V200.039C184.682 193.903 193.569 193.947 194.555 200.039V200.039" stroke="black" />
			<path id="Vector 22" d="M194.555 199.288V199.288C195.485 205.502 204.326 205.821 205.702 199.691L205.792 199.288" stroke="black" />
			<line id="Line 85" y1="-0.5" x2="69.9148" y2="-0.5" transform="matrix(0.683126 -0.730301 0.683126 0.730301 178.4 239.835)" stroke="black" />
			<line id="Line 86" x1="205.09" y1="224.318" x2="220.542" y2="224.318" stroke="black" />
			<line id="Line 87" x1="205.09" y1="228.823" x2="220.542" y2="228.823" stroke="black" />
			<text id="P1D_2" fill="black" font-family="Open Sans" font-size="14" font-weight="bold" letter-spacing="0em">
				<tspan x="205" y="255.931">
					P1D
				</tspan>
			</text>
		</g>
		<g id="P2A">
			<rect id="P2A_BOX" x="258.422" y="187.738" width="48.1653" height="51.5605" fill="#C6C6C6" stroke="black" />
			<path id="Vector 27" d="M264.945 200.039V200.039C265.608 193.903 274.494 193.947 275.481 200.039V200.039" stroke="black" />
			<path id="Vector 28" d="M275.48 199.288V199.288C276.41 205.502 285.252 205.821 286.628 199.691L286.718 199.288" stroke="black" />
			<line id="Line 113" y1="-0.5" x2="69.9148" y2="-0.5" transform="matrix(0.683126 -0.730301 0.683126 0.730301 259.326 239.835)" stroke="black" />
			<line id="Line 114" x1="286.016" y1="224.317" x2="301.468" y2="224.317" stroke="black" />
			<line id="Line 115" x1="286.016" y1="228.823" x2="301.468" y2="228.823" stroke="black" />
			<text id="P2A_2" fill="black" font-family="Open Sans" font-size="14" font-weight="bold" letter-spacing="0em">
				<tspan x="287" y="255.931">
					P2A
				</tspan>
			</text>
		</g>
		<g id="P2B">
			<rect id="P2B_BOX" x="317.42" y="187.738" width="48.1653" height="51.5605" fill="#C6C6C6" stroke="black" />
			<path id="Vector 25" d="M323.943 200.039V200.039C324.606 193.903 333.492 193.947 334.479 200.039V200.039" stroke="black" />
			<path id="Vector 26" d="M334.479 199.288V199.288C335.408 205.502 344.25 205.821 345.626 199.691L345.716 199.288" stroke="black" />
			<line id="Line 110" y1="-0.5" x2="69.9148" y2="-0.5" transform="matrix(0.683126 -0.730301 0.683126 0.730301 318.324 239.835)" stroke="black" />
			<line id="Line 111" x1="345.014" y1="224.317" x2="360.466" y2="224.317" stroke="black" />
			<line id="Line 112" x1="345.014" y1="228.823" x2="360.466" y2="228.823" stroke="black" />
			<text id="P2B_2" fill="black" font-family="Open Sans" font-size="14" font-weight="bold" letter-spacing="0em">
				<tspan x="347" y="255.931">
					P2B
				</tspan>
			</text>
		</g>
		<g id="P2C">
			<rect id="P2C_BOX" x="376.418" y="187.739" width="48.1653" height="51.5605" fill="#C6C6C6" stroke="black" />
			<path id="Vector 23" d="M382.941 200.039V200.039C383.604 193.903 392.491 193.947 393.477 200.039V200.039" stroke="black" />
			<path id="Vector 24" d="M393.477 199.288V199.288C394.406 205.502 403.248 205.821 404.624 199.691L404.714 199.288" stroke="black" />
			<line id="Line 107" y1="-0.5" x2="69.9148" y2="-0.5" transform="matrix(0.683126 -0.730301 0.683126 0.730301 377.322 239.835)" stroke="black" />
			<line id="Line 108" x1="404.012" y1="224.318" x2="419.464" y2="224.318" stroke="black" />
			<line id="Line 109" x1="404.012" y1="228.823" x2="419.464" y2="228.823" stroke="black" />
			<text id="P2C_2" fill="black" font-family="Open Sans" font-size="14" font-weight="bold" letter-spacing="0em">
				<tspan x="405" y="255.931">
					P2C
				</tspan>
			</text>
		</g>
		<g id="P2D">
			<rect id="P2D_BOX" x="435.416" y="187.738" width="48.1653" height="51.5605" fill="#C6C6C6" stroke="black" />
			<path id="Vector 29" d="M441.939 200.039V200.039C442.602 193.903 451.489 193.947 452.475 200.039V200.039" stroke="black" />
			<path id="Vector 30" d="M452.475 199.288V199.288C453.405 205.502 462.246 205.821 463.622 199.691L463.712 199.288" stroke="black" />
			<line id="Line 116" y1="-0.5" x2="69.9148" y2="-0.5" transform="matrix(0.683126 -0.730301 0.683126 0.730301 436.32 239.835)" stroke="black" />
			<line id="Line 117" x1="463.01" y1="224.317" x2="478.462" y2="224.317" stroke="black" />
			<line id="Line 118" x1="463.01" y1="228.823" x2="478.462" y2="228.823" stroke="black" />
			<text id="P2D_2" fill="black" font-family="Open Sans" font-size="14" font-weight="bold" letter-spacing="0em">
				<tspan x="464" y="255.931">
					P2D
				</tspan>
			</text>
		</g>
		<g id="P5">
			<rect id="P5_BOX" x="514.984" y="187.738" width="48.1653" height="51.5605" fill="#C6C6C6" stroke="black" />
			<path id="Vector 33" d="M521.508 200.039V200.039C522.17 193.903 531.057 193.947 532.043 200.039V200.039" stroke="black" />
			<path id="Vector 34" d="M532.043 199.288V199.288C532.973 205.502 541.814 205.821 543.19 199.691L543.281 199.288" stroke="black" />
			<line id="Line 129" y1="-0.5" x2="69.9148" y2="-0.5" transform="matrix(0.683126 -0.730301 0.683126 0.730301 515.889 239.835)" stroke="black" />
			<line id="Line 130" x1="542.578" y1="224.317" x2="558.03" y2="224.317" stroke="black" />
			<line id="Line 131" x1="542.578" y1="228.823" x2="558.03" y2="228.823" stroke="black" />
			<text id="P5_2" fill="black" font-family="Open Sans" font-size="14" font-weight="bold" letter-spacing="0em">
				<tspan x="543" y="255.931">
					P5
				</tspan>
			</text>
		</g>
		<g id="P6">
			<rect id="P6_BOX" x="583.721" y="187.738" width="48.1653" height="51.5605" fill="#C6C6C6" stroke="black" />
			<path id="Vector 35" d="M590.244 200.039V200.039C590.906 193.903 599.793 193.947 600.78 200.039V200.039" stroke="black" />
			<path id="Vector 36" d="M600.779 199.288V199.288C601.709 205.502 610.55 205.821 611.927 199.691L612.017 199.288" stroke="black" />
			<line id="Line 132" y1="-0.5" x2="69.9148" y2="-0.5" transform="matrix(0.683126 -0.730301 0.683126 0.730301 584.625 239.835)" stroke="black" />
			<line id="Line 133" x1="611.316" y1="224.317" x2="626.768" y2="224.317" stroke="black" />
			<line id="Line 134" x1="611.316" y1="228.823" x2="626.768" y2="228.823" stroke="black" />
			<text id="P6_2" fill="black" font-family="Open Sans" font-size="14" font-weight="bold" letter-spacing="0em">
				<tspan x="614" y="255.931">
					P6
				</tspan>
			</text>
		</g>
		<g id="P7A">
			<rect id="P7A_BOX" x="665.432" y="186.774" width="48.1653" height="51.5605" fill="#C6C6C6" stroke="black" />
			<path id="Vector 37" d="M671.955 199.039V199.039C672.617 192.903 681.504 192.947 682.491 199.039V199.039" stroke="black" />
			<path id="Vector 38" d="M682.49 198.288V198.288C683.42 204.502 692.261 204.821 693.638 198.691L693.728 198.288" stroke="black" />
			<line id="Line 135" y1="-0.5" x2="69.9148" y2="-0.5" transform="matrix(0.683126 -0.730301 0.683126 0.730301 666.336 238.835)" stroke="black" />
			<line id="Line 136" x1="693.025" y1="223.317" x2="708.477" y2="223.317" stroke="black" />
			<line id="Line 137" x1="693.025" y1="227.823" x2="708.477" y2="227.823" stroke="black" />
			<text id="P7A_2" fill="black" font-family="Open Sans" font-size="14" font-weight="bold" letter-spacing="0em">
				<tspan x="693" y="254.931">
					P7A
				</tspan>
			</text>
		</g>
		<g id="P7B">
			<rect id="P7B_BOX" x="737.572" y="186.774" width="48.1653" height="51.5605" fill="#C6C6C6" stroke="black" />
			<path id="Vector 39" d="M744.096 199.039V199.039C744.758 192.903 753.645 192.947 754.631 199.039V199.039" stroke="black" />
			<path id="Vector 40" d="M754.631 198.288V198.288C755.561 204.502 764.402 204.821 765.778 198.691L765.869 198.288" stroke="black" />
			<line id="Line 138" y1="-0.5" x2="69.9148" y2="-0.5" transform="matrix(0.683126 -0.730301 0.683126 0.730301 738.479 238.835)" stroke="black" />
			<line id="Line 139" x1="765.168" y1="223.317" x2="780.62" y2="223.317" stroke="black" />
			<line id="Line 140" x1="765.168" y1="227.823" x2="780.62" y2="227.823" stroke="black" />
			<text id="P7B_2" fill="black" font-family="Open Sans" font-size="14" font-weight="bold" letter-spacing="0em">
				<tspan x="768" y="254.931">
					P7B
				</tspan>
			</text>
		</g>
		<g id="P8A">
			<rect id="P8A_BOX" x="824.432" y="186.774" width="48.1653" height="51.5605" fill="#C6C6C6" stroke="black" />
			<path id="Vector 37_2" d="M830.955 199.039V199.039C831.617 192.903 840.504 192.947 841.491 199.039V199.039" stroke="black" />
			<path id="Vector 38_2" d="M841.49 198.288V198.288C842.42 204.502 851.261 204.821 852.638 198.691L852.728 198.288" stroke="black" />
			<line id="Line 135_2" y1="-0.5" x2="69.9148" y2="-0.5" transform="matrix(0.683126 -0.730301 0.683126 0.730301 825.336 238.835)" stroke="black" />
			<line id="Line 136_2" x1="852.025" y1="223.317" x2="867.477" y2="223.317" stroke="black" />
			<line id="Line 137_2" x1="852.025" y1="227.823" x2="867.477" y2="227.823" stroke="black" />
			<text id="P8A_2" fill="black" font-family="Open Sans" font-size="14" font-weight="bold" letter-spacing="0em">
				<tspan x="852" y="254.931">
					P8A
				</tspan>
			</text>
		</g>
		<g id="P8B">
			<rect id="P8B_BOX" x="896.572" y="186.774" width="48.1653" height="51.5605" fill="#C6C6C6" stroke="black" />
			<path id="Vector 39_2" d="M903.096 199.039V199.039C903.758 192.903 912.645 192.947 913.631 199.039V199.039" stroke="black" />
			<path id="Vector 40_2" d="M913.631 198.288V198.288C914.561 204.502 923.402 204.821 924.778 198.691L924.869 198.288" stroke="black" />
			<line id="Line 138_2" y1="-0.5" x2="69.9148" y2="-0.5" transform="matrix(0.683126 -0.730301 0.683126 0.730301 897.479 238.835)" stroke="black" />
			<line id="Line 139_2" x1="924.168" y1="223.317" x2="939.62" y2="223.317" stroke="black" />
			<line id="Line 140_2" x1="924.168" y1="227.823" x2="939.62" y2="227.823" stroke="black" />
			<text id="P8B_2" fill="black" font-family="Open Sans" font-size="14" font-weight="bold" letter-spacing="0em">
				<tspan x="927" y="254.931">
					P8B
				</tspan>
			</text>
		</g>
		<g id="P13">
			<rect id="P13_BOX" x="986.475" y="186.774" width="48.1653" height="51.5605" fill="#C6C6C6" stroke="black" />
			<path id="Vector 41" d="M992.998 199.039V199.039C993.66 192.903 1002.55 192.947 1003.53 199.039V199.039" stroke="black" />
			<path id="Vector 42" d="M1003.53 198.288V198.288C1004.46 204.502 1013.3 204.821 1014.68 198.691L1014.77 198.288" stroke="black" />
			<line id="Line 141" y1="-0.5" x2="69.9148" y2="-0.5" transform="matrix(0.683126 -0.730301 0.683126 0.730301 987.379 238.835)" stroke="black" />
			<line id="Line 142" x1="1014.07" y1="223.317" x2="1029.52" y2="223.317" stroke="black" />
			<line id="Line 143" x1="1014.07" y1="227.823" x2="1029.52" y2="227.823" stroke="black" />
			<text id="P13_2" fill="black" font-family="Open Sans" font-size="14" font-weight="bold" letter-spacing="0em">
				<tspan x="1015.47" y="255.231">
					P13
				</tspan>
			</text>
		</g>
		<g id="P14">
			<rect id="P14_BOX" x="1054.02" y="186.774" width="48.1653" height="51.5605" fill="#C6C6C6" stroke="black" />
			<path id="Vector 43" d="M1060.54 199.039V199.039C1061.38 192.209 1071.24 192.271 1072.48 199.039V199.039" stroke="black" />
			<path id="Vector 44" d="M1072.48 198.288V198.288C1073.63 205.118 1083.3 205.508 1085 198.793L1085.12 198.288" stroke="black" />
			<path id="Line 152" d="M1054.43 238.304L1102.68 187.025" stroke="black" />
			<line id="Line 153" x1="1081.61" y1="223.317" x2="1098.47" y2="223.317" stroke="black" />
			<line id="Line 154" x1="1081.61" y1="227.823" x2="1098.47" y2="227.823" stroke="black" />
			<text id="P14_2" fill="black" font-family="Open Sans" font-size="14" font-weight="bold" letter-spacing="0em">
				<tspan x="1083" y="254.931">
					P14
				</tspan>
			</text>
		</g>
		<g id="P15">
			<rect id="P15_BOX" x="1133.37" y="186.774" width="48.1653" height="51.5605" fill="#C6C6C6" stroke="black" />
			<path id="Vector 45" d="M1139.9 199.039V199.039C1140.73 192.209 1150.59 192.271 1151.84 199.039V199.039" stroke="black" />
			<path id="Vector 46" d="M1151.84 198.288V198.288C1152.99 205.118 1162.66 205.508 1164.35 198.793L1164.48 198.288" stroke="black" />
			<path id="Line 157" d="M1133.78 238.304L1181.34 187.776" stroke="black" />
			<line id="Line 158" x1="1160.97" y1="223.317" x2="1177.82" y2="223.317" stroke="black" />
			<line id="Line 159" x1="1160.97" y1="227.823" x2="1177.82" y2="227.823" stroke="black" />
			<text id="P15_2" fill="black" font-family="Open Sans" font-size="14" font-weight="bold" letter-spacing="0em">
				<tspan x="1161" y="254.931">
					P15
				</tspan>
			</text>
		</g>
		<g id="P16">
			<rect id="P16_BOX" x="1202.5" y="186.78" width="48.1653" height="51.5605" fill="#C6C6C6" stroke="black" />
			<path id="Vector 47" d="M1209.02 199.045V199.045C1209.86 192.215 1219.72 192.277 1220.96 199.045V199.045" stroke="black" />
			<path id="Vector 48" d="M1220.96 198.294V198.294C1222.11 205.124 1231.78 205.514 1233.48 198.799L1233.61 198.294" stroke="black" />
			<path id="Line 162" d="M1202.7 238.09L1250.26 187.691" stroke="black" />
			<line id="Line 163" x1="1230.09" y1="223.323" x2="1246.95" y2="223.323" stroke="black" />
			<line id="Line 164" x1="1230.09" y1="227.829" x2="1246.95" y2="227.829" stroke="black" />
			<text id="P16_2" fill="black" font-family="Open Sans" font-size="14" font-weight="bold" letter-spacing="0em">
				<tspan x="1233" y="254.931">
					P16
				</tspan>
			</text>
		</g>
		<g id="P17A">
			<rect id="P17A_BOX" x="1284.56" y="186.774" width="49.57" height="51.5605" fill="#C6C6C6" stroke="black" />
			<path id="Vector 49" d="M1291.08 199.04V199.04C1291.92 192.209 1301.78 192.271 1303.02 199.04V199.04" stroke="black" />
			<path id="Vector 50" d="M1303.02 198.288V198.288C1304.17 205.118 1313.84 205.508 1315.54 198.793L1315.66 198.288" stroke="black" />
			<line id="Line 167" y1="-0.5" x2="70.9077" y2="-0.5" transform="matrix(0.693371 -0.720581 0.672764 0.739857 1285.46 238.835)" stroke="black" />
			<line id="Line 168" x1="1312.15" y1="223.318" x2="1329.01" y2="223.318" stroke="black" />
			<line id="Line 169" x1="1312.15" y1="227.823" x2="1329.01" y2="227.823" stroke="black" />
			<text id="P17A_2" fill="black" font-family="Open Sans" font-size="14" font-weight="bold" letter-spacing="0em">
				<tspan x="1312" y="254.931">
					P17A
				</tspan>
			</text>
		</g>
		<g id="P17B">
			<rect id="P17B_BOX" x="1360.41" y="186.774" width="49.57" height="51.5605" fill="#C6C6C6" stroke="black" />
			<line id="Line 432" y1="-0.5" x2="70.9077" y2="-0.5" transform="matrix(0.693371 -0.720581 0.672764 0.739857 1361.32 238.835)" stroke="black" />
			<path id="Vector 75" d="M1366.94 199.039V199.039C1367.77 192.209 1377.63 192.271 1378.88 199.039V199.039" stroke="black" />
			<path id="Vector 76" d="M1378.88 198.288V198.288C1380.02 205.118 1389.69 205.508 1391.39 198.793L1391.52 198.288" stroke="black" />
			<line id="Line 235" x1="1388.01" y1="223.317" x2="1404.86" y2="223.317" stroke="black" />
			<line id="Line 236" x1="1388.01" y1="227.823" x2="1404.86" y2="227.823" stroke="black" />
			<text id="P17B_2" fill="black" font-family="Open Sans" font-size="14" font-weight="bold" letter-spacing="0em">
				<tspan x="1388" y="254.931">
					P17B
				</tspan>
			</text>
		</g>
		<g id="P18A">
			<rect id="P18A_BOX" x="1441.41" y="186.774" width="49.57" height="51.5605" fill="#C6C6C6" stroke="black" />
			<path id="Vector 77" d="M1447.93 199.04V199.04C1448.77 192.209 1458.63 192.271 1459.87 199.04V199.04" stroke="black" />
			<path id="Vector 78" d="M1459.87 198.288V198.288C1461.02 205.118 1470.69 205.508 1472.39 198.793L1472.51 198.288" stroke="black" />
			<text id="P18A_2" fill="black" font-family="Open Sans" font-size="14" font-weight="bold" letter-spacing="0em">
				<tspan x="1469" y="254.931">
					P18A
				</tspan>
			</text>
			<line id="Line 245" x1="1469" y1="223.318" x2="1485.86" y2="223.318" stroke="black" />
			<line id="Line 246" x1="1469" y1="227.823" x2="1485.86" y2="227.823" stroke="black" />
			<line id="Line 244" y1="-0.5" x2="70.9077" y2="-0.5" transform="matrix(0.693371 -0.720581 0.672764 0.739857 1442.31 238.835)" stroke="black" />
		</g>
		<g id="P18B">
			<rect id="P18B_BOX" x="1517.27" y="186.774" width="49.57" height="51.5605" fill="#C6C6C6" stroke="black" />
			<line id="Line 431" y1="-0.5" x2="70.9077" y2="-0.5" transform="matrix(0.693371 -0.720581 0.672764 0.739857 1518.17 238.835)" stroke="black" />
			<path id="Vector 79" d="M1523.79 199.039V199.039C1524.62 192.209 1534.49 192.271 1535.73 199.039V199.039" stroke="black" />
			<path id="Vector 80" d="M1535.73 198.288V198.288C1536.88 205.118 1546.55 205.508 1548.25 198.793L1548.37 198.288" stroke="black" />
			<text id="P18B_2" fill="black" font-family="Open Sans" font-size="14" font-weight="bold" letter-spacing="0em">
				<tspan x="1545" y="253.931">
					P18B
				</tspan>
			</text>
			<line id="Line 247" x1="1544.86" y1="223.317" x2="1561.72" y2="223.317" stroke="black" />
			<line id="Line 248" x1="1544.86" y1="227.823" x2="1561.72" y2="227.823" stroke="black" />
		</g>
		<g id="P19">
			<rect id="P19_BOX" x="1597.5" y="187.78" width="49.57" height="51.5605" fill="#C6C6C6" stroke="black" />
			<path id="Vector 106" d="M1604.02 200.045V200.045C1604.86 193.215 1614.72 193.277 1615.96 200.045V200.045" stroke="black" />
			<path id="Vector 107" d="M1615.96 199.294V199.294C1617.11 206.124 1626.78 206.514 1628.48 199.799L1628.61 199.294" stroke="black" />
			<line id="Line 310" y1="-0.5" x2="71.3688" y2="-0.5" transform="matrix(0.683126 -0.730301 0.683126 0.730301 1598.4 239.841)" stroke="black" />
			<line id="Line 311" x1="1625.1" y1="224.323" x2="1641.95" y2="224.323" stroke="black" />
			<line id="Line 312" x1="1625.1" y1="228.829" x2="1641.95" y2="228.829" stroke="black" />
			<text id="P19_2" fill="black" font-family="Open Sans" font-size="14" font-weight="bold" letter-spacing="0em">
				<tspan x="1628" y="253.931">
					P19
				</tspan>
			</text>
		</g>
		<g id="P20">
			<rect id="P20_BOX" x="1667.76" y="187.729" width="49.57" height="51.5605" fill="#C6C6C6" stroke="black" />
			<path id="Vector 109" d="M1674.28 199.994V199.994C1675.12 193.164 1684.98 193.226 1686.22 199.994V199.994" stroke="black" />
			<path id="Vector 110" d="M1686.22 199.243V199.243C1687.37 206.073 1697.04 206.463 1698.74 199.748L1698.87 199.243" stroke="black" />
			<line id="Line 317" y1="-0.5" x2="70.9077" y2="-0.5" transform="matrix(0.693371 -0.720581 0.672764 0.739857 1668.66 239.79)" stroke="black" />
			<line id="Line 318" x1="1695.35" y1="224.272" x2="1712.21" y2="224.272" stroke="black" />
			<line id="Line 319" x1="1695.35" y1="228.778" x2="1712.21" y2="228.778" stroke="black" />
			<text id="P20_2" fill="black" font-family="Open Sans" font-size="14" font-weight="bold" letter-spacing="0em">
				<tspan x="1699" y="254.931">
					P20
				</tspan>
			</text>
		</g>
		<g id="T9">
			<path id="T9_CIRCLE2" d="M1820.5 197.381C1820.5 205.313 1813.8 211.776 1805.5 211.776C1797.2 211.776 1790.5 205.313 1790.5 197.381C1790.5 189.45 1797.2 182.986 1805.5 182.986C1813.8 182.986 1820.5 189.45 1820.5 197.381Z" fill="#9C9C9C" stroke="black" />
			<path id="T9_CIRCLE1" d="M1816.5 217.561C1816.5 223.37 1811.59 228.112 1805.5 228.112C1799.41 228.112 1794.5 223.37 1794.5 217.561C1794.5 211.753 1799.41 207.01 1805.5 207.01C1811.59 207.01 1816.5 211.753 1816.5 217.561Z" fill="#9C9C9C" stroke="black" />
			<text id="T9_2" fill="black" font-family="Inter" font-size="12" font-weight="bold" letter-spacing="0em">
				<tspan x="1826" y="194.35">
					T9
				</tspan>
			</text>
			<text id="500VA 230V/110V" fill="black" font-family="Inter" font-size="8" letter-spacing="0em">
				<tspan x="1826" y="206.732">
					500VA
				</tspan>
				<tspan x="1826" y="216.732">
					230V/110V
				</tspan>
			</text>
		</g>
		<g id="T10">
			<path id="T10_CIRCLE2" d="M1939.5 197.381C1939.5 205.313 1932.8 211.776 1924.5 211.776C1916.2 211.776 1909.5 205.313 1909.5 197.381C1909.5 189.45 1916.2 182.986 1924.5 182.986C1932.8 182.986 1939.5 189.45 1939.5 197.381Z" fill="#9C9C9C" stroke="black" />
			<path id="T10_CIRCLE1" d="M1935.5 217.561C1935.5 223.37 1930.59 228.112 1924.5 228.112C1918.41 228.112 1913.5 223.37 1913.5 217.561C1913.5 211.753 1918.41 207.01 1924.5 207.01C1930.59 207.01 1935.5 211.753 1935.5 217.561Z" fill="#9C9C9C" stroke="black" />
			<text id="T10_2" fill="black" font-family="Inter" font-size="12" font-weight="bold" letter-spacing="0em">
				<tspan x="1946" y="194.369">
					T10
				</tspan>
			</text>
			<text id="500VA 230V/110V_2" fill="black" font-family="Inter" font-size="8" letter-spacing="0em">
				<tspan x="1946" y="206.732">
					500VA
				</tspan>
				<tspan x="1946" y="216.732">
					230V/110V
				</tspan>
			</text>
		</g>
		<g id="T11">
			<path id="T11_CIRCLE2" d="M2038.5 198.381C2038.5 206.313 2031.8 212.776 2023.5 212.776C2015.2 212.776 2008.5 206.313 2008.5 198.381C2008.5 190.45 2015.2 183.986 2023.5 183.986C2031.8 183.986 2038.5 190.45 2038.5 198.381Z" fill="#9C9C9C" stroke="black" />
			<path id="T11_CIRCLE1" d="M2034.5 218.561C2034.5 224.37 2029.59 229.112 2023.5 229.112C2017.41 229.112 2012.5 224.37 2012.5 218.561C2012.5 212.753 2017.41 208.01 2023.5 208.01C2029.59 208.01 2034.5 212.753 2034.5 218.561Z" fill="#9C9C9C" stroke="black" />
			<text id="T11_2" fill="black" font-family="Inter" font-size="12" font-weight="bold" letter-spacing="0em">
				<tspan x="2044" y="195.369">
					T11
				</tspan>
			</text>
			<text id="500VA 230V/110V_3" fill="black" font-family="Inter" font-size="8" letter-spacing="0em">
				<tspan x="2044" y="207.732">
					500VA
				</tspan>
				<tspan x="2044" y="217.732">
					230V/110V
				</tspan>
			</text>
		</g>
		<g id="T12">
			<path id="T12_CIRCLE2" d="M2159.5 197.628C2159.5 205.56 2152.8 212.023 2144.5 212.023C2136.2 212.023 2129.5 205.56 2129.5 197.628C2129.5 189.697 2136.2 183.233 2144.5 183.233C2152.8 183.233 2159.5 189.697 2159.5 197.628Z" fill="#9C9C9C" stroke="black" />
			<path id="T12_CIRCLE1" d="M2155.5 217.808C2155.5 223.617 2150.59 228.359 2144.5 228.359C2138.41 228.359 2133.5 223.617 2133.5 217.808C2133.5 212 2138.41 207.257 2144.5 207.257C2150.59 207.257 2155.5 212 2155.5 217.808Z" fill="#9C9C9C" stroke="black" />
			<text id="T12_2" fill="black" font-family="Inter" font-size="12" font-weight="bold" letter-spacing="0em">
				<tspan x="2166" y="194.617">
					T12
				</tspan>
			</text>
			<text id="500VA 230V/110V_4" fill="black" font-family="Inter" font-size="8" letter-spacing="0em">
				<tspan x="2158" y="212.89">
					500VA
				</tspan>
				<tspan x="2158" y="222.89">
					230V/110V
				</tspan>
			</text>
		</g>
		<g id="EARTH1">
			<circle id="EF_P5_P6" cx="630.5" cy="321.5" r="10" fill="#C6C6C6" stroke="black" />
			<line id="Line 463" x1="624.5" y1="324" x2="636.5" y2="324" stroke="black" stroke-linecap="round" />
			<path id="Line 464" d="M626 326H635" stroke="black" stroke-linecap="round" />
			<path id="Line 465" d="M627 328H634" stroke="black" stroke-linecap="round" />
			<path id="Line 466" d="M630.5 315V324" stroke="black" stroke-linecap="round" />
		</g>
		<g id="EARTH3">
			<circle id="EF_P7_P8" cx="911.5" cy="320.5" r="10" fill="#C6C6C6" stroke="black" />
			<line id="Line 463_2" x1="905.5" y1="323" x2="917.5" y2="323" stroke="black" stroke-linecap="round" />
			<path id="Line 464_2" d="M907 325H916" stroke="black" stroke-linecap="round" />
			<path id="Line 465_2" d="M908 327H915" stroke="black" stroke-linecap="round" />
			<path id="Line 466_2" d="M911.5 314V323" stroke="black" stroke-linecap="round" />
		</g>
		<g id="EARTH7">
			<circle id="EF_T9_T10" cx="1829.5" cy="312.233" r="10" fill="#C6C6C6" stroke="black" />
			<line id="Line 463_3" x1="1823.5" y1="314.733" x2="1835.5" y2="314.733" stroke="black" stroke-linecap="round" />
			<path id="Line 464_3" d="M1825 316.733H1834" stroke="black" stroke-linecap="round" />
			<path id="Line 465_3" d="M1826 318.733H1833" stroke="black" stroke-linecap="round" />
			<path id="Line 466_3" d="M1830 305.733C1830 305.457 1829.78 305.233 1829.5 305.233C1829.22 305.233 1829 305.457 1829 305.733H1830ZM1830 314.733V305.733H1829V314.733H1830Z" fill="black" />
		</g>
		<g id="EARTH8">
			<circle id="EF_T11_T12" cx="2045.5" cy="312.233" r="10" fill="#C6C6C6" stroke="black" />
			<line id="Line 463_4" x1="2039.5" y1="314.733" x2="2051.5" y2="314.733" stroke="black" stroke-linecap="round" />
			<path id="Line 464_4" d="M2041 316.733H2050" stroke="black" stroke-linecap="round" />
			<path id="Line 465_4" d="M2042 318.733H2049" stroke="black" stroke-linecap="round" />
			<path id="Line 466_4" d="M2046 305.733C2046 305.457 2045.78 305.233 2045.5 305.233C2045.22 305.233 2045 305.457 2045 305.733H2046ZM2046 314.733V305.733H2045V314.733H2046Z" fill="black" />
		</g>
		<g id="K3">
			<g id="K3_2">
				<path id="Line 10" d="M2088.5 281.465V311.254" stroke="black" stroke-width="3" stroke-linecap="round" />
				<path id="Line 11" d="M2079 290.113V302.606" stroke="black" stroke-width="3" />
				<path id="Ellipse 9" d="M2083.5 286.269C2083.5 288.628 2081.5 290.574 2079 290.574C2076.5 290.574 2074.5 288.628 2074.5 286.269C2074.5 283.91 2076.5 281.965 2079 281.965C2081.5 281.965 2083.5 283.91 2083.5 286.269Z" stroke="black" />
				<path id="Ellipse 10" d="M2083.5 306.45C2083.5 308.808 2081.5 310.754 2079 310.754C2076.5 310.754 2074.5 308.808 2074.5 306.45C2074.5 304.091 2076.5 302.145 2079 302.145C2081.5 302.145 2083.5 304.091 2083.5 306.45Z" stroke="black" />
			</g>
			<text id="K6" fill="black" font-family="Inter" font-size="12" letter-spacing="0em">
				<tspan x="2072" y="271.226">
					K6
				</tspan>
			</text>
		</g>
		<g id="K3_3">
			<g id="K3_4">
				<path id="Line 10_2" d="M1868.5 281.465V311.254" stroke="black" stroke-width="3" stroke-linecap="round" />
				<path id="Line 11_2" d="M1859 290.113V302.606" stroke="black" stroke-width="3" />
				<path id="Ellipse 9_2" d="M1863.5 286.269C1863.5 288.628 1861.5 290.574 1859 290.574C1856.5 290.574 1854.5 288.628 1854.5 286.269C1854.5 283.91 1856.5 281.965 1859 281.965C1861.5 281.965 1863.5 283.91 1863.5 286.269Z" stroke="black" />
				<path id="Ellipse 10_2" d="M1863.5 306.45C1863.5 308.808 1861.5 310.754 1859 310.754C1856.5 310.754 1854.5 308.808 1854.5 306.45C1854.5 304.091 1856.5 302.145 1859 302.145C1861.5 302.145 1863.5 304.091 1863.5 306.45Z" stroke="black" />
			</g>
			<text id="K5" fill="black" font-family="Inter" font-size="12" letter-spacing="0em">
				<tspan x="1852" y="271.226">
					K5
				</tspan>
			</text>
		</g>
		<text id="AELN_BB_INT1" fill="black" font-family="Open Sans" font-size="14" letter-spacing="0em">
			<tspan x="354.461" y="393.931">
				00.00V
			</tspan>
		</text>
		<text id="AELN_BB_EXTUP" fill="black" font-family="Open Sans" font-size="14" letter-spacing="0em">
			<tspan x="585.461" y="393.931">
				00.00V
			</tspan>
		</text>
		<text id="AELN_BB_EXTDN" fill="black" font-family="Open Sans" font-size="14" letter-spacing="0em">
			<tspan x="867.461" y="392.931">
				00.00V
			</tspan>
		</text>
		<text id="AELN_BB_UPDAC" fill="black" font-family="Open Sans" font-size="14" letter-spacing="0em">
			<tspan x="1055.46" y="392.931">
				00.00V
			</tspan>
		</text>
		<text id="AELN_BB_DNDAC" fill="black" font-family="Open Sans" font-size="14" letter-spacing="0em">
			<tspan x="1204.46" y="392.931">
				00.00V
			</tspan>
		</text>
		<text id="AELN_BB_TPWS" fill="black" font-family="Open Sans" font-size="14" letter-spacing="0em">
			<tspan x="1485.46" y="392.931">
				00.00V
			</tspan>
		</text>
		<text id="AELN_BB_FIU" fill="black" font-family="Open Sans" font-size="14" letter-spacing="0em">
			<tspan x="1670.46" y="392.931">
				00.00V
			</tspan>
		</text>
		<g id="STATIC_LABELS">
			<text id="TMS FIU" fill="black" font-family="Open Sans" font-size="10" letter-spacing="0em">
				<tspan x="1674.26" y="365.879">
					TMS FIU
				</tspan>
			</text>
			<text id="LEU" fill="black" font-family="Open Sans" font-size="10" letter-spacing="0em">
				<tspan x="1498" y="369.879">
					LEU
				</tspan>
			</text>
			<text id="RELAY EXT_DN SIDE" fill="black" font-family="Open Sans" font-size="10" letter-spacing="0em">
				<tspan x="843.409" y="366.879">
					RELAY EXT_DN SIDE
				</tspan>
			</text>
			<text id="UP DAC" fill="black" font-family="Open Sans" font-size="10" letter-spacing="0em">
				<tspan x="1061.18" y="369.879">
					UP DAC
				</tspan>
			</text>
			<text id="DN DAC" fill="black" font-family="Open Sans" font-size="10" letter-spacing="0em">
				<tspan x="1205" y="369.879">
					DN DAC
				</tspan>
			</text>
			<text id="2x15A" fill="black" font-family="Open Sans" font-size="10" letter-spacing="0em">
				<tspan x="1306" y="279.879">
					2x15A
				</tspan>
			</text>
			<text id="2x15A_2" fill="black" font-family="Open Sans" font-size="10" letter-spacing="0em">
				<tspan x="1515" y="279.879">
					2x15A
				</tspan>
			</text>
			<text id="24V-32VDC 20A" fill="black" font-family="Open Sans" font-size="10" letter-spacing="0em">
				<tspan x="830.398" y="317.879">
					24V-32VDC
				</tspan>
				<tspan x="864.227" y="331.879">
					20A
				</tspan>
			</text>
			<text id="24V-32VDC 15A" fill="black" font-family="Open Sans" font-size="10" letter-spacing="0em">
				<tspan x="1020.4" y="317.879">
					24V-32VDC
				</tspan>
				<tspan x="1054.23" y="331.879">
					15A
				</tspan>
			</text>
			<text id="24V-32VDC 15A_2" fill="black" font-family="Open Sans" font-size="10" letter-spacing="0em">
				<tspan x="1168.4" y="317.879">
					24V-32VDC
				</tspan>
				<tspan x="1202.23" y="331.879">
					15A
				</tspan>
			</text>
			<text id="24V-32VDC 15A_3" fill="black" font-family="Open Sans" font-size="10" letter-spacing="0em">
				<tspan x="1634.4" y="312.879">
					24V-32VDC
				</tspan>
				<tspan x="1668.23" y="326.879">
					15A
				</tspan>
			</text>
			<text id="24V-32VDC 30A" fill="black" font-family="Open Sans" font-size="10" letter-spacing="0em">
				<tspan x="1408.47" y="312.751">
					24V-32VDC
				</tspan>
				<tspan x="1425.38" y="326.751">
					30A
				</tspan>
			</text>
			<text id="DISTRIBUTION BUSBAR,230VAC, 1 PH, 50HZ" fill="black" font-family="Inter" font-size="12" font-weight="600" letter-spacing="0em">
				<tspan x="915" y="13.8636">
					DISTRIBUTION BUSBAR,230VAC, 1 PH, 50HZ
				</tspan>
			</text>
			<text id="RELAY EXT_UP SIDE" fill="black" font-family="Open Sans" font-size="10" letter-spacing="0em">
				<tspan x="559.146" y="370.879">
					RELAY EXT_UP SIDE
				</tspan>
			</text>
			<text id="4x15A" fill="black" font-family="Open Sans" font-size="10" letter-spacing="0em">
				<tspan x="83" y="283.879">
					4x15A
				</tspan>
			</text>
			<text id="4x15A_2" fill="black" font-family="Open Sans" font-size="10" letter-spacing="0em">
				<tspan x="338" y="283.879">
					4x15A
				</tspan>
			</text>
			<text id="RELAY INT 1" fill="black" font-family="Open Sans" font-size="10" letter-spacing="0em">
				<tspan x="349.188" y="370.879">
					RELAY INT 1
				</tspan>
			</text>
			<text id="24V-32VDC 60A" fill="black" font-family="Open Sans" font-size="10" letter-spacing="0em">
				<tspan x="221.4" y="318.879">
					24V-32VDC
				</tspan>
				<tspan x="239.613" y="332.879">
					60A
				</tspan>
			</text>
			<text id="24V-32VDC 10 A" fill="black" font-family="Open Sans" font-size="10" letter-spacing="0em">
				<tspan x="525.43" y="318.879">
					24V-32VDC 10 A
				</tspan>
			</text>
			<text id="Static_Output_Label3" fill="black" font-family="Inter" font-size="10" letter-spacing="0em">
				<tspan x="1984.94" y="360.142">
					DN SIDE LOCATION BOX
				</tspan>
				<tspan x="2019.44" y="372.142">
					LIGHTING
				</tspan>
			</text>
			<text id="Static_Output_Label3_2" fill="black" font-family="Inter" font-size="10" letter-spacing="0em">
				<tspan x="1753.92" y="360.142">
					UP SIDE LOCATION BOX
				</tspan>
				<tspan x="1787.94" y="372.142">
					LIGHTING
				</tspan>
			</text>
			<text id="FROM SCVS-DISTRIBUTION BUSBAR 230 V AC, 1 PH, 50 HZ" fill="black" font-family="Open Sans" font-size="12" letter-spacing="0em">
				<tspan x="1813.11" y="12.6553">
					FROM SCVS-DISTRIBUTION BUSBAR 230 V AC, 1 PH, 50 HZ
				</tspan>
			</text>
		</g>
		<g id="ALL_WIRES">
			<path id="Arrow 12" d="M887.23 347.988C887.817 348.572 888.767 348.568 889.351 347.981L898.863 338.401C899.447 337.813 899.443 336.863 898.856 336.28C898.268 335.696 897.318 335.699 896.734 336.287L888.279 344.802L879.764 336.347C879.176 335.763 878.226 335.767 877.643 336.355C877.059 336.942 877.062 337.892 877.65 338.476L887.23 347.988ZM886.501 266.005L886.787 346.929L889.787 346.918L889.501 265.995L886.501 266.005Z" fill="black" />
			<path id="Arrow 13" d="M1077.94 347.185C1078.53 347.771 1079.47 347.771 1080.06 347.185L1089.61 337.639C1090.19 337.053 1090.19 336.104 1089.61 335.518C1089.02 334.932 1088.07 334.932 1087.49 335.518L1079 344.003L1070.51 335.518C1069.93 334.932 1068.98 334.932 1068.39 335.518C1067.81 336.104 1067.81 337.053 1068.39 337.639L1077.94 347.185ZM1077.5 238V346.125H1080.5V238H1077.5Z" fill="black" />
			<path id="Arrow 14" d="M1225.94 348.185C1226.53 348.771 1227.47 348.771 1228.06 348.185L1237.61 338.639C1238.19 338.054 1238.19 337.104 1237.61 336.518C1237.02 335.932 1236.07 335.932 1235.49 336.518L1227 345.003L1218.51 336.518C1217.93 335.932 1216.98 335.932 1216.39 336.518C1215.81 337.104 1215.81 338.054 1216.39 338.639L1225.94 348.185ZM1225.5 239V347.125H1228.5V239H1225.5Z" fill="black" />
			<path id="Arrow 15" d="M1507.18 352.487C1507.77 353.072 1508.72 353.072 1509.3 352.487L1518.85 342.941C1519.43 342.355 1519.43 341.405 1518.85 340.819C1518.26 340.233 1517.31 340.233 1516.73 340.819L1508.24 349.305L1499.76 340.819C1499.17 340.233 1498.22 340.233 1497.64 340.819C1497.05 341.405 1497.05 342.355 1497.64 342.941L1507.18 352.487ZM1506.74 263.575V351.426H1509.74V263.575H1506.74Z" fill="black" />
			<path id="Arrow 16" d="M1691.94 352.189C1692.53 352.774 1693.47 352.774 1694.06 352.189L1703.61 342.643C1704.19 342.057 1704.19 341.107 1703.61 340.521C1703.02 339.936 1702.07 339.936 1701.49 340.521L1693 349.007L1684.51 340.521C1683.93 339.936 1682.98 339.936 1682.39 340.521C1681.81 341.107 1681.81 342.057 1682.39 342.643L1691.94 352.189ZM1691.5 240V351.128H1694.5V240H1691.5Z" fill="black" />
			<path id="Line 249" d="M1503 92.6169V21.9999" stroke="black" stroke-width="3" />
			<path id="Line 250" d="M1503 163.533V135" stroke="black" stroke-width="3" />
			<path id="Line 253" d="M1542 262H1466V239" stroke="black" stroke-width="3" />
			<path id="Line 254" d="M1465 164H1543.66" stroke="black" stroke-width="3" />
			<path id="Line 239" d="M1309 164H1386" stroke="black" stroke-width="3" />
			<path id="Line 241" d="M1542 261.277L1542 238" stroke="black" stroke-width="3" />
			<path id="Line 242" d="M1542 187.277L1542 164" stroke="black" stroke-width="3" />
			<path id="Line 243" d="M1466 187V163" stroke="black" stroke-width="3" />
			<path id="Line 321" d="M1693 187.564V132" stroke="black" stroke-width="3" />
			<path id="Line 67" d="M111 21L1694 21.0339" stroke="black" stroke-width="3" />
			<path id="Line 178" d="M1226 298H1158V239" stroke="black" stroke-width="3" />
			<path id="Line 180" d="M1693 299H1622V240" stroke="black" stroke-width="3" />
			<path id="Line 178_2" d="M1386 264H1309V239" stroke="black" stroke-width="3" />
			<path id="Line 313" d="M1621 92.6169V20.9999" stroke="black" stroke-width="3" />
			<path id="Line 314" d="M1622 188V136" stroke="black" stroke-width="3" />
			<path id="Line 320" d="M1692 90V22" stroke="black" stroke-width="3" />
			<path id="Line 155" d="M1077.05 89.6621V21.0451" stroke="black" stroke-width="3" />
			<path id="Line 156" d="M1078 186.564V131" stroke="black" stroke-width="3" />
			<path id="Line 160" d="M1158 89V21" stroke="black" stroke-width="3" />
			<path id="Line 161" d="M1158 186.564V131" stroke="black" stroke-width="3" />
			<path id="Line 165" d="M1226 89V21" stroke="black" stroke-width="3" />
			<path id="Line 166" d="M1226 186.564V131" stroke="black" stroke-width="3" />
			<path id="Line 170" d="M1347 89V21" stroke="black" stroke-width="3" />
			<path id="Line 171" d="M1347 163V132" stroke="black" stroke-width="3" />
			<path id="Line 255" d="M1508 299L1340 299V263" stroke="black" stroke-width="3" />
			<path id="Line 332" d="M888 300L727 300V264" stroke="black" stroke-width="3" />
			<path id="Line 237" d="M1385 262.277L1385 239" stroke="black" stroke-width="3" />
			<path id="Line 325" d="M766 264H689V239" stroke="black" stroke-width="3" />
			<path id="Line 330" d="M925 265H849V251V238.5" stroke="black" stroke-width="3" />
			<path id="Line 326" d="M765 265.277V239" stroke="black" stroke-width="3" />
			<path id="Line 331" d="M924 266.277V238" stroke="black" stroke-width="3" />
			<path id="Line 240" d="M1385 187.277L1385 164" stroke="black" stroke-width="3" />
			<path id="Line 238" d="M1310 187.28L1310 163.28" stroke="black" stroke-width="3" />
			<path id="Line 322_2" d="M688 163.72H765" stroke="black" stroke-width="3" />
			<path id="Line 323_2" d="M764 186.997L764 163.72" stroke="black" stroke-width="3" />
			<path id="Line 324" d="M689 187L689 163" stroke="black" stroke-width="3" />
			<path id="Line 327" d="M849 163.72H926" stroke="black" stroke-width="3" />
			<path id="Line 328" d="M925 186.997L925 163.72" stroke="black" stroke-width="3" />
			<path id="Line 329" d="M850 187L850 163" stroke="black" stroke-width="3" />
			<path id="Line 176" d="M1079 300H1011V238" stroke="black" stroke-width="3" />
			<path id="Line 146" d="M728 89.1152V21.9999" stroke="black" stroke-width="3" />
			<path id="Line 147" d="M728 164.062V132" stroke="black" stroke-width="3" />
			<path id="Line 148" d="M885.393 89.6621V20.5468" stroke="black" stroke-width="3" />
			<path id="Line 149" d="M886 164.062V132" stroke="black" stroke-width="3" />
			<path id="Line 150" d="M1011 89.1152V19.9999" stroke="black" stroke-width="3" />
			<path id="Line 151" d="M1011 187V131" stroke="black" stroke-width="3" />
			<text id="2x10A" fill="black" font-family="Open Sans" font-size="10" letter-spacing="0em">
				<tspan x="690" y="275.879">
					2x10A
				</tspan>
			</text>
			<text id="2x10A_2" fill="black" font-family="Open Sans" font-size="10" letter-spacing="0em">
				<tspan x="853" y="275.879">
					2x10A
				</tspan>
			</text>
			<path id="Line 68" d="M113 90L112.148 21" stroke="black" stroke-width="3" />
			<path id="Line 71" d="M113 164.536V133" stroke="black" stroke-width="3" />
			<path id="Line 73" d="M377 301L117 301V265" stroke="black" stroke-width="3" />
			<path id="Line 75" d="M202 187V165" stroke="black" stroke-width="3" />
			<path id="Line 90" d="M143 188.277L143 165" stroke="black" stroke-width="3" />
			<path id="Line 91" d="M84 188.277L84 165" stroke="black" stroke-width="3" />
			<path id="Line 92" d="M23 188.025L23.149 163" stroke="black" stroke-width="3" />
			<path id="Line 93" d="M23 265.28L23 239" stroke="black" stroke-width="3" />
			<path id="Line 94" d="M84 265.28L84 239" stroke="black" stroke-width="3" />
			<path id="Line 95" d="M143 265.28L143 239" stroke="black" stroke-width="3" />
			<path id="Line 96" d="M202 265.28L202 239" stroke="black" stroke-width="3" />
			<path id="Line 122" d="M370.442 90.6262L369.74 23.5474" stroke="black" stroke-width="3" />
			<path id="Line 97" d="M370 163.536V132" stroke="black" stroke-width="3" />
			<path id="Line 99" d="M460 187V163" stroke="black" stroke-width="3" />
			<path id="Line 100" d="M401 187.277L401 164" stroke="black" stroke-width="3" />
			<path id="Line 101" d="M342 187.277L342 164" stroke="black" stroke-width="3" />
			<path id="Line 102" d="M283 188V164" stroke="black" stroke-width="3" />
			<path id="Line 103" d="M283 266.28L283 240" stroke="black" stroke-width="3" />
			<path id="Line 104" d="M342 266.28L342 240" stroke="black" stroke-width="3" />
			<path id="Line 105" d="M401 266.28L401 240" stroke="black" stroke-width="3" />
			<path id="Line 106" d="M459 266.28L459 240" stroke="black" stroke-width="3" />
			<path id="Line 119" d="M282.002 265.646L459 265" stroke="black" stroke-width="3" />
			<path id="Line 125" d="M537.807 90.6621V23.5468" stroke="black" stroke-width="3" />
			<path id="Line 126" d="M538.508 188.238L538 133" stroke="black" stroke-width="3" />
			<path id="Line 172" d="M608 301H539V239" stroke="black" stroke-width="3" />
			<path id="Line 144" d="M608.945 90.6621V23.5468" stroke="black" stroke-width="3" />
			<path id="Line 145" d="M609 188V133" stroke="black" stroke-width="3" />
			<line id="Line 665" x1="23" y1="164.5" x2="202" y2="164.5" stroke="black" stroke-width="3" />
			<line id="Line 666" x1="21" y1="264.5" x2="202" y2="264.5" stroke="black" stroke-width="3" />
			<path id="Line 667" d="M281 164.5H459" stroke="black" stroke-width="3" />
			<path id="Arrow 10" d="M376.411 351.99C377 352.572 377.95 352.567 378.532 351.978L388.026 342.381C388.609 341.792 388.604 340.842 388.015 340.259C387.426 339.677 386.476 339.682 385.893 340.271L377.454 348.802L368.923 340.363C368.334 339.78 367.384 339.785 366.802 340.374C366.219 340.963 366.224 341.913 366.813 342.496L376.411 351.99ZM375.5 265.008L375.966 350.931L378.966 350.915L378.5 264.992L375.5 265.008Z" fill="black" />
			<path id="Arrow 11" d="M607.377 351.988C607.965 352.572 608.915 352.568 609.499 351.98L619.007 342.397C619.591 341.809 619.587 340.859 618.999 340.276C618.411 339.692 617.461 339.696 616.878 340.284L608.426 348.802L599.908 340.35C599.319 339.766 598.37 339.77 597.786 340.358C597.203 340.946 597.206 341.896 597.794 342.479L607.377 351.988ZM606.5 239.006L606.934 350.929L609.934 350.918L609.5 238.994L606.5 239.006Z" fill="black" />
			<path id="Line 40" d="M1804.5 21.7725V89.2735" stroke="black" stroke-width="3" />
			<path id="Line 43" d="M1805 139.243V183.447" stroke="black" stroke-width="3" />
			<path id="Arrow 1" d="M1805.13 337.968C1805.71 338.554 1806.66 338.553 1807.25 337.966L1816.78 328.412C1817.36 327.826 1817.36 326.876 1816.77 326.291C1816.19 325.706 1815.24 325.706 1814.65 326.293L1806.18 334.785L1797.68 326.308C1797.1 325.722 1796.15 325.723 1795.56 326.31C1794.98 326.896 1794.98 327.846 1795.56 328.431L1805.13 337.968ZM1804.5 228.613L1804.69 336.908L1807.69 336.905L1807.5 228.61L1804.5 228.613Z" fill="black" />
			<path id="Line 42" d="M2145 139.243V183.447" stroke="black" stroke-width="3" />
			<path id="Line 41" d="M2145 21.7334V89.2735" stroke="black" stroke-width="3" />
			<path id="Line 44" d="M2026 295.879H2078" stroke="black" stroke-width="3" />
			<path id="Line 45" d="M2089 295.879H2146" stroke="black" stroke-width="3" />
			<path id="Line 47" d="M2145 228.612V296.84" stroke="black" stroke-width="3" />
			<path id="Line 40_2" d="M2022.5 21V89.5011" stroke="black" stroke-width="3" />
			<path id="Line 43_2" d="M2023 139.471V183.675" stroke="black" stroke-width="3" />
			<path id="Arrow 1_2" d="M2023.13 338.196C2023.71 338.781 2024.66 338.78 2025.25 338.194L2034.78 328.64C2035.36 328.053 2035.36 327.104 2034.77 326.518C2034.19 325.933 2033.24 325.934 2032.65 326.52L2024.18 335.013L2015.68 326.535C2015.1 325.95 2014.15 325.951 2013.56 326.537C2012.98 327.123 2012.98 328.073 2013.56 328.658L2023.13 338.196ZM2022.5 228.841L2022.69 337.136L2025.69 337.133L2025.5 228.838L2022.5 228.841Z" fill="black" />
			<path id="Line 718" d="M1803 22.2334H2144.5" stroke="black" stroke-width="3" />
			<path id="Line 42_2" d="M1925 139V183.204" stroke="black" stroke-width="3" />
			<path id="Line 41_2" d="M1925 22.7334V89.2735" stroke="black" stroke-width="3" />
			<path id="Line 44_2" d="M1806 295.879H1858" stroke="black" stroke-width="3" />
			<path id="Line 45_2" d="M1869 295.879H1926" stroke="black" stroke-width="3" />
			<path id="Line 47_2" d="M1925 228.612V296.84" stroke="black" stroke-width="3" />
		</g>
	</g>
</svg>
