<svg xmlns="http://www.w3.org/2000/svg" width="1133" height="357" viewBox="0 0 1133 357" fill="none">
	<g id="AELN_ABCD3">
		<g id="CBF">
			<g id="CBF11">
				<text id="CBF11_2" fill="black" font-family="Open Sans" font-size="12" letter-spacing="0em">
					<tspan x="35" y="103.655">
						CBF11
					</tspan>
				</text>
				<g id="Group 743">
					<g id="Group 742">
						<circle id="Ellipse 45" cx="40" cy="86" r="4.5" stroke="black" />
						<circle id="Ellipse 46" cx="40" cy="112" r="4.5" stroke="black" />
					</g>
					<g id="Group 741">
						<path id="Vector 32" d="M35.1602 79L28.6248 87.1038C23.5512 93.3951 22.9918 102.2 27.2283 109.083V109.083C27.9309 110.225 28.7518 111.289 29.6775 112.258L35.1602 118" stroke="black" />
						<line id="Line 127" y1="-0.5" x2="15.0698" y2="-0.5" transform="matrix(0.733051 0.680174 -0.648333 0.761357 20.1465 89.5403)" stroke="black" />
						<line id="Line 128" y1="-0.5" x2="15.0698" y2="-0.5" transform="matrix(0.733051 0.680174 -0.648333 0.761357 19 93.1289)" stroke="black" />
					</g>
				</g>
			</g>
			<g id="CBF12">
				<text id="CBF12_2" transform="translate(131 91)" fill="black" font-family="Open Sans" font-size="12" letter-spacing="0em">
					<tspan x="0" y="12.6553">
						CBF12
					</tspan>
				</text>
				<g id="Group 744">
					<g id="Group 742_2">
						<circle id="Ellipse 45_2" cx="136" cy="86" r="4.5" stroke="black" />
						<circle id="Ellipse 46_2" cx="136" cy="112" r="4.5" stroke="black" />
					</g>
					<g id="Group 741_2">
						<path id="Vector 32_2" d="M131.16 79L124.625 87.1038C119.551 93.3951 118.992 102.2 123.228 109.083V109.083C123.931 110.225 124.752 111.289 125.677 112.258L131.16 118" stroke="black" />
						<line id="Line 127_2" y1="-0.5" x2="15.0698" y2="-0.5" transform="matrix(0.733051 0.680174 -0.648333 0.761357 116.146 89.5403)" stroke="black" />
						<line id="Line 128_2" y1="-0.5" x2="15.0698" y2="-0.5" transform="matrix(0.733051 0.680174 -0.648333 0.761357 115 93.1289)" stroke="black" />
					</g>
				</g>
			</g>
			<g id="CBF20">
				<text id="CBF20_2" transform="translate(402 91)" fill="black" font-family="Open Sans" font-size="12" letter-spacing="0em">
					<tspan x="0" y="12.6553">
						CBF20
					</tspan>
				</text>
				<g id="Group 745">
					<g id="Group 742_3">
						<circle id="Ellipse 45_3" cx="407" cy="86" r="4.5" stroke="black" />
						<circle id="Ellipse 46_3" cx="407" cy="112" r="4.5" stroke="black" />
					</g>
					<g id="Group 741_3">
						<path id="Vector 32_3" d="M402.16 79L395.625 87.1038C390.551 93.3951 389.992 102.2 394.228 109.083V109.083C394.931 110.225 395.752 111.289 396.677 112.258L402.16 118" stroke="black" />
						<line id="Line 127_3" y1="-0.5" x2="15.0698" y2="-0.5" transform="matrix(0.733051 0.680174 -0.648333 0.761357 387.146 89.5403)" stroke="black" />
						<line id="Line 128_3" y1="-0.5" x2="15.0698" y2="-0.5" transform="matrix(0.733051 0.680174 -0.648333 0.761357 386 93.1289)" stroke="black" />
					</g>
				</g>
			</g>
			<g id="CBF31">
				<text id="CBF31_2" transform="translate(763 91)" fill="black" font-family="Open Sans" font-size="12" letter-spacing="0em">
					<tspan x="0" y="12.6553">
						CBF31
					</tspan>
				</text>
				<g id="Group 754">
					<g id="Group 742_4">
						<circle id="Ellipse 45_4" cx="768" cy="86" r="4.5" stroke="black" />
						<circle id="Ellipse 46_4" cx="768" cy="112" r="4.5" stroke="black" />
					</g>
					<g id="Group 741_4">
						<path id="Vector 32_4" d="M763.16 79L756.625 87.1038C751.551 93.3951 750.992 102.2 755.228 109.083V109.083C755.931 110.225 756.752 111.289 757.677 112.258L763.16 118" stroke="black" />
						<line id="Line 127_4" y1="-0.5" x2="15.0698" y2="-0.5" transform="matrix(0.733051 0.680174 -0.648333 0.761357 748.146 89.5403)" stroke="black" />
						<line id="Line 128_4" y1="-0.5" x2="15.0698" y2="-0.5" transform="matrix(0.733051 0.680174 -0.648333 0.761357 747 93.1289)" stroke="black" />
					</g>
				</g>
			</g>
			<g id="CBF32">
				<text id="CBF32_2" transform="translate(818 91)" fill="black" font-family="Open Sans" font-size="12" letter-spacing="0em">
					<tspan x="0" y="12.6553">
						CBF32
					</tspan>
				</text>
				<g id="Group 755">
					<g id="Group 742_5">
						<circle id="Ellipse 45_5" cx="823" cy="86" r="4.5" stroke="black" />
						<circle id="Ellipse 46_5" cx="823" cy="112" r="4.5" stroke="black" />
					</g>
					<g id="Group 741_5">
						<path id="Vector 32_5" d="M818.16 79L811.625 87.1038C806.551 93.3951 805.992 102.2 810.228 109.083V109.083C810.931 110.225 811.752 111.289 812.677 112.258L818.16 118" stroke="black" />
						<line id="Line 127_5" y1="-0.5" x2="15.0698" y2="-0.5" transform="matrix(0.733051 0.680174 -0.648333 0.761357 803.146 89.5403)" stroke="black" />
						<line id="Line 128_5" y1="-0.5" x2="15.0698" y2="-0.5" transform="matrix(0.733051 0.680174 -0.648333 0.761357 802 93.1289)" stroke="black" />
					</g>
				</g>
			</g>
			<g id="CBF7">
				<text id="CBF7_2" transform="translate(944 91)" fill="black" font-family="Open Sans" font-size="12" letter-spacing="0em">
					<tspan x="0" y="12.6553">
						CBF7
					</tspan>
				</text>
				<g id="Group 754_2">
					<g id="Group 742_6">
						<circle id="Ellipse 45_6" cx="949" cy="86" r="4.5" stroke="black" />
						<circle id="Ellipse 46_6" cx="949" cy="112" r="4.5" stroke="black" />
					</g>
					<g id="Group 741_6">
						<path id="Vector 32_6" d="M944.16 79L937.625 87.1038C932.551 93.3951 931.992 102.2 936.228 109.083V109.083C936.931 110.225 937.752 111.289 938.677 112.258L944.16 118" stroke="black" />
						<line id="Line 127_6" y1="-0.5" x2="15.0698" y2="-0.5" transform="matrix(0.733051 0.680174 -0.648333 0.761357 929.146 89.5403)" stroke="black" />
						<line id="Line 128_6" y1="-0.5" x2="15.0698" y2="-0.5" transform="matrix(0.733051 0.680174 -0.648333 0.761357 928 93.1289)" stroke="black" />
					</g>
				</g>
			</g>
			<g id="CBF8">
				<text id="CBF8_2" transform="translate(1059 91)" fill="black" font-family="Open Sans" font-size="12" letter-spacing="0em">
					<tspan x="0" y="12.6553">
						CBF8
					</tspan>
				</text>
				<g id="Group 755_2">
					<g id="Group 742_7">
						<circle id="Ellipse 45_7" cx="1064" cy="86" r="4.5" stroke="black" />
						<circle id="Ellipse 46_7" cx="1064" cy="112" r="4.5" stroke="black" />
					</g>
					<g id="Group 741_7">
						<path id="Vector 32_7" d="M1059.16 79L1052.62 87.1038C1047.55 93.3951 1046.99 102.2 1051.23 109.083V109.083C1051.93 110.225 1052.75 111.289 1053.68 112.258L1059.16 118" stroke="black" />
						<line id="Line 127_7" y1="-0.5" x2="15.0698" y2="-0.5" transform="matrix(0.733051 0.680174 -0.648333 0.761357 1044.15 89.5403)" stroke="black" />
						<line id="Line 128_7" y1="-0.5" x2="15.0698" y2="-0.5" transform="matrix(0.733051 0.680174 -0.648333 0.761357 1043 93.1289)" stroke="black" />
					</g>
				</g>
			</g>
			<g id="CBF19">
				<text id="CBF19_2" transform="translate(348 91)" fill="black" font-family="Open Sans" font-size="12" letter-spacing="0em">
					<tspan x="0" y="12.6553">
						CBF19
					</tspan>
				</text>
				<g id="Group 750">
					<g id="Group 742_8">
						<circle id="Ellipse 45_8" cx="353" cy="86" r="4.5" stroke="black" />
						<circle id="Ellipse 46_8" cx="353" cy="112" r="4.5" stroke="black" />
					</g>
					<g id="Group 741_8">
						<path id="Vector 32_8" d="M348.16 79L341.625 87.1038C336.551 93.3951 335.992 102.2 340.228 109.083V109.083C340.931 110.225 341.752 111.289 342.677 112.258L348.16 118" stroke="black" />
						<line id="Line 127_8" y1="-0.5" x2="15.0698" y2="-0.5" transform="matrix(0.733051 0.680174 -0.648333 0.761357 333.146 89.5403)" stroke="black" />
						<line id="Line 128_8" y1="-0.5" x2="15.0698" y2="-0.5" transform="matrix(0.733051 0.680174 -0.648333 0.761357 332 93.1289)" stroke="black" />
					</g>
				</g>
			</g>
			<g id="CBF18">
				<text id="CBF18_2" transform="translate(281 91)" fill="black" font-family="Open Sans" font-size="12" letter-spacing="0em">
					<tspan x="0" y="12.6553">
						CBF18
					</tspan>
				</text>
				<g id="Group 748">
					<g id="Group 742_9">
						<circle id="Ellipse 45_9" cx="286" cy="86" r="4.5" stroke="black" />
						<circle id="Ellipse 46_9" cx="286" cy="112" r="4.5" stroke="black" />
					</g>
					<g id="Group 741_9">
						<path id="Vector 32_9" d="M281.16 79L274.625 87.1038C269.551 93.3951 268.992 102.2 273.228 109.083V109.083C273.931 110.225 274.752 111.289 275.677 112.258L281.16 118" stroke="black" />
						<line id="Line 127_9" y1="-0.5" x2="15.0698" y2="-0.5" transform="matrix(0.733051 0.680174 -0.648333 0.761357 266.146 89.5403)" stroke="black" />
						<line id="Line 128_9" y1="-0.5" x2="15.0698" y2="-0.5" transform="matrix(0.733051 0.680174 -0.648333 0.761357 265 93.1289)" stroke="black" />
					</g>
				</g>
			</g>
			<g id="CBF17">
				<text id="CBF17_2" transform="translate(227 91)" fill="black" font-family="Open Sans" font-size="12" letter-spacing="0em">
					<tspan x="0" y="12.6553">
						CBF17
					</tspan>
				</text>
				<g id="Group 746">
					<g id="Group 742_10">
						<circle id="Ellipse 45_10" cx="232" cy="86" r="4.5" stroke="black" />
						<circle id="Ellipse 46_10" cx="232" cy="112" r="4.5" stroke="black" />
					</g>
					<g id="Group 741_10">
						<path id="Vector 32_10" d="M227.16 79L220.625 87.1038C215.551 93.3951 214.992 102.2 219.228 109.083V109.083C219.931 110.225 220.752 111.289 221.677 112.258L227.16 118" stroke="black" />
						<line id="Line 127_10" y1="-0.5" x2="15.0698" y2="-0.5" transform="matrix(0.733051 0.680174 -0.648333 0.761357 212.146 89.5403)" stroke="black" />
						<line id="Line 128_10" y1="-0.5" x2="15.0698" y2="-0.5" transform="matrix(0.733051 0.680174 -0.648333 0.761357 211 93.1289)" stroke="black" />
					</g>
				</g>
			</g>
			<g id="CBF29">
				<g id="Group 752">
					<g id="Group 742_11">
						<circle id="Ellipse 45_11" cx="510" cy="86" r="4.5" stroke="black" />
						<circle id="Ellipse 46_11" cx="510" cy="112" r="4.5" stroke="black" />
					</g>
					<g id="Group 741_11">
						<path id="Vector 32_11" d="M505.16 79L498.625 87.1038C493.551 93.3951 492.992 102.2 497.228 109.083V109.083C497.931 110.225 498.752 111.289 499.677 112.258L505.16 118" stroke="black" />
						<line id="Line 127_11" y1="-0.5" x2="15.0698" y2="-0.5" transform="matrix(0.733051 0.680174 -0.648333 0.761357 490.146 89.5403)" stroke="black" />
						<line id="Line 128_11" y1="-0.5" x2="15.0698" y2="-0.5" transform="matrix(0.733051 0.680174 -0.648333 0.761357 489 93.1289)" stroke="black" />
					</g>
				</g>
				<text id="CBF29_2" transform="translate(505 91)" fill="black" font-family="Open Sans" font-size="12" letter-spacing="0em">
					<tspan x="0" y="12.6553">
						CBF29
					</tspan>
				</text>
			</g>
			<g id="CBF30">
				<g id="Group 753">
					<g id="Group 742_12">
						<circle id="Ellipse 45_12" cx="657" cy="86" r="4.5" stroke="black" />
						<circle id="Ellipse 46_12" cx="657" cy="112" r="4.5" stroke="black" />
					</g>
					<g id="Group 741_12">
						<path id="Vector 32_12" d="M652.16 79L645.625 87.1038C640.551 93.3951 639.992 102.2 644.228 109.083V109.083C644.931 110.225 645.752 111.289 646.677 112.258L652.16 118" stroke="black" />
						<line id="Line 127_12" y1="-0.5" x2="15.0698" y2="-0.5" transform="matrix(0.733051 0.680174 -0.648333 0.761357 637.146 89.5403)" stroke="black" />
						<line id="Line 128_12" y1="-0.5" x2="15.0698" y2="-0.5" transform="matrix(0.733051 0.680174 -0.648333 0.761357 636 93.1289)" stroke="black" />
					</g>
				</g>
				<text id="CBF30_2" transform="translate(652 91)" fill="black" font-family="Open Sans" font-size="12" letter-spacing="0em">
					<tspan x="0" y="12.6553">
						CBF30
					</tspan>
				</text>
			</g>
		</g>
		<g id="P3">
			<rect id="P3A_BOX" x="0.5" y="147.976" width="34" height="34" fill="#C6C6C6" stroke="black" />
			<path id="Vector 33" d="M5 156V156C5.49933 151.672 11.7571 151.708 12.5 156V156" stroke="black" />
			<path id="Vector 34" d="M12.5 155.5V155.5C13.1987 159.867 19.3948 160.105 20.4268 155.805L20.5 155.5" stroke="black" />
			<line id="Line 129" x1="0.646447" y1="182.146" x2="34.6464" y2="148.146" stroke="black" />
			<line id="Line 130" x1="20" y1="172" x2="31" y2="172" stroke="black" />
			<line id="Line 131" x1="20" y1="175" x2="31" y2="175" stroke="black" />
			<text id="P3A" fill="black" font-family="Open Sans" font-size="12" letter-spacing="0em">
				<tspan x="20" y="195.131">
					P3A
				</tspan>
			</text>
		</g>
		<g id="P3_2">
			<rect id="P3B_BOX" x="47.5" y="147.976" width="34" height="34" fill="#C6C6C6" stroke="black" />
			<path id="Vector 33_2" d="M52 156V156C52.4993 151.672 58.7571 151.708 59.5 156V156" stroke="black" />
			<path id="Vector 34_2" d="M59.5 155.5V155.5C60.1987 159.867 66.3948 160.105 67.4268 155.805L67.5 155.5" stroke="black" />
			<line id="Line 129_2" x1="47.6464" y1="182.146" x2="81.6464" y2="148.146" stroke="black" />
			<line id="Line 130_2" x1="67" y1="172" x2="78" y2="172" stroke="black" />
			<line id="Line 131_2" x1="67" y1="175" x2="78" y2="175" stroke="black" />
			<text id="P3B" fill="black" font-family="Open Sans" font-size="12" letter-spacing="0em">
				<tspan x="67" y="195.131">
					P3B
				</tspan>
			</text>
		</g>
		<g id="P4A">
			<rect id="P4A_BOX" x="98.5" y="147.976" width="34" height="34" fill="#C6C6C6" stroke="black" />
			<path id="Vector 33_3" d="M103 156V156C103.499 151.672 109.757 151.708 110.5 156V156" stroke="black" />
			<path id="Vector 34_3" d="M110.5 155.5V155.5C111.199 159.867 117.395 160.105 118.427 155.805L118.5 155.5" stroke="black" />
			<line id="Line 129_3" x1="98.6464" y1="182.146" x2="132.646" y2="148.146" stroke="black" />
			<line id="Line 130_3" x1="118" y1="172" x2="129" y2="172" stroke="black" />
			<line id="Line 131_3" x1="118" y1="175" x2="129" y2="175" stroke="black" />
			<text id="P4A_2" fill="black" font-family="Open Sans" font-size="12" letter-spacing="0em">
				<tspan x="117" y="194.131">
					P4A
				</tspan>
			</text>
		</g>
		<g id="P4B">
			<rect id="P4B_BOX" x="145.5" y="147.976" width="34" height="34" fill="#C6C6C6" stroke="black" />
			<path id="Vector 33_4" d="M150 156V156C150.499 151.672 156.757 151.708 157.5 156V156" stroke="black" />
			<path id="Vector 34_4" d="M157.5 155.5V155.5C158.199 159.867 164.395 160.105 165.427 155.805L165.5 155.5" stroke="black" />
			<line id="Line 129_4" x1="145.646" y1="182.146" x2="179.646" y2="148.146" stroke="black" />
			<line id="Line 130_4" x1="165" y1="172" x2="176" y2="172" stroke="black" />
			<line id="Line 131_4" x1="165" y1="175" x2="176" y2="175" stroke="black" />
			<text id="P4B_2" fill="black" font-family="Open Sans" font-size="12" letter-spacing="0em">
				<tspan x="164" y="195.131">
					P4B
				</tspan>
			</text>
		</g>
		<g id="P9">
			<rect id="P9_BOX" x="213.5" y="147.976" width="34" height="34" fill="#C6C6C6" stroke="black" />
			<path id="Vector 37" d="M218 156V156C218.499 151.672 224.757 151.708 225.5 156V156" stroke="black" />
			<path id="Vector 38" d="M225.5 155.5V155.5C226.199 159.867 232.395 160.105 233.427 155.805L233.5 155.5" stroke="black" />
			<line id="Line 135" x1="213.646" y1="182.146" x2="247.646" y2="148.146" stroke="black" />
			<line id="Line 136" x1="233" y1="172" x2="244" y2="172" stroke="black" />
			<line id="Line 137" x1="233" y1="175" x2="244" y2="175" stroke="black" />
			<text id="P9_2" fill="black" font-family="Open Sans" font-size="12" letter-spacing="0em">
				<tspan x="234" y="194.155">
					P9
				</tspan>
			</text>
		</g>
		<g id="P10">
			<rect id="P10_BOX" x="268.5" y="147.976" width="34" height="34" fill="#C6C6C6" stroke="black" />
			<path id="Vector 39" d="M273 156V156C273.499 151.672 279.757 151.708 280.5 156V156" stroke="black" />
			<path id="Vector 40" d="M280.5 155.5V155.5C281.199 159.867 287.395 160.105 288.427 155.805L288.5 155.5" stroke="black" />
			<line id="Line 138" x1="268.646" y1="182.146" x2="302.646" y2="148.146" stroke="black" />
			<line id="Line 139" x1="288" y1="172" x2="299" y2="172" stroke="black" />
			<line id="Line 140" x1="288" y1="175" x2="299" y2="175" stroke="black" />
			<text id="P10_2" fill="black" font-family="Open Sans" font-size="12" letter-spacing="0em">
				<tspan x="288" y="194.155">
					P10
				</tspan>
			</text>
		</g>
		<g id="P11">
			<rect id="P11_BOX" x="335.5" y="147.976" width="34" height="34" fill="#C6C6C6" stroke="black" />
			<path id="Vector 41" d="M340 156V156C340.499 151.672 346.757 151.708 347.5 156V156" stroke="black" />
			<path id="Vector 42" d="M347.5 155.5V155.5C348.199 159.867 354.395 160.105 355.427 155.805L355.5 155.5" stroke="black" />
			<line id="Line 141" x1="335.646" y1="182.146" x2="369.646" y2="148.146" stroke="black" />
			<line id="Line 142" x1="355" y1="172" x2="366" y2="172" stroke="black" />
			<line id="Line 143" x1="355" y1="175" x2="366" y2="175" stroke="black" />
			<text id="P11_2" fill="black" font-family="Open Sans" font-size="12" letter-spacing="0em">
				<tspan x="351" y="194.155">
					P11
				</tspan>
			</text>
		</g>
		<g id="P12">
			<rect id="P12_BOX" x="390.5" y="147.976" width="34" height="34" fill="#C6C6C6" stroke="black" />
			<path id="Vector 43" d="M395 156V156C395.629 151.189 402.513 150.969 403.447 155.731L403.5 156" stroke="black" />
			<path id="Vector 44" d="M403.5 155.5V155.5C404.363 160.293 411.128 160.583 412.397 155.881L412.5 155.5" stroke="black" />
			<path id="Line 152" d="M390.646 182.146L424 148" stroke="black" />
			<line id="Line 153" x1="410" y1="172" x2="422" y2="172" stroke="black" />
			<line id="Line 154" x1="410" y1="175" x2="422" y2="175" stroke="black" />
			<text id="P12_2" fill="black" font-family="Open Sans" font-size="12" letter-spacing="0em">
				<tspan x="406" y="194.155">
					P12
				</tspan>
			</text>
		</g>
		<g id="P21A">
			<rect id="P21A_BOX" x="449.5" y="147.5" width="34" height="34" fill="#C6C6C6" stroke="black" />
			<path id="Vector 132" d="M455 155.524V155.524C455.499 151.196 461.757 151.231 462.5 155.524V155.524" stroke="black" />
			<path id="Vector 133" d="M462.5 155.024V155.024C463.199 159.391 469.395 159.629 470.427 155.329L470.5 155.024" stroke="black" />
			<line id="Line 386" x1="449.646" y1="181.646" x2="483.646" y2="147.646" stroke="black" />
			<line id="Line 387" x1="470" y1="171.524" x2="481" y2="171.524" stroke="black" />
			<line id="Line 388" x1="470" y1="174.524" x2="481" y2="174.524" stroke="black" />
			<text id="P21A_2" fill="black" font-family="Open Sans" font-size="12" letter-spacing="0em">
				<tspan x="469" y="194.655">
					P21A
				</tspan>
			</text>
		</g>
		<g id="P21B">
			<rect id="P21B_BOX" x="494.5" y="147.5" width="34" height="34" fill="#C6C6C6" stroke="black" />
			<path id="Vector 130" d="M499 155.524V155.524C499.499 151.196 505.757 151.231 506.5 155.524V155.524" stroke="black" />
			<path id="Vector 131" d="M506.5 155.024V155.024C507.199 159.391 513.395 159.629 514.427 155.329L514.5 155.024" stroke="black" />
			<line id="Line 383" x1="494.646" y1="181.67" x2="528.646" y2="147.67" stroke="black" />
			<line id="Line 384" x1="514" y1="171.524" x2="525" y2="171.524" stroke="black" />
			<line id="Line 385" x1="514" y1="174.524" x2="525" y2="174.524" stroke="black" />
			<text id="P21B_2" fill="black" font-family="Open Sans" font-size="12" letter-spacing="0em">
				<tspan x="512" y="194.655">
					P21B
				</tspan>
			</text>
		</g>
		<g id="P21C">
			<rect id="P21C_BOX" x="539.5" y="147.5" width="34" height="34" fill="#C6C6C6" stroke="black" />
			<path id="Vector 128" d="M544 155.524V155.524C544.499 151.196 550.757 151.231 551.5 155.524V155.524" stroke="black" />
			<path id="Vector 129" d="M551.5 155.024V155.024C552.199 159.391 558.395 159.629 559.427 155.329L559.5 155.024" stroke="black" />
			<line id="Line 380" x1="539.646" y1="181.67" x2="573.646" y2="147.67" stroke="black" />
			<line id="Line 381" x1="559" y1="171.524" x2="570" y2="171.524" stroke="black" />
			<line id="Line 382" x1="559" y1="174.524" x2="570" y2="174.524" stroke="black" />
			<text id="P21C_2" fill="black" font-family="Open Sans" font-size="12" letter-spacing="0em">
				<tspan x="559" y="194.655">
					P21C
				</tspan>
			</text>
		</g>
		<g id="P22A">
			<rect id="P22A_BOX" x="594.5" y="147.5" width="34" height="34" fill="#C6C6C6" stroke="black" />
			<path id="Vector 140" d="M599 156V156C599.499 151.672 605.757 151.708 606.5 156V156" stroke="black" />
			<path id="Vector 141" d="M606.5 155.5V155.5C607.199 159.867 613.395 160.105 614.427 155.805L614.5 155.5" stroke="black" />
			<line id="Line 410" x1="594.649" y1="181.644" x2="628.649" y2="148.144" stroke="black" />
			<line id="Line 411" x1="614" y1="172" x2="625" y2="172" stroke="black" />
			<line id="Line 412" x1="614" y1="175" x2="625" y2="175" stroke="black" />
			<text id="P22A_2" fill="black" font-family="Open Sans" font-size="12" letter-spacing="0em">
				<tspan x="613" y="194.655">
					P22A
				</tspan>
			</text>
		</g>
		<g id="P22B">
			<rect id="P22B_BOX" x="640.5" y="147.5" width="34" height="34" fill="#C6C6C6" stroke="black" />
			<path id="Vector 138" d="M645 156V156C645.499 151.672 651.757 151.708 652.5 156V156" stroke="black" />
			<path id="Vector 139" d="M652.5 155.5V155.5C653.199 159.867 659.395 160.105 660.427 155.805L660.5 155.5" stroke="black" />
			<line id="Line 407" x1="640.655" y1="180.639" x2="674.654" y2="148.139" stroke="black" />
			<line id="Line 408" x1="660" y1="172" x2="671" y2="172" stroke="black" />
			<line id="Line 409" x1="660" y1="175" x2="671" y2="175" stroke="black" />
			<text id="P22B_2" fill="black" font-family="Open Sans" font-size="12" letter-spacing="0em">
				<tspan x="660" y="194.655">
					P22B
				</tspan>
			</text>
		</g>
		<g id="P22C">
			<rect id="P22C_BOX" x="685.5" y="147.5" width="34" height="34" fill="#C6C6C6" stroke="black" />
			<path id="Vector 136" d="M690 156V156C690.499 151.672 696.757 151.708 697.5 156V156" stroke="black" />
			<path id="Vector 137" d="M697.5 155.5V155.5C698.199 159.867 704.395 160.105 705.427 155.805L705.5 155.5" stroke="black" />
			<line id="Line 404" x1="685.655" y1="180.639" x2="719.654" y2="148.139" stroke="black" />
			<line id="Line 405" x1="705" y1="172" x2="716" y2="172" stroke="black" />
			<line id="Line 406" x1="705" y1="175" x2="716" y2="175" stroke="black" />
			<text id="P22C_2" fill="black" font-family="Open Sans" font-size="12" letter-spacing="0em">
				<tspan x="706" y="194.655">
					P22C
				</tspan>
			</text>
		</g>
		<g id="P23">
			<rect id="P23_BOX" x="750.5" y="147.524" width="34" height="34" fill="#C6C6C6" stroke="black" />
			<path id="Vector 106" d="M755 154.524V154.524C755.629 149.713 762.513 149.493 763.447 154.255L763.5 154.524" stroke="black" />
			<path id="Vector 107" d="M763.5 154.024V154.024C764.363 158.817 771.128 159.107 772.397 154.405L772.5 154.024" stroke="black" />
			<line id="Line 310" x1="750.652" y1="180.665" x2="784.652" y2="147.641" stroke="black" />
			<line id="Line 311" x1="770" y1="170.524" x2="782" y2="170.524" stroke="black" />
			<line id="Line 312" x1="770" y1="173.524" x2="782" y2="173.524" stroke="black" />
			<text id="P23_2" fill="black" font-family="Open Sans" font-size="12" letter-spacing="0em">
				<tspan x="771" y="194.655">
					P23
				</tspan>
			</text>
		</g>
		<g id="P24">
			<rect id="P24_BOX" x="805.5" y="147.524" width="35" height="34" fill="#C6C6C6" stroke="black" />
			<path id="Vector 109" d="M810 155.524V155.524C810.629 150.713 817.513 150.493 818.447 155.255L818.5 155.524" stroke="black" />
			<path id="Vector 110" d="M818.5 155.024V155.024C819.363 159.817 826.128 160.107 827.397 155.405L827.5 155.024" stroke="black" />
			<line id="Line 317" x1="805.651" y1="181.665" x2="840.651" y2="147.641" stroke="black" />
			<line id="Line 318" x1="825" y1="171.524" x2="837" y2="171.524" stroke="black" />
			<line id="Line 319" x1="825" y1="174.524" x2="837" y2="174.524" stroke="black" />
			<text id="P24_2" fill="black" font-family="Open Sans" font-size="12" letter-spacing="0em">
				<tspan x="826" y="194.655">
					P24
				</tspan>
			</text>
		</g>
		<g id="T7">
			<g id="Group 607">
				<circle id="T7_CIRCLE2" cx="948.5" cy="161.5" r="13" fill="#C6C6C6" stroke="black" />
				<circle id="T7_CIRCLE1" cx="948.5" cy="181.5" r="10" fill="#C6C6C6" stroke="black" />
			</g>
			<text id="T7_2" fill="black" font-family="Open Sans" font-size="12" font-weight="bold" letter-spacing="0em">
				<tspan x="970" y="162.655">
					T7
				</tspan>
			</text>
			<text id="1000VA 230V/110V" fill="black" font-family="Inter" font-size="10" letter-spacing="0em">
				<tspan x="970" y="174.636">
					1000VA
				</tspan>
				<tspan x="970" y="186.636">
					230V/110V
				</tspan>
			</text>
		</g>
		<g id="T8">
			<g id="Group 608">
				<circle id="T8_CIRCLE2" cx="1064.5" cy="161.5" r="13" fill="#C6C6C6" stroke="black" />
				<circle id="T8_CIRCLE1" cx="1064.5" cy="181.5" r="10" fill="#C6C6C6" stroke="black" />
			</g>
			<text id="T8_2" fill="black" font-family="Open Sans" font-size="12" font-weight="bold" letter-spacing="0em">
				<tspan x="1083" y="162.655">
					T8
				</tspan>
			</text>
			<text id="10 00VA 230V/110V" fill="black" font-family="Open Sans" font-size="10" letter-spacing="0em">
				<tspan x="1083" y="175.879">
					10 00VA
				</tspan>
				<tspan x="1083" y="189.879">
					230V/110V
				</tspan>
			</text>
		</g>
		<g id="K4">
			<line id="Line 75" x1="1005.5" y1="218" x2="1005.5" y2="235" stroke="black" stroke-width="3" />
			<text id="K4_2" fill="black" font-family="Inter" font-size="12" letter-spacing="0em">
				<tspan x="993.236" y="212.864">
					K4
				</tspan>
			</text>
			<path id="Line 79" d="M997 223V231" stroke="black" stroke-width="3" />
			<circle id="Ellipse 49" cx="997" cy="220" r="3.5" stroke="black" />
			<circle id="Ellipse 50" cx="997" cy="235" r="3.5" stroke="black" />
		</g>
		<g id="EARTH1">
			<circle id="EF_P21_P22" cx="678.5" cy="259.5" r="10" fill="#C6C6C6" stroke="black" />
			<path id="Line 463" d="M671 262H684.588" stroke="black" stroke-linecap="round" />
			<path id="Line 464" d="M673 264H684.118" stroke="black" stroke-linecap="round" />
			<path id="Line 465" d="M675 266H681.176" stroke="black" stroke-linecap="round" />
			<line id="Line 466" x1="678" y1="253.5" x2="678" y2="261.5" stroke="black" stroke-linecap="round" />
		</g>
		<g id="EARTH2">
			<circle id="EF_T7_T8" cx="967.5" cy="259.5" r="10" fill="#C6C6C6" stroke="black" />
			<path id="Line 463_2" d="M961 262H974.588" stroke="black" stroke-linecap="round" />
			<path id="Line 464_2" d="M962 264H973.118" stroke="black" stroke-linecap="round" />
			<path id="Line 465_2" d="M965 266H971.176" stroke="black" stroke-linecap="round" />
			<path id="Line 466_2" d="M968 253C968 252.724 967.776 252.5 967.5 252.5C967.224 252.5 967 252.724 967 253H968ZM967 253V262H968V253H967Z" fill="black" />
		</g>
		<text id="AELN_BB_INT2" fill="black" font-family="Open Sans" font-size="12" font-weight="600" letter-spacing="0em">
			<tspan x="121.381" y="353.655">
				00.00V
			</tspan>
		</text>
		<text id="AELN_BB_EIMAIN" fill="black" font-family="Open Sans" font-size="12" font-weight="600" letter-spacing="0em">
			<tspan x="265.381" y="353.655">
				00.00V
			</tspan>
		</text>
		<text id="AELN_BB_EISTAND" fill="black" font-family="Open Sans" font-size="12" font-weight="600" letter-spacing="0em">
			<tspan x="383.381" y="353.655">
				00.00V
			</tspan>
		</text>
		<text id="AELN_BB_PO" fill="black" font-family="Open Sans" font-size="12" font-weight="600" letter-spacing="0em">
			<tspan x="639.381" y="353.655">
				00.00V
			</tspan>
		</text>
		<text id="AELN_BB_UFSBI" fill="black" font-family="Open Sans" font-size="12" font-weight="600" letter-spacing="0em">
			<tspan x="805.381" y="353.655">
				00.00V
			</tspan>
		</text>
		<text id="AELN_BB_DNSGCI" fill="black" font-family="Open Sans" font-size="12" font-weight="600" letter-spacing="0em">
			<tspan x="930.381" y="353.655">
				00.00V
			</tspan>
		</text>
		<g id="ALL_WIRES">
			<path id="Line 71" d="M950 227H996" stroke="black" stroke-width="3" />
			<path id="Line 72" d="M1006 227H1064" stroke="black" stroke-width="3" />
			<path id="Line 74" d="M1065 192V228" stroke="black" stroke-width="3" />
			<path id="Line 125" d="M40 82V37" stroke="black" stroke-width="3" />
			<path id="Line 126" d="M40 131V116" stroke="black" stroke-width="3" />
			<path id="Line 666" d="M17 148.5V131.5" stroke="black" stroke-width="3" />
			<path id="Line 667" d="M61 148V132.5" stroke="black" stroke-width="3" />
			<path id="Line 174" d="M284 230H231V182" stroke="black" stroke-width="3" />
			<path id="Line 669" d="M141 234H37V201" stroke="black" stroke-width="3" />
			<path id="Line 176" d="M403 230H349V182" stroke="black" stroke-width="3" />
			<path id="Line 144" d="M136 82V37" stroke="black" stroke-width="3" />
			<path id="Line 145" d="M136 132V116" stroke="black" stroke-width="3" />
			<path id="Line 146" d="M232 81V37" stroke="black" stroke-width="3" />
			<path id="Line 147" d="M232 148V116" stroke="black" stroke-width="3" />
			<path id="Line 148" d="M286 82V37" stroke="black" stroke-width="3" />
			<path id="Line 149" d="M286 148V116" stroke="black" stroke-width="3" />
			<path id="Line 150" d="M353 82V37" stroke="black" stroke-width="3" />
			<path id="Line 151" d="M353 148V116" stroke="black" stroke-width="3" />
			<path id="Line 155" d="M407 82V38" stroke="black" stroke-width="3" />
			<path id="Line 156" d="M407 148V116" stroke="black" stroke-width="3" />
			<path id="Line 67" d="M39 37.0002L1064 37.0002" stroke="black" stroke-width="3" />
			<path id="Line 180" d="M823 225H768V181" stroke="black" stroke-width="3" />
			<path id="Line 313" d="M768 82V37" stroke="black" stroke-width="3" />
			<path id="Line 314" d="M768 147.5V116" stroke="black" stroke-width="3" />
			<path id="Line 320" d="M823 81V37" stroke="black" stroke-width="3" />
			<path id="Line 321" d="M823 148V115" stroke="black" stroke-width="3" />
			<path id="Line 330" d="M949 82V37" stroke="black" stroke-width="3" />
			<path id="Line 331" d="M949 148V116" stroke="black" stroke-width="3" />
			<path id="Line 334" d="M1064 82V36" stroke="black" stroke-width="3" />
			<path id="Line 335" d="M1064 149V116" stroke="black" stroke-width="3" />
			<path id="Line 367" d="M510 82V36" stroke="black" stroke-width="3" />
			<path id="Line 369" d="M510 132V116" stroke="black" stroke-width="3" />
			<path id="Line 370" d="M657 225L510 225V198" stroke="black" stroke-width="3" />
			<path id="Line 372" d="M557 147.5L557 132" stroke="black" stroke-width="3" />
			<path id="Line 373" d="M510 147.524L510 132.024" stroke="black" stroke-width="3" />
			<path id="Line 374" d="M467 147.524L467 130.024" stroke="black" stroke-width="3" />
			<path id="Line 375" d="M467 198.5L467 181" stroke="black" stroke-width="3" />
			<path id="Line 376" d="M510 198.5L510 181" stroke="black" stroke-width="3" />
			<path id="Line 377" d="M557 198.5L557 181" stroke="black" stroke-width="3" />
			<path id="Line 379" d="M657 82V36" stroke="black" stroke-width="3" />
			<path id="Line 394" d="M657 132.524L657 116" stroke="black" stroke-width="3" />
			<path id="Line 398" d="M657 147.5L657 132" stroke="black" stroke-width="3" />
			<path id="Line 400" d="M611 199.5L611 182" stroke="black" stroke-width="3" />
			<path id="Line 401" d="M657 198.5L657 181" stroke="black" stroke-width="3" />
			<path id="Line 402" d="M703 198.5L703 181" stroke="black" stroke-width="3" />
			<path id="Arrow 4" d="M139.939 288.061C140.525 288.646 141.475 288.646 142.061 288.061L151.607 278.515C152.192 277.929 152.192 276.979 151.607 276.393C151.021 275.808 150.071 275.808 149.485 276.393L141 284.879L132.515 276.393C131.929 275.808 130.979 275.808 130.393 276.393C129.808 276.979 129.808 277.929 130.393 278.515L139.939 288.061ZM139.5 200V253H142.5V200H139.5ZM139.5 253V287H142.5V253H139.5Z" fill="black" />
			<path id="Arrow 5" d="M282.939 290.061C283.525 290.646 284.475 290.646 285.061 290.061L294.607 280.515C295.192 279.929 295.192 278.979 294.607 278.393C294.021 277.808 293.071 277.808 292.485 278.393L284 286.879L275.515 278.393C274.929 277.808 273.979 277.808 273.393 278.393C272.808 278.979 272.808 279.929 273.393 280.515L282.939 290.061ZM282.5 182V289H285.5V182H282.5Z" fill="black" />
			<path id="Arrow 6" d="M401.939 290.06C402.525 290.646 403.475 290.646 404.061 290.06L413.607 280.514C414.192 279.929 414.192 278.979 413.607 278.393C413.021 277.807 412.071 277.807 411.485 278.393L403 286.878L394.515 278.393C393.929 277.807 392.979 277.807 392.393 278.393C391.808 278.979 391.808 279.929 392.393 280.514L401.939 290.06ZM401.5 183V289H404.5V183H401.5Z" fill="black" />
			<path id="Arrow 7" d="M656.951 291.572C657.544 292.152 658.493 292.141 659.072 291.549L668.511 281.897C669.09 281.304 669.08 280.355 668.487 279.776C667.895 279.196 666.945 279.207 666.366 279.799L657.976 288.379L649.397 279.989C648.804 279.41 647.855 279.42 647.276 280.013C646.696 280.605 646.707 281.555 647.299 282.134L656.951 291.572ZM655.5 201.017L656.5 290.517L659.5 290.483L658.5 200.983L655.5 201.017Z" fill="black" />
			<path id="Arrow 8" d="M822.949 288.571C823.541 289.151 824.49 289.142 825.071 288.551L834.526 278.916C835.107 278.324 835.098 277.375 834.507 276.795C833.915 276.214 832.966 276.223 832.385 276.814L823.98 285.379L815.416 276.974C814.824 276.394 813.875 276.402 813.294 276.994C812.714 277.585 812.723 278.535 813.314 279.115L822.949 288.571ZM821.5 181.014L822.5 287.514L825.5 287.486L824.5 180.986L821.5 181.014Z" fill="black" />
			<path id="Arrow 9" d="M947.939 291.061C948.525 291.646 949.475 291.646 950.061 291.061L959.607 281.515C960.192 280.929 960.192 279.979 959.607 279.393C959.021 278.808 958.071 278.808 957.485 279.393L949 287.879L940.515 279.393C939.929 278.808 938.979 278.808 938.393 279.393C937.808 279.979 937.808 280.929 938.393 281.515L947.939 291.061ZM947.5 192V290H950.5V192H947.5Z" fill="black" />
			<path id="Line 397" d="M703 147.5L703 132" stroke="black" stroke-width="3" />
			<path id="Line 399" d="M612 148.5L612 131" stroke="black" stroke-width="3" />
			<line id="Line 661" x1="466" y1="199.5" x2="558" y2="199.5" stroke="black" stroke-width="3" />
			<line id="Line 662" x1="466" y1="130.5" x2="558" y2="130.5" stroke="black" stroke-width="3" />
			<path id="Line 665" d="M15.5 132.5H62.5001" stroke="black" stroke-width="3" />
			<path id="Line 668" d="M14.5 200.5H63.5" stroke="black" stroke-width="3" />
			<line id="Line 663" x1="611" y1="130.5" x2="704" y2="130.5" stroke="black" stroke-width="3" />
			<line id="Line 664" x1="610" y1="199.5" x2="705" y2="199.5" stroke="black" stroke-width="3" />
			<path id="Line 666_2" d="M115 148V130.5" stroke="black" stroke-width="3" />
			<path id="Line 667_2" d="M159 148V131.5" stroke="black" stroke-width="3" />
			<path id="Line 665_2" d="M113.5 131.5H160.5" stroke="black" stroke-width="3" />
			<path id="Line 668_2" d="M113 198.5H161" stroke="black" stroke-width="3" />
			<path id="Line 669_2" d="M114 199.5L114 182" stroke="black" stroke-width="3" />
			<path id="Line 670" d="M160 199.5L160 182" stroke="black" stroke-width="3" />
			<path id="Line 375_2" d="M16 199.5L16 182" stroke="black" stroke-width="3" />
			<path id="Line 376_2" d="M62 199.5L62 182" stroke="black" stroke-width="3" />
		</g>
		<g id="STATIC_LABELS">
			<text id="POINT OPERATION" fill="black" font-family="Open Sans" font-size="10" letter-spacing="0em">
				<tspan x="614" y="304.879">
					POINT OPERATION
				</tspan>
			</text>
			<text id="RELAY INT2" fill="black" font-family="Open Sans" font-size="10" letter-spacing="0em">
				<tspan x="112.986" y="300.879">
					RELAY INT2
				</tspan>
			</text>
			<text id="EI MAIN" fill="black" font-family="Open Sans" font-size="10" letter-spacing="0em">
				<tspan x="265.704" y="304.879">
					EI MAIN
				</tspan>
			</text>
			<text id="EI STANDBY" fill="black" font-family="Open Sans" font-size="10" letter-spacing="0em">
				<tspan x="375.441" y="304.879">
					EI STANDBY
				</tspan>
			</text>
			<text id="KATHUWAS" fill="black" font-family="Open Sans" font-size="10" letter-spacing="0em">
				<tspan x="793.159" y="301.879">
					KATHUWAS
				</tspan>
			</text>
			<text id="DN SIDE SIGNALS (with cut in relay)" fill="black" font-family="Open Sans" font-size="10" letter-spacing="0em">
				<tspan x="908.399" y="301.879">
					DN SIDE SIGNALS
				</tspan>
				<tspan x="909.186" y="315.879">
					(with cut in relay)
				</tspan>
			</text>
			<text id="3x10A" fill="black" font-family="Open Sans" font-size="10" letter-spacing="0em">
				<tspan x="478" y="215.879">
					3x10A
				</tspan>
			</text>
			<text id="3x10A_2" fill="black" font-family="Open Sans" font-size="10" letter-spacing="0em">
				<tspan x="661" y="215.879">
					3x10A
				</tspan>
			</text>
			<text id="110V - 130V DC 30A" fill="black" font-family="Open Sans" font-size="10" letter-spacing="0em">
				<tspan x="581.16" y="241.879">
					110V - 130V DC
				</tspan>
				<tspan x="634.227" y="255.879">
					30A
				</tspan>
			</text>
			<text id="24V - 32V DC 30A" fill="black" font-family="Open Sans" font-size="10" letter-spacing="0em">
				<tspan x="74.6055" y="244.879">
					24V - 32V DC
				</tspan>
				<tspan x="116.227" y="258.879">
					30A
				</tspan>
			</text>
			<text id="110v-130VDC 5A" fill="black" font-family="Open Sans" font-size="10" letter-spacing="0em">
				<tspan x="217.92" y="244.879">
					110v-130VDC
				</tspan>
				<tspan x="267.949" y="258.879">
					5A
				</tspan>
			</text>
			<text id="110V - 130V DC 5A" fill="black" font-family="Open Sans" font-size="10" letter-spacing="0em">
				<tspan x="326.16" y="244.879">
					110V - 130V DC
				</tspan>
				<tspan x="384.949" y="258.879">
					5A
				</tspan>
			</text>
			<text id="24V - 32V DC 15A" fill="black" font-family="Open Sans" font-size="10" letter-spacing="0em">
				<tspan x="759.605" y="241.879">
					24V - 32V DC
				</tspan>
				<tspan x="801.227" y="255.879">
					15A
				</tspan>
			</text>
			<text id="110VAC" fill="black" font-family="Open Sans" font-size="10" letter-spacing="0em">
				<tspan x="907.119" y="241.879">
					110VAC
				</tspan>
			</text>
			<text id="DISTRIBUTION BUSBAR, 230VAC, 1PH, 50HZ" fill="black" font-family="Open Sans" font-size="14" font-weight="bold" letter-spacing="0em">
				<tspan x="438" y="14.9312">
					DISTRIBUTION BUSBAR, 230VAC, 1PH, 50HZ
				</tspan>
			</text>
			<text id="2x15A" fill="black" font-family="Open Sans" font-size="10" letter-spacing="0em">
				<tspan x="41" y="213.879">
					2x15A
				</tspan>
			</text>
			<text id="2x15A_2" fill="black" font-family="Open Sans" font-size="10" letter-spacing="0em">
				<tspan x="144" y="213.879">
					2x15A
				</tspan>
			</text>
		</g>
	</g>
</svg>
