<svg width="2156" height="490" viewBox="0 0 2156 490" fill="none" xmlns="http://www.w3.org/2000/svg">
	<rect width="2156" height="490" fill="#F5F5F5" />
	<g id="ALH(ACDB2)">
		<rect width="2156" height="490" fill="white" />
		<g id="ALH-ACDB2">
			<g id="CBF">
				<g id="CBF9">
					<text id="CBF9_2" transform="matrix(0 -1 1 0 102.285 150.143)" fill="black" font-family="Open Sans" font-size="12" letter-spacing="0em">
						<tspan x="0" y="12.6553">
							CBF9
						</tspan>
					</text>
					<g id="Group 743">
						<g id="Group 742">
							<path id="Ellipse 45" d="M97.7018 114.821C97.7018 117.703 95.0313 120.143 91.6009 120.143C88.1706 120.143 85.5 117.703 85.5 114.821C85.5 111.94 88.1706 109.5 91.6009 109.5C95.0313 109.5 97.7018 111.94 97.7018 114.821Z" stroke="black" />
							<path id="Ellipse 46" d="M97.8249 144.321C97.8249 147.203 95.1543 149.643 91.724 149.643C88.2936 149.643 85.623 147.203 85.623 144.321C85.623 141.44 88.2936 139 91.724 139C95.1543 139 97.8249 141.44 97.8249 144.321Z" stroke="black" />
						</g>
						<g id="Group 741">
							<path id="Vector 32" d="M85.336 105.9L76.3371 115.741C70.0216 122.647 69.3399 133.01 74.6962 140.684L75.0201 141.148C75.8441 142.329 76.7931 143.417 77.8508 144.394L85.336 151.307" stroke="black" />
							<line id="Line 127" y1="-0.5" x2="18.8444" y2="-0.5" transform="matrix(0.773914 0.633291 -0.694615 0.719382 65.5137 118.172)" stroke="black" />
							<line id="Line 128" y1="-0.5" x2="18.8444" y2="-0.5" transform="matrix(0.773914 0.633291 -0.694615 0.719382 64 122.35)" stroke="black" />
						</g>
					</g>
				</g>
				<g id="CBF10">
					<text id="CBF10_2" transform="matrix(0 -1 1 0 174.896 150.143)" fill="black" font-family="Open Sans" font-size="12" letter-spacing="0em">
						<tspan x="0" y="12.6553">
							CBF10
						</tspan>
					</text>
					<g id="Group 744">
						<g id="Group 742_2">
							<path id="Ellipse 45_2" d="M170.436 114.05C170.436 116.932 167.766 119.371 164.335 119.371C160.905 119.371 158.234 116.932 158.234 114.05C158.234 111.168 160.905 108.729 164.335 108.729C167.766 108.729 170.436 111.168 170.436 114.05Z" stroke="black" />
							<path id="Ellipse 46_2" d="M170.436 144.321C170.436 147.203 167.766 149.643 164.335 149.643C160.905 149.643 158.234 147.203 158.234 144.321C158.234 141.44 160.905 139 164.335 139C167.766 139 170.436 141.44 170.436 144.321Z" stroke="black" />
						</g>
						<g id="Group 741_2">
							<path id="Vector 32_2" d="M157.947 105.9L148.948 115.741C142.633 122.647 141.951 133.01 147.308 140.684L147.631 141.148C148.455 142.329 149.404 143.417 150.462 144.394L157.947 151.307" stroke="black" />
							<line id="Line 127_2" y1="-0.5" x2="18.8444" y2="-0.5" transform="matrix(0.773914 0.633291 -0.694615 0.719382 138.125 118.172)" stroke="black" />
							<line id="Line 128_2" y1="-0.5" x2="18.8444" y2="-0.5" transform="matrix(0.773914 0.633291 -0.694615 0.719382 136.611 122.35)" stroke="black" />
						</g>
					</g>
				</g>
				<g id="CBF11">
					<text id="CBF11_2" transform="matrix(0 -1 1 0 265.99 150.143)" fill="black" font-family="Open Sans" font-size="12" letter-spacing="0em">
						<tspan x="0" y="12.6553">
							CBF11
						</tspan>
					</text>
					<g id="Group 746">
						<g id="Group 742_3">
							<path id="Ellipse 45_3" d="M261.532 114.05C261.532 116.932 258.861 119.371 255.431 119.371C252.001 119.371 249.33 116.932 249.33 114.05C249.33 111.168 252.001 108.729 255.431 108.729C258.861 108.729 261.532 111.168 261.532 114.05Z" stroke="black" />
							<path id="Ellipse 46_3" d="M261.532 144.321C261.532 147.203 258.861 149.643 255.431 149.643C252.001 149.643 249.33 147.203 249.33 144.321C249.33 141.44 252.001 139 255.431 139C258.861 139 261.532 141.44 261.532 144.321Z" stroke="black" />
						</g>
						<g id="Group 741_3">
							<path id="Vector 32_3" d="M249.043 105.9L240.044 115.741C233.729 122.647 233.047 133.01 238.403 140.684L238.727 141.148C239.551 142.329 240.5 143.417 241.558 144.394L249.043 151.307" stroke="black" />
							<line id="Line 127_3" y1="-0.5" x2="18.8444" y2="-0.5" transform="matrix(0.773914 0.633291 -0.694615 0.719382 229.221 118.172)" stroke="black" />
							<line id="Line 128_3" y1="-0.5" x2="18.8444" y2="-0.5" transform="matrix(0.773914 0.633291 -0.694615 0.719382 227.707 122.35)" stroke="black" />
						</g>
					</g>
				</g>
				<g id="CBF20">
					<text id="CBF18" transform="matrix(0 -1 1 0 497.02 150.143)" fill="black" font-family="Open Sans" font-size="12" letter-spacing="0em">
						<tspan x="0" y="12.6553">
							CBF18
						</tspan>
					</text>
					<g id="Group 745">
						<g id="Group 742_4">
							<path id="Ellipse 45_4" d="M492.561 114.05C492.561 116.932 489.891 119.371 486.46 119.371C483.03 119.371 480.359 116.932 480.359 114.05C480.359 111.168 483.03 108.729 486.46 108.729C489.891 108.729 492.561 111.168 492.561 114.05Z" stroke="black" />
							<path id="Ellipse 46_4" d="M492.561 144.321C492.561 147.203 489.891 149.643 486.46 149.643C483.03 149.643 480.359 147.203 480.359 144.321C480.359 141.44 483.03 139 486.46 139C489.891 139 492.561 141.44 492.561 144.321Z" stroke="black" />
						</g>
						<g id="Group 741_4">
							<path id="Vector 32_4" d="M480.07 105.9L471.071 115.741C464.756 122.647 464.074 133.01 469.431 140.684L469.754 141.148C470.578 142.329 471.528 143.417 472.585 144.394L480.07 151.307" stroke="black" />
							<line id="Line 127_4" y1="-0.5" x2="18.8444" y2="-0.5" transform="matrix(0.773914 0.633291 -0.694615 0.719382 460.248 118.172)" stroke="black" />
							<line id="Line 128_4" y1="-0.5" x2="18.8444" y2="-0.5" transform="matrix(0.773914 0.633291 -0.694615 0.719382 458.734 122.35)" stroke="black" />
						</g>
					</g>
				</g>
				<g id="CBF31">
					<text id="CBF19" transform="matrix(0 -1 1 0 588.113 150.143)" fill="black" font-family="Open Sans" font-size="12" letter-spacing="0em">
						<tspan x="0" y="12.6553">
							CBF19
						</tspan>
					</text>
					<g id="Group 754">
						<g id="Group 742_5">
							<path id="Ellipse 45_5" d="M583.657 114.05C583.657 116.932 580.986 119.371 577.556 119.371C574.126 119.371 571.455 116.932 571.455 114.05C571.455 111.168 574.126 108.729 577.556 108.729C580.986 108.729 583.657 111.168 583.657 114.05Z" stroke="black" />
							<path id="Ellipse 46_5" d="M583.657 144.321C583.657 147.203 580.986 149.643 577.556 149.643C574.126 149.643 571.455 147.203 571.455 144.321C571.455 141.44 574.126 139 577.556 139C580.986 139 583.657 141.44 583.657 144.321Z" stroke="black" />
						</g>
						<g id="Group 741_5">
							<path id="Vector 32_5" d="M571.166 105.9L562.167 115.741C555.852 122.647 555.17 133.01 560.526 140.684L560.85 141.148C561.674 142.329 562.623 143.417 563.681 144.394L571.166 151.307" stroke="black" />
							<line id="Line 127_5" y1="-0.5" x2="18.8444" y2="-0.5" transform="matrix(0.773914 0.633291 -0.694615 0.719382 551.344 118.172)" stroke="black" />
							<line id="Line 128_5" y1="-0.5" x2="18.8444" y2="-0.5" transform="matrix(0.773914 0.633291 -0.694615 0.719382 549.83 122.35)" stroke="black" />
						</g>
					</g>
				</g>
				<g id="CBF32">
					<text id="CBF20_2" transform="matrix(0 -1 1 0 660.723 150.143)" fill="black" font-family="Open Sans" font-size="12" letter-spacing="0em">
						<tspan x="0" y="12.6553">
							CBF20
						</tspan>
					</text>
					<g id="Group 755">
						<g id="Group 742_6">
							<path id="Ellipse 45_6" d="M656.262 114.05C656.262 116.932 653.592 119.371 650.161 119.371C646.731 119.371 644.061 116.932 644.061 114.05C644.061 111.168 646.731 108.729 650.161 108.729C653.592 108.729 656.262 111.168 656.262 114.05Z" stroke="black" />
							<path id="Ellipse 46_6" d="M656.262 144.321C656.262 147.203 653.592 149.643 650.161 149.643C646.731 149.643 644.061 147.203 644.061 144.321C644.061 141.44 646.731 139 650.161 139C653.592 139 656.262 141.44 656.262 144.321Z" stroke="black" />
						</g>
						<g id="Group 741_6">
							<path id="Vector 32_6" d="M643.773 105.9L634.775 115.741C628.459 122.647 627.777 133.01 633.134 140.684L633.458 141.148C634.282 142.329 635.231 143.417 636.288 144.394L643.773 151.307" stroke="black" />
							<line id="Line 127_6" y1="-0.5" x2="18.8444" y2="-0.5" transform="matrix(0.773914 0.633291 -0.694615 0.719382 623.951 118.172)" stroke="black" />
							<line id="Line 128_6" y1="-0.5" x2="18.8444" y2="-0.5" transform="matrix(0.773914 0.633291 -0.694615 0.719382 622.438 122.35)" stroke="black" />
						</g>
					</g>
				</g>
				<g id="CBF19_2">
					<text id="CBF17" transform="matrix(0 -1 1 0 425.73 150.143)" fill="black" font-family="Open Sans" font-size="12" letter-spacing="0em">
						<tspan x="0" y="12.6553">
							CBF17
						</tspan>
					</text>
					<g id="Group 750">
						<g id="Group 742_7">
							<path id="Ellipse 45_7" d="M421.27 114.05C421.27 116.932 418.6 119.371 415.169 119.371C411.739 119.371 409.068 116.932 409.068 114.05C409.068 111.168 411.739 108.729 415.169 108.729C418.6 108.729 421.27 111.168 421.27 114.05Z" stroke="black" />
							<path id="Ellipse 46_7" d="M421.27 144.321C421.27 147.203 418.6 149.643 415.169 149.643C411.739 149.643 409.068 147.203 409.068 144.321C409.068 141.44 411.739 139 415.169 139C418.6 139 421.27 141.44 421.27 144.321Z" stroke="black" />
						</g>
						<g id="Group 741_7">
							<path id="Vector 32_7" d="M408.779 105.9L399.78 115.741C393.465 122.647 392.783 133.01 398.14 140.684L398.463 141.148C399.287 142.329 400.236 143.417 401.294 144.394L408.779 151.307" stroke="black" />
							<line id="Line 127_7" y1="-0.5" x2="18.8444" y2="-0.5" transform="matrix(0.773914 0.633291 -0.694615 0.719382 388.957 118.172)" stroke="black" />
							<line id="Line 128_7" y1="-0.5" x2="18.8444" y2="-0.5" transform="matrix(0.773914 0.633291 -0.694615 0.719382 387.443 122.35)" stroke="black" />
						</g>
					</g>
				</g>
				<g id="CBF18_2">
					<text id="CBF12" transform="matrix(0 -1 1 0 337.279 150.143)" fill="black" font-family="Open Sans" font-size="12" letter-spacing="0em">
						<tspan x="0" y="12.6553">
							CBF12
						</tspan>
					</text>
					<g id="Group 748">
						<g id="Group 742_8">
							<path id="Ellipse 45_8" d="M332.817 114.05C332.817 116.932 330.146 119.371 326.716 119.371C323.286 119.371 320.615 116.932 320.615 114.05C320.615 111.168 323.286 108.729 326.716 108.729C330.146 108.729 332.817 111.168 332.817 114.05Z" stroke="black" />
							<path id="Ellipse 46_8" d="M332.817 144.321C332.817 147.203 330.146 149.643 326.716 149.643C323.286 149.643 320.615 147.203 320.615 144.321C320.615 141.44 323.286 139 326.716 139C330.146 139 332.817 141.44 332.817 144.321Z" stroke="black" />
						</g>
						<g id="Group 741_8">
							<path id="Vector 32_8" d="M320.328 105.9L311.329 115.741C305.014 122.647 304.332 133.01 309.688 140.684L310.012 141.148C310.836 142.329 311.785 143.417 312.843 144.394L320.328 151.307" stroke="black" />
							<line id="Line 127_8" y1="-0.5" x2="18.8444" y2="-0.5" transform="matrix(0.773914 0.633291 -0.694615 0.719382 300.508 118.172)" stroke="black" />
							<line id="Line 128_8" y1="-0.5" x2="18.8444" y2="-0.5" transform="matrix(0.773914 0.633291 -0.694615 0.719382 298.994 122.35)" stroke="black" />
						</g>
					</g>
				</g>
				<g id="CBF31_2">
					<text id="CBF21" transform="matrix(0 -1 1 0 751.818 150.143)" fill="black" font-family="Open Sans" font-size="12" letter-spacing="0em">
						<tspan x="0" y="12.6553">
							CBF21
						</tspan>
					</text>
					<g id="Group 754_2">
						<g id="Group 742_9">
							<path id="Ellipse 45_9" d="M747.358 114.05C747.358 116.932 744.688 119.371 741.257 119.371C737.827 119.371 735.156 116.932 735.156 114.05C735.156 111.168 737.827 108.729 741.257 108.729C744.688 108.729 747.358 111.168 747.358 114.05Z" stroke="black" />
							<path id="Ellipse 46_9" d="M747.358 144.321C747.358 147.203 744.688 149.643 741.257 149.643C737.827 149.643 735.156 147.203 735.156 144.321C735.156 141.44 737.827 139 741.257 139C744.688 139 747.358 141.44 747.358 144.321Z" stroke="black" />
						</g>
						<g id="Group 741_9">
							<path id="Vector 32_9" d="M734.869 105.9L725.87 115.741C719.555 122.647 718.873 133.01 724.229 140.684L724.553 141.148C725.377 142.329 726.326 143.417 727.384 144.394L734.869 151.307" stroke="black" />
							<line id="Line 127_9" y1="-0.5" x2="18.8444" y2="-0.5" transform="matrix(0.773914 0.633291 -0.694615 0.719382 715.047 118.172)" stroke="black" />
							<line id="Line 128_9" y1="-0.5" x2="18.8444" y2="-0.5" transform="matrix(0.773914 0.633291 -0.694615 0.719382 713.533 122.35)" stroke="black" />
						</g>
					</g>
				</g>
				<g id="CBF32_2">
					<text id="CBF22" transform="matrix(0 -1 1 0 824.426 150.143)" fill="black" font-family="Open Sans" font-size="12" letter-spacing="0em">
						<tspan x="0" y="12.6553">
							CBF22
						</tspan>
					</text>
					<g id="Group 755_2">
						<g id="Group 742_10">
							<path id="Ellipse 45_10" d="M819.967 114.05C819.967 116.932 817.297 119.371 813.867 119.371C810.436 119.371 807.766 116.932 807.766 114.05C807.766 111.168 810.436 108.729 813.867 108.729C817.297 108.729 819.967 111.168 819.967 114.05Z" stroke="black" />
							<path id="Ellipse 46_10" d="M819.967 144.321C819.967 147.203 817.297 149.643 813.867 149.643C810.436 149.643 807.766 147.203 807.766 144.321C807.766 141.44 810.436 139 813.867 139C817.297 139 819.967 141.44 819.967 144.321Z" stroke="black" />
						</g>
						<g id="Group 741_10">
							<path id="Vector 32_10" d="M807.479 105.9L798.48 115.741C792.164 122.647 791.482 133.01 796.839 140.684L797.163 141.148C797.987 142.329 798.936 143.417 799.993 144.394L807.479 151.307" stroke="black" />
							<line id="Line 127_10" y1="-0.5" x2="18.8444" y2="-0.5" transform="matrix(0.773914 0.633291 -0.694615 0.719382 787.656 118.172)" stroke="black" />
							<line id="Line 128_10" y1="-0.5" x2="18.8444" y2="-0.5" transform="matrix(0.773914 0.633291 -0.694615 0.719382 786.143 122.35)" stroke="black" />
						</g>
					</g>
				</g>
				<g id="CBF31_3">
					<text id="CBF23" transform="matrix(0 -1 1 0 922.121 150.143)" fill="black" font-family="Open Sans" font-size="12" letter-spacing="0em">
						<tspan x="0" y="12.6553">
							CBF23
						</tspan>
					</text>
					<g id="Group 754_3">
						<g id="Group 742_11">
							<path id="Ellipse 45_11" d="M917.659 114.05C917.659 116.932 914.988 119.371 911.558 119.371C908.128 119.371 905.457 116.932 905.457 114.05C905.457 111.168 908.128 108.729 911.558 108.729C914.988 108.729 917.659 111.168 917.659 114.05Z" stroke="black" />
							<path id="Ellipse 46_11" d="M917.659 144.321C917.659 147.203 914.988 149.643 911.558 149.643C908.128 149.643 905.457 147.203 905.457 144.321C905.457 141.44 908.128 139 911.558 139C914.988 139 917.659 141.44 917.659 144.321Z" stroke="black" />
						</g>
						<g id="Group 741_11">
							<path id="Vector 32_11" d="M905.17 105.9L896.171 115.741C889.856 122.647 889.174 133.01 894.53 140.684L894.854 141.148C895.678 142.329 896.627 143.417 897.685 144.394L905.17 151.307" stroke="black" />
							<line id="Line 127_11" y1="-0.5" x2="18.8444" y2="-0.5" transform="matrix(0.773914 0.633291 -0.694615 0.719382 885.348 118.172)" stroke="black" />
							<line id="Line 128_11" y1="-0.5" x2="18.8444" y2="-0.5" transform="matrix(0.773914 0.633291 -0.694615 0.719382 883.834 122.35)" stroke="black" />
						</g>
					</g>
				</g>
				<g id="CBF32_3">
					<text id="CBF24" transform="matrix(0 -1 1 0 994.725 150.143)" fill="black" font-family="Open Sans" font-size="12" letter-spacing="0em">
						<tspan x="0" y="12.6553">
							CBF24
						</tspan>
					</text>
					<g id="Group 755_3">
						<g id="Group 742_12">
							<path id="Ellipse 45_12" d="M990.266 114.05C990.266 116.932 987.596 119.371 984.165 119.371C980.735 119.371 978.064 116.932 978.064 114.05C978.064 111.168 980.735 108.729 984.165 108.729C987.596 108.729 990.266 111.168 990.266 114.05Z" stroke="black" />
							<path id="Ellipse 46_12" d="M990.266 144.321C990.266 147.203 987.596 149.643 984.165 149.643C980.735 149.643 978.064 147.203 978.064 144.321C978.064 141.44 980.735 139 984.165 139C987.596 139 990.266 141.44 990.266 144.321Z" stroke="black" />
						</g>
						<g id="Group 741_12">
							<path id="Vector 32_12" d="M977.775 105.9L968.777 115.741C962.461 122.647 961.779 133.01 967.136 140.684L967.46 141.148C968.284 142.329 969.233 143.417 970.29 144.394L977.775 151.307" stroke="black" />
							<line id="Line 127_12" y1="-0.5" x2="18.8444" y2="-0.5" transform="matrix(0.773914 0.633291 -0.694615 0.719382 957.953 118.172)" stroke="black" />
							<line id="Line 128_12" y1="-0.5" x2="18.8444" y2="-0.5" transform="matrix(0.773914 0.633291 -0.694615 0.719382 956.439 122.35)" stroke="black" />
						</g>
					</g>
				</g>
				<g id="CBF31_4">
					<text id="CBF24_2" transform="matrix(0 -1 1 0 1088.46 150.143)" fill="black" font-family="Open Sans" font-size="12" letter-spacing="0em">
						<tspan x="0" y="12.6553">
							CBF24
						</tspan>
					</text>
					<g id="Group 754_4">
						<g id="Group 742_13">
							<path id="Ellipse 45_13" d="M1084 114.05C1084 116.932 1081.33 119.371 1077.9 119.371C1074.47 119.371 1071.8 116.932 1071.8 114.05C1071.8 111.168 1074.47 108.729 1077.9 108.729C1081.33 108.729 1084 111.168 1084 114.05Z" stroke="black" />
							<path id="Ellipse 46_13" d="M1084 144.321C1084 147.203 1081.33 149.643 1077.9 149.643C1074.47 149.643 1071.8 147.203 1071.8 144.321C1071.8 141.44 1074.47 139 1077.9 139C1081.33 139 1084 141.44 1084 144.321Z" stroke="black" />
						</g>
						<g id="Group 741_13">
							<path id="Vector 32_13" d="M1071.51 105.9L1062.51 115.741C1056.19 122.647 1055.51 133.01 1060.87 140.684L1061.19 141.148C1062.02 142.329 1062.97 143.417 1064.02 144.394L1071.51 151.307" stroke="black" />
							<line id="Line 127_13" y1="-0.5" x2="18.8444" y2="-0.5" transform="matrix(0.773914 0.633291 -0.694615 0.719382 1051.69 118.172)" stroke="black" />
							<line id="Line 128_13" y1="-0.5" x2="18.8444" y2="-0.5" transform="matrix(0.773914 0.633291 -0.694615 0.719382 1050.17 122.35)" stroke="black" />
						</g>
					</g>
				</g>
				<g id="CBF32_4">
					<text id="CBF26" transform="matrix(0 -1 1 0 1161.07 150.143)" fill="black" font-family="Open Sans" font-size="12" letter-spacing="0em">
						<tspan x="0" y="12.6553">
							CBF26
						</tspan>
					</text>
					<g id="Group 755_4">
						<g id="Group 742_14">
							<path id="Ellipse 45_14" d="M1156.61 114.05C1156.61 116.931 1153.94 119.371 1150.51 119.371C1147.08 119.371 1144.41 116.931 1144.41 114.05C1144.41 111.168 1147.08 108.728 1150.51 108.728C1153.94 108.728 1156.61 111.168 1156.61 114.05Z" stroke="black" />
							<path id="Ellipse 46_14" d="M1156.61 144.321C1156.61 147.203 1153.94 149.643 1150.51 149.643C1147.08 149.643 1144.41 147.203 1144.41 144.321C1144.41 141.439 1147.08 139 1150.51 139C1153.94 139 1156.61 141.439 1156.61 144.321Z" stroke="black" />
						</g>
						<g id="Group 741_14">
							<path id="Vector 32_14" d="M1144.12 105.9L1135.12 115.741C1128.81 122.647 1128.13 133.01 1133.48 140.684L1133.81 141.148C1134.63 142.329 1135.58 143.417 1136.64 144.394L1144.12 151.307" stroke="black" />
							<line id="Line 127_14" y1="-0.5" x2="18.8444" y2="-0.5" transform="matrix(0.773914 0.633291 -0.694615 0.719382 1124.3 118.172)" stroke="black" />
							<line id="Line 128_14" y1="-0.5" x2="18.8444" y2="-0.5" transform="matrix(0.773914 0.633291 -0.694615 0.719382 1122.79 122.35)" stroke="black" />
						</g>
					</g>
				</g>
			</g>
			<g id="P1">
				<rect id="P1_BOX" x="69.7812" y="186.126" width="47" height="40" fill="#C6C6C6" stroke="black" />
				<path id="Vector 33" d="M75.8809 195.55V195.55C76.6141 189.946 84.6323 189.691 85.7207 195.237L85.7822 195.55" stroke="black" />
				<path id="Vector 34" d="M85.7832 194.968V194.968C86.8018 200.583 94.7238 200.924 96.2221 195.419L96.3447 194.968" stroke="black" />
				<path id="Line 129" d="M70.2266 226.073L116.377 186.464" stroke="black" />
				<line id="Line 130" x1="95.6836" y1="214.261" x2="110.206" y2="214.261" stroke="black" />
				<line id="Line 131" x1="95.6836" y1="217.754" x2="110.206" y2="217.754" stroke="black" />
				<text id="P1_2" fill="black" font-family="Open Sans" font-size="14" font-weight="600" letter-spacing="0em">
					<tspan x="98" y="244.931">
						P1
					</tspan>
				</text>
			</g>
			<g id="P2">
				<rect id="P2_BOX" x="142.377" y="185.812" width="47" height="40" fill="#C6C6C6" stroke="black" />
				<path id="Vector 35" d="M148.477 195.236V195.236C149.21 189.632 157.228 189.376 158.316 194.922L158.378 195.236" stroke="black" />
				<path id="Vector 36" d="M158.379 194.654V194.654C159.398 200.268 167.319 200.61 168.818 195.104L168.94 194.654" stroke="black" />
				<path id="Line 132" d="M142.822 225.759L188.877 186.464" stroke="black" />
				<line id="Line 133" x1="168.279" y1="213.947" x2="182.801" y2="213.947" stroke="black" />
				<line id="Line 134" x1="168.279" y1="217.439" x2="182.801" y2="217.439" stroke="black" />
				<text id="P2_2" fill="black" font-family="Open Sans" font-size="14" font-weight="600" letter-spacing="0em">
					<tspan x="170" y="243.931">
						P2
					</tspan>
				</text>
			</g>
			<g id="P3">
				<rect id="P3_BOX" x="230.844" y="186.126" width="47" height="40" fill="#C6C6C6" stroke="black" />
				<path id="Vector 37" d="M236.943 195.55V195.55C237.677 189.946 245.695 189.691 246.783 195.237L246.845 195.55" stroke="black" />
				<path id="Vector 38" d="M246.846 194.968V194.968C247.864 200.583 255.786 200.924 257.285 195.419L257.407 194.968" stroke="black" />
				<path id="Line 135" d="M231.289 226.073L277.377 186.464" stroke="black" />
				<line id="Line 136" x1="256.746" y1="214.261" x2="271.268" y2="214.261" stroke="black" />
				<line id="Line 137" x1="256.746" y1="217.754" x2="271.268" y2="217.754" stroke="black" />
				<text id="P3_2" fill="black" font-family="Open Sans" font-size="14" font-weight="600" letter-spacing="0em">
					<tspan x="260" y="243.931">
						P3
					</tspan>
				</text>
			</g>
			<g id="P4">
				<rect id="P4_BOX" x="303.453" y="186.126" width="47" height="40" fill="#C6C6C6" stroke="black" />
				<path id="Vector 39" d="M309.553 195.55V195.55C310.286 189.946 318.304 189.691 319.393 195.237L319.454 195.55" stroke="black" />
				<path id="Vector 40" d="M319.455 194.968V194.968C320.474 200.583 328.396 200.924 329.894 195.419L330.017 194.968" stroke="black" />
				<path id="Line 138" d="M303.898 226.073L350.377 186.464" stroke="black" />
				<line id="Line 139" x1="329.355" y1="214.261" x2="343.877" y2="214.261" stroke="black" />
				<line id="Line 140" x1="329.355" y1="217.754" x2="343.877" y2="217.754" stroke="black" />
				<text id="P4_2" fill="black" font-family="Open Sans" font-size="14" font-weight="600" letter-spacing="0em">
					<tspan x="331" y="243.931">
						P4
					</tspan>
				</text>
			</g>
			<g id="P9">
				<rect id="P9_BOX" x="391.906" y="186.126" width="47" height="40" fill="#C6C6C6" stroke="black" />
				<path id="Vector 41" d="M398.006 195.55V195.55C398.739 189.946 406.757 189.691 407.846 195.237L407.907 195.55" stroke="black" />
				<path id="Vector 42" d="M407.908 194.968V194.968C408.927 200.583 416.849 200.924 418.347 195.419L418.47 194.968" stroke="black" />
				<path id="Line 141" d="M392.352 226.073L438.377 186.464" stroke="black" />
				<line id="Line 142" x1="417.809" y1="214.261" x2="432.331" y2="214.261" stroke="black" />
				<line id="Line 143" x1="417.809" y1="217.754" x2="432.331" y2="217.754" stroke="black" />
				<text id="P9_2" fill="black" font-family="Open Sans" font-size="14" font-weight="600" letter-spacing="0em">
					<tspan x="415" y="243.931">
						P9
					</tspan>
				</text>
			</g>
			<g id="P10">
				<rect id="P10_BOX" x="464.516" y="186.126" width="47" height="40" fill="#C6C6C6" stroke="black" />
				<path id="Vector 43" d="M470.615 195.55V195.55C471.537 189.335 480.384 189.018 481.748 195.151L481.837 195.55" stroke="black" />
				<path id="Vector 44" d="M481.838 194.968V194.968C483.092 201.111 491.712 201.524 493.548 195.529L493.72 194.968" stroke="black" />
				<path id="Line 152" d="M464.87 225.992L511.377 185.964" stroke="black" />
				<line id="Line 153" x1="490.418" y1="214.261" x2="506.26" y2="214.261" stroke="black" />
				<line id="Line 154" x1="490.418" y1="217.754" x2="506.26" y2="217.754" stroke="black" />
				<text id="P10_2" fill="black" font-family="Open Sans" font-size="14" font-weight="600" letter-spacing="0em">
					<tspan x="487" y="243.931">
						P10
					</tspan>
				</text>
			</g>
			<g id="P11">
				<rect id="P11_BOX" x="554.289" y="185.599" width="47" height="40" fill="#C6C6C6" stroke="black" />
				<path id="Vector 106" d="M560.389 193.831V193.831C561.31 187.616 570.157 187.299 571.521 193.432L571.61 193.831" stroke="black" />
				<path id="Vector 107" d="M571.611 193.249V193.249C572.865 199.392 581.486 199.805 583.321 193.811L583.493 193.249" stroke="black" />
				<path id="Line 310" d="M554.377 225.464L600.877 185.964" stroke="black" />
				<line id="Line 311" x1="580.191" y1="212.542" x2="596.034" y2="212.542" stroke="black" />
				<line id="Line 312" x1="580.191" y1="216.035" x2="596.034" y2="216.035" stroke="black" />
				<text id="P11_2" fill="black" font-family="Open Sans" font-size="14" font-weight="600" letter-spacing="0em">
					<tspan x="584" y="244.931">
						P11
					</tspan>
				</text>
			</g>
			<g id="P12">
				<rect id="P12_BOX" x="626.9" y="185.599" width="47" height="40" fill="#C6C6C6" stroke="black" />
				<path id="Vector 109" d="M633 194.996V194.996C633.922 188.78 642.769 188.463 644.133 194.597L644.222 194.996" stroke="black" />
				<path id="Vector 110" d="M644.223 194.414V194.414C645.476 200.556 654.097 200.969 655.933 194.975L656.104 194.414" stroke="black" />
				<line id="Line 317" y1="-0.5" x2="60.8627" y2="-0.5" transform="matrix(0.759191 -0.650868 0.740632 0.671911 627.721 225.849)" stroke="black" />
				<line id="Line 318" x1="652.803" y1="213.706" x2="668.645" y2="213.706" stroke="black" />
				<line id="Line 319" x1="652.803" y1="217.199" x2="668.645" y2="217.199" stroke="black" />
				<text id="P12_2" fill="black" font-family="Open Sans" font-size="14" font-weight="600" letter-spacing="0em">
					<tspan x="656" y="244.931">
						P12
					</tspan>
				</text>
			</g>
			<g id="P13">
				<rect id="P13_BOX" x="717.988" y="185.599" width="47" height="40" fill="#C6C6C6" stroke="black" />
				<path id="Vector 106_2" d="M724.088 193.831V193.831C725.009 187.616 733.857 187.299 735.221 193.432L735.309 193.831" stroke="black" />
				<path id="Vector 107_2" d="M735.311 193.249V193.249C736.564 199.392 745.185 199.805 747.02 193.811L747.192 193.249" stroke="black" />
				<path id="Line 310_2" d="M718.377 225.464L764.877 185.464" stroke="black" />
				<line id="Line 311_2" x1="743.891" y1="212.542" x2="759.733" y2="212.542" stroke="black" />
				<line id="Line 312_2" x1="743.891" y1="216.035" x2="759.733" y2="216.035" stroke="black" />
				<text id="P13_2" fill="black" font-family="Open Sans" font-size="14" font-weight="600" letter-spacing="0em">
					<tspan x="747" y="244.931">
						P13
					</tspan>
				</text>
			</g>
			<g id="P14">
				<rect id="P14_BOX" x="790.6" y="185.599" width="47" height="40" fill="#C6C6C6" stroke="black" />
				<path id="Vector 109_2" d="M796.699 194.996V194.996C797.621 188.78 806.468 188.463 807.832 194.597L807.921 194.996" stroke="black" />
				<path id="Vector 110_2" d="M807.922 194.414V194.414C809.176 200.556 817.796 200.969 819.632 194.975L819.804 194.414" stroke="black" />
				<line id="Line 317_2" y1="-0.5" x2="60.8627" y2="-0.5" transform="matrix(0.759191 -0.650868 0.740632 0.671911 791.42 225.849)" stroke="black" />
				<line id="Line 318_2" x1="816.502" y1="213.706" x2="832.344" y2="213.706" stroke="black" />
				<line id="Line 319_2" x1="816.502" y1="217.199" x2="832.344" y2="217.199" stroke="black" />
				<text id="P14_2" fill="black" font-family="Open Sans" font-size="14" font-weight="600" letter-spacing="0em">
					<tspan x="820" y="244.931">
						P14
					</tspan>
				</text>
			</g>
			<g id="P15">
				<rect id="P15_BOX" x="888.293" y="185.599" width="47" height="40" fill="#C6C6C6" stroke="black" />
				<path id="Vector 106_3" d="M894.393 193.831V193.831C895.314 187.616 904.161 187.299 905.525 193.432L905.614 193.831" stroke="black" />
				<path id="Vector 107_3" d="M905.615 193.249V193.249C906.869 199.392 915.49 199.805 917.325 193.811L917.497 193.249" stroke="black" />
				<path id="Line 310_3" d="M888.377 225.464L935.377 185.964" stroke="black" />
				<line id="Line 311_3" x1="914.195" y1="212.542" x2="930.038" y2="212.542" stroke="black" />
				<line id="Line 312_3" x1="914.195" y1="216.035" x2="930.038" y2="216.035" stroke="black" />
				<text id="P15_2" fill="black" font-family="Open Sans" font-size="14" font-weight="600" letter-spacing="0em">
					<tspan x="918" y="244.931">
						P15
					</tspan>
				</text>
			</g>
			<g id="P16">
				<rect id="P16_BOX" x="960.904" y="185.599" width="47" height="40" fill="#C6C6C6" stroke="black" />
				<path id="Vector 109_3" d="M967.004 194.996V194.996C967.925 188.78 976.773 188.463 978.137 194.597L978.225 194.996" stroke="black" />
				<path id="Vector 110_3" d="M978.227 194.414V194.414C979.48 200.556 988.101 200.969 989.936 194.975L990.108 194.414" stroke="black" />
				<line id="Line 317_3" y1="-0.5" x2="60.8627" y2="-0.5" transform="matrix(0.759191 -0.650868 0.740632 0.671911 961.725 225.849)" stroke="black" />
				<line id="Line 318_3" x1="986.807" y1="213.706" x2="1002.65" y2="213.706" stroke="black" />
				<line id="Line 319_3" x1="986.807" y1="217.199" x2="1002.65" y2="217.199" stroke="black" />
				<text id="P16_2" fill="black" font-family="Open Sans" font-size="14" font-weight="600" letter-spacing="0em">
					<tspan x="990" y="244.931">
						P16
					</tspan>
				</text>
			</g>
			<g id="P17">
				<rect id="P17_BOX" x="1054.63" y="185.599" width="47" height="40" fill="#C6C6C6" stroke="black" />
				<path id="Vector 106_4" d="M1060.74 193.831V193.831C1061.66 187.616 1070.51 187.299 1071.87 193.432L1071.96 193.831" stroke="black" />
				<path id="Vector 107_4" d="M1071.96 193.249V193.249C1073.21 199.392 1081.83 199.805 1083.67 193.811L1083.84 193.249" stroke="black" />
				<path id="Line 310_4" d="M1054.88 224.964L1101.38 185.964" stroke="black" />
				<line id="Line 311_4" x1="1080.54" y1="212.542" x2="1096.38" y2="212.542" stroke="black" />
				<line id="Line 312_4" x1="1080.54" y1="216.035" x2="1096.38" y2="216.035" stroke="black" />
				<text id="P17_2" fill="black" font-family="Open Sans" font-size="14" font-weight="600" letter-spacing="0em">
					<tspan x="1084" y="244.931">
						P17
					</tspan>
				</text>
			</g>
			<g id="P18">
				<rect id="P18_BOX" x="1127.24" y="185.599" width="47" height="40" fill="#C6C6C6" stroke="black" />
				<path id="Vector 109_4" d="M1133.34 194.996V194.996C1134.27 188.78 1143.11 188.463 1144.48 194.597L1144.57 194.996" stroke="black" />
				<path id="Vector 110_4" d="M1144.56 194.414V194.414C1145.82 200.556 1154.44 200.969 1156.27 194.975L1156.44 194.414" stroke="black" />
				<line id="Line 317_4" y1="-0.5" x2="60.8627" y2="-0.5" transform="matrix(0.759191 -0.650868 0.740632 0.671911 1128.06 225.849)" stroke="black" />
				<line id="Line 318_4" x1="1153.15" y1="213.706" x2="1168.99" y2="213.706" stroke="black" />
				<line id="Line 319_4" x1="1153.15" y1="217.199" x2="1168.99" y2="217.199" stroke="black" />
				<text id="P18_2" fill="black" font-family="Open Sans" font-size="14" font-weight="600" letter-spacing="0em">
					<tspan x="1156" y="244.931">
						P18
					</tspan>
				</text>
			</g>
			<g id="P21A">
				<rect id="P21A_BOX" x="1205.5" y="185.875" width="47" height="40" fill="#C6C6C6" stroke="black" />
				<path id="Vector 109_5" d="M1211.6 195.271V195.271C1212.52 189.056 1221.37 188.739 1222.73 194.872L1222.82 195.271" stroke="black" />
				<path id="Vector 110_5" d="M1222.82 194.689V194.689C1224.07 200.832 1232.69 201.245 1234.53 195.25L1234.7 194.689" stroke="black" />
				<line id="Line 317_5" y1="-0.5" x2="60.8627" y2="-0.5" transform="matrix(0.759191 -0.650868 0.740632 0.671911 1206.32 226.125)" stroke="black" />
				<line id="Line 318_5" x1="1231.41" y1="213.982" x2="1247.25" y2="213.982" stroke="black" />
				<line id="Line 319_5" x1="1231.41" y1="217.475" x2="1247.25" y2="217.475" stroke="black" />
				<text id="P21A_2" fill="black" font-family="Open Sans" font-size="14" font-weight="600" letter-spacing="0em">
					<tspan x="1231.26" y="238.207">
						P21A
					</tspan>
				</text>
			</g>
			<g id="P21B">
				<rect id="P21B_BOX" x="1267.5" y="185.875" width="47" height="40" fill="#C6C6C6" stroke="black" />
				<path id="Vector 109_6" d="M1273.6 195.271V195.271C1274.52 189.056 1283.37 188.739 1284.73 194.872L1284.82 195.271" stroke="black" />
				<path id="Vector 110_6" d="M1284.82 194.689V194.689C1286.07 200.832 1294.69 201.245 1296.53 195.25L1296.7 194.689" stroke="black" />
				<line id="Line 317_6" y1="-0.5" x2="60.8627" y2="-0.5" transform="matrix(0.759191 -0.650868 0.740632 0.671911 1268.32 226.125)" stroke="black" />
				<line id="Line 318_6" x1="1293.41" y1="213.982" x2="1309.25" y2="213.982" stroke="black" />
				<line id="Line 319_6" x1="1293.41" y1="217.475" x2="1309.25" y2="217.475" stroke="black" />
				<text id="P21B_2" fill="black" font-family="Open Sans" font-size="14" font-weight="600" letter-spacing="0em">
					<tspan x="1294.26" y="238.207">
						P21B
					</tspan>
				</text>
			</g>
			<g id="P18P21C">
				<rect id="P21C_BOX" x="1330.5" y="185.875" width="47" height="40" fill="#C6C6C6" stroke="black" />
				<path id="Vector 109_7" d="M1336.6 195.271V195.271C1337.52 189.056 1346.37 188.739 1347.73 194.872L1347.82 195.271" stroke="black" />
				<path id="Vector 110_7" d="M1347.82 194.689V194.689C1349.07 200.832 1357.69 201.245 1359.53 195.25L1359.7 194.689" stroke="black" />
				<line id="Line 317_7" y1="-0.5" x2="60.8627" y2="-0.5" transform="matrix(0.759191 -0.650868 0.740632 0.671911 1331.32 226.125)" stroke="black" />
				<line id="Line 318_7" x1="1356.41" y1="213.982" x2="1372.25" y2="213.982" stroke="black" />
				<line id="Line 319_7" x1="1356.41" y1="217.475" x2="1372.25" y2="217.475" stroke="black" />
				<text id="P21C" fill="black" font-family="Open Sans" font-size="14" font-weight="600" letter-spacing="0em">
					<tspan x="1357.26" y="238.207">
						P21C
					</tspan>
				</text>
			</g>
			<text id="ALH_BB_INT1" fill="black" font-family="Open Sans" font-size="14" font-weight="600" letter-spacing="0em">
				<tspan x="141.194" y="393.931">
					00.00V
				</tspan>
			</text>
			<text id="ALH_BB_INT2" fill="black" font-family="Open Sans" font-size="14" font-weight="600" letter-spacing="0em">
				<tspan x="301.194" y="393.931">
					00.00V
				</tspan>
			</text>
			<text id="ALH_BB_EIMAIN" fill="black" font-family="Open Sans" font-size="14" font-weight="600" letter-spacing="0em">
				<tspan x="458.194" y="393.931">
					00.00V
				</tspan>
			</text>
			<text id="ALH_BB_EISTANDBY" fill="black" font-family="Open Sans" font-size="14" font-weight="600" letter-spacing="0em">
				<tspan x="628.194" y="393.931">
					00.00V
				</tspan>
			</text>
			<text id="ALH_BB_UPDAC" fill="black" font-family="Open Sans" font-size="14" font-weight="600" letter-spacing="0em">
				<tspan x="791.194" y="393.931">
					00.00V
				</tspan>
			</text>
			<text id="ALH_BB_DNDAC" fill="black" font-family="Open Sans" font-size="14" font-weight="600" letter-spacing="0em">
				<tspan x="964.194" y="393.931">
					00.00V
				</tspan>
			</text>
			<text id="ALH_BB_LEU" fill="black" font-family="Open Sans" font-size="14" font-weight="600" letter-spacing="0em">
				<tspan x="1130.19" y="393.931">
					00.00V
				</tspan>
			</text>
			<g id="TO_NOT_SET">
				<path id="Line 125" d="M91.3203 109.393V57" stroke="black" stroke-width="3" />
				<path id="Line 126" d="M91.3203 186.236V148.979" stroke="black" stroke-width="3" />
				<path id="Line 172" d="M163.93 281.708H91.3203V225.822" stroke="black" stroke-width="3" />
				<path id="Line 174" d="M323.673 281.707H253.703V225.822" stroke="black" stroke-width="3" />
				<path id="Line 176" d="M480.774 281.707H409.484V225.822" stroke="black" stroke-width="3" />
				<path id="Line 144" d="M163.93 109.393V57" stroke="black" stroke-width="3" />
				<path id="Line 145" d="M163.93 186.236V148.979" stroke="black" stroke-width="3" />
				<path id="Line 146" d="M255.023 108.229V57.0002" stroke="black" stroke-width="3" />
				<path id="Line 147" d="M255.023 186.236V148.979" stroke="black" stroke-width="3" />
				<path id="Line 148" d="M326.312 109.393V57" stroke="black" stroke-width="3" />
				<path id="Line 149" d="M326.312 186.236V148.979" stroke="black" stroke-width="3" />
				<path id="Line 150" d="M414.766 109.393V57" stroke="black" stroke-width="3" />
				<path id="Line 151" d="M414.766 186.236V148.979" stroke="black" stroke-width="3" />
				<path id="Line 155" d="M486.055 109.393V58.1642" stroke="black" stroke-width="3" />
				<path id="Line 156" d="M486.055 186.236V148.979" stroke="black" stroke-width="3" />
				<path id="Line 67" d="M90 57.0002L1479.11 57.0002" stroke="black" stroke-width="3" />
				<path id="Line 180" d="M649.759 275.886H577.148V224.657" stroke="black" stroke-width="3" />
				<path id="Line 313" d="M577.148 109.393V57" stroke="black" stroke-width="3" />
				<path id="Line 314" d="M577.148 185.654V148.979" stroke="black" stroke-width="3" />
				<path id="Line 320" d="M649.758 108.229V57.0002" stroke="black" stroke-width="3" />
				<path id="Line 321" d="M649.758 186.236V147.815" stroke="black" stroke-width="3" />
				<path id="Arrow 4" d="M162.869 351.461C163.455 352.047 164.405 352.047 164.99 351.461L174.536 341.915C175.122 341.329 175.122 340.379 174.536 339.794C173.951 339.208 173.001 339.208 172.415 339.794L163.93 348.279L155.444 339.794C154.859 339.208 153.909 339.208 153.323 339.794C152.737 340.379 152.737 341.329 153.323 341.915L162.869 351.461ZM162.43 226.986V350.4H165.43V226.986H162.43Z" fill="black" />
				<path id="Arrow 5" d="M322.611 351.461C323.197 352.047 324.147 352.047 324.733 351.461L334.278 341.915C334.864 341.329 334.864 340.379 334.278 339.794C333.693 339.208 332.743 339.208 332.157 339.794L323.672 348.279L315.187 339.794C314.601 339.208 313.651 339.208 313.065 339.794C312.479 340.379 312.479 341.329 313.065 341.915L322.611 351.461ZM322.172 225.822V350.4H325.172V225.822H322.172Z" fill="black" />
				<path id="Arrow 6" d="M479.715 351.461C480.301 352.046 481.25 352.046 481.836 351.461L491.382 341.915C491.968 341.329 491.968 340.379 491.382 339.793C490.796 339.207 489.846 339.207 489.261 339.793L480.775 348.279L472.29 339.793C471.704 339.207 470.755 339.207 470.169 339.793C469.583 340.379 469.583 341.329 470.169 341.915L479.715 351.461ZM479.275 226.986V350.4H482.275V226.986H479.275Z" fill="black" />
				<path id="Arrow 8" d="M650.029 349.723C650.621 350.304 651.57 350.296 652.15 349.706L661.594 340.081C662.173 339.491 662.163 338.541 661.571 337.96C660.979 337.379 660.03 337.387 659.45 337.978L651.055 346.533L642.48 338.118C641.888 337.537 640.938 337.545 640.359 338.136C639.779 338.726 639.789 339.676 640.381 340.257L650.029 349.723ZM648.258 224.67L649.578 348.666L652.578 348.642L651.258 224.645L648.258 224.67Z" fill="black" />
				<text id="RELAY INT1" fill="black" font-family="Open Sans" font-size="12" letter-spacing="0em">
					<tspan x="132.184" y="368.655">
						RELAY INT1
					</tspan>
				</text>
				<text id="RELAY INT2" fill="black" font-family="Open Sans" font-size="12" letter-spacing="0em">
					<tspan x="298.184" y="368.655">
						RELAY INT2
					</tspan>
				</text>
				<text id="EI MAIN" fill="black" font-family="Open Sans" font-size="12" letter-spacing="0em">
					<tspan x="460.045" y="368.655">
						EI MAIN
					</tspan>
				</text>
				<text id="EI STANDBY" fill="black" font-family="Open Sans" font-size="12" letter-spacing="0em">
					<tspan x="617.43" y="368.655">
						EI STANDBY
					</tspan>
				</text>
				<text id="UP DAC" fill="black" font-family="Open Sans" font-size="12" letter-spacing="0em">
					<tspan x="793.025" y="368.655">
						UP DAC
					</tspan>
				</text>
				<text id="DN DAC" fill="black" font-family="Open Sans" font-size="12" letter-spacing="0em">
					<tspan x="962.141" y="368.655">
						DN DAC
					</tspan>
				</text>
				<text id="LEU" fill="black" font-family="Open Sans" font-size="12" letter-spacing="0em">
					<tspan x="1140.15" y="368.655">
						LEU
					</tspan>
				</text>
				<text id="24V - 32V DC 15A" fill="black" font-family="Open Sans" font-size="10" letter-spacing="0em">
					<tspan x="99.6055" y="296.879">
						24V - 32V DC;
					</tspan>
					<tspan x="141.227" y="310.879">
						15A
					</tspan>
				</text>
				<text id="110v-130VDC 5A" fill="black" font-family="Open Sans" font-size="10" letter-spacing="0em">
					<tspan x="256.92" y="296.879">
						110v-130VDC;
					</tspan>
					<tspan x="306.949" y="310.879">
						5A
					</tspan>
				</text>
				<text id="110V - 130V DC 5A" fill="black" font-family="Open Sans" font-size="10" letter-spacing="0em">
					<tspan x="402.16" y="296.879">
						110V - 130V DC;
					</tspan>
					<tspan x="460.949" y="310.879">
						5A
					</tspan>
				</text>
				<text id="24V - 32V DC 15A_2" fill="black" font-family="Open Sans" font-size="10" letter-spacing="0em">
					<tspan x="585.605" y="293.879">
						24V - 32V DC;
					</tspan>
					<tspan x="627.227" y="307.879">
						15A
					</tspan>
				</text>
				<path id="Line 180_2" d="M813.864 275.886H741.254V224.658" stroke="black" stroke-width="3" />
				<path id="Line 313_2" d="M741.254 109.393V57.0002" stroke="black" stroke-width="3" />
				<path id="Line 314_2" d="M741.254 185.654V148.979" stroke="black" stroke-width="3" />
				<path id="Line 320_2" d="M813.865 108.229V56.9999" stroke="black" stroke-width="3" />
				<path id="Line 321_2" d="M813.865 186.236V147.814" stroke="black" stroke-width="3" />
				<path id="Arrow 8_2" d="M814.136 349.724C814.728 350.304 815.678 350.297 816.257 349.706L825.701 340.082C826.281 339.491 826.271 338.541 825.679 337.96C825.087 337.379 824.137 337.387 823.557 337.978L815.163 346.533L806.588 338.118C805.996 337.538 805.046 337.545 804.466 338.136C803.887 338.727 803.897 339.676 804.489 340.257L814.136 349.724ZM812.365 224.67L813.685 348.667L816.685 348.642L815.365 224.645L812.365 224.67Z" fill="black" />
				<text id="24V - 32V DC 15A_3" fill="black" font-family="Open Sans" font-size="10" letter-spacing="0em">
					<tspan x="748.605" y="293.879">
						24V - 32V DC;
					</tspan>
					<tspan x="790.227" y="307.879">
						15A
					</tspan>
				</text>
				<path id="Line 322" d="M984.167 275.886H911.557V224.658" stroke="black" stroke-width="3" />
				<path id="Line 323" d="M911.557 109.393V57.0002" stroke="black" stroke-width="3" />
				<path id="Line 324" d="M911.557 185.654V148.979" stroke="black" stroke-width="3" />
				<path id="Line 325" d="M984.168 108.229V56.9999" stroke="black" stroke-width="3" />
				<path id="Line 326" d="M984.168 186.236V147.814" stroke="black" stroke-width="3" />
				<path id="Arrow 9" d="M984.439 349.724C985.031 350.304 985.981 350.297 986.56 349.706L996.004 340.082C996.584 339.491 996.573 338.541 995.981 337.96C995.389 337.379 994.44 337.387 993.86 337.978L985.466 346.533L976.89 338.118C976.298 337.538 975.349 337.545 974.769 338.136C974.189 338.727 974.2 339.676 974.792 340.257L984.439 349.724ZM982.668 224.67L983.988 348.667L986.988 348.642L985.668 224.645L982.668 224.67Z" fill="black" />
				<text id="24V - 32V DC 15A_4" fill="black" font-family="Open Sans" font-size="10" letter-spacing="0em">
					<tspan x="919.605" y="293.879">
						24V - 32V DC;
					</tspan>
					<tspan x="961.227" y="307.879">
						15A
					</tspan>
				</text>
				<path id="Line 327" d="M1150.51 275.886H1077.9V224.658" stroke="black" stroke-width="3" />
				<path id="Line 328" d="M1077.9 109.393V57.0002" stroke="black" stroke-width="3" />
				<path id="Line 329" d="M1077.9 185.654V148.979" stroke="black" stroke-width="3" />
				<path id="Line 330" d="M1150.52 108.229V56.9999" stroke="black" stroke-width="3" />
				<path id="Line 331" d="M1150.52 186.236V148.814" stroke="black" stroke-width="3" />
				<path id="Arrow 10" d="M1150.79 349.724C1151.38 350.304 1152.33 350.297 1152.91 349.706L1162.35 340.082C1162.93 339.491 1162.92 338.541 1162.33 337.96C1161.74 337.379 1160.79 337.387 1160.21 337.978L1151.81 346.533L1143.24 338.118C1142.65 337.538 1141.7 337.545 1141.12 338.136C1140.54 338.727 1140.55 339.676 1141.14 340.257L1150.79 349.724ZM1149.02 224.67L1150.34 348.667L1153.34 348.642L1152.02 224.645L1149.02 224.67Z" fill="black" />
				<text id="24V - 32V DC 15A_5" fill="black" font-family="Open Sans" font-size="10" letter-spacing="0em">
					<tspan x="1085.61" y="293.879">
						24V - 32V DC;
					</tspan>
					<tspan x="1127.23" y="307.879">
						15A
					</tspan>
				</text>
				<text id="DISTRIBUTION BUSBAR 230 V AC, 1 PH, 50 HZ" fill="black" font-family="Inter" font-size="14" font-weight="600" letter-spacing="0em">
					<tspan x="480" y="24.5909">
						DISTRIBUTION BUSBAR 230 V AC, 1 PH, 50 HZ
					</tspan>
				</text>
			</g>
			<g id="CBF32_5">
				<text id="CBF29" transform="matrix(0 -1 1 0 1301.07 150.143)" fill="black" font-family="Open Sans" font-size="12" letter-spacing="0em">
					<tspan x="0" y="12.6553">
						CBF29
					</tspan>
				</text>
				<g id="Group 755_5">
					<g id="Group 742_15">
						<path id="Ellipse 45_15" d="M1296.61 114.05C1296.61 116.931 1293.94 119.371 1290.51 119.371C1287.08 119.371 1284.41 116.931 1284.41 114.05C1284.41 111.168 1287.08 108.728 1290.51 108.728C1293.94 108.728 1296.61 111.168 1296.61 114.05Z" stroke="black" />
						<path id="Ellipse 46_15" d="M1296.61 144.321C1296.61 147.203 1293.94 149.643 1290.51 149.643C1287.08 149.643 1284.41 147.203 1284.41 144.321C1284.41 141.439 1287.08 139 1290.51 139C1293.94 139 1296.61 141.439 1296.61 144.321Z" stroke="black" />
					</g>
					<g id="Group 741_15">
						<path id="Vector 32_15" d="M1284.12 105.9L1275.12 115.741C1268.81 122.647 1268.13 133.01 1273.48 140.684L1273.81 141.148C1274.63 142.329 1275.58 143.417 1276.64 144.394L1284.12 151.307" stroke="black" />
						<line id="Line 127_15" y1="-0.5" x2="18.8444" y2="-0.5" transform="matrix(0.773914 0.633291 -0.694615 0.719382 1264.3 118.172)" stroke="black" />
						<line id="Line 128_15" y1="-0.5" x2="18.8444" y2="-0.5" transform="matrix(0.773914 0.633291 -0.694615 0.719382 1262.79 122.35)" stroke="black" />
					</g>
				</g>
			</g>
			<path id="Line 330_2" d="M1290.52 108.229V56.9999" stroke="black" stroke-width="3" />
			<g id="CBF32_6">
				<text id="CBF30" transform="matrix(0 -1 1 0 1488.07 150.143)" fill="black" font-family="Open Sans" font-size="12" letter-spacing="0em">
					<tspan x="0" y="12.6553">
						CBF30
					</tspan>
				</text>
				<g id="Group 755_6">
					<g id="Group 742_16">
						<path id="Ellipse 45_16" d="M1483.61 114.05C1483.61 116.931 1480.94 119.371 1477.51 119.371C1474.08 119.371 1471.41 116.931 1471.41 114.05C1471.41 111.168 1474.08 108.728 1477.51 108.728C1480.94 108.728 1483.61 111.168 1483.61 114.05Z" stroke="black" />
						<path id="Ellipse 46_16" d="M1483.61 144.321C1483.61 147.203 1480.94 149.643 1477.51 149.643C1474.08 149.643 1471.41 147.203 1471.41 144.321C1471.41 141.439 1474.08 139 1477.51 139C1480.94 139 1483.61 141.439 1483.61 144.321Z" stroke="black" />
					</g>
					<g id="Group 741_16">
						<path id="Vector 32_16" d="M1471.12 105.9L1462.12 115.741C1455.81 122.647 1455.13 133.01 1460.48 140.684L1460.81 141.148C1461.63 142.329 1462.58 143.417 1463.64 144.394L1471.12 151.307" stroke="black" />
						<line id="Line 127_16" y1="-0.5" x2="18.8444" y2="-0.5" transform="matrix(0.773914 0.633291 -0.694615 0.719382 1451.3 118.172)" stroke="black" />
						<line id="Line 128_16" y1="-0.5" x2="18.8444" y2="-0.5" transform="matrix(0.773914 0.633291 -0.694615 0.719382 1449.79 122.35)" stroke="black" />
					</g>
				</g>
			</g>
			<path id="Line 331_2" d="M1477.52 108.229V56.9999" stroke="black" stroke-width="3" />
			<g id="EARTH1">
				<path id="AELN_earth_el_fault_ps-status_4" d="M202.788 328.09C202.788 333.384 198.473 337.68 193.144 337.68C187.815 337.68 183.5 333.384 183.5 328.09C183.5 322.796 187.815 318.5 193.144 318.5C198.473 318.5 202.788 322.796 202.788 328.09Z" fill="#C6C6C6" stroke="black" />
				<line id="Line 463" x1="187.365" y1="330.473" x2="198.924" y2="330.473" stroke="black" stroke-linecap="round" />
				<path id="Line 464" d="M188.797 332.414H197.492" stroke="black" stroke-linecap="round" />
				<path id="Line 465" d="M189.762 334.336H196.524" stroke="black" stroke-linecap="round" />
				<path id="Line 466" d="M193.645 321.844C193.645 321.568 193.421 321.344 193.145 321.344C192.868 321.344 192.645 321.568 192.645 321.844H193.645ZM192.645 321.844V330.492H193.645V321.844H192.645Z" fill="black" />
			</g>
			<g id="EARTH1_2">
				<path id="AELN_earth_el_fault_ps-status_4_2" d="M359.788 328.09C359.788 333.384 355.473 337.68 350.144 337.68C344.815 337.68 340.5 333.384 340.5 328.09C340.5 322.796 344.815 318.5 350.144 318.5C355.473 318.5 359.788 322.796 359.788 328.09Z" fill="#C6C6C6" stroke="black" />
				<line id="Line 463_2" x1="344.365" y1="330.473" x2="355.924" y2="330.473" stroke="black" stroke-linecap="round" />
				<path id="Line 464_2" d="M345.797 332.414H354.492" stroke="black" stroke-linecap="round" />
				<path id="Line 465_2" d="M346.762 334.336H353.524" stroke="black" stroke-linecap="round" />
				<path id="Line 466_2" d="M350.645 321.844C350.645 321.568 350.421 321.344 350.145 321.344C349.868 321.344 349.645 321.568 349.645 321.844H350.645ZM349.645 321.844V330.492H350.645V321.844H349.645Z" fill="black" />
			</g>
			<g id="EARTH1_3">
				<path id="AELN_earth_el_fault_ps-status_4_3" d="M519.788 328.09C519.788 333.384 515.473 337.68 510.144 337.68C504.815 337.68 500.5 333.384 500.5 328.09C500.5 322.796 504.815 318.5 510.144 318.5C515.473 318.5 519.788 322.796 519.788 328.09Z" fill="#C6C6C6" stroke="black" />
				<line id="Line 463_3" x1="504.365" y1="330.473" x2="515.924" y2="330.473" stroke="black" stroke-linecap="round" />
				<path id="Line 464_3" d="M505.797 332.414H514.492" stroke="black" stroke-linecap="round" />
				<path id="Line 465_3" d="M506.762 334.336H513.524" stroke="black" stroke-linecap="round" />
				<path id="Line 466_3" d="M510.645 321.844C510.645 321.568 510.421 321.344 510.145 321.344C509.868 321.344 509.645 321.568 509.645 321.844H510.645ZM509.645 321.844V330.492H510.645V321.844H509.645Z" fill="black" />
			</g>
			<g id="EARTH1_4">
				<path id="AELN_earth_el_fault_ps-status_4_4" d="M688.788 328.09C688.788 333.384 684.473 337.68 679.144 337.68C673.815 337.68 669.5 333.384 669.5 328.09C669.5 322.796 673.815 318.5 679.144 318.5C684.473 318.5 688.788 322.796 688.788 328.09Z" fill="#C6C6C6" stroke="black" />
				<line id="Line 463_4" x1="673.365" y1="330.473" x2="684.924" y2="330.473" stroke="black" stroke-linecap="round" />
				<path id="Line 464_4" d="M674.797 332.414H683.492" stroke="black" stroke-linecap="round" />
				<path id="Line 465_4" d="M675.762 334.336H682.524" stroke="black" stroke-linecap="round" />
				<path id="Line 466_4" d="M679.645 321.844C679.645 321.568 679.421 321.344 679.145 321.344C678.868 321.344 678.645 321.568 678.645 321.844H679.645ZM678.645 321.844V330.492H679.645V321.844H678.645Z" fill="black" />
			</g>
			<g id="EARTH1_5">
				<path id="AELN_earth_el_fault_ps-status_4_5" d="M851.788 328.09C851.788 333.384 847.473 337.68 842.144 337.68C836.815 337.68 832.5 333.384 832.5 328.09C832.5 322.796 836.815 318.5 842.144 318.5C847.473 318.5 851.788 322.796 851.788 328.09Z" fill="#C6C6C6" stroke="black" />
				<line id="Line 463_5" x1="836.365" y1="330.473" x2="847.924" y2="330.473" stroke="black" stroke-linecap="round" />
				<path id="Line 464_5" d="M837.797 332.414H846.492" stroke="black" stroke-linecap="round" />
				<path id="Line 465_5" d="M838.762 334.336H845.524" stroke="black" stroke-linecap="round" />
				<path id="Line 466_5" d="M842.645 321.844C842.645 321.568 842.421 321.344 842.145 321.344C841.868 321.344 841.645 321.568 841.645 321.844H842.645ZM841.645 321.844V330.492H842.645V321.844H841.645Z" fill="black" />
			</g>
			<g id="EARTH1_6">
				<path id="AELN_earth_el_fault_ps-status_4_6" d="M1022.79 328.09C1022.79 333.384 1018.47 337.68 1013.14 337.68C1007.82 337.68 1003.5 333.384 1003.5 328.09C1003.5 322.796 1007.82 318.5 1013.14 318.5C1018.47 318.5 1022.79 322.796 1022.79 328.09Z" fill="#C6C6C6" stroke="black" />
				<line id="Line 463_6" x1="1007.37" y1="330.473" x2="1018.92" y2="330.473" stroke="black" stroke-linecap="round" />
				<path id="Line 464_6" d="M1008.8 332.414H1017.49" stroke="black" stroke-linecap="round" />
				<path id="Line 465_6" d="M1009.76 334.336H1016.52" stroke="black" stroke-linecap="round" />
				<path id="Line 466_6" d="M1013.64 321.844C1013.64 321.568 1013.42 321.344 1013.14 321.344C1012.87 321.344 1012.64 321.568 1012.64 321.844H1013.64ZM1012.64 321.844V330.492H1013.64V321.844H1012.64Z" fill="black" />
			</g>
			<g id="EARTH1_7">
				<path id="AELN_earth_el_fault_ps-status_4_7" d="M1185.79 328.09C1185.79 333.384 1181.47 337.68 1176.14 337.68C1170.82 337.68 1166.5 333.384 1166.5 328.09C1166.5 322.796 1170.82 318.5 1176.14 318.5C1181.47 318.5 1185.79 322.796 1185.79 328.09Z" fill="#C6C6C6" stroke="black" />
				<line id="Line 463_7" x1="1170.36" y1="330.473" x2="1181.92" y2="330.473" stroke="black" stroke-linecap="round" />
				<path id="Line 464_7" d="M1171.8 332.414H1180.49" stroke="black" stroke-linecap="round" />
				<path id="Line 465_7" d="M1172.76 334.336H1179.52" stroke="black" stroke-linecap="round" />
				<path id="Line 466_7" d="M1176.64 321.844C1176.64 321.568 1176.42 321.344 1176.14 321.344C1175.87 321.344 1175.64 321.568 1175.64 321.844H1176.64ZM1175.64 321.844V330.492H1176.64V321.844H1175.64Z" fill="black" />
			</g>
			<g id="EARTH1_8">
				<path id="AELN_earth_el_fault_ps-status_4_8" d="M1538.79 328.09C1538.79 333.384 1534.47 337.68 1529.14 337.68C1523.82 337.68 1519.5 333.384 1519.5 328.09C1519.5 322.796 1523.82 318.5 1529.14 318.5C1534.47 318.5 1538.79 322.796 1538.79 328.09Z" fill="#C6C6C6" stroke="black" />
				<line id="Line 463_8" x1="1523.36" y1="330.473" x2="1534.92" y2="330.473" stroke="black" stroke-linecap="round" />
				<path id="Line 464_8" d="M1524.8 332.414H1533.49" stroke="black" stroke-linecap="round" />
				<path id="Line 465_8" d="M1525.76 334.336H1532.52" stroke="black" stroke-linecap="round" />
				<path id="Line 466_8" d="M1529.64 321.844C1529.64 321.568 1529.42 321.344 1529.14 321.344C1528.87 321.344 1528.64 321.568 1528.64 321.844H1529.64ZM1528.64 321.844V330.492H1529.64V321.844H1528.64Z" fill="black" />
			</g>
		</g>
		<text id="FROM SCVS, 230VAC, 1 PH, 50HZ" fill="black" font-family="Inter" font-size="12" letter-spacing="0em">
			<tspan x="1737" y="20.8636">
				FROM SCVS, 230VAC, 1 PH, 50HZ
			</tspan>
		</text>
		<g id="T9">
			<path id="T9_CIRCLE2" d="M1705.5 199.648C1705.5 207.579 1698.8 214.043 1690.5 214.043C1682.2 214.043 1675.5 207.579 1675.5 199.648C1675.5 191.716 1682.2 185.253 1690.5 185.253C1698.8 185.253 1705.5 191.716 1705.5 199.648Z" fill="#9C9C9C" stroke="black" />
			<path id="T9_CIRCLE1" d="M1701.5 219.828C1701.5 225.636 1696.59 230.379 1690.5 230.379C1684.41 230.379 1679.5 225.636 1679.5 219.828C1679.5 214.019 1684.41 209.277 1690.5 209.277C1696.59 209.277 1701.5 214.019 1701.5 219.828Z" fill="#9C9C9C" stroke="black" />
			<text id="T9_2" fill="black" font-family="Inter" font-size="12" font-weight="bold" letter-spacing="0em">
				<tspan x="1711" y="196.617">
					T9
				</tspan>
			</text>
			<text id="500VA 230V/110V" fill="black" font-family="Inter" font-size="8" letter-spacing="0em">
				<tspan x="1711" y="208.998">
					500VA;
				</tspan>
				<tspan x="1711" y="218.998">
					230V/110V
				</tspan>
			</text>
		</g>
		<g id="T10">
			<path id="T10_CIRCLE2" d="M1824.5 199.648C1824.5 207.579 1817.8 214.043 1809.5 214.043C1801.2 214.043 1794.5 207.579 1794.5 199.648C1794.5 191.716 1801.2 185.253 1809.5 185.253C1817.8 185.253 1824.5 191.716 1824.5 199.648Z" fill="#9C9C9C" stroke="black" />
			<path id="T10_CIRCLE1" d="M1820.5 219.828C1820.5 225.636 1815.59 230.379 1809.5 230.379C1803.41 230.379 1798.5 225.636 1798.5 219.828C1798.5 214.019 1803.41 209.277 1809.5 209.277C1815.59 209.277 1820.5 214.019 1820.5 219.828Z" fill="#9C9C9C" stroke="black" />
			<text id="T10_2" fill="black" font-family="Inter" font-size="12" font-weight="bold" letter-spacing="0em">
				<tspan x="1831" y="196.636">
					T10
				</tspan>
			</text>
			<text id="500VA 230V/110V_2" fill="black" font-family="Inter" font-size="8" letter-spacing="0em">
				<tspan x="1831" y="208.998">
					500VA;
				</tspan>
				<tspan x="1831" y="218.998">
					230V/110V
				</tspan>
			</text>
		</g>
		<text id="ALH_BB_UPSGLB" fill="black" font-family="Inter" font-size="12" font-weight="600" letter-spacing="0em">
			<tspan x="1678.25" y="419.636">
				00.00V
			</tspan>
		</text>
		<g id="CBF5">
			<path id="Ellipse 25" d="M1696.5 114.748C1696.5 118.433 1693.38 121.455 1689.5 121.455C1685.62 121.455 1682.5 118.433 1682.5 114.748C1682.5 111.062 1685.62 108.041 1689.5 108.041C1693.38 108.041 1696.5 111.062 1696.5 114.748Z" stroke="black" />
			<path id="Ellipse 26" d="M1696.5 150.303C1696.5 153.989 1693.38 157.01 1689.5 157.01C1685.62 157.01 1682.5 153.989 1682.5 150.303C1682.5 146.617 1685.62 143.596 1689.5 143.596C1693.38 143.596 1696.5 146.617 1696.5 150.303Z" stroke="black" />
			<text id="CBF37" fill="black" font-family="Open Sans" font-size="12" letter-spacing="0em">
				<tspan x="1711" y="120.196">
					CBF37
				</tspan>
			</text>
			<path id="Vector 11" d="M1678.7 113.306L1672.61 121.087C1667.85 127.168 1667.32 135.554 1671.28 142.184V142.184C1671.95 143.302 1672.73 144.346 1673.62 145.3L1678.7 150.784" stroke="black" />
			<line id="Line 55" y1="-0.5" x2="13.8183" y2="-0.5" transform="matrix(0.74639 0.665509 -0.663218 0.748427 1665.15 123.435)" stroke="black" />
			<line id="Line 56" y1="-0.5" x2="13.8183" y2="-0.5" transform="matrix(0.74639 0.665509 -0.663218 0.748427 1664 126.884)" stroke="black" />
		</g>
		<g id="CBF6">
			<path id="Ellipse 27" d="M1816.5 150.303C1816.5 153.989 1813.38 157.01 1809.5 157.01C1805.62 157.01 1802.5 153.989 1802.5 150.303C1802.5 146.617 1805.62 143.596 1809.5 143.596C1813.38 143.596 1816.5 146.617 1816.5 150.303Z" stroke="black" />
			<path id="Ellipse 28" d="M1816.5 114.748C1816.5 118.433 1813.38 121.455 1809.5 121.455C1805.62 121.455 1802.5 118.433 1802.5 114.748C1802.5 111.062 1805.62 108.041 1809.5 108.041C1813.38 108.041 1816.5 111.062 1816.5 114.748Z" stroke="black" />
			<text id="CBF38" fill="black" font-family="Open Sans" font-size="12" letter-spacing="0em">
				<tspan x="1831" y="120.196">
					CBF38
				</tspan>
			</text>
			<path id="Vector 12" d="M1799.23 113.306L1793.13 121.087C1788.37 127.168 1787.84 135.554 1791.81 142.184V142.184C1792.47 143.302 1793.26 144.346 1794.14 145.3L1799.23 150.784" stroke="black" />
			<line id="Line 57" y1="-0.5" x2="13.8183" y2="-0.5" transform="matrix(0.74639 0.665509 -0.663218 0.748427 1786.15 123.435)" stroke="black" />
			<line id="Line 58" y1="-0.5" x2="13.8183" y2="-0.5" transform="matrix(0.74639 0.665509 -0.663218 0.748427 1785 126.884)" stroke="black" />
		</g>
		<g id="Group 689">
			<path id="Line 40" d="M1689.5 56.0391V108.54" stroke="black" stroke-width="3" />
			<path id="Line 43" d="M1690 156.51V185.714" stroke="black" stroke-width="3" />
			<path id="Arrow 1" d="M1690.13 356.235C1690.71 356.82 1691.66 356.819 1692.25 356.233L1701.78 346.681C1702.37 346.095 1702.36 345.145 1701.78 344.56C1701.19 343.975 1700.24 343.975 1699.66 344.561L1691.18 353.052L1682.69 344.572C1682.1 343.987 1681.15 343.987 1680.56 344.574C1679.98 345.16 1679.98 346.11 1680.57 346.695L1690.13 356.235ZM1689.5 229.879L1689.69 355.174L1692.69 355.172L1692.5 229.877L1689.5 229.879Z" fill="black" />
		</g>
		<g id="Group 690">
			<path id="Line 42" d="M1810 156.51V185.714" stroke="black" stroke-width="3" />
			<path id="Line 41" d="M1810 57V108.54" stroke="black" stroke-width="3" />
			<path id="Line 44" d="M1691 330.145H1743" stroke="black" stroke-width="3" />
			<path id="Line 45" d="M1754 330.145H1811" stroke="black" stroke-width="3" />
			<path id="Line 47" d="M1810 229.878V331.106" stroke="black" stroke-width="3" />
			<g id="K3">
				<g id="K3_2">
					<path id="Line 10" d="M1753.5 315.731V345.521" stroke="black" stroke-width="3" stroke-linecap="round" />
					<path id="Line 11" d="M1744 324.38V336.872" stroke="black" stroke-width="3" />
					<path id="Ellipse 9" d="M1748.5 320.536C1748.5 322.895 1746.5 324.841 1744 324.841C1741.5 324.841 1739.5 322.895 1739.5 320.536C1739.5 318.177 1741.5 316.231 1744 316.231C1746.5 316.231 1748.5 318.177 1748.5 320.536Z" stroke="black" />
					<path id="Ellipse 10" d="M1748.5 340.716C1748.5 343.075 1746.5 345.021 1744 345.021C1741.5 345.021 1739.5 343.075 1739.5 340.716C1739.5 338.357 1741.5 336.411 1744 336.411C1746.5 336.411 1748.5 338.357 1748.5 340.716Z" stroke="black" />
				</g>
				<text id="K5" fill="black" font-family="Inter" font-size="12" letter-spacing="0em">
					<tspan x="1737" y="305.493">
						K5
					</tspan>
				</text>
			</g>
		</g>
		<text id="Static_Output_Label3" fill="black" font-family="Inter" font-size="10" letter-spacing="0em">
			<tspan x="1638.92" y="387.409">
				UP SIDE LOCATION BOX
			</tspan>
			<tspan x="1672.94" y="399.409">
				LIGHTING
			</tspan>
		</text>
		<path id="Line 718" d="M1688 56.5H2029.5" stroke="black" stroke-width="3" />
		<g id="T11">
			<path id="T11_CIRCLE2" d="M1925.5 199.648C1925.5 207.579 1918.8 214.043 1910.5 214.043C1902.2 214.043 1895.5 207.579 1895.5 199.648C1895.5 191.716 1902.2 185.253 1910.5 185.253C1918.8 185.253 1925.5 191.716 1925.5 199.648Z" fill="#9C9C9C" stroke="black" />
			<path id="T11_CIRCLE1" d="M1921.5 219.828C1921.5 225.636 1916.59 230.379 1910.5 230.379C1904.41 230.379 1899.5 225.636 1899.5 219.828C1899.5 214.019 1904.41 209.277 1910.5 209.277C1916.59 209.277 1921.5 214.019 1921.5 219.828Z" fill="#9C9C9C" stroke="black" />
			<text id="T11_2" fill="black" font-family="Inter" font-size="12" font-weight="bold" letter-spacing="0em">
				<tspan x="1931" y="196.636">
					T11
				</tspan>
			</text>
			<text id="500VA 230V/110V_3" fill="black" font-family="Inter" font-size="8" letter-spacing="0em">
				<tspan x="1931" y="208.998">
					500VA;
				</tspan>
				<tspan x="1931" y="218.998">
					230V/110V
				</tspan>
			</text>
		</g>
		<g id="T12">
			<path id="T12_CIRCLE2" d="M2044.5 199.648C2044.5 207.579 2037.8 214.043 2029.5 214.043C2021.2 214.043 2014.5 207.579 2014.5 199.648C2014.5 191.716 2021.2 185.253 2029.5 185.253C2037.8 185.253 2044.5 191.716 2044.5 199.648Z" fill="#9C9C9C" stroke="black" />
			<path id="T12_CIRCLE1" d="M2040.5 219.828C2040.5 225.636 2035.59 230.379 2029.5 230.379C2023.41 230.379 2018.5 225.636 2018.5 219.828C2018.5 214.019 2023.41 209.277 2029.5 209.277C2035.59 209.277 2040.5 214.019 2040.5 219.828Z" fill="#9C9C9C" stroke="black" />
			<text id="T12_2" fill="black" font-family="Inter" font-size="12" font-weight="bold" letter-spacing="0em">
				<tspan x="2051" y="196.636">
					T12
				</tspan>
			</text>
			<text id="500VA 230V/110V_4" fill="black" font-family="Inter" font-size="8" letter-spacing="0em">
				<tspan x="2051" y="208.998">
					500VA;
				</tspan>
				<tspan x="2051" y="218.998">
					230V/110V
				</tspan>
			</text>
		</g>
		<text id="ALH_BB_DNSGLB" fill="black" font-family="Inter" font-size="12" font-weight="600" letter-spacing="0em">
			<tspan x="1902.25" y="419.636">
				00.00V
			</tspan>
		</text>
		<g id="CBF5_2">
			<path id="Ellipse 25_2" d="M1916.5 114.748C1916.5 118.433 1913.38 121.455 1909.5 121.455C1905.62 121.455 1902.5 118.433 1902.5 114.748C1902.5 111.062 1905.62 108.041 1909.5 108.041C1913.38 108.041 1916.5 111.062 1916.5 114.748Z" stroke="black" />
			<path id="Ellipse 26_2" d="M1916.5 150.303C1916.5 153.989 1913.38 157.01 1909.5 157.01C1905.62 157.01 1902.5 153.989 1902.5 150.303C1902.5 146.617 1905.62 143.596 1909.5 143.596C1913.38 143.596 1916.5 146.617 1916.5 150.303Z" stroke="black" />
			<text id="CBF39" fill="black" font-family="Open Sans" font-size="12" letter-spacing="0em">
				<tspan x="1931" y="120.196">
					CBF39
				</tspan>
			</text>
			<path id="Vector 11_2" d="M1898.7 113.306L1892.61 121.087C1887.85 127.168 1887.32 135.554 1891.28 142.184V142.184C1891.95 143.302 1892.73 144.346 1893.62 145.3L1898.7 150.784" stroke="black" />
			<line id="Line 55_2" y1="-0.5" x2="13.8183" y2="-0.5" transform="matrix(0.74639 0.665509 -0.663218 0.748427 1885.15 123.435)" stroke="black" />
			<line id="Line 56_2" y1="-0.5" x2="13.8183" y2="-0.5" transform="matrix(0.74639 0.665509 -0.663218 0.748427 1884 126.884)" stroke="black" />
		</g>
		<g id="CBF6_2">
			<path id="Ellipse 27_2" d="M2036.5 150.303C2036.5 153.989 2033.38 157.01 2029.5 157.01C2025.62 157.01 2022.5 153.989 2022.5 150.303C2022.5 146.617 2025.62 143.596 2029.5 143.596C2033.38 143.596 2036.5 146.617 2036.5 150.303Z" stroke="black" />
			<path id="Ellipse 28_2" d="M2036.5 114.748C2036.5 118.433 2033.38 121.455 2029.5 121.455C2025.62 121.455 2022.5 118.433 2022.5 114.748C2022.5 111.062 2025.62 108.041 2029.5 108.041C2033.38 108.041 2036.5 111.062 2036.5 114.748Z" stroke="black" />
			<text id="CBF40" fill="black" font-family="Open Sans" font-size="12" letter-spacing="0em">
				<tspan x="2051" y="120.196">
					CBF40
				</tspan>
			</text>
			<path id="Vector 12_2" d="M2019.23 113.306L2013.13 121.087C2008.37 127.168 2007.84 135.554 2011.81 142.184V142.184C2012.47 143.302 2013.26 144.346 2014.14 145.3L2019.23 150.784" stroke="black" />
			<line id="Line 57_2" y1="-0.5" x2="13.8183" y2="-0.5" transform="matrix(0.74639 0.665509 -0.663218 0.748427 2006.15 123.435)" stroke="black" />
			<line id="Line 58_2" y1="-0.5" x2="13.8183" y2="-0.5" transform="matrix(0.74639 0.665509 -0.663218 0.748427 2005 126.884)" stroke="black" />
		</g>
		<g id="Group 865">
			<path id="Line 42_2" d="M2030 156.51V185.714" stroke="black" stroke-width="3" />
			<path id="Line 41_2" d="M2030 56V108.54" stroke="black" stroke-width="3" />
			<path id="Line 44_2" d="M1911 330.145H1963" stroke="black" stroke-width="3" />
			<path id="Line 45_2" d="M1974 330.145H2031" stroke="black" stroke-width="3" />
			<path id="Line 47_2" d="M2030 230.878V331.106" stroke="black" stroke-width="3" />
			<g id="K3_3">
				<g id="K3_4">
					<path id="Line 10_2" d="M1973.5 315.731V345.521" stroke="black" stroke-width="3" stroke-linecap="round" />
					<path id="Line 11_2" d="M1964 324.38V336.872" stroke="black" stroke-width="3" />
					<path id="Ellipse 9_2" d="M1968.5 320.536C1968.5 322.895 1966.5 324.841 1964 324.841C1961.5 324.841 1959.5 322.895 1959.5 320.536C1959.5 318.177 1961.5 316.231 1964 316.231C1966.5 316.231 1968.5 318.177 1968.5 320.536Z" stroke="black" />
					<path id="Ellipse 10_2" d="M1968.5 340.716C1968.5 343.075 1966.5 345.021 1964 345.021C1961.5 345.021 1959.5 343.075 1959.5 340.716C1959.5 338.357 1961.5 336.411 1964 336.411C1966.5 336.411 1968.5 338.357 1968.5 340.716Z" stroke="black" />
				</g>
				<text id="K6" fill="black" font-family="Inter" font-size="12" letter-spacing="0em">
					<tspan x="1957" y="305.493">
						K6
					</tspan>
				</text>
			</g>
		</g>
		<text id="Static_Output_Label3_2" fill="black" font-family="Inter" font-size="10" letter-spacing="0em">
			<tspan x="1869.94" y="387.409">
				DN SIDE LOCATION BOX
			</tspan>
			<tspan x="1904.44" y="399.409">
				LIGHTING
			</tspan>
		</text>
		<g id="Group 864">
			<path id="Line 40_2" d="M1909.5 55.2666V108.768" stroke="black" stroke-width="3" />
			<path id="Line 43_2" d="M1910 156.5V185.941" stroke="black" stroke-width="3" />
			<path id="Arrow 1_2" d="M1910.13 357.462C1910.71 358.048 1911.66 358.047 1912.25 357.461L1921.78 347.909C1922.37 347.323 1922.36 346.373 1921.78 345.788C1921.19 345.202 1920.24 345.203 1919.66 345.789L1911.18 354.28L1902.69 345.8C1902.1 345.214 1901.15 345.215 1900.56 345.801C1899.98 346.387 1899.98 347.337 1900.57 347.922L1910.13 357.462ZM1909.5 230.107L1909.69 356.402L1912.69 356.4L1912.5 230.105L1909.5 230.107Z" fill="black" />
		</g>
		<path id="Line 369" d="M1291 172V149" stroke="black" stroke-width="3" />
		<path id="Line 370" d="M1497 265L1291 265V238" stroke="black" stroke-width="3" />
		<path id="Line 372" d="M1353 185.5V170" stroke="black" stroke-width="3" />
		<path id="Line 719" d="M1291 185.5V170" stroke="black" stroke-width="3" />
		<path id="Line 374" d="M1229 186.524V169.024" stroke="black" stroke-width="3" />
		<path id="Line 375" d="M1229 240.5V226" stroke="black" stroke-width="3" />
		<path id="Line 376" d="M1291 240.5V226" stroke="black" stroke-width="3" />
		<path id="Line 377" d="M1354 242.5V226" stroke="black" stroke-width="3" />
		<path id="Arrow 7" d="M1496.95 349.57C1497.54 350.151 1498.49 350.142 1499.07 349.551L1508.53 339.916C1509.11 339.325 1509.1 338.375 1508.51 337.795C1507.92 337.215 1506.97 337.223 1506.39 337.815L1497.98 346.379L1489.42 337.973C1488.83 337.392 1487.88 337.401 1487.3 337.992C1486.71 338.584 1486.72 339.533 1487.31 340.114L1496.95 349.57ZM1495.5 241.014L1496.5 348.514L1499.5 348.486L1498.5 240.986L1495.5 241.014Z" fill="black" />
		<path id="Line 661" d="M1228 241.5H1355" stroke="black" stroke-width="3" />
		<path id="Line 662" d="M1228 170.5H1354" stroke="black" stroke-width="3" />
		<g id="P22A">
			<rect id="P22A_BOX" x="1411.5" y="185.875" width="47" height="40" fill="#C6C6C6" stroke="black" />
			<path id="Vector 109_8" d="M1417.6 195.271V195.271C1418.52 189.056 1427.37 188.739 1428.73 194.872L1428.82 195.271" stroke="black" />
			<path id="Vector 110_8" d="M1428.82 194.689V194.689C1430.07 200.832 1438.69 201.245 1440.53 195.25L1440.7 194.689" stroke="black" />
			<line id="Line 317_8" y1="-0.5" x2="60.8627" y2="-0.5" transform="matrix(0.759191 -0.650868 0.740632 0.671911 1412.32 226.125)" stroke="black" />
			<line id="Line 318_8" x1="1437.41" y1="213.982" x2="1453.25" y2="213.982" stroke="black" />
			<line id="Line 319_8" x1="1437.41" y1="217.475" x2="1453.25" y2="217.475" stroke="black" />
			<text id="P22A_2" fill="black" font-family="Open Sans" font-size="14" font-weight="600" letter-spacing="0em">
				<tspan x="1437.26" y="238.207">
					P22A
				</tspan>
			</text>
		</g>
		<g id="P22B">
			<rect id="P22B_BOX" x="1473.5" y="185.875" width="47" height="40" fill="#C6C6C6" stroke="black" />
			<path id="Vector 109_9" d="M1479.6 195.271V195.271C1480.52 189.056 1489.37 188.739 1490.73 194.872L1490.82 195.271" stroke="black" />
			<path id="Vector 110_9" d="M1490.82 194.689V194.689C1492.07 200.832 1500.69 201.245 1502.53 195.25L1502.7 194.689" stroke="black" />
			<line id="Line 317_9" y1="-0.5" x2="60.8627" y2="-0.5" transform="matrix(0.759191 -0.650868 0.740632 0.671911 1474.32 226.125)" stroke="black" />
			<line id="Line 318_9" x1="1499.41" y1="213.982" x2="1515.25" y2="213.982" stroke="black" />
			<line id="Line 319_9" x1="1499.41" y1="217.475" x2="1515.25" y2="217.475" stroke="black" />
			<text id="P22B_2" fill="black" font-family="Open Sans" font-size="14" font-weight="600" letter-spacing="0em">
				<tspan x="1500.26" y="238.207">
					P22B
				</tspan>
			</text>
		</g>
		<g id="P22C">
			<rect id="P22C_BOX" x="1536.5" y="185.875" width="47" height="40" fill="#C6C6C6" stroke="black" />
			<path id="Vector 109_10" d="M1542.6 195.271V195.271C1543.52 189.056 1552.37 188.739 1553.73 194.872L1553.82 195.271" stroke="black" />
			<path id="Vector 110_10" d="M1553.82 194.689V194.689C1555.07 200.832 1563.69 201.245 1565.53 195.25L1565.7 194.689" stroke="black" />
			<line id="Line 317_10" y1="-0.5" x2="60.8627" y2="-0.5" transform="matrix(0.759191 -0.650868 0.740632 0.671911 1537.32 226.125)" stroke="black" />
			<line id="Line 318_10" x1="1562.41" y1="213.982" x2="1578.25" y2="213.982" stroke="black" />
			<line id="Line 319_10" x1="1562.41" y1="217.475" x2="1578.25" y2="217.475" stroke="black" />
			<text id="P22C_2" fill="black" font-family="Open Sans" font-size="14" font-weight="600" letter-spacing="0em">
				<tspan x="1563.26" y="238.207">
					P22C
				</tspan>
			</text>
		</g>
		<path id="Line 720" d="M1478 172V149" stroke="black" stroke-width="3" />
		<path id="Line 721" d="M1559 185.5V170" stroke="black" stroke-width="3" />
		<path id="Line 722" d="M1497 185.5V170" stroke="black" stroke-width="3" />
		<path id="Line 723" d="M1435 186.524V169.024" stroke="black" stroke-width="3" />
		<path id="Line 724" d="M1435 240.5V226" stroke="black" stroke-width="3" />
		<path id="Line 725" d="M1497 240.5V226" stroke="black" stroke-width="3" />
		<path id="Line 726" d="M1560 242.5V226" stroke="black" stroke-width="3" />
		<path id="Line 727" d="M1434 241.5H1561" stroke="black" stroke-width="3" />
		<path id="Line 728" d="M1434 170.5H1560" stroke="black" stroke-width="3" />
		<text id="POINT OPERATION" fill="black" font-family="Open Sans" font-size="10" letter-spacing="0em">
			<tspan x="1461" y="368.879">
				POINT OPERATION
			</tspan>
		</text>
		<text id="110V - 130V DC 30A" fill="black" font-family="Open Sans" font-size="10" letter-spacing="0em">
			<tspan x="1343.16" y="281.879">
				110V - 130V DC;
			</tspan>
			<tspan x="1396.23" y="295.879">
				30A
			</tspan>
		</text>
		<text id="ALH_BB_PO" fill="black" font-family="Open Sans" font-size="14" font-weight="600" letter-spacing="0em">
			<tspan x="1477.19" y="393.931">
				00.00V
			</tspan>
		</text>
	</g>
</svg>
