<svg width="490" height="331" viewBox="0 0 490 331" fill="none" xmlns="http://www.w3.org/2000/svg">
	<g id="ACO">
		<rect id="ACO_TITLE_BLOCK" x="0.5" y="0.5" width="489" height="53" fill="#D9D9D9" stroke="black">
		</rect>
		<rect id="ACO_BODY_BLOCK" x="0.5" y="53.5" width="489" height="277" stroke="black">
		</rect>
		<!--
		<path id="ACO_STATION_ID" d="M31.3623 38L28.7256 31.2031H20.1416L17.5195 38H15L23.3789 16.4961H25.6201L33.9404 38H31.3623ZM27.9785 28.9912L25.4736 22.2383C25.415 22.0625 25.3174 21.7744 25.1807 21.374C25.0537 20.9736 24.9219 20.5586 24.7852 20.1289C24.6484 19.6992 24.5361 19.3525 24.4482 19.0889C24.3506 19.4893 24.2432 19.8896 24.126 20.29C24.0186 20.6807 23.9111 21.0469 23.8037 21.3887C23.6963 21.7207 23.6035 22.0039 23.5254 22.2383L20.9766 28.9912H27.9785ZM48.8379 38H36.9141V16.584H48.8379V18.7812H39.4043V25.71H48.2959V27.8779H39.4043V35.8027H48.8379V38ZM53.584 38V16.584H56.0742V35.7734H65.5811V38H53.584ZM86.001 38H83.1299L71.4551 20.0117H71.3379C71.3672 20.4902 71.4014 21.0371 71.4404 21.6523C71.4795 22.2578 71.5088 22.9072 71.5283 23.6006C71.5576 24.2842 71.5723 24.9824 71.5723 25.6953V38H69.2578V16.584H72.1143L83.7451 34.5137H83.8477C83.8281 34.1719 83.8037 33.6885 83.7744 33.0635C83.7451 32.4287 83.7158 31.75 83.6865 31.0273C83.667 30.2949 83.6572 29.6162 83.6572 28.9912V16.584H86.001V38Z" fill="black">
		</path>
		-->
		<text x="5" y="40" fill="black" id="ACO_STATION_ID" font-size="2em">
			STN NAME
		</text>
		<!--
		<path id="ACO_DATA_TIMESTAMP" d="M22.2939 302.989C22.2939 303.8 22.2324 304.525 22.1094 305.163C21.9863 305.801 21.7926 306.341 21.5283 306.783C21.264 307.225 20.9222 307.562 20.5029 307.795C20.0837 308.023 19.5801 308.137 18.9922 308.137C18.2493 308.137 17.6341 307.934 17.1465 307.528C16.6634 307.123 16.3011 306.537 16.0596 305.771C15.8226 305.001 15.7041 304.074 15.7041 302.989C15.7041 301.923 15.8112 301.007 16.0254 300.241C16.2441 299.471 16.5951 298.881 17.0781 298.471C17.5612 298.056 18.1992 297.849 18.9922 297.849C19.7441 297.849 20.3639 298.054 20.8516 298.464C21.3392 298.869 21.7015 299.457 21.9385 300.228C22.1755 300.993 22.2939 301.914 22.2939 302.989ZM16.8457 302.989C16.8457 303.919 16.9163 304.694 17.0576 305.313C17.1989 305.933 17.4268 306.398 17.7412 306.708C18.0602 307.013 18.4772 307.166 18.9922 307.166C19.5072 307.166 19.9219 307.013 20.2363 306.708C20.5553 306.403 20.7855 305.94 20.9268 305.32C21.0726 304.701 21.1455 303.924 21.1455 302.989C21.1455 302.073 21.0749 301.308 20.9336 300.692C20.7923 300.073 20.5645 299.608 20.25 299.298C19.9355 298.983 19.5163 298.826 18.9922 298.826C18.4681 298.826 18.0488 298.983 17.7344 299.298C17.4199 299.608 17.1921 300.073 17.0508 300.692C16.9141 301.308 16.8457 302.073 16.8457 302.989ZM30.75 305.683H29.2529V308H28.1455V305.683H23.3125V304.726L28.0703 297.951H29.2529V304.657H30.75V305.683ZM28.1455 304.657V301.39C28.1455 301.139 28.1478 300.913 28.1523 300.713C28.1569 300.508 28.1637 300.319 28.1729 300.146C28.182 299.968 28.1888 299.799 28.1934 299.64C28.2025 299.48 28.2093 299.323 28.2139 299.168H28.1592C28.0726 299.35 27.9723 299.544 27.8584 299.749C27.749 299.95 27.6374 300.13 27.5234 300.289L24.4404 304.657H28.1455ZM31.584 304.746V303.734H34.9746V304.746H31.584ZM42.8291 302.989C42.8291 303.8 42.7676 304.525 42.6445 305.163C42.5215 305.801 42.3278 306.341 42.0635 306.783C41.7992 307.225 41.4574 307.562 41.0381 307.795C40.6188 308.023 40.1152 308.137 39.5273 308.137C38.7845 308.137 38.1693 307.934 37.6816 307.528C37.1986 307.123 36.8363 306.537 36.5947 305.771C36.3577 305.001 36.2393 304.074 36.2393 302.989C36.2393 301.923 36.3464 301.007 36.5605 300.241C36.7793 299.471 37.1302 298.881 37.6133 298.471C38.0964 298.056 38.7344 297.849 39.5273 297.849C40.2793 297.849 40.8991 298.054 41.3867 298.464C41.8743 298.869 42.2367 299.457 42.4736 300.228C42.7106 300.993 42.8291 301.914 42.8291 302.989ZM37.3809 302.989C37.3809 303.919 37.4515 304.694 37.5928 305.313C37.734 305.933 37.9619 306.398 38.2764 306.708C38.5954 307.013 39.0124 307.166 39.5273 307.166C40.0423 307.166 40.457 307.013 40.7715 306.708C41.0905 306.403 41.3206 305.94 41.4619 305.32C41.6077 304.701 41.6807 303.924 41.6807 302.989C41.6807 302.073 41.61 301.308 41.4688 300.692C41.3275 300.073 41.0996 299.608 40.7852 299.298C40.4707 298.983 40.0514 298.826 39.5273 298.826C39.0033 298.826 38.584 298.983 38.2695 299.298C37.9551 299.608 37.7272 300.073 37.5859 300.692C37.4492 301.308 37.3809 302.073 37.3809 302.989ZM47.5391 297.862C48.1178 297.862 48.6305 297.953 49.0771 298.136C49.5238 298.318 49.8724 298.587 50.123 298.942C50.3783 299.293 50.5059 299.726 50.5059 300.241C50.5059 300.647 50.417 301.002 50.2393 301.308C50.0661 301.608 49.8314 301.873 49.5352 302.101C49.2389 302.324 48.9108 302.524 48.5508 302.702C48.9792 302.898 49.3643 303.119 49.7061 303.365C50.0524 303.611 50.3258 303.901 50.5264 304.233C50.7269 304.566 50.8271 304.96 50.8271 305.416C50.8271 305.977 50.6904 306.462 50.417 306.872C50.1481 307.278 49.7699 307.59 49.2822 307.809C48.7946 308.027 48.2227 308.137 47.5664 308.137C46.86 308.137 46.2585 308.032 45.7617 307.822C45.2695 307.608 44.8936 307.303 44.6338 306.906C44.3786 306.505 44.251 306.024 44.251 305.464C44.251 305.004 44.349 304.605 44.5449 304.268C44.7409 303.926 45.0007 303.632 45.3242 303.386C45.6478 303.14 46.001 302.932 46.3838 302.764C46.0511 302.581 45.7458 302.374 45.4678 302.142C45.1943 301.909 44.9756 301.638 44.8115 301.328C44.652 301.014 44.5723 300.649 44.5723 300.234C44.5723 299.729 44.6999 299.3 44.9551 298.949C45.2148 298.594 45.568 298.325 46.0146 298.143C46.4658 297.956 46.974 297.862 47.5391 297.862ZM45.3652 305.471C45.3652 305.981 45.5452 306.403 45.9053 306.735C46.2653 307.063 46.8099 307.228 47.5391 307.228C48.2318 307.228 48.7673 307.063 49.1455 306.735C49.5238 306.403 49.7129 305.967 49.7129 305.43C49.7129 305.097 49.6263 304.805 49.4531 304.555C49.2799 304.299 49.0339 304.072 48.7148 303.871C48.3958 303.671 48.0199 303.488 47.5869 303.324L47.3408 303.235C46.9215 303.409 46.5638 303.602 46.2676 303.816C45.9759 304.026 45.7526 304.265 45.5977 304.534C45.4427 304.803 45.3652 305.115 45.3652 305.471ZM47.5254 298.792C46.9876 298.792 46.5479 298.922 46.2061 299.182C45.8643 299.437 45.6934 299.806 45.6934 300.289C45.6934 300.635 45.7754 300.929 45.9395 301.171C46.1081 301.408 46.3359 301.613 46.623 301.786C46.9102 301.955 47.2314 302.112 47.5869 302.258C47.9333 302.112 48.2409 301.952 48.5098 301.779C48.7786 301.602 48.9906 301.392 49.1455 301.15C49.3005 300.909 49.3779 300.619 49.3779 300.282C49.3779 299.799 49.207 299.43 48.8652 299.175C48.528 298.92 48.0814 298.792 47.5254 298.792ZM52.1191 304.746V303.734H55.5098V304.746H52.1191ZM63.3096 308H56.7607V307.05L59.4336 304.336C59.9303 303.835 60.3473 303.388 60.6846 302.996C61.0264 302.604 61.2861 302.219 61.4639 301.841C61.6416 301.458 61.7305 301.039 61.7305 300.583C61.7305 300.018 61.5618 299.587 61.2246 299.291C60.8919 298.99 60.4521 298.84 59.9053 298.84C59.4268 298.84 59.0029 298.922 58.6338 299.086C58.2646 299.25 57.8864 299.482 57.499 299.783L56.8906 299.018C57.1549 298.794 57.4421 298.596 57.752 298.423C58.0664 298.25 58.4014 298.113 58.7568 298.013C59.1169 297.912 59.4997 297.862 59.9053 297.862C60.5205 297.862 61.0514 297.969 61.498 298.184C61.9447 298.398 62.2887 298.703 62.5303 299.1C62.7764 299.496 62.8994 299.968 62.8994 300.515C62.8994 301.043 62.7946 301.535 62.585 301.991C62.3753 302.442 62.0814 302.891 61.7031 303.338C61.3249 303.78 60.8828 304.249 60.377 304.746L58.2031 306.913V306.961H63.3096V308ZM71.376 302.989C71.376 303.8 71.3145 304.525 71.1914 305.163C71.0684 305.801 70.8747 306.341 70.6104 306.783C70.346 307.225 70.0042 307.562 69.585 307.795C69.1657 308.023 68.6621 308.137 68.0742 308.137C67.3314 308.137 66.7161 307.934 66.2285 307.528C65.7454 307.123 65.3831 306.537 65.1416 305.771C64.9046 305.001 64.7861 304.074 64.7861 302.989C64.7861 301.923 64.8932 301.007 65.1074 300.241C65.3262 299.471 65.6771 298.881 66.1602 298.471C66.6432 298.056 67.2812 297.849 68.0742 297.849C68.8262 297.849 69.446 298.054 69.9336 298.464C70.4212 298.869 70.7835 299.457 71.0205 300.228C71.2575 300.993 71.376 301.914 71.376 302.989ZM65.9277 302.989C65.9277 303.919 65.9984 304.694 66.1396 305.313C66.2809 305.933 66.5088 306.398 66.8232 306.708C67.1423 307.013 67.5592 307.166 68.0742 307.166C68.5892 307.166 69.0039 307.013 69.3184 306.708C69.6374 306.403 69.8675 305.94 70.0088 305.32C70.1546 304.701 70.2275 303.924 70.2275 302.989C70.2275 302.073 70.1569 301.308 70.0156 300.692C69.8743 300.073 69.6465 299.608 69.332 299.298C69.0176 298.983 68.5983 298.826 68.0742 298.826C67.5501 298.826 67.1309 298.983 66.8164 299.298C66.502 299.608 66.2741 300.073 66.1328 300.692C65.9961 301.308 65.9277 302.073 65.9277 302.989ZM79.333 308H72.7842V307.05L75.457 304.336C75.9538 303.835 76.3708 303.388 76.708 302.996C77.0498 302.604 77.3096 302.219 77.4873 301.841C77.665 301.458 77.7539 301.039 77.7539 300.583C77.7539 300.018 77.5853 299.587 77.248 299.291C76.9154 298.99 76.4756 298.84 75.9287 298.84C75.4502 298.84 75.0264 298.922 74.6572 299.086C74.2881 299.25 73.9098 299.482 73.5225 299.783L72.9141 299.018C73.1784 298.794 73.4655 298.596 73.7754 298.423C74.0898 298.25 74.4248 298.113 74.7803 298.013C75.1403 297.912 75.5231 297.862 75.9287 297.862C76.5439 297.862 77.0749 297.969 77.5215 298.184C77.9681 298.398 78.3122 298.703 78.5537 299.1C78.7998 299.496 78.9229 299.968 78.9229 300.515C78.9229 301.043 78.818 301.535 78.6084 301.991C78.3988 302.442 78.1048 302.891 77.7266 303.338C77.3483 303.78 76.9062 304.249 76.4004 304.746L74.2266 306.913V306.961H79.333V308ZM86.9756 300.337C86.9756 300.784 86.889 301.171 86.7158 301.499C86.5426 301.827 86.3011 302.096 85.9912 302.306C85.6813 302.511 85.3167 302.654 84.8975 302.736V302.791C85.6904 302.891 86.2852 303.146 86.6816 303.557C87.0827 303.967 87.2832 304.505 87.2832 305.17C87.2832 305.749 87.1465 306.261 86.873 306.708C86.6042 307.155 86.1895 307.506 85.6289 307.761C85.0729 308.011 84.3597 308.137 83.4893 308.137C82.9606 308.137 82.4707 308.093 82.0195 308.007C81.5729 307.925 81.1445 307.786 80.7344 307.59V306.523C81.1491 306.729 81.6003 306.89 82.0879 307.009C82.5755 307.123 83.0472 307.18 83.5029 307.18C84.4144 307.18 85.0729 307 85.4785 306.64C85.8841 306.275 86.0869 305.778 86.0869 305.149C86.0869 304.716 85.973 304.368 85.7451 304.104C85.5218 303.835 85.1982 303.639 84.7744 303.516C84.3551 303.388 83.8493 303.324 83.2568 303.324H82.2588V302.354H83.2637C83.806 302.354 84.2663 302.274 84.6445 302.114C85.0228 301.955 85.3099 301.731 85.5059 301.444C85.7064 301.153 85.8066 300.809 85.8066 300.412C85.8066 299.906 85.638 299.517 85.3008 299.243C84.9635 298.965 84.5055 298.826 83.9268 298.826C83.5713 298.826 83.2477 298.863 82.9561 298.936C82.6644 299.008 82.391 299.109 82.1357 299.236C81.8805 299.364 81.6253 299.512 81.3701 299.681L80.7959 298.901C81.1605 298.619 81.6048 298.375 82.1289 298.17C82.653 297.965 83.2477 297.862 83.9131 297.862C84.9339 297.862 85.6995 298.095 86.21 298.56C86.7204 299.024 86.9756 299.617 86.9756 300.337ZM96.6689 308H95.5615V300.918C95.5615 300.649 95.5615 300.419 95.5615 300.228C95.5661 300.032 95.5706 299.854 95.5752 299.694C95.5843 299.53 95.5957 299.364 95.6094 299.195C95.4681 299.341 95.3359 299.466 95.2129 299.571C95.0898 299.672 94.9372 299.797 94.7549 299.947L93.6133 300.863L93.0186 300.091L95.7256 298.006H96.6689V308ZM103.614 301.889C104.293 301.889 104.883 302.005 105.385 302.237C105.886 302.465 106.273 302.798 106.547 303.235C106.825 303.673 106.964 304.204 106.964 304.828C106.964 305.512 106.816 306.102 106.52 306.599C106.223 307.091 105.797 307.471 105.241 307.74C104.685 308.005 104.02 308.137 103.245 308.137C102.726 308.137 102.243 308.091 101.796 308C101.349 307.909 100.973 307.772 100.668 307.59V306.51C101.001 306.71 101.404 306.87 101.878 306.988C102.352 307.107 102.812 307.166 103.259 307.166C103.765 307.166 104.207 307.086 104.585 306.927C104.968 306.763 105.264 306.517 105.474 306.188C105.688 305.856 105.795 305.439 105.795 304.938C105.795 304.272 105.59 303.759 105.18 303.399C104.774 303.035 104.132 302.853 103.252 302.853C102.969 302.853 102.66 302.875 102.322 302.921C101.985 302.966 101.707 303.017 101.488 303.071L100.914 302.695L101.297 298.006H106.267V299.045H102.268L102.015 302.06C102.188 302.023 102.411 301.987 102.685 301.95C102.958 301.909 103.268 301.889 103.614 301.889ZM108.803 307.289C108.803 306.97 108.88 306.744 109.035 306.612C109.19 306.476 109.379 306.407 109.603 306.407C109.835 306.407 110.031 306.476 110.19 306.612C110.35 306.744 110.43 306.97 110.43 307.289C110.43 307.604 110.35 307.834 110.19 307.979C110.031 308.121 109.835 308.191 109.603 308.191C109.379 308.191 109.19 308.121 109.035 307.979C108.88 307.834 108.803 307.604 108.803 307.289ZM108.803 301.226C108.803 300.897 108.88 300.667 109.035 300.535C109.19 300.398 109.379 300.33 109.603 300.33C109.835 300.33 110.031 300.398 110.19 300.535C110.35 300.667 110.43 300.897 110.43 301.226C110.43 301.535 110.35 301.761 110.19 301.902C110.031 302.044 109.835 302.114 109.603 302.114C109.379 302.114 109.19 302.044 109.035 301.902C108.88 301.761 108.803 301.535 108.803 301.226ZM116.37 308H115.263V300.918C115.263 300.649 115.263 300.419 115.263 300.228C115.267 300.032 115.272 299.854 115.276 299.694C115.285 299.53 115.297 299.364 115.311 299.195C115.169 299.341 115.037 299.466 114.914 299.571C114.791 299.672 114.638 299.797 114.456 299.947L113.314 300.863L112.72 300.091L115.427 298.006H116.37V308ZM126.337 300.337C126.337 300.784 126.25 301.171 126.077 301.499C125.904 301.827 125.662 302.096 125.353 302.306C125.043 302.511 124.678 302.654 124.259 302.736V302.791C125.052 302.891 125.646 303.146 126.043 303.557C126.444 303.967 126.645 304.505 126.645 305.17C126.645 305.749 126.508 306.261 126.234 306.708C125.965 307.155 125.551 307.506 124.99 307.761C124.434 308.011 123.721 308.137 122.851 308.137C122.322 308.137 121.832 308.093 121.381 308.007C120.934 307.925 120.506 307.786 120.096 307.59V306.523C120.51 306.729 120.962 306.89 121.449 307.009C121.937 307.123 122.409 307.18 122.864 307.18C123.776 307.18 124.434 307 124.84 306.64C125.245 306.275 125.448 305.778 125.448 305.149C125.448 304.716 125.334 304.368 125.106 304.104C124.883 303.835 124.56 303.639 124.136 303.516C123.716 303.388 123.211 303.324 122.618 303.324H121.62V302.354H122.625C123.167 302.354 123.628 302.274 124.006 302.114C124.384 301.955 124.671 301.731 124.867 301.444C125.068 301.153 125.168 300.809 125.168 300.412C125.168 299.906 124.999 299.517 124.662 299.243C124.325 298.965 123.867 298.826 123.288 298.826C122.933 298.826 122.609 298.863 122.317 298.936C122.026 299.008 121.752 299.109 121.497 299.236C121.242 299.364 120.987 299.512 120.731 299.681L120.157 298.901C120.522 298.619 120.966 298.375 121.49 298.17C122.014 297.965 122.609 297.862 123.274 297.862C124.295 297.862 125.061 298.095 125.571 298.56C126.082 299.024 126.337 299.617 126.337 300.337ZM128.504 307.289C128.504 306.97 128.581 306.744 128.736 306.612C128.891 306.476 129.08 306.407 129.304 306.407C129.536 306.407 129.732 306.476 129.892 306.612C130.051 306.744 130.131 306.97 130.131 307.289C130.131 307.604 130.051 307.834 129.892 307.979C129.732 308.121 129.536 308.191 129.304 308.191C129.08 308.191 128.891 308.121 128.736 307.979C128.581 307.834 128.504 307.604 128.504 307.289ZM128.504 301.226C128.504 300.897 128.581 300.667 128.736 300.535C128.891 300.398 129.08 300.33 129.304 300.33C129.536 300.33 129.732 300.398 129.892 300.535C130.051 300.667 130.131 300.897 130.131 301.226C130.131 301.535 130.051 301.761 129.892 301.902C129.732 302.044 129.536 302.114 129.304 302.114C129.08 302.114 128.891 302.044 128.736 301.902C128.581 301.761 128.504 301.535 128.504 301.226ZM135.005 301.889C135.684 301.889 136.274 302.005 136.775 302.237C137.277 302.465 137.664 302.798 137.938 303.235C138.215 303.673 138.354 304.204 138.354 304.828C138.354 305.512 138.206 306.102 137.91 306.599C137.614 307.091 137.188 307.471 136.632 307.74C136.076 308.005 135.41 308.137 134.636 308.137C134.116 308.137 133.633 308.091 133.187 308C132.74 307.909 132.364 307.772 132.059 307.59V306.51C132.391 306.71 132.795 306.87 133.269 306.988C133.743 307.107 134.203 307.166 134.649 307.166C135.155 307.166 135.597 307.086 135.976 306.927C136.358 306.763 136.655 306.517 136.864 306.188C137.078 305.856 137.186 305.439 137.186 304.938C137.186 304.272 136.98 303.759 136.57 303.399C136.165 303.035 135.522 302.853 134.643 302.853C134.36 302.853 134.05 302.875 133.713 302.921C133.376 302.966 133.098 303.017 132.879 303.071L132.305 302.695L132.688 298.006H137.657V299.045H133.658L133.405 302.06C133.578 302.023 133.802 301.987 134.075 301.95C134.349 301.909 134.659 301.889 135.005 301.889ZM146.038 300.337C146.038 300.784 145.951 301.171 145.778 301.499C145.605 301.827 145.364 302.096 145.054 302.306C144.744 302.511 144.379 302.654 143.96 302.736V302.791C144.753 302.891 145.348 303.146 145.744 303.557C146.145 303.967 146.346 304.505 146.346 305.17C146.346 305.749 146.209 306.261 145.936 306.708C145.667 307.155 145.252 307.506 144.691 307.761C144.135 308.011 143.422 308.137 142.552 308.137C142.023 308.137 141.533 308.093 141.082 308.007C140.635 307.925 140.207 307.786 139.797 307.59V306.523C140.212 306.729 140.663 306.89 141.15 307.009C141.638 307.123 142.11 307.18 142.565 307.18C143.477 307.18 144.135 307 144.541 306.64C144.947 306.275 145.149 305.778 145.149 305.149C145.149 304.716 145.035 304.368 144.808 304.104C144.584 303.835 144.261 303.639 143.837 303.516C143.418 303.388 142.912 303.324 142.319 303.324H141.321V302.354H142.326C142.868 302.354 143.329 302.274 143.707 302.114C144.085 301.955 144.372 301.731 144.568 301.444C144.769 301.153 144.869 300.809 144.869 300.412C144.869 299.906 144.701 299.517 144.363 299.243C144.026 298.965 143.568 298.826 142.989 298.826C142.634 298.826 142.31 298.863 142.019 298.936C141.727 299.008 141.453 299.109 141.198 299.236C140.943 299.364 140.688 299.512 140.433 299.681L139.858 298.901C140.223 298.619 140.667 298.375 141.191 298.17C141.715 297.965 142.31 297.862 142.976 297.862C143.996 297.862 144.762 298.095 145.272 298.56C145.783 299.024 146.038 299.617 146.038 300.337Z" fill="black">
		</path>
		-->
		<text x="15" y="315" fill="black" id="ACO_DATA_TIMESTAMP" font-size="1em">
			time
		</text>
		<path id="ACO_TITLE" d="M328.008 33L326.602 29.375H322.023L320.625 33H319.281L323.75 21.5312H324.945L329.383 33H328.008ZM326.203 28.1953L324.867 24.5938C324.836 24.5 324.784 24.3464 324.711 24.1328C324.643 23.9193 324.573 23.6979 324.5 23.4688C324.427 23.2396 324.367 23.0547 324.32 22.9141C324.268 23.1276 324.211 23.3411 324.148 23.5547C324.091 23.763 324.034 23.9583 323.977 24.1406C323.919 24.3177 323.87 24.4688 323.828 24.5938L322.469 28.1953H326.203ZM339.609 21.5781V28.9688C339.609 29.776 339.445 30.4948 339.117 31.125C338.794 31.7552 338.305 32.2526 337.648 32.6172C336.992 32.9766 336.169 33.1562 335.18 33.1562C333.768 33.1562 332.693 32.7734 331.953 32.0078C331.219 31.2422 330.852 30.2188 330.852 28.9375V21.5781H332.188V28.9766C332.188 29.9453 332.443 30.6927 332.953 31.2188C333.469 31.7448 334.237 32.0078 335.258 32.0078C335.956 32.0078 336.526 31.8828 336.969 31.6328C337.417 31.3776 337.747 31.0234 337.961 30.5703C338.18 30.112 338.289 29.5833 338.289 28.9844V21.5781H339.609ZM346.148 33H344.812V22.75H341.219V21.5781H349.727V22.75H346.148V33ZM361.359 27.2734C361.359 28.1536 361.247 28.9557 361.023 29.6797C360.799 30.3984 360.466 31.0182 360.023 31.5391C359.586 32.0547 359.042 32.4531 358.391 32.7344C357.74 33.0156 356.984 33.1562 356.125 33.1562C355.24 33.1562 354.466 33.0156 353.805 32.7344C353.148 32.4531 352.602 32.0521 352.164 31.5312C351.732 31.0104 351.406 30.388 351.188 29.6641C350.974 28.9401 350.867 28.138 350.867 27.2578C350.867 26.0911 351.06 25.0677 351.445 24.1875C351.831 23.3073 352.414 22.6224 353.195 22.1328C353.982 21.6432 354.966 21.3984 356.148 21.3984C357.279 21.3984 358.229 21.6406 359 22.125C359.776 22.6094 360.362 23.2917 360.758 24.1719C361.159 25.0469 361.359 26.0807 361.359 27.2734ZM352.266 27.2734C352.266 28.2422 352.404 29.0807 352.68 29.7891C352.956 30.4974 353.378 31.0443 353.945 31.4297C354.518 31.8151 355.245 32.0078 356.125 32.0078C357.01 32.0078 357.734 31.8151 358.297 31.4297C358.865 31.0443 359.284 30.4974 359.555 29.7891C359.826 29.0807 359.961 28.2422 359.961 27.2734C359.961 25.7995 359.651 24.6484 359.031 23.8203C358.417 22.987 357.456 22.5703 356.148 22.5703C355.263 22.5703 354.534 22.7604 353.961 23.1406C353.388 23.5208 352.961 24.0625 352.68 24.7656C352.404 25.4635 352.266 26.2995 352.266 27.2734ZM372.945 22.5859C372.315 22.5859 371.747 22.6953 371.242 22.9141C370.742 23.1276 370.315 23.4401 369.961 23.8516C369.612 24.2578 369.344 24.75 369.156 25.3281C368.969 25.9062 368.875 26.5573 368.875 27.2812C368.875 28.2396 369.023 29.0729 369.32 29.7812C369.622 30.4844 370.07 31.0286 370.664 31.4141C371.263 31.7995 372.01 31.9922 372.906 31.9922C373.417 31.9922 373.896 31.9505 374.344 31.8672C374.797 31.7786 375.237 31.6693 375.664 31.5391V32.6953C375.247 32.8516 374.81 32.9661 374.352 33.0391C373.893 33.1172 373.349 33.1562 372.719 33.1562C371.557 33.1562 370.586 32.9167 369.805 32.4375C369.029 31.9531 368.445 31.2708 368.055 30.3906C367.669 29.5104 367.477 28.4714 367.477 27.2734C367.477 26.4089 367.596 25.6198 367.836 24.9062C368.081 24.1875 368.435 23.5677 368.898 23.0469C369.367 22.526 369.94 22.125 370.617 21.8438C371.299 21.5573 372.081 21.4141 372.961 21.4141C373.539 21.4141 374.096 21.4714 374.633 21.5859C375.169 21.7005 375.654 21.8646 376.086 22.0781L375.555 23.2031C375.19 23.0365 374.789 22.8932 374.352 22.7734C373.919 22.6484 373.451 22.5859 372.945 22.5859ZM386.797 33H385.469V27.6172H379.469V33H378.141V21.5781H379.469V26.4453H385.469V21.5781H386.797V33ZM397.102 33L395.695 29.375H391.117L389.719 33H388.375L392.844 21.5312H394.039L398.477 33H397.102ZM395.297 28.1953L393.961 24.5938C393.93 24.5 393.878 24.3464 393.805 24.1328C393.737 23.9193 393.667 23.6979 393.594 23.4688C393.521 23.2396 393.461 23.0547 393.414 22.9141C393.362 23.1276 393.305 23.3411 393.242 23.5547C393.185 23.763 393.128 23.9583 393.07 24.1406C393.013 24.3177 392.964 24.4688 392.922 24.5938L391.562 28.1953H395.297ZM408.992 33H407.461L401.234 23.4062H401.172C401.188 23.6615 401.206 23.9531 401.227 24.2812C401.247 24.6042 401.263 24.9505 401.273 25.3203C401.289 25.6849 401.297 26.0573 401.297 26.4375V33H400.062V21.5781H401.586L407.789 31.1406H407.844C407.833 30.9583 407.82 30.7005 407.805 30.3672C407.789 30.0286 407.773 29.6667 407.758 29.2812C407.747 28.8906 407.742 28.5286 407.742 28.1953V21.5781H408.992V33ZM416.992 27.0156H420.984V32.5547C420.385 32.7578 419.768 32.9089 419.133 33.0078C418.503 33.1068 417.797 33.1562 417.016 33.1562C415.828 33.1562 414.826 32.9193 414.008 32.4453C413.195 31.9714 412.578 31.2969 412.156 30.4219C411.734 29.5417 411.523 28.4974 411.523 27.2891C411.523 26.1068 411.755 25.0755 412.219 24.1953C412.688 23.3151 413.362 22.6328 414.242 22.1484C415.128 21.6589 416.19 21.4141 417.43 21.4141C418.065 21.4141 418.667 21.474 419.234 21.5938C419.807 21.7083 420.339 21.8724 420.828 22.0859L420.32 23.2422C419.898 23.0599 419.432 22.9036 418.922 22.7734C418.417 22.6432 417.893 22.5781 417.352 22.5781C416.419 22.5781 415.62 22.7708 414.953 23.1562C414.292 23.5417 413.784 24.0859 413.43 24.7891C413.081 25.4922 412.906 26.3255 412.906 27.2891C412.906 28.2422 413.06 29.0729 413.367 29.7812C413.674 30.4844 414.154 31.0312 414.805 31.4219C415.456 31.8125 416.294 32.0078 417.32 32.0078C417.836 32.0078 418.279 31.9792 418.648 31.9219C419.018 31.8594 419.354 31.7865 419.656 31.7031V28.2031H416.992V27.0156ZM430.109 33H423.75V21.5781H430.109V22.75H425.078V26.4453H429.82V27.6016H425.078V31.8281H430.109V33ZM446.703 27.2734C446.703 28.1536 446.591 28.9557 446.367 29.6797C446.143 30.3984 445.81 31.0182 445.367 31.5391C444.93 32.0547 444.385 32.4531 443.734 32.7344C443.083 33.0156 442.328 33.1562 441.469 33.1562C440.583 33.1562 439.81 33.0156 439.148 32.7344C438.492 32.4531 437.945 32.0521 437.508 31.5312C437.076 31.0104 436.75 30.388 436.531 29.6641C436.318 28.9401 436.211 28.138 436.211 27.2578C436.211 26.0911 436.404 25.0677 436.789 24.1875C437.174 23.3073 437.758 22.6224 438.539 22.1328C439.326 21.6432 440.31 21.3984 441.492 21.3984C442.622 21.3984 443.573 21.6406 444.344 22.125C445.12 22.6094 445.706 23.2917 446.102 24.1719C446.503 25.0469 446.703 26.0807 446.703 27.2734ZM437.609 27.2734C437.609 28.2422 437.747 29.0807 438.023 29.7891C438.299 30.4974 438.721 31.0443 439.289 31.4297C439.862 31.8151 440.589 32.0078 441.469 32.0078C442.354 32.0078 443.078 31.8151 443.641 31.4297C444.208 31.0443 444.628 30.4974 444.898 29.7891C445.169 29.0807 445.305 28.2422 445.305 27.2734C445.305 25.7995 444.995 24.6484 444.375 23.8203C443.76 22.987 442.799 22.5703 441.492 22.5703C440.607 22.5703 439.878 22.7604 439.305 23.1406C438.732 23.5208 438.305 24.0625 438.023 24.7656C437.747 25.4635 437.609 26.2995 437.609 27.2734ZM457.227 21.5781L453.125 33H451.789L447.688 21.5781H449.078L451.75 29.1016C451.859 29.4036 451.956 29.6927 452.039 29.9688C452.128 30.2448 452.206 30.5104 452.273 30.7656C452.341 31.0208 452.401 31.2682 452.453 31.5078C452.505 31.2682 452.565 31.0208 452.633 30.7656C452.701 30.5052 452.779 30.237 452.867 29.9609C452.956 29.6797 453.055 29.3854 453.164 29.0781L455.82 21.5781H457.227ZM465.156 33H458.797V21.5781H465.156V22.75H460.125V26.4453H464.867V27.6016H460.125V31.8281H465.156V33ZM470.773 21.5781C471.711 21.5781 472.484 21.6953 473.094 21.9297C473.708 22.1589 474.167 22.5104 474.469 22.9844C474.771 23.4583 474.922 24.0625 474.922 24.7969C474.922 25.401 474.812 25.9062 474.594 26.3125C474.375 26.7135 474.089 27.0391 473.734 27.2891C473.38 27.5391 473.003 27.7318 472.602 27.8672L475.734 33H474.188L471.391 28.2344H469.016V33H467.688V21.5781H470.773ZM470.695 22.7266H469.016V27.1094H470.828C471.76 27.1094 472.445 26.9193 472.883 26.5391C473.326 26.1589 473.547 25.599 473.547 24.8594C473.547 24.0833 473.312 23.5339 472.844 23.2109C472.38 22.888 471.664 22.7266 470.695 22.7266Z" fill="black">
		</path>
		<rect id="ACO_BLOCK" x="285.5" y="83.5" width="139" height="101" fill="#D9D9D9" stroke="black">
		</rect>
		<g id="ACO_OUTPUT_BLOCK">
			<!--
			<path id="ACO_OUTPUT_VALUE" d="M328.297 305H320.562V303.617L323.523 300.617C324.096 300.034 324.568 299.531 324.938 299.109C325.307 298.682 325.581 298.279 325.758 297.898C325.94 297.518 326.031 297.104 326.031 296.656C326.031 296.104 325.872 295.688 325.555 295.406C325.237 295.12 324.818 294.977 324.297 294.977C323.802 294.977 323.344 295.076 322.922 295.273C322.505 295.466 322.073 295.742 321.625 296.102L320.617 294.891C320.935 294.62 321.273 294.372 321.633 294.148C321.997 293.924 322.404 293.747 322.852 293.617C323.299 293.482 323.81 293.414 324.383 293.414C325.107 293.414 325.732 293.544 326.258 293.805C326.784 294.06 327.188 294.417 327.469 294.875C327.755 295.333 327.898 295.867 327.898 296.477C327.898 297.091 327.776 297.659 327.531 298.18C327.286 298.701 326.938 299.216 326.484 299.727C326.031 300.232 325.492 300.781 324.867 301.375L322.891 303.305V303.391H328.297V305ZM337.016 296.188C337.016 296.703 336.911 297.151 336.703 297.531C336.495 297.911 336.208 298.224 335.844 298.469C335.484 298.708 335.068 298.88 334.594 298.984V299.039C335.505 299.154 336.193 299.44 336.656 299.898C337.125 300.357 337.359 300.964 337.359 301.719C337.359 302.38 337.201 302.971 336.883 303.492C336.565 304.008 336.078 304.414 335.422 304.711C334.766 305.008 333.922 305.156 332.891 305.156C332.271 305.156 331.695 305.107 331.164 305.008C330.638 304.909 330.138 304.75 329.664 304.531V302.898C330.148 303.138 330.664 303.323 331.211 303.453C331.758 303.583 332.276 303.648 332.766 303.648C333.719 303.648 334.398 303.471 334.805 303.117C335.211 302.758 335.414 302.263 335.414 301.633C335.414 301.227 335.307 300.893 335.094 300.633C334.885 300.372 334.56 300.177 334.117 300.047C333.68 299.917 333.115 299.852 332.422 299.852H331.414V298.375H332.43C333.091 298.375 333.622 298.297 334.023 298.141C334.424 297.979 334.714 297.758 334.891 297.477C335.073 297.195 335.164 296.867 335.164 296.492C335.164 296.003 335.005 295.622 334.688 295.352C334.37 295.076 333.898 294.938 333.273 294.938C332.888 294.938 332.536 294.982 332.219 295.07C331.906 295.159 331.617 295.271 331.352 295.406C331.086 295.542 330.833 295.688 330.594 295.844L329.711 294.57C330.143 294.247 330.659 293.974 331.258 293.75C331.857 293.526 332.555 293.414 333.352 293.414C334.523 293.414 335.427 293.667 336.062 294.172C336.698 294.672 337.016 295.344 337.016 296.188ZM346.609 299.281C346.609 300.203 346.536 301.029 346.391 301.758C346.25 302.482 346.026 303.096 345.719 303.602C345.411 304.107 345.01 304.492 344.516 304.758C344.021 305.023 343.422 305.156 342.719 305.156C341.839 305.156 341.112 304.924 340.539 304.461C339.966 303.992 339.542 303.32 339.266 302.445C338.99 301.565 338.852 300.51 338.852 299.281C338.852 298.052 338.977 297 339.227 296.125C339.482 295.245 339.893 294.57 340.461 294.102C341.029 293.633 341.781 293.398 342.719 293.398C343.604 293.398 344.333 293.633 344.906 294.102C345.484 294.565 345.911 295.237 346.188 296.117C346.469 296.992 346.609 298.047 346.609 299.281ZM340.703 299.281C340.703 300.245 340.766 301.049 340.891 301.695C341.021 302.341 341.234 302.826 341.531 303.148C341.828 303.466 342.224 303.625 342.719 303.625C343.214 303.625 343.609 303.466 343.906 303.148C344.203 302.831 344.417 302.349 344.547 301.703C344.682 301.057 344.75 300.25 344.75 299.281C344.75 298.323 344.685 297.521 344.555 296.875C344.424 296.229 344.211 295.745 343.914 295.422C343.617 295.094 343.219 294.93 342.719 294.93C342.219 294.93 341.82 295.094 341.523 295.422C341.232 295.745 341.021 296.229 340.891 296.875C340.766 297.521 340.703 298.323 340.703 299.281ZM357.281 293.578L353.289 305H351.305L347.312 293.578H349.234L351.641 300.734C351.714 300.943 351.792 301.195 351.875 301.492C351.964 301.789 352.044 302.089 352.117 302.391C352.195 302.693 352.255 302.961 352.297 303.195C352.339 302.961 352.396 302.693 352.469 302.391C352.547 302.089 352.628 301.789 352.711 301.492C352.794 301.195 352.872 300.94 352.945 300.727L355.359 293.578H357.281ZM370.016 305L368.898 301.828H364.531L363.414 305H361.438L365.688 293.531H367.766L372.008 305H370.016ZM368.414 300.219L367.328 297.094C367.286 296.958 367.227 296.768 367.148 296.523C367.07 296.273 366.992 296.021 366.914 295.766C366.836 295.505 366.771 295.286 366.719 295.109C366.667 295.323 366.602 295.562 366.523 295.828C366.451 296.089 366.378 296.333 366.305 296.562C366.237 296.792 366.185 296.969 366.148 297.094L365.055 300.219H368.414ZM378.383 295.008C377.836 295.008 377.346 295.107 376.914 295.305C376.487 295.503 376.125 295.789 375.828 296.164C375.531 296.534 375.305 296.984 375.148 297.516C374.992 298.042 374.914 298.635 374.914 299.297C374.914 300.182 375.039 300.945 375.289 301.586C375.539 302.221 375.919 302.711 376.43 303.055C376.94 303.393 377.586 303.562 378.367 303.562C378.852 303.562 379.323 303.516 379.781 303.422C380.24 303.328 380.714 303.201 381.203 303.039V304.633C380.74 304.815 380.271 304.948 379.797 305.031C379.323 305.115 378.776 305.156 378.156 305.156C376.99 305.156 376.021 304.914 375.25 304.43C374.484 303.945 373.911 303.263 373.531 302.383C373.156 301.503 372.969 300.471 372.969 299.289C372.969 298.424 373.089 297.633 373.328 296.914C373.568 296.195 373.917 295.576 374.375 295.055C374.833 294.529 375.398 294.125 376.07 293.844C376.747 293.557 377.521 293.414 378.391 293.414C378.964 293.414 379.526 293.479 380.078 293.609C380.635 293.734 381.151 293.914 381.625 294.148L380.969 295.695C380.573 295.508 380.159 295.346 379.727 295.211C379.294 295.076 378.846 295.008 378.383 295.008Z" fill="black">
			</path>
			-->
			<text x="320" y="300" font-weight="bold" fill="black" id="ACO_OUTPUT_VALUE" font-size="1em">
				<!-- 230V AC -->
				OUT VAL
			</text>
			<path id="ACO_OUTPUT_LINE2" d="M350.146 282.354C350.342 282.549 350.658 282.549 350.854 282.354L354.036 279.172C354.231 278.976 354.231 278.66 354.036 278.464C353.84 278.269 353.524 278.269 353.328 278.464L350.5 281.293L347.672 278.464C347.476 278.269 347.16 278.269 346.964 278.464C346.769 278.66 346.769 278.976 346.964 279.172L350.146 282.354ZM351 282V226H350V282H351Z" fill="black">
			</path>
			<path id="OUTPUT" d="M365.168 254.421C365.168 254.971 365.098 255.472 364.958 255.925C364.818 256.374 364.61 256.761 364.333 257.087C364.06 257.409 363.719 257.658 363.312 257.834C362.906 258.01 362.434 258.098 361.896 258.098C361.343 258.098 360.86 258.01 360.446 257.834C360.036 257.658 359.694 257.408 359.421 257.082C359.151 256.757 358.947 256.368 358.811 255.915C358.677 255.463 358.61 254.961 358.61 254.411C358.61 253.682 358.731 253.042 358.972 252.492C359.213 251.942 359.577 251.514 360.065 251.208C360.557 250.902 361.172 250.749 361.911 250.749C362.618 250.749 363.212 250.9 363.693 251.203C364.178 251.506 364.545 251.932 364.792 252.482C365.043 253.029 365.168 253.675 365.168 254.421ZM359.484 254.421C359.484 255.026 359.571 255.55 359.743 255.993C359.916 256.436 360.179 256.778 360.534 257.019C360.892 257.259 361.346 257.38 361.896 257.38C362.45 257.38 362.902 257.259 363.254 257.019C363.609 256.778 363.871 256.436 364.04 255.993C364.209 255.55 364.294 255.026 364.294 254.421C364.294 253.5 364.1 252.78 363.713 252.263C363.329 251.742 362.728 251.481 361.911 251.481C361.358 251.481 360.902 251.6 360.544 251.838C360.186 252.076 359.919 252.414 359.743 252.854C359.571 253.29 359.484 253.812 359.484 254.421ZM372.16 250.861V255.48C372.16 255.985 372.058 256.434 371.853 256.828C371.651 257.222 371.345 257.533 370.935 257.761C370.524 257.985 370.01 258.098 369.392 258.098C368.509 258.098 367.837 257.858 367.375 257.38C366.916 256.901 366.687 256.262 366.687 255.461V250.861H367.521V255.485C367.521 256.091 367.681 256.558 368 256.887C368.322 257.215 368.802 257.38 369.44 257.38C369.877 257.38 370.233 257.302 370.51 257.146C370.79 256.986 370.996 256.765 371.13 256.481C371.267 256.195 371.335 255.865 371.335 255.49V250.861H372.16ZM376.247 258H375.412V251.594H373.166V250.861H378.483V251.594H376.247V258ZM381.428 250.861C382.349 250.861 383.021 251.042 383.444 251.403C383.871 251.761 384.084 252.276 384.084 252.946C384.084 253.249 384.034 253.537 383.933 253.811C383.835 254.081 383.675 254.32 383.454 254.528C383.233 254.733 382.941 254.896 382.58 255.017C382.222 255.134 381.783 255.192 381.262 255.192H380.393V258H379.562V250.861H381.428ZM381.35 251.569H380.393V254.479H381.169C381.625 254.479 382.004 254.431 382.307 254.333C382.613 254.235 382.842 254.077 382.995 253.859C383.148 253.638 383.225 253.345 383.225 252.98C383.225 252.505 383.073 252.152 382.771 251.921C382.468 251.687 381.994 251.569 381.35 251.569ZM390.979 250.861V255.48C390.979 255.985 390.876 256.434 390.671 256.828C390.469 257.222 390.163 257.533 389.753 257.761C389.343 257.985 388.828 258.098 388.21 258.098C387.328 258.098 386.656 257.858 386.193 257.38C385.734 256.901 385.505 256.262 385.505 255.461V250.861H386.34V255.485C386.34 256.091 386.499 256.558 386.818 256.887C387.141 257.215 387.621 257.38 388.259 257.38C388.695 257.38 389.051 257.302 389.328 257.146C389.608 256.986 389.815 256.765 389.948 256.481C390.085 256.195 390.153 255.865 390.153 255.49V250.861H390.979ZM395.065 258H394.23V251.594H391.984V250.861H397.302V251.594H395.065V258Z" fill="black">
			</path>
			<g id="ACO_SPD">
				<rect id="ACO_OUTPUT_SPD_BLOCK" x="311" y="202" width="80.2402" height="24" fill="#C6C6C6">
				</rect>
				<path id="ACO_OUTPUT_SPD_LABEL" d="M346.005 215.101C346.005 215.524 345.899 215.885 345.688 216.185C345.479 216.481 345.186 216.707 344.809 216.863C344.431 217.02 343.987 217.098 343.476 217.098C343.205 217.098 342.95 217.085 342.709 217.059C342.468 217.033 342.247 216.995 342.045 216.946C341.843 216.897 341.666 216.837 341.513 216.766V215.97C341.757 216.071 342.055 216.165 342.406 216.253C342.758 216.338 343.126 216.38 343.51 216.38C343.868 216.38 344.171 216.333 344.418 216.238C344.665 216.141 344.853 216.002 344.979 215.823C345.11 215.641 345.175 215.423 345.175 215.169C345.175 214.925 345.121 214.721 345.014 214.559C344.906 214.393 344.727 214.243 344.477 214.109C344.229 213.973 343.891 213.828 343.461 213.675C343.158 213.567 342.891 213.45 342.66 213.323C342.429 213.193 342.235 213.047 342.079 212.884C341.923 212.721 341.804 212.532 341.723 212.317C341.645 212.103 341.605 211.857 341.605 211.58C341.605 211.199 341.701 210.874 341.894 210.604C342.089 210.33 342.357 210.122 342.699 209.979C343.044 209.832 343.44 209.759 343.886 209.759C344.267 209.759 344.618 209.795 344.94 209.866C345.266 209.938 345.564 210.034 345.834 210.154L345.575 210.867C345.318 210.76 345.045 210.67 344.755 210.599C344.468 210.527 344.172 210.491 343.866 210.491C343.56 210.491 343.301 210.537 343.09 210.628C342.882 210.716 342.722 210.841 342.611 211.004C342.501 211.167 342.445 211.36 342.445 211.585C342.445 211.836 342.497 212.044 342.602 212.21C342.709 212.376 342.878 212.524 343.109 212.654C343.344 212.781 343.653 212.915 344.037 213.055C344.457 213.208 344.813 213.37 345.106 213.543C345.399 213.712 345.622 213.921 345.775 214.168C345.928 214.412 346.005 214.723 346.005 215.101ZM349.33 209.861C350.251 209.861 350.924 210.042 351.347 210.403C351.773 210.761 351.986 211.276 351.986 211.946C351.986 212.249 351.936 212.537 351.835 212.811C351.737 213.081 351.578 213.32 351.356 213.528C351.135 213.733 350.844 213.896 350.482 214.017C350.124 214.134 349.685 214.192 349.164 214.192H348.295V217H347.465V209.861H349.33ZM349.252 210.569H348.295V213.479H349.071C349.527 213.479 349.906 213.431 350.209 213.333C350.515 213.235 350.744 213.077 350.897 212.859C351.05 212.638 351.127 212.345 351.127 211.98C351.127 211.505 350.976 211.152 350.673 210.921C350.37 210.687 349.896 210.569 349.252 210.569ZM359.149 213.362C359.149 214.166 359.003 214.839 358.71 215.379C358.417 215.916 357.992 216.321 357.436 216.595C356.882 216.865 356.21 217 355.419 217H353.48V209.861H355.634C356.36 209.861 356.985 209.995 357.509 210.262C358.033 210.525 358.437 210.918 358.72 211.438C359.006 211.956 359.149 212.597 359.149 213.362ZM358.275 213.392C358.275 212.75 358.168 212.221 357.953 211.805C357.742 211.388 357.429 211.079 357.016 210.877C356.605 210.672 356.103 210.569 355.507 210.569H354.311V216.287H355.321C356.304 216.287 357.042 216.045 357.533 215.56C358.028 215.075 358.275 214.352 358.275 213.392Z" fill="black">
				</path>
			</g>
			<line id="ACO_OUTPUT_LINE1" x1="350.5" y1="202" x2="350.5" y2="185" stroke="black">
			</line>
		</g>
		<g id="ACO_INPUT_BLOCK">
			<g id="ACO_SOURCE1">
				<!--
				<path id="ACO_SOURCE1_VALUE" d="M188.297 118H180.562V116.617L183.523 113.617C184.096 113.034 184.568 112.531 184.938 112.109C185.307 111.682 185.581 111.279 185.758 110.898C185.94 110.518 186.031 110.104 186.031 109.656C186.031 109.104 185.872 108.688 185.555 108.406C185.237 108.12 184.818 107.977 184.297 107.977C183.802 107.977 183.344 108.076 182.922 108.273C182.505 108.466 182.073 108.742 181.625 109.102L180.617 107.891C180.935 107.62 181.273 107.372 181.633 107.148C181.997 106.924 182.404 106.747 182.852 106.617C183.299 106.482 183.81 106.414 184.383 106.414C185.107 106.414 185.732 106.544 186.258 106.805C186.784 107.06 187.188 107.417 187.469 107.875C187.755 108.333 187.898 108.867 187.898 109.477C187.898 110.091 187.776 110.659 187.531 111.18C187.286 111.701 186.938 112.216 186.484 112.727C186.031 113.232 185.492 113.781 184.867 114.375L182.891 116.305V116.391H188.297V118ZM197.016 109.188C197.016 109.703 196.911 110.151 196.703 110.531C196.495 110.911 196.208 111.224 195.844 111.469C195.484 111.708 195.068 111.88 194.594 111.984V112.039C195.505 112.154 196.193 112.44 196.656 112.898C197.125 113.357 197.359 113.964 197.359 114.719C197.359 115.38 197.201 115.971 196.883 116.492C196.565 117.008 196.078 117.414 195.422 117.711C194.766 118.008 193.922 118.156 192.891 118.156C192.271 118.156 191.695 118.107 191.164 118.008C190.638 117.909 190.138 117.75 189.664 117.531V115.898C190.148 116.138 190.664 116.323 191.211 116.453C191.758 116.583 192.276 116.648 192.766 116.648C193.719 116.648 194.398 116.471 194.805 116.117C195.211 115.758 195.414 115.263 195.414 114.633C195.414 114.227 195.307 113.893 195.094 113.633C194.885 113.372 194.56 113.177 194.117 113.047C193.68 112.917 193.115 112.852 192.422 112.852H191.414V111.375H192.43C193.091 111.375 193.622 111.297 194.023 111.141C194.424 110.979 194.714 110.758 194.891 110.477C195.073 110.195 195.164 109.867 195.164 109.492C195.164 109.003 195.005 108.622 194.688 108.352C194.37 108.076 193.898 107.938 193.273 107.938C192.888 107.938 192.536 107.982 192.219 108.07C191.906 108.159 191.617 108.271 191.352 108.406C191.086 108.542 190.833 108.688 190.594 108.844L189.711 107.57C190.143 107.247 190.659 106.974 191.258 106.75C191.857 106.526 192.555 106.414 193.352 106.414C194.523 106.414 195.427 106.667 196.062 107.172C196.698 107.672 197.016 108.344 197.016 109.188ZM206.609 112.281C206.609 113.203 206.536 114.029 206.391 114.758C206.25 115.482 206.026 116.096 205.719 116.602C205.411 117.107 205.01 117.492 204.516 117.758C204.021 118.023 203.422 118.156 202.719 118.156C201.839 118.156 201.112 117.924 200.539 117.461C199.966 116.992 199.542 116.32 199.266 115.445C198.99 114.565 198.852 113.51 198.852 112.281C198.852 111.052 198.977 110 199.227 109.125C199.482 108.245 199.893 107.57 200.461 107.102C201.029 106.633 201.781 106.398 202.719 106.398C203.604 106.398 204.333 106.633 204.906 107.102C205.484 107.565 205.911 108.237 206.188 109.117C206.469 109.992 206.609 111.047 206.609 112.281ZM200.703 112.281C200.703 113.245 200.766 114.049 200.891 114.695C201.021 115.341 201.234 115.826 201.531 116.148C201.828 116.466 202.224 116.625 202.719 116.625C203.214 116.625 203.609 116.466 203.906 116.148C204.203 115.831 204.417 115.349 204.547 114.703C204.682 114.057 204.75 113.25 204.75 112.281C204.75 111.323 204.685 110.521 204.555 109.875C204.424 109.229 204.211 108.745 203.914 108.422C203.617 108.094 203.219 107.93 202.719 107.93C202.219 107.93 201.82 108.094 201.523 108.422C201.232 108.745 201.021 109.229 200.891 109.875C200.766 110.521 200.703 111.323 200.703 112.281ZM217.281 106.578L213.289 118H211.305L207.312 106.578H209.234L211.641 113.734C211.714 113.943 211.792 114.195 211.875 114.492C211.964 114.789 212.044 115.089 212.117 115.391C212.195 115.693 212.255 115.961 212.297 116.195C212.339 115.961 212.396 115.693 212.469 115.391C212.547 115.089 212.628 114.789 212.711 114.492C212.794 114.195 212.872 113.94 212.945 113.727L215.359 106.578H217.281ZM230.016 118L228.898 114.828H224.531L223.414 118H221.438L225.688 106.531H227.766L232.008 118H230.016ZM228.414 113.219L227.328 110.094C227.286 109.958 227.227 109.768 227.148 109.523C227.07 109.273 226.992 109.021 226.914 108.766C226.836 108.505 226.771 108.286 226.719 108.109C226.667 108.323 226.602 108.562 226.523 108.828C226.451 109.089 226.378 109.333 226.305 109.562C226.237 109.792 226.185 109.969 226.148 110.094L225.055 113.219H228.414ZM238.383 108.008C237.836 108.008 237.346 108.107 236.914 108.305C236.487 108.503 236.125 108.789 235.828 109.164C235.531 109.534 235.305 109.984 235.148 110.516C234.992 111.042 234.914 111.635 234.914 112.297C234.914 113.182 235.039 113.945 235.289 114.586C235.539 115.221 235.919 115.711 236.43 116.055C236.94 116.393 237.586 116.562 238.367 116.562C238.852 116.562 239.323 116.516 239.781 116.422C240.24 116.328 240.714 116.201 241.203 116.039V117.633C240.74 117.815 240.271 117.948 239.797 118.031C239.323 118.115 238.776 118.156 238.156 118.156C236.99 118.156 236.021 117.914 235.25 117.43C234.484 116.945 233.911 116.263 233.531 115.383C233.156 114.503 232.969 113.471 232.969 112.289C232.969 111.424 233.089 110.633 233.328 109.914C233.568 109.195 233.917 108.576 234.375 108.055C234.833 107.529 235.398 107.125 236.07 106.844C236.747 106.557 237.521 106.414 238.391 106.414C238.964 106.414 239.526 106.479 240.078 106.609C240.635 106.734 241.151 106.914 241.625 107.148L240.969 108.695C240.573 108.508 240.159 108.346 239.727 108.211C239.294 108.076 238.846 108.008 238.383 108.008Z" fill="black">
				</path>
				-->
				<text x="180" y="120" font-weight="bold" fill="black" id="ACO_SOURCE1_VALUE" font-size="1em">
					<!-- 230V AC -->
					INPUT 1 Val
				</text>
				<path id="ACO_SOURCE1_TITLE" d="M189.078 84.5308C189.078 85.0809 188.941 85.5506 188.666 85.9399C188.395 86.325 188.014 86.6191 187.523 86.8223C187.032 87.0254 186.455 87.127 185.79 87.127C185.439 87.127 185.107 87.11 184.794 87.0762C184.481 87.0423 184.193 86.9937 183.93 86.9302C183.668 86.8667 183.437 86.7884 183.239 86.6953V85.6606C183.556 85.7918 183.943 85.9146 184.4 86.0288C184.857 86.1388 185.335 86.1938 185.835 86.1938C186.3 86.1938 186.694 86.1325 187.015 86.0098C187.337 85.8828 187.58 85.703 187.745 85.4702C187.915 85.2332 187.999 84.9497 187.999 84.6196C187.999 84.3022 187.929 84.0378 187.79 83.8262C187.65 83.6104 187.417 83.4157 187.092 83.2422C186.77 83.0645 186.33 82.8761 185.771 82.6772C185.378 82.5376 185.031 82.3853 184.73 82.2202C184.43 82.0509 184.178 81.8605 183.975 81.6489C183.772 81.4373 183.617 81.1919 183.512 80.9126C183.41 80.6333 183.359 80.3138 183.359 79.9541C183.359 79.459 183.484 79.0358 183.734 78.6846C183.988 78.3291 184.337 78.0583 184.781 77.8721C185.23 77.6816 185.744 77.5864 186.324 77.5864C186.819 77.5864 187.276 77.633 187.695 77.7261C188.118 77.8192 188.505 77.944 188.856 78.1006L188.52 79.0273C188.186 78.8877 187.83 78.7713 187.453 78.6782C187.081 78.5851 186.696 78.5386 186.298 78.5386C185.9 78.5386 185.564 78.5978 185.289 78.7163C185.018 78.8306 184.811 78.9935 184.667 79.2051C184.523 79.4167 184.451 79.6685 184.451 79.9604C184.451 80.2863 184.519 80.5571 184.654 80.7729C184.794 80.9888 185.014 81.1813 185.314 81.3506C185.619 81.5156 186.021 81.6891 186.52 81.8711C187.066 82.07 187.53 82.2816 187.91 82.5059C188.291 82.7259 188.581 82.9967 188.78 83.3184C188.979 83.6357 189.078 84.0399 189.078 84.5308ZM199.025 82.3472C199.025 83.0623 198.934 83.714 198.752 84.3022C198.57 84.8862 198.299 85.3898 197.94 85.813C197.584 86.2319 197.142 86.5557 196.613 86.7842C196.084 87.0127 195.471 87.127 194.772 87.127C194.053 87.127 193.424 87.0127 192.887 86.7842C192.354 86.5557 191.909 86.2298 191.554 85.8066C191.203 85.3835 190.938 84.8778 190.761 84.2896C190.587 83.7013 190.5 83.0496 190.5 82.3345C190.5 81.3866 190.657 80.555 190.97 79.8398C191.283 79.1247 191.757 78.5682 192.392 78.1704C193.031 77.7726 193.831 77.5737 194.791 77.5737C195.71 77.5737 196.482 77.7705 197.108 78.1641C197.739 78.5576 198.215 79.112 198.536 79.8271C198.862 80.5381 199.025 81.3781 199.025 82.3472ZM191.637 82.3472C191.637 83.1343 191.749 83.8156 191.973 84.3911C192.197 84.9666 192.54 85.411 193.001 85.7241C193.467 86.0373 194.057 86.1938 194.772 86.1938C195.492 86.1938 196.08 86.0373 196.537 85.7241C196.998 85.411 197.339 84.9666 197.559 84.3911C197.779 83.8156 197.889 83.1343 197.889 82.3472C197.889 81.1496 197.637 80.2144 197.134 79.5415C196.634 78.8644 195.853 78.5259 194.791 78.5259C194.072 78.5259 193.479 78.6803 193.014 78.9893C192.548 79.2982 192.201 79.7383 191.973 80.3096C191.749 80.8766 191.637 81.5558 191.637 82.3472ZM208.115 77.7197V83.7246C208.115 84.3805 207.982 84.9645 207.715 85.4766C207.453 85.9886 207.055 86.3927 206.522 86.689C205.989 86.981 205.32 87.127 204.516 87.127C203.369 87.127 202.495 86.8159 201.894 86.1938C201.298 85.5718 200.999 84.7402 200.999 83.6992V77.7197H202.085V83.731C202.085 84.5181 202.292 85.1253 202.707 85.5527C203.126 85.9801 203.75 86.1938 204.579 86.1938C205.146 86.1938 205.61 86.0923 205.97 85.8892C206.333 85.6818 206.602 85.394 206.776 85.0259C206.953 84.6535 207.042 84.224 207.042 83.7373V77.7197H208.115ZM213.085 77.7197C213.847 77.7197 214.475 77.8149 214.971 78.0054C215.47 78.1916 215.842 78.4772 216.088 78.8623C216.333 79.2474 216.456 79.7383 216.456 80.335C216.456 80.8258 216.367 81.2363 216.189 81.5664C216.012 81.8923 215.779 82.1567 215.491 82.3599C215.203 82.563 214.896 82.7196 214.571 82.8296L217.116 87H215.859L213.587 83.1279H211.657V87H210.578V77.7197H213.085ZM213.022 78.6528H211.657V82.2139H213.13C213.887 82.2139 214.444 82.0594 214.799 81.7505C215.159 81.4416 215.339 80.9867 215.339 80.3857C215.339 79.7552 215.148 79.3088 214.767 79.0464C214.391 78.784 213.809 78.6528 213.022 78.6528ZM222.569 78.5386C222.057 78.5386 221.595 78.6274 221.185 78.8052C220.779 78.9787 220.432 79.2326 220.144 79.5669C219.86 79.897 219.642 80.2969 219.49 80.7666C219.338 81.2363 219.262 81.7653 219.262 82.3535C219.262 83.1322 219.382 83.8092 219.623 84.3848C219.869 84.9561 220.233 85.3983 220.715 85.7114C221.202 86.0246 221.809 86.1812 222.537 86.1812C222.952 86.1812 223.341 86.1473 223.705 86.0796C224.073 86.0076 224.431 85.9188 224.778 85.813V86.7524C224.439 86.8794 224.084 86.9725 223.711 87.0317C223.339 87.0952 222.897 87.127 222.385 87.127C221.441 87.127 220.652 86.9323 220.017 86.543C219.386 86.1494 218.912 85.5951 218.595 84.8799C218.282 84.1647 218.125 83.3205 218.125 82.3472C218.125 81.6447 218.223 81.0036 218.417 80.4238C218.616 79.8398 218.904 79.3363 219.281 78.9131C219.661 78.4899 220.127 78.1641 220.677 77.9355C221.231 77.7028 221.866 77.5864 222.581 77.5864C223.051 77.5864 223.504 77.633 223.94 77.7261C224.376 77.8192 224.769 77.9525 225.12 78.126L224.689 79.04C224.393 78.9046 224.067 78.7882 223.711 78.6909C223.36 78.5894 222.979 78.5386 222.569 78.5386ZM231.957 87H226.79V77.7197H231.957V78.6719H227.869V81.6743H231.722V82.6138H227.869V86.0479H231.957V87ZM237.308 87H236.28V80.4238C236.28 80.1742 236.28 79.9604 236.28 79.7827C236.284 79.6007 236.288 79.4357 236.292 79.2876C236.301 79.1353 236.311 78.9808 236.324 78.8242C236.193 78.9596 236.07 79.076 235.956 79.1733C235.842 79.2664 235.7 79.3828 235.531 79.5225L234.471 80.373L233.918 79.6558L236.432 77.7197H237.308V87Z" fill="black">
				</path>
				<path id="ACO_SOURCE1_LINE" d="M285.474 96.531C285.67 96.3358 285.67 96.0192 285.474 95.8239L282.292 92.642C282.097 92.4467 281.781 92.4467 281.585 92.642C281.39 92.8372 281.39 93.1538 281.585 93.3491L284.414 96.1775L281.585 99.0059C281.39 99.2012 281.39 99.5178 281.585 99.713C281.781 99.9083 282.097 99.9083 282.292 99.713L285.474 96.531ZM136.182 96.6775H285.121V95.6775H136.182V96.6775Z" fill="black">
				</path>
			</g>
			<g id="ACO_SOURCE2">
				<path id="ACO_SOURCE2_TITLE" d="M188.201 160.531C188.201 161.081 188.063 161.551 187.788 161.94C187.517 162.325 187.136 162.619 186.646 162.822C186.155 163.025 185.577 163.127 184.913 163.127C184.561 163.127 184.229 163.11 183.916 163.076C183.603 163.042 183.315 162.994 183.053 162.93C182.79 162.867 182.56 162.788 182.361 162.695V161.661C182.678 161.792 183.065 161.915 183.522 162.029C183.979 162.139 184.458 162.194 184.957 162.194C185.423 162.194 185.816 162.132 186.138 162.01C186.459 161.883 186.703 161.703 186.868 161.47C187.037 161.233 187.122 160.95 187.122 160.62C187.122 160.302 187.052 160.038 186.912 159.826C186.772 159.61 186.54 159.416 186.214 159.242C185.892 159.064 185.452 158.876 184.894 158.677C184.5 158.538 184.153 158.385 183.853 158.22C183.552 158.051 183.3 157.861 183.097 157.649C182.894 157.437 182.74 157.192 182.634 156.913C182.532 156.633 182.481 156.314 182.481 155.954C182.481 155.459 182.606 155.036 182.856 154.685C183.11 154.329 183.459 154.058 183.903 153.872C184.352 153.682 184.866 153.586 185.446 153.586C185.941 153.586 186.398 153.633 186.817 153.726C187.24 153.819 187.627 153.944 187.979 154.101L187.642 155.027C187.308 154.888 186.952 154.771 186.576 154.678C186.203 154.585 185.818 154.539 185.42 154.539C185.023 154.539 184.686 154.598 184.411 154.716C184.14 154.831 183.933 154.993 183.789 155.205C183.645 155.417 183.573 155.668 183.573 155.96C183.573 156.286 183.641 156.557 183.776 156.773C183.916 156.989 184.136 157.181 184.437 157.351C184.741 157.516 185.143 157.689 185.643 157.871C186.188 158.07 186.652 158.282 187.033 158.506C187.414 158.726 187.703 158.997 187.902 159.318C188.101 159.636 188.201 160.04 188.201 160.531ZM198.147 158.347C198.147 159.062 198.056 159.714 197.875 160.302C197.693 160.886 197.422 161.39 197.062 161.813C196.707 162.232 196.264 162.556 195.735 162.784C195.206 163.013 194.593 163.127 193.895 163.127C193.175 163.127 192.547 163.013 192.009 162.784C191.476 162.556 191.032 162.23 190.676 161.807C190.325 161.383 190.061 160.878 189.883 160.29C189.709 159.701 189.623 159.05 189.623 158.334C189.623 157.387 189.779 156.555 190.092 155.84C190.405 155.125 190.879 154.568 191.514 154.17C192.153 153.773 192.953 153.574 193.914 153.574C194.832 153.574 195.604 153.771 196.23 154.164C196.861 154.558 197.337 155.112 197.659 155.827C197.985 156.538 198.147 157.378 198.147 158.347ZM190.759 158.347C190.759 159.134 190.871 159.816 191.095 160.391C191.319 160.967 191.662 161.411 192.124 161.724C192.589 162.037 193.179 162.194 193.895 162.194C194.614 162.194 195.202 162.037 195.659 161.724C196.12 161.411 196.461 160.967 196.681 160.391C196.901 159.816 197.011 159.134 197.011 158.347C197.011 157.15 196.759 156.214 196.256 155.542C195.757 154.864 194.976 154.526 193.914 154.526C193.194 154.526 192.602 154.68 192.136 154.989C191.671 155.298 191.324 155.738 191.095 156.31C190.871 156.877 190.759 157.556 190.759 158.347ZM207.237 153.72V159.725C207.237 160.381 207.104 160.965 206.837 161.477C206.575 161.989 206.177 162.393 205.644 162.689C205.111 162.981 204.442 163.127 203.638 163.127C202.491 163.127 201.618 162.816 201.017 162.194C200.42 161.572 200.122 160.74 200.122 159.699V153.72H201.207V159.731C201.207 160.518 201.414 161.125 201.829 161.553C202.248 161.98 202.872 162.194 203.702 162.194C204.269 162.194 204.732 162.092 205.092 161.889C205.456 161.682 205.724 161.394 205.898 161.026C206.076 160.653 206.165 160.224 206.165 159.737V153.72H207.237ZM212.208 153.72C212.969 153.72 213.598 153.815 214.093 154.005C214.592 154.192 214.965 154.477 215.21 154.862C215.455 155.247 215.578 155.738 215.578 156.335C215.578 156.826 215.489 157.236 215.312 157.566C215.134 157.892 214.901 158.157 214.613 158.36C214.326 158.563 214.019 158.72 213.693 158.83L216.238 163H214.981L212.709 159.128H210.779V163H209.7V153.72H212.208ZM212.144 154.653H210.779V158.214H212.252C213.009 158.214 213.566 158.059 213.921 157.75C214.281 157.442 214.461 156.987 214.461 156.386C214.461 155.755 214.271 155.309 213.89 155.046C213.513 154.784 212.931 154.653 212.144 154.653ZM221.691 154.539C221.179 154.539 220.718 154.627 220.307 154.805C219.901 154.979 219.554 155.233 219.266 155.567C218.983 155.897 218.765 156.297 218.612 156.767C218.46 157.236 218.384 157.765 218.384 158.354C218.384 159.132 218.504 159.809 218.746 160.385C218.991 160.956 219.355 161.398 219.837 161.711C220.324 162.025 220.931 162.181 221.659 162.181C222.074 162.181 222.463 162.147 222.827 162.08C223.195 162.008 223.553 161.919 223.9 161.813V162.752C223.561 162.879 223.206 162.972 222.833 163.032C222.461 163.095 222.019 163.127 221.507 163.127C220.563 163.127 219.774 162.932 219.139 162.543C218.509 162.149 218.035 161.595 217.717 160.88C217.404 160.165 217.248 159.32 217.248 158.347C217.248 157.645 217.345 157.004 217.54 156.424C217.738 155.84 218.026 155.336 218.403 154.913C218.784 154.49 219.249 154.164 219.799 153.936C220.354 153.703 220.988 153.586 221.704 153.586C222.173 153.586 222.626 153.633 223.062 153.726C223.498 153.819 223.891 153.952 224.243 154.126L223.811 155.04C223.515 154.905 223.189 154.788 222.833 154.691C222.482 154.589 222.101 154.539 221.691 154.539ZM231.079 163H225.912V153.72H231.079V154.672H226.991V157.674H230.844V158.614H226.991V162.048H231.079V163ZM238.588 163H232.507V162.118L234.989 159.598C235.451 159.132 235.838 158.717 236.151 158.354C236.468 157.99 236.709 157.632 236.875 157.281C237.04 156.925 237.122 156.536 237.122 156.113C237.122 155.588 236.965 155.188 236.652 154.913C236.343 154.634 235.935 154.494 235.427 154.494C234.983 154.494 234.589 154.57 234.247 154.723C233.904 154.875 233.553 155.091 233.193 155.37L232.628 154.659C232.873 154.452 233.14 154.268 233.428 154.107C233.72 153.946 234.031 153.819 234.361 153.726C234.695 153.633 235.051 153.586 235.427 153.586C235.999 153.586 236.492 153.686 236.906 153.885C237.321 154.084 237.64 154.367 237.865 154.735C238.093 155.104 238.208 155.542 238.208 156.049C238.208 156.54 238.11 156.997 237.916 157.42C237.721 157.839 237.448 158.256 237.097 158.671C236.745 159.081 236.335 159.517 235.865 159.979L233.847 161.991V162.035H238.588V163Z" fill="black">
				</path>
				<!--
				<path id="ACO_SOURCE2_VALUE" d="M188.297 194H180.562V192.617L183.523 189.617C184.096 189.034 184.568 188.531 184.938 188.109C185.307 187.682 185.581 187.279 185.758 186.898C185.94 186.518 186.031 186.104 186.031 185.656C186.031 185.104 185.872 184.688 185.555 184.406C185.237 184.12 184.818 183.977 184.297 183.977C183.802 183.977 183.344 184.076 182.922 184.273C182.505 184.466 182.073 184.742 181.625 185.102L180.617 183.891C180.935 183.62 181.273 183.372 181.633 183.148C181.997 182.924 182.404 182.747 182.852 182.617C183.299 182.482 183.81 182.414 184.383 182.414C185.107 182.414 185.732 182.544 186.258 182.805C186.784 183.06 187.188 183.417 187.469 183.875C187.755 184.333 187.898 184.867 187.898 185.477C187.898 186.091 187.776 186.659 187.531 187.18C187.286 187.701 186.938 188.216 186.484 188.727C186.031 189.232 185.492 189.781 184.867 190.375L182.891 192.305V192.391H188.297V194ZM197.016 185.188C197.016 185.703 196.911 186.151 196.703 186.531C196.495 186.911 196.208 187.224 195.844 187.469C195.484 187.708 195.068 187.88 194.594 187.984V188.039C195.505 188.154 196.193 188.44 196.656 188.898C197.125 189.357 197.359 189.964 197.359 190.719C197.359 191.38 197.201 191.971 196.883 192.492C196.565 193.008 196.078 193.414 195.422 193.711C194.766 194.008 193.922 194.156 192.891 194.156C192.271 194.156 191.695 194.107 191.164 194.008C190.638 193.909 190.138 193.75 189.664 193.531V191.898C190.148 192.138 190.664 192.323 191.211 192.453C191.758 192.583 192.276 192.648 192.766 192.648C193.719 192.648 194.398 192.471 194.805 192.117C195.211 191.758 195.414 191.263 195.414 190.633C195.414 190.227 195.307 189.893 195.094 189.633C194.885 189.372 194.56 189.177 194.117 189.047C193.68 188.917 193.115 188.852 192.422 188.852H191.414V187.375H192.43C193.091 187.375 193.622 187.297 194.023 187.141C194.424 186.979 194.714 186.758 194.891 186.477C195.073 186.195 195.164 185.867 195.164 185.492C195.164 185.003 195.005 184.622 194.688 184.352C194.37 184.076 193.898 183.938 193.273 183.938C192.888 183.938 192.536 183.982 192.219 184.07C191.906 184.159 191.617 184.271 191.352 184.406C191.086 184.542 190.833 184.688 190.594 184.844L189.711 183.57C190.143 183.247 190.659 182.974 191.258 182.75C191.857 182.526 192.555 182.414 193.352 182.414C194.523 182.414 195.427 182.667 196.062 183.172C196.698 183.672 197.016 184.344 197.016 185.188ZM206.609 188.281C206.609 189.203 206.536 190.029 206.391 190.758C206.25 191.482 206.026 192.096 205.719 192.602C205.411 193.107 205.01 193.492 204.516 193.758C204.021 194.023 203.422 194.156 202.719 194.156C201.839 194.156 201.112 193.924 200.539 193.461C199.966 192.992 199.542 192.32 199.266 191.445C198.99 190.565 198.852 189.51 198.852 188.281C198.852 187.052 198.977 186 199.227 185.125C199.482 184.245 199.893 183.57 200.461 183.102C201.029 182.633 201.781 182.398 202.719 182.398C203.604 182.398 204.333 182.633 204.906 183.102C205.484 183.565 205.911 184.237 206.188 185.117C206.469 185.992 206.609 187.047 206.609 188.281ZM200.703 188.281C200.703 189.245 200.766 190.049 200.891 190.695C201.021 191.341 201.234 191.826 201.531 192.148C201.828 192.466 202.224 192.625 202.719 192.625C203.214 192.625 203.609 192.466 203.906 192.148C204.203 191.831 204.417 191.349 204.547 190.703C204.682 190.057 204.75 189.25 204.75 188.281C204.75 187.323 204.685 186.521 204.555 185.875C204.424 185.229 204.211 184.745 203.914 184.422C203.617 184.094 203.219 183.93 202.719 183.93C202.219 183.93 201.82 184.094 201.523 184.422C201.232 184.745 201.021 185.229 200.891 185.875C200.766 186.521 200.703 187.323 200.703 188.281ZM217.281 182.578L213.289 194H211.305L207.312 182.578H209.234L211.641 189.734C211.714 189.943 211.792 190.195 211.875 190.492C211.964 190.789 212.044 191.089 212.117 191.391C212.195 191.693 212.255 191.961 212.297 192.195C212.339 191.961 212.396 191.693 212.469 191.391C212.547 191.089 212.628 190.789 212.711 190.492C212.794 190.195 212.872 189.94 212.945 189.727L215.359 182.578H217.281ZM230.016 194L228.898 190.828H224.531L223.414 194H221.438L225.688 182.531H227.766L232.008 194H230.016ZM228.414 189.219L227.328 186.094C227.286 185.958 227.227 185.768 227.148 185.523C227.07 185.273 226.992 185.021 226.914 184.766C226.836 184.505 226.771 184.286 226.719 184.109C226.667 184.323 226.602 184.562 226.523 184.828C226.451 185.089 226.378 185.333 226.305 185.562C226.237 185.792 226.185 185.969 226.148 186.094L225.055 189.219H228.414ZM238.383 184.008C237.836 184.008 237.346 184.107 236.914 184.305C236.487 184.503 236.125 184.789 235.828 185.164C235.531 185.534 235.305 185.984 235.148 186.516C234.992 187.042 234.914 187.635 234.914 188.297C234.914 189.182 235.039 189.945 235.289 190.586C235.539 191.221 235.919 191.711 236.43 192.055C236.94 192.393 237.586 192.562 238.367 192.562C238.852 192.562 239.323 192.516 239.781 192.422C240.24 192.328 240.714 192.201 241.203 192.039V193.633C240.74 193.815 240.271 193.948 239.797 194.031C239.323 194.115 238.776 194.156 238.156 194.156C236.99 194.156 236.021 193.914 235.25 193.43C234.484 192.945 233.911 192.263 233.531 191.383C233.156 190.503 232.969 189.471 232.969 188.289C232.969 187.424 233.089 186.633 233.328 185.914C233.568 185.195 233.917 184.576 234.375 184.055C234.833 183.529 235.398 183.125 236.07 182.844C236.747 182.557 237.521 182.414 238.391 182.414C238.964 182.414 239.526 182.479 240.078 182.609C240.635 182.734 241.151 182.914 241.625 183.148L240.969 184.695C240.573 184.508 240.159 184.346 239.727 184.211C239.294 184.076 238.846 184.008 238.383 184.008Z" fill="black">
				</path>
				-->
				<text x="180" y="190" font-weight="bold" fill="black" id="ACO_SOURCE2_VALUE" font-size="1em">
					<!-- 230V AC -->
					INPUT 2 VAL
				</text>
				<path id="ACO_SOURCE2_LINE" d="M285.471 171.966C285.666 171.771 285.666 171.454 285.471 171.259L282.289 168.077C282.094 167.882 281.777 167.882 281.582 168.077C281.386 168.272 281.386 168.589 281.582 168.784L284.41 171.612L281.582 174.441C281.386 174.636 281.386 174.953 281.582 175.148C281.777 175.343 282.094 175.343 282.289 175.148L285.471 171.966ZM136.188 172.112H285.117V171.112H136.188V172.112Z" fill="black">
				</path>
			</g>
			<path id="ACO_INPUT_LABEL" d="M125.177 144.975L118.039 144.881L118.05 144.051L125.188 144.145L125.177 144.975ZM125.287 136.602L125.275 137.559L119.228 141.371L119.227 141.41C119.387 141.402 119.569 141.393 119.775 141.383C119.976 141.373 120.193 141.366 120.424 141.362C120.652 141.355 120.885 141.354 121.123 141.357L125.224 141.411L125.214 142.182L118.076 142.088L118.088 141.136L124.115 137.338L124.116 137.304C124.002 137.309 123.841 137.315 123.632 137.322C123.42 137.329 123.194 137.336 122.953 137.342C122.709 137.346 122.483 137.346 122.274 137.343L118.139 137.289L118.149 136.508L125.287 136.602ZM118.199 132.694C118.212 131.773 118.401 131.104 118.768 130.685C119.132 130.264 119.649 130.057 120.319 130.066C120.622 130.07 120.909 130.124 121.181 130.229C121.45 130.33 121.687 130.493 121.893 130.717C122.095 130.941 122.254 131.234 122.37 131.597C122.482 131.957 122.535 132.397 122.528 132.918L122.516 133.787L125.324 133.824L125.313 134.654L118.175 134.56L118.199 132.694ZM118.906 132.782L118.894 133.739L121.804 133.777L121.814 133.001C121.82 132.545 121.776 132.165 121.682 131.861C121.589 131.554 121.434 131.323 121.218 131.167C120.999 131.011 120.707 130.93 120.342 130.926C119.867 130.919 119.512 131.066 119.277 131.366C119.038 131.665 118.915 132.137 118.906 132.782ZM118.325 123.145L122.944 123.205C123.449 123.212 123.896 123.32 124.288 123.531C124.679 123.738 124.986 124.048 125.208 124.461C125.427 124.874 125.533 125.39 125.525 126.008C125.513 126.89 125.265 127.559 124.78 128.015C124.296 128.468 123.653 128.689 122.852 128.678L118.253 128.618L118.264 127.783L122.888 127.844C123.493 127.852 123.962 127.698 124.295 127.384C124.628 127.066 124.799 126.588 124.807 125.95C124.813 125.514 124.74 125.156 124.587 124.878C124.431 124.596 124.213 124.386 123.931 124.249C123.647 124.108 123.317 124.036 122.943 124.031L118.314 123.97L118.325 123.145ZM125.517 119.152L125.506 119.987L119.101 119.902L119.071 122.148L118.339 122.139L118.409 116.822L119.141 116.831L119.112 119.068L125.517 119.152Z" fill="black">
			</path>
		</g>
	</g>
</svg>
