<svg width="1255" height="393" viewBox="0 0 1255 393" fill="none" xmlns="http://www.w3.org/2000/svg">
<rect width="1255" height="393" fill="#F5F5F5"/>
<g id="Yard Layout(ALH004) 11" clip-path="url(#clip0_0_1)">
<rect width="1348" height="612" transform="translate(-43 -128)" fill="#D9D9D9"/>
<path id="Vector 2" d="M669.339 199.564L668 192L673 197.207H671.269L672.458 199.418L671.269 200L670.106 197.818L669.339 199.564Z" fill="#FDF3F3" stroke="black"/>
<g id="ALH 8">
<rect width="1255" height="393" fill="black"/>
<text id="ALH 004 (NEW ATELI)" fill="#47C4EB" stroke="white" xml:space="preserve" style="white-space: pre" font-family="Open Sans" font-size="20" letter-spacing="0em"><tspan x="514" y="37.2588">ALH 004 (NEW ATELI)</tspan></text>
<line id="Line 409" x1="318" y1="131.375" x2="606" y2="131.375" stroke="white" stroke-width="1.25"/>
<line id="Line 413" x1="318" y1="222.375" x2="606" y2="222.375" stroke="white" stroke-width="1.25"/>
<line id="Line 415" x1="318" y1="281.375" x2="606" y2="281.375" stroke="white" stroke-width="1.25"/>
<line id="Line 412" x1="318" y1="180.375" x2="938" y2="180.375" stroke="white" stroke-width="1.25"/>
<g id="SPACE 45">
<line id="Line 95" x1="607.323" y1="119" x2="607.323" y2="138.733" stroke="white" stroke-width="2"/>
<line id="Line 96" x1="649.588" y1="119" x2="649.588" y2="138.733" stroke="white" stroke-width="2"/>
<line id="Line 97" x1="606.57" y1="125.143" x2="648.835" y2="125.143" stroke="white" stroke-width="3"/>
<line id="Line 98" x1="606.323" y1="127.366" x2="648.588" y2="127.366" stroke="white" stroke-width="3"/>
<line id="Line 99" x1="606.57" y1="129.006" x2="648.835" y2="129.006" stroke="white" stroke-width="3"/>
<line id="Line 100" x1="606.57" y1="131.324" x2="648.835" y2="131.324" stroke="white" stroke-width="3"/>
</g>
<g id="SPACE 46">
<line id="Line 95_2" x1="607.323" y1="217" x2="607.323" y2="236.733" stroke="white" stroke-width="2"/>
<line id="Line 96_2" x1="649.588" y1="217" x2="649.588" y2="236.733" stroke="white" stroke-width="2"/>
<line id="Line 97_2" x1="606.57" y1="223.143" x2="648.835" y2="223.143" stroke="white" stroke-width="3"/>
<line id="Line 98_2" x1="606.323" y1="225.366" x2="648.588" y2="225.366" stroke="white" stroke-width="3"/>
<line id="Line 99_2" x1="606.57" y1="227.006" x2="648.835" y2="227.006" stroke="white" stroke-width="3"/>
<line id="Line 100_2" x1="606.57" y1="229.324" x2="648.835" y2="229.324" stroke="white" stroke-width="3"/>
</g>
<g id="SPACE 47">
<line id="Line 95_3" x1="605.703" y1="277" x2="605.703" y2="296.733" stroke="white" stroke-width="2"/>
<line id="Line 96_3" x1="647.968" y1="277" x2="647.968" y2="296.733" stroke="white" stroke-width="2"/>
<line id="Line 97_3" x1="604.95" y1="283.143" x2="647.215" y2="283.143" stroke="white" stroke-width="3"/>
<line id="Line 98_3" x1="604.703" y1="285.366" x2="646.968" y2="285.366" stroke="white" stroke-width="3"/>
<line id="Line 99_3" x1="604.95" y1="287.006" x2="647.215" y2="287.006" stroke="white" stroke-width="3"/>
<line id="Line 100_3" x1="604.95" y1="289.324" x2="647.215" y2="289.324" stroke="white" stroke-width="3"/>
</g>
<line id="Line 409_2" x1="650" y1="124.375" x2="938" y2="124.375" stroke="white" stroke-width="1.25"/>
<line id="Line 414" x1="652" y1="230.375" x2="940" y2="230.375" stroke="white" stroke-width="1.25"/>
<line id="Line 416" x1="648" y1="290.375" x2="937" y2="290.375" stroke="white" stroke-width="1.25"/>
<text id="A" transform="matrix(0 -1 -1 0 638 95)" fill="white" xml:space="preserve" style="white-space: pre" font-family="Open Sans" font-size="15" letter-spacing="0em"><tspan x="0" y="15.8191">A</tspan></text>
<line id="Line 409_3" y1="-0.625" x2="22" y2="-0.625" transform="matrix(0 1 1 0 606 79)" stroke="white" stroke-width="1.25"/>
<path id="Line 410" d="M643 90H637" stroke="white" stroke-width="0.5"/>
<line id="Line 411" y1="-0.25" x2="12" y2="-0.25" transform="matrix(-1 0 0 1 618 91)" stroke="white" stroke-width="0.5"/>
<g id="ALH2_SG_A2020">
<path id="ALH2_SG_A2020_ASPECT4" d="M700.312 90.8664C700.312 96.1872 704.449 100.483 709.531 100.483C714.613 100.483 718.75 96.1872 718.75 90.8664C718.75 85.5456 714.613 81.25 709.531 81.25C704.449 81.25 700.312 85.5456 700.312 90.8664Z" stroke="white" stroke-width="0.5"/>
<path id="ALH2_SG_A2020_ASPECT3" d="M681.375 90.8664C681.375 96.1872 685.512 100.483 690.594 100.483C695.676 100.483 699.812 96.1872 699.812 90.8664C699.812 85.5456 695.676 81.25 690.594 81.25C685.512 81.25 681.375 85.5456 681.375 90.8664Z" stroke="white" stroke-width="0.5"/>
<path id="ALH2_SG_A2020_ASPECT2" d="M662.437 90.8664C662.437 96.1872 666.574 100.483 671.656 100.483C676.738 100.483 680.875 96.1872 680.875 90.8664C680.875 85.5456 676.738 81.25 671.656 81.25C666.574 81.25 662.437 85.5456 662.437 90.8664Z" stroke="white" stroke-width="0.5"/>
<path id="ALH2_SG_A2020_ASPECT1" d="M643.5 90.8664C643.5 96.1872 647.637 100.483 652.719 100.483C657.8 100.483 661.937 96.1872 661.937 90.8664C661.937 85.5456 657.8 81.25 652.719 81.25C647.637 81.25 643.5 85.5456 643.5 90.8664Z" stroke="white" stroke-width="0.5"/>
<path id="ALH2_SG_A2020_2" d="M618.25 90.8664C618.25 96.1872 622.387 100.483 627.469 100.483C632.551 100.483 636.688 96.1872 636.688 90.8664C636.688 85.5456 632.551 81.25 627.469 81.25C622.387 81.25 618.25 85.5456 618.25 90.8664Z" stroke="white" stroke-width="0.5"/>
</g>
<text id="A_2" transform="matrix(0 -1 1 0 658 326)" fill="white" xml:space="preserve" style="white-space: pre" font-family="Open Sans" font-size="15" letter-spacing="0em"><tspan x="0" y="15.8191">A</tspan></text>
<line id="Line 417" y1="-0.625" x2="22" y2="-0.625" transform="matrix(0 1 1 0 691 309)" stroke="white" stroke-width="1.25"/>
<path id="Line 418" d="M659 321H653" stroke="white" stroke-width="0.5"/>
<line id="Line 419" y1="-0.25" x2="11" y2="-0.25" transform="matrix(-1 0 0 1 689 321)" stroke="white" stroke-width="0.5"/>
<g id="ALH2_SG_A2005">
<path id="ALH2_SG_A2005_ASPECT1" d="M595.676 321.073C595.676 315.752 591.539 311.456 586.457 311.456C581.375 311.456 577.238 315.752 577.238 321.073C577.238 326.393 581.375 330.689 586.457 330.689C591.539 330.689 595.676 326.393 595.676 321.073Z" stroke="white" stroke-width="0.5"/>
<path id="ALH2_SG_A2005_ASPECT1_2" d="M614.613 321.073C614.613 315.752 610.476 311.456 605.395 311.456C600.313 311.456 596.176 315.752 596.176 321.073C596.176 326.393 600.313 330.689 605.395 330.689C610.476 330.689 614.613 326.393 614.613 321.073Z" stroke="white" stroke-width="0.5"/>
<path id="ALH2_SG_A2005_ASPECT1_3" d="M633.551 321.073C633.551 315.752 629.414 311.456 624.332 311.456C619.25 311.456 615.113 315.752 615.113 321.073C615.113 326.393 619.25 330.689 624.332 330.689C629.414 330.689 633.551 326.393 633.551 321.073Z" stroke="white" stroke-width="0.5"/>
<path id="ALH2_SG_A2005_ASPECT1_4" d="M652.488 321.073C652.488 315.752 648.351 311.456 643.27 311.456C638.188 311.456 634.051 315.752 634.051 321.073C634.051 326.393 638.188 330.689 643.27 330.689C648.351 330.689 652.488 326.393 652.488 321.073Z" stroke="white" stroke-width="0.5"/>
<path id="ALH2_SG_A2005_2" d="M677.738 321.073C677.738 315.752 673.601 311.456 668.52 311.456C663.438 311.456 659.301 315.752 659.301 321.073C659.301 326.393 663.438 330.689 668.52 330.689C673.601 330.689 677.738 326.393 677.738 321.073Z" stroke="white" stroke-width="0.5"/>
</g>
<text id="A2020" fill="#47C4EB" xml:space="preserve" style="white-space: pre" font-family="Open Sans" font-size="15" letter-spacing="0em"><tspan x="611" y="70.8191">A2020</tspan></text>
<text id="A2005" fill="#47C4EB" xml:space="preserve" style="white-space: pre" font-family="Open Sans" font-size="15" letter-spacing="0em"><tspan x="639" y="350.819">A2005</tspan></text>
<text id="2020XT" fill="#47C4EB" xml:space="preserve" style="white-space: pre" font-family="Open Sans" font-size="15" letter-spacing="0em"><tspan x="441" y="125.819">2020XT</tspan></text>
<text id="2020XT_2" fill="#47C4EB" xml:space="preserve" style="white-space: pre" font-family="Open Sans" font-size="15" letter-spacing="0em"><tspan x="773" y="139.819">2020XT</tspan></text>
<text id="2022XT_2020XT" fill="#47C4EB" xml:space="preserve" style="white-space: pre" font-family="Open Sans" font-size="15" letter-spacing="0em"><tspan x="571" y="164.819">2022XT_2020XT</tspan></text>
<text id="2005XT_2003XT" fill="#47C4EB" xml:space="preserve" style="white-space: pre" font-family="Open Sans" font-size="15" letter-spacing="0em"><tspan x="360" y="238.819">2005XT_2003XT</tspan></text>
<text id="2009XT_2007XT" fill="#47C4EB" xml:space="preserve" style="white-space: pre" font-family="Open Sans" font-size="15" letter-spacing="0em"><tspan x="691" y="245.819">2009XT_2007XT</tspan></text>
</g>
</g>
<defs>
<clipPath id="clip0_0_1">
<rect width="1348" height="612" fill="white" transform="translate(-43 -128)"/>
</clipPath>
</defs>
</svg>
