<svg width="1229" height="476" viewBox="0 0 1229 476" fill="none" xmlns="http://www.w3.org/2000/svg">
<g id="ALH 007">
<rect width="1229" height="476" fill="black"></rect>
<path id="2119XT_LINE" d="M236 342H437" stroke="#6B7280" stroke-width="4"></path>
<text id="2119XT" fill="#47C4EB" xml:space="preserve" style="white-space: pre" font-family="Open Sans" font-size="12" letter-spacing="0em"><tspan x="316" y="359.655">2119XT</tspan></text>
<path id="2118XT_LINE" d="M236 155.375L539 155.375" stroke="#6B7280" stroke-width="4"></path>
<text id="2118XT" fill="#47C4EB" xml:space="preserve" style="white-space: pre" font-family="Open Sans" font-size="12" letter-spacing="0em"><tspan x="367" y="146.655">2118XT</tspan></text>
<path id="2116XT_LINE" d="M541.5 155.375L739 155.375" stroke="#6B7280" stroke-width="4"></path>
<path id="2114XT_LINE" d="M741.001 155L1014.47 156.357" stroke="#6B7280" stroke-width="4"></path>
<path id="2125XT_LINE" d="M845 342.5L1021 343.033" stroke="#6B7280" stroke-width="4"></path>
<path id="2114XT_2112XT_LINE" d="M743 216L1013.5 216" stroke="#6B7280" stroke-width="4" stroke-dasharray="2.5 2.5"></path>
<path id="2125XT_2123XT_LINE" d="M627 281L1021 281" stroke="#6B7280" stroke-width="4" stroke-dasharray="2.5 2.5"></path>
<path id="2123XT_LINE" d="M641 342.375L843 342.375" stroke="#6B7280" stroke-width="4"></path>
<text id="2123XT" fill="#47C4EB" xml:space="preserve" style="white-space: pre" font-family="Open Sans" font-size="12" letter-spacing="0em"><tspan x="721" y="359.655">2123XT</tspan></text>
<path id="2121XT_LINE" d="M442 342L638.5 342.375" stroke="#6B7280" stroke-width="4"></path>
<text id="2121XT" fill="#47C4EB" xml:space="preserve" style="white-space: pre" font-family="Open Sans" font-size="12" letter-spacing="0em"><tspan x="519" y="359.655">2121XT</tspan></text>
<path id="2121XT_2119XT_LINE" d="M236 281L618 281" stroke="#6B7280" stroke-width="4" stroke-dasharray="2.5 2.5"></path>
<path id="2118XT_2116XT_LINE" d="M236 216H740" stroke="#6B7280" stroke-width="4" stroke-dasharray="2.5 2.5"></path>
<text id="2125XT" fill="#47C4EB" xml:space="preserve" style="white-space: pre" font-family="Open Sans" font-size="12" letter-spacing="0em"><tspan x="912" y="359.655">2125XT</tspan></text>
<text id="2116XT" fill="#47C4EB" xml:space="preserve" style="white-space: pre" font-family="Open Sans" font-size="12" letter-spacing="0em"><tspan x="653" y="146.655">2116XT</tspan></text>
<text id="2125XT_2123XT" fill="#47C4EB" xml:space="preserve" style="white-space: pre" font-family="Open Sans" font-size="12" letter-spacing="0em"><tspan x="780" y="273.655">2125XT_2123XT</tspan></text>
<text id="2118XT_2116XT" fill="#47C4EB" xml:space="preserve" style="white-space: pre" font-family="Open Sans" font-size="12" letter-spacing="0em"><tspan x="444" y="233.655">2118XT_2116XT</tspan></text>
<text id="2121XT_2119XT" fill="#47C4EB" xml:space="preserve" style="white-space: pre" font-family="Open Sans" font-size="12" letter-spacing="0em"><tspan x="450" y="273.655">2121XT_2119XT</tspan></text>
<text id="2114XT" fill="#47C4EB" xml:space="preserve" style="white-space: pre" font-family="Open Sans" font-size="12" letter-spacing="0em"><tspan x="860" y="146.655">2114XT</tspan></text>
<text id="2114XT_2112XT" fill="#47C4EB" xml:space="preserve" style="white-space: pre" font-family="Open Sans" font-size="12" letter-spacing="0em"><tspan x="834" y="233.655">2114XT_2112XT</tspan></text>
<g id="ALH7_SG_A2123">
<circle id="ALH7_SG_A2123_ASPECT4" cx="766.5" cy="371.5" r="8.25" stroke="white" stroke-width="0.5"></circle>
<circle id="ALH7_SG_A2123_ASPECT3" cx="783.395" cy="371.5" r="8.25" stroke="white" stroke-width="0.5"></circle>
<circle id="ALH7_SG_A2123_ASPECT2" cx="800.29" cy="371.5" r="8.25" stroke="white" stroke-width="0.5"></circle>
<circle id="ALH7_SG_A2123_ASPECT1" cx="817.186" cy="371.5" r="8.25" stroke="white" stroke-width="0.5"></circle>
<path id="Line 389" d="M825.925 372H833.876" stroke="white" stroke-width="0.5"></path>
<path id="Line 387" d="M834 363V380" stroke="white" stroke-width="1.25"></path>
</g>
<g id="ALH7_SG_A2121">
<circle id="ALH7_SG_A2121_ASPECT4" cx="565.5" cy="373.5" r="8.25" stroke="white" stroke-width="0.5"></circle>
<circle id="ALH7_SG_A2121_ASPECT3" cx="582.395" cy="373.5" r="8.25" stroke="white" stroke-width="0.5"></circle>
<circle id="ALH7_SG_A2121_ASPECT2" cx="599.29" cy="373.5" r="8.25" stroke="white" stroke-width="0.5"></circle>
<circle id="ALH7_SG_A2121_ASPECT1" cx="616.186" cy="373.5" r="8.25" stroke="white" stroke-width="0.5"></circle>
<path id="Line 389_2" d="M624.925 374H632.876" stroke="white" stroke-width="0.5"></path>
<path id="Line 387_2" d="M633 365V382" stroke="white" stroke-width="1.25"></path>
</g>
<g id="ALH7_SG_A2119">
<circle id="ALH7_SG_A2119_ASPECT4" cx="362.5" cy="371.5" r="8.25" stroke="white" stroke-width="0.5"></circle>
<circle id="ALH7_SG_A2119_ASPECT3" cx="379.395" cy="371.5" r="8.25" stroke="white" stroke-width="0.5"></circle>
<circle id="ALH7_SG_A2119_ASPECT2" cx="396.29" cy="371.5" r="8.25" stroke="white" stroke-width="0.5"></circle>
<circle id="ALH7_SG_A2119_ASPECT1" cx="413.186" cy="371.5" r="8.25" stroke="white" stroke-width="0.5"></circle>
<path id="Line 389_3" d="M421.925 372H429.876" stroke="white" stroke-width="0.5"></path>
<path id="Line 387_3" d="M430 363V380" stroke="white" stroke-width="1.25"></path>
</g>
<g id="ALH7_SG_A2118">
<circle id="ALH7_SG_A2118_ASPECT4" cx="8.5" cy="8.5" r="8.25" transform="matrix(-1 0 0 1 322 117)" stroke="white" stroke-width="0.5"></circle>
<circle id="ALH7_SG_A2118_ASPECT3" cx="8.5" cy="8.5" r="8.25" transform="matrix(-1 0 0 1 305 117)" stroke="white" stroke-width="0.5"></circle>
<circle id="ALH7_SG_A2118_ASPECT2" cx="8.5" cy="8.5" r="8.25" transform="matrix(-1 0 0 1 288 117)" stroke="white" stroke-width="0.5"></circle>
<circle id="ALH7_SG_A2118_ASPECT1" cx="8.5" cy="8.5" r="8.25" transform="matrix(-1 0 0 1 271 117)" stroke="white" stroke-width="0.5"></circle>
<path id="Line 398" d="M253.945 124.904H246" stroke="white" stroke-width="0.5"></path>
<line id="Line 396" y1="-0.625" x2="17" y2="-0.625" transform="matrix(0 1 1 0 246.497 117)" stroke="white" stroke-width="1.25"></line>
</g>
<g id="ALH7_SG_A2116">
<path id="ALH7_SG_A2116_ASPECT4" d="M613.45 125.5C613.45 130.059 617.101 133.75 621.6 133.75C626.098 133.75 629.75 130.059 629.75 125.5C629.75 120.941 626.098 117.25 621.6 117.25C617.101 117.25 613.45 120.941 613.45 125.5Z" stroke="white" stroke-width="0.5"></path>
<path id="ALH7_SG_A2116_ASPECT3" d="M596.655 125.5C596.655 130.059 600.306 133.75 604.805 133.75C609.303 133.75 612.955 130.059 612.955 125.5C612.955 120.941 609.303 117.25 604.805 117.25C600.306 117.25 596.655 120.941 596.655 125.5Z" stroke="white" stroke-width="0.5"></path>
<path id="ALH7_SG_A2116_ASPECT2" d="M579.86 125.5C579.86 130.059 583.512 133.75 588.01 133.75C592.509 133.75 596.161 130.059 596.161 125.5C596.161 120.941 592.509 117.25 588.01 117.25C583.512 117.25 579.86 120.941 579.86 125.5Z" stroke="white" stroke-width="0.5"></path>
<path id="ALH7_SG_A2116_ASPECT1" d="M563.066 125.5C563.066 130.059 566.718 133.75 571.216 133.75C575.714 133.75 579.366 130.059 579.366 125.5C579.366 120.941 575.714 117.25 571.216 117.25C566.718 117.25 563.066 120.941 563.066 125.5Z" stroke="white" stroke-width="0.5"></path>
<path id="Line 401" opacity="0.8" d="M562.895 124.794H554" stroke="white" stroke-width="0.5"></path>
<line id="Line 399" y1="-0.625" x2="17" y2="-0.625" transform="matrix(0 1 1 0 554 117)" stroke="white" stroke-width="1.25"></line>
</g>
<g id="ALH7_SG_A2114">
<circle id="ALH7_SG_A2114_ASPECT4" cx="8.5" cy="8.5" r="8.25" transform="matrix(-1 0 0 1 814.635 117)" stroke="white" stroke-width="0.5"></circle>
<circle id="ALH7_SG_A2114_ASPECT3" cx="8.5" cy="8.5" r="8.25" transform="matrix(-1 0 0 1 797.579 117)" stroke="white" stroke-width="0.5"></circle>
<circle id="ALH7_SG_A2114_ASPECT2" cx="8.5" cy="8.5" r="8.25" transform="matrix(-1 0 0 1 780.523 117)" stroke="white" stroke-width="0.5"></circle>
<circle id="ALH7_SG_A2114_ASPECT1" cx="8.5" cy="8.5" r="8.25" transform="matrix(-1 0 0 1 763.467 117)" stroke="white" stroke-width="0.5"></circle>
<line id="Line 404" y1="-0.25" x2="8" y2="-0.25" transform="matrix(-1 0 0 1 746.656 125.825)" stroke="white" stroke-width="0.5"></line>
<line id="Line 402" y1="-0.625" x2="17" y2="-0.625" transform="matrix(0 1 1 0 738.635 118.071)" stroke="white" stroke-width="1.25"></line>
</g>
<text id="ALH7_SG_A2118_2" fill="#47C4EB" xml:space="preserve" style="white-space: pre" font-family="Open Sans" font-size="12" letter-spacing="0em"><tspan x="255" y="108.655">A2118</tspan></text>
<text id="ALH7_SG_A2121" fill="#47C4EB" xml:space="preserve" style="white-space: pre" font-family="Open Sans" font-size="12" letter-spacing="0em"><tspan x="589" y="394.655">A2121</tspan></text>
<text id="ALH7_SG_A2123" fill="#47C4EB" xml:space="preserve" style="white-space: pre" font-family="Open Sans" font-size="12" letter-spacing="0em"><tspan x="791" y="394.655">A2123</tspan></text>
<text id="ALH7_SG_A2119" fill="#47C4EB" xml:space="preserve" style="white-space: pre" font-family="Open Sans" font-size="12" letter-spacing="0em"><tspan x="386" y="392.655">A2119</tspan></text>
<text id="ALH7_SG_A2116" fill="#47C4EB" xml:space="preserve" style="white-space: pre" font-family="Open Sans" font-size="12" letter-spacing="0em"><tspan x="563" y="108.655">A2116</tspan></text>
<text id="ALH7_SG_A2114" fill="#47C4EB" xml:space="preserve" style="white-space: pre" font-family="Open Sans" font-size="12" letter-spacing="0em"><tspan x="746" y="108.655">A2114</tspan></text>
<g id="ALH7_WS_BD21">
<g id="BD21_WS">
<ellipse id="Ellipse 327" cx="3.60006" cy="3.72494" rx="3.60006" ry="3.72494" transform="matrix(-1 0 -0.00149771 -0.999999 279.611 166.449)" fill="#AFA089"></ellipse>
<ellipse id="Ellipse 328" cx="3.60006" cy="3.72494" rx="3.60006" ry="3.72494" transform="matrix(-1 0 -0.00149771 -0.999999 267.012 166.45)" fill="#AFA089"></ellipse>
<path id="Line 656" d="M281.406 162.725L258.005 162.725" stroke="#D9D9D9"></path>
</g>
<text id="BD21_WS_TEXT" transform="matrix(0.99999 0 0.00103768 1.00001 256 167)" fill="white" xml:space="preserve" style="white-space: pre" font-family="Open Sans" font-size="10" letter-spacing="0em"><tspan x="0.917134" y="10.8794">BD21</tspan></text>
</g>
<g id="ALH7_WS_BD22">
<g id="BD22_WS">
<ellipse id="Ellipse 327_2" cx="3.60006" cy="3.72494" rx="3.60006" ry="3.72494" transform="matrix(-1 0 -0.00149771 -0.999999 513.611 166.449)" fill="#AFA089"></ellipse>
<ellipse id="Ellipse 328_2" cx="3.60006" cy="3.72494" rx="3.60006" ry="3.72494" transform="matrix(-1 0 -0.00149771 -0.999999 501.012 166.45)" fill="#AFA089"></ellipse>
<path id="Line 656_2" d="M515.406 162.725L492.005 162.725" stroke="#D9D9D9"></path>
</g>
<text id="BD22_WS_TEXT" transform="matrix(0.99999 0 0.00103768 1.00001 492.001 167)" fill="white" xml:space="preserve" style="white-space: pre" font-family="Open Sans" font-size="10" letter-spacing="0em"><tspan x="0.416992" y="10.8794">BD22</tspan></text>
</g>
<g id="ALH7_WS_BD23">
<g id="BD23_WS">
<ellipse id="Ellipse 327_3" cx="3.60006" cy="3.72494" rx="3.60006" ry="3.72494" transform="matrix(-1 0 -0.00149771 -0.999999 581.611 166.449)" fill="#AFA089"></ellipse>
<ellipse id="Ellipse 328_3" cx="3.60006" cy="3.72494" rx="3.60006" ry="3.72494" transform="matrix(-1 0 -0.00149771 -0.999999 569.012 166.45)" fill="#AFA089"></ellipse>
<path id="Line 656_3" d="M583.406 162.725L560.005 162.725" stroke="#D9D9D9"></path>
</g>
<text id="BD23_WS_TEXT" transform="matrix(0.99999 0 0.00103768 1.00001 559 167)" fill="white" xml:space="preserve" style="white-space: pre" font-family="Open Sans" font-size="10" letter-spacing="0em"><tspan x="0.416992" y="10.8794">BD23</tspan></text>
</g>
<g id="ALH7_WS_BD24">
<g id="BD24_WS">
<ellipse id="Ellipse 327_4" cx="3.60006" cy="3.72494" rx="3.60006" ry="3.72494" transform="matrix(-1 0 -0.00149771 -0.999999 724.2 166.449)" fill="#AFA089"></ellipse>
<ellipse id="Ellipse 328_4" cx="3.60006" cy="3.72494" rx="3.60006" ry="3.72494" transform="matrix(-1 0 -0.00149771 -0.999999 711.6 166.45)" fill="#AFA089"></ellipse>
<path id="Line 656_4" d="M725.994 162.725L702.594 162.725" stroke="#D9D9D9"></path>
</g>
<text id="BD24_WS_TEXT" transform="matrix(0.99999 0 0.00103768 1.00001 702 167)" fill="white" xml:space="preserve" style="white-space: pre" font-family="Open Sans" font-size="10" letter-spacing="0em"><tspan x="0" y="10.8794">BD24</tspan></text>
</g>
<!-- <g id="ALH7_WS_SU07">
<g id="SU07_WS">
<ellipse id="Ellipse 327_5" cx="3.60006" cy="3.72494" rx="3.60006" ry="3.72494" transform="matrix(-1 0 -0.00149771 -0.999999 660.611 293.449)" fill="#AFA089"></ellipse>
<ellipse id="Ellipse 328_5" cx="3.60006" cy="3.72494" rx="3.60006" ry="3.72494" transform="matrix(-1 0 -0.00149771 -0.999999 648.012 293.45)" fill="#AFA089"></ellipse>
<path id="Line 656_5" d="M662.406 289.725L639.005 289.725" stroke="#D9D9D9"></path>
</g>
<text id="SU07_WS_TEXT" transform="matrix(0.99999 0 0.00103768 1.00001 638.555 292)" fill="white" xml:space="preserve" style="white-space: pre" font-family="Open Sans" font-size="10" letter-spacing="0em"><tspan x="0" y="10.8794">SU07</tspan></text>
</g> -->
<g id="ALH7_WS_BU15">
<g id="BU15_WS">
<ellipse id="Ellipse 327_6" cx="3.60006" cy="3.72494" rx="3.60006" ry="3.72494" transform="matrix(-1 0 -0.00149771 -0.999999 832.628 338.982)" fill="#AFA089"></ellipse>
<ellipse id="Ellipse 328_6" cx="3.60006" cy="3.72494" rx="3.60006" ry="3.72494" transform="matrix(-1 0 -0.00149771 -0.999999 820.029 338.982)" fill="#AFA089"></ellipse>
<path id="Line 656_6" d="M834.423 335.257L811.023 335.257" stroke="#D9D9D9"></path>
</g>
<text id="BU15_WS_TEXT" transform="matrix(0.99999 0 0.00103768 1.00001 810 317)" fill="white" xml:space="preserve" style="white-space: pre" font-family="Open Sans" font-size="10" letter-spacing="0em"><tspan x="0" y="10.8794">BU15</tspan></text>
</g>
<g id="ALH7_WS_SD12">
<g id="SD12_WS">
<ellipse id="Ellipse 327_7" cx="3.60006" cy="3.72494" rx="3.60006" ry="3.72494" transform="matrix(-1 0 -0.00149771 -0.999999 724.611 211.449)" fill="#AFA089"></ellipse>
<ellipse id="Ellipse 328_7" cx="3.60006" cy="3.72494" rx="3.60006" ry="3.72494" transform="matrix(-1 0 -0.00149771 -0.999999 712.012 211.45)" fill="#AFA089"></ellipse>
<path id="Line 656_7" d="M726.406 207.725L703.005 207.725" stroke="#D9D9D9"></path>
</g>
<text id="SD12_WS_TEXT" transform="matrix(0.99999 0 0.00103769 1.00001 703 189)" fill="white" xml:space="preserve" style="white-space: pre" font-family="Open Sans" font-size="10" letter-spacing="0em"><tspan x="0.405273" y="10.8794">SD12</tspan></text>
</g>
<g id="ALH7_WS_SD11">
<g id="SD11_WS">
<ellipse id="Ellipse 327_8" cx="3.60006" cy="3.72494" rx="3.60006" ry="3.72494" transform="matrix(-1 0 -0.00149771 -0.999999 279.2 210.983)" fill="#AFA089"></ellipse>
<ellipse id="Ellipse 328_8" cx="3.60006" cy="3.72494" rx="3.60006" ry="3.72494" transform="matrix(-1 0 -0.00149771 -0.999999 266.6 210.984)" fill="#AFA089"></ellipse>
<path id="Line 656_8" d="M280.994 207.259L257.594 207.259" stroke="#D9D9D9"></path>
</g>
<text id="SD11_WS_TEXT" transform="matrix(0.99999 0 0.00103768 1.00001 257 189)" fill="white" xml:space="preserve" style="white-space: pre" font-family="Open Sans" font-size="10" letter-spacing="0em"><tspan x="0.405273" y="10.8794">SD11</tspan></text>
</g>
<g id="ALH7_WS_BU14">
<g id="BU14_WS">
<ellipse id="Ellipse 327_9" cx="3.60006" cy="3.72494" rx="3.60006" ry="3.72494" transform="matrix(-1 0 -0.00149771 -0.999999 875.629 338.982)" fill="#AFA089"></ellipse>
<ellipse id="Ellipse 328_9" cx="3.60006" cy="3.72494" rx="3.60006" ry="3.72494" transform="matrix(-1 0 -0.00149771 -0.999999 863.029 338.982)" fill="#AFA089"></ellipse>
<path id="Line 656_9" d="M877.423 335.257L854.023 335.257" stroke="#D9D9D9"></path>
</g>
<text id="BU14_WS_TEXT" transform="matrix(0.99999 0 0.00103768 1.00001 853 317)" fill="white" xml:space="preserve" style="white-space: pre" font-family="Open Sans" font-size="10" letter-spacing="0em"><tspan x="0" y="10.8794">BU14</tspan></text>
</g>
<g id="ALH7_WS_BU16">
<g id="BU16_WS">
<ellipse id="Ellipse 327_10" cx="3.60006" cy="3.72494" rx="3.60006" ry="3.72494" transform="matrix(-1 0 -0.00149771 -0.999999 683.628 338.982)" fill="#AFA089"></ellipse>
<ellipse id="Ellipse 328_10" cx="3.60006" cy="3.72494" rx="3.60006" ry="3.72494" transform="matrix(-1 0 -0.00149771 -0.999999 671.029 338.982)" fill="#AFA089"></ellipse>
<path id="Line 656_10" d="M685.423 335.257L662.023 335.257" stroke="#D9D9D9"></path>
</g>
<text id="BU16_WS_TEXT" transform="matrix(0.99999 0 0.00103768 1.00001 661 317)" fill="white" xml:space="preserve" style="white-space: pre" font-family="Open Sans" font-size="10" letter-spacing="0em"><tspan x="0" y="10.8794">BU16</tspan></text>
</g>
<g id="ALH7_WS_BU17">
<g id="BU17_WS">
<ellipse id="Ellipse 327_11" cx="3.60006" cy="3.72494" rx="3.60006" ry="3.72494" transform="matrix(-1 0 -0.00149771 -0.999999 618.628 338.982)" fill="#AFA089"></ellipse>
<ellipse id="Ellipse 328_11" cx="3.60006" cy="3.72494" rx="3.60006" ry="3.72494" transform="matrix(-1 0 -0.00149771 -0.999999 606.029 338.982)" fill="#AFA089"></ellipse>
<path id="Line 656_11" d="M620.423 335.257L597.023 335.257" stroke="#D9D9D9"></path>
</g>
<text id="BU17_WS_TEXT" transform="matrix(0.99999 0 0.00103768 1.00001 596 317)" fill="white" xml:space="preserve" style="white-space: pre" font-family="Open Sans" font-size="10" letter-spacing="0em"><tspan x="0" y="10.8794">BU17</tspan></text>
</g>
<g id="ALH7_WS_BU18">
<g id="BU18_WS">
<ellipse id="Ellipse 327_12" cx="3.60006" cy="3.72494" rx="3.60006" ry="3.72494" transform="matrix(-1 0 -0.00149771 -0.999999 475.611 338.449)" fill="#AFA089"></ellipse>
<ellipse id="Ellipse 328_12" cx="3.60006" cy="3.72494" rx="3.60006" ry="3.72494" transform="matrix(-1 0 -0.00149771 -0.999999 463.012 338.45)" fill="#AFA089"></ellipse>
<path id="Line 656_12" d="M477.406 334.725L454.005 334.725" stroke="#D9D9D9"></path>
</g>
<text id="BU18_WS_TEXT" transform="matrix(0.99999 0 0.00103768 1.00001 453 317)" fill="white" xml:space="preserve" style="white-space: pre" font-family="Open Sans" font-size="10" letter-spacing="0em"><tspan x="0" y="10.8794">BU18</tspan></text>
</g>
<g id="ALH7_WS_BU19">
<g id="BU19_WS">
<ellipse id="Ellipse 327_13" cx="3.60006" cy="3.72494" rx="3.60006" ry="3.72494" transform="matrix(-1 0 -0.00149771 -0.999999 425.611 338.449)" fill="#AFA089"></ellipse>
<ellipse id="Ellipse 328_13" cx="3.60006" cy="3.72494" rx="3.60006" ry="3.72494" transform="matrix(-1 0 -0.00149771 -0.999999 413.012 338.45)" fill="#AFA089"></ellipse>
<path id="Line 656_13" d="M427.406 334.725L404.005 334.725" stroke="#D9D9D9"></path>
</g>
<text id="BU19_WS_TEXT" transform="matrix(0.99999 0 0.00103768 1.00001 403 317)" fill="white" xml:space="preserve" style="white-space: pre" font-family="Open Sans" font-size="10" letter-spacing="0em"><tspan x="0" y="10.8794">BU19</tspan></text>
</g>
<!-- <g id="ALH7_WS_SU10">
<g id="SU10_WS">
<ellipse id="Ellipse 327_14" cx="3.60006" cy="3.72494" rx="3.60006" ry="3.72494" transform="matrix(-1 0 -0.00149771 -0.999999 596.2 292.981)" fill="#AFA089"></ellipse>
<ellipse id="Ellipse 328_14" cx="3.60006" cy="3.72494" rx="3.60006" ry="3.72494" transform="matrix(-1 0 -0.00149771 -0.999999 583.6 292.982)" fill="#AFA089"></ellipse>
<path id="Line 656_14" d="M597.994 289.257L574.594 289.257" stroke="#D9D9D9"></path>
</g>
<text id="SU10_WS_TEXT" transform="matrix(0.99999 0 0.00103768 1.00001 574 293)" fill="white" xml:space="preserve" style="white-space: pre" font-family="Open Sans" font-size="10" letter-spacing="0em"><tspan x="0" y="10.8794">SU10</tspan></text>
</g> -->
<g id="ALH7_WS_SU09">
<g id="SU09_WS">
<ellipse id="Ellipse 327_15" cx="3.60006" cy="3.72494" rx="3.60006" ry="3.72494" transform="matrix(-1 0 -0.00149771 -0.999999 278.2 293.45)" fill="#AFA089"></ellipse>
<ellipse id="Ellipse 328_15" cx="3.60006" cy="3.72494" rx="3.60006" ry="3.72494" transform="matrix(-1 0 -0.00149771 -0.999999 265.6 293.45)" fill="#AFA089"></ellipse>
<path id="Line 656_15" d="M279.994 289.725L256.594 289.725" stroke="#D9D9D9"></path>
</g>
<text id="SU09_WS_TEXT" transform="matrix(0.99999 0 0.00103768 1.00001 256 293.468)" fill="white" xml:space="preserve" style="white-space: pre" font-family="Open Sans" font-size="10" letter-spacing="0em"><tspan x="0" y="10.8794">SU09</tspan></text>
</g>
<!-- <g id="ALH7_WS_BU20">
<g id="BU20_WS">
<ellipse id="Ellipse 327_16" cx="3.60006" cy="3.72494" rx="3.60006" ry="3.72494" transform="matrix(-1 0 -0.00149771 -0.999999 277.2 338.449)" fill="#AFA089"></ellipse>
<ellipse id="Ellipse 328_16" cx="3.60006" cy="3.72494" rx="3.60006" ry="3.72494" transform="matrix(-1 0 -0.00149771 -0.999999 264.6 338.45)" fill="#AFA089"></ellipse>
<path id="Line 656_16" d="M278.994 334.725L255.594 334.725" stroke="#D9D9D9"></path>
</g>
<text id="BU20_WS_TEXT" transform="matrix(0.99999 0 0.00103768 1.00001 255 317)" fill="white" xml:space="preserve" style="white-space: pre" font-family="Open Sans" font-size="10" letter-spacing="0em"><tspan x="0" y="10.8794">BU20</tspan></text>
</g> -->
<g id="ALH7_WS_SU08">
<g id="SU08_WS">
<ellipse id="Ellipse 327_17" cx="3.60006" cy="3.72494" rx="3.60006" ry="3.72494" transform="matrix(-1 0 -0.00149771 -0.999999 1004.61 293.449)" fill="#AFA089"></ellipse>
<ellipse id="Ellipse 328_17" cx="3.60006" cy="3.72494" rx="3.60006" ry="3.72494" transform="matrix(-1 0 -0.00149771 -0.999999 992.011 293.45)" fill="#AFA089"></ellipse>
<path id="Line 656_17" d="M1006.41 289.725L983.005 289.725" stroke="#D9D9D9"></path>
</g>
<text id="SU08_WS_TEXT" transform="matrix(0.99999 0 0.00103768 1.00001 983 292)" fill="white" xml:space="preserve" style="white-space: pre" font-family="Open Sans" font-size="10" letter-spacing="0em"><tspan x="0" y="10.8794">SU08</tspan></text>
</g>
<!-- <g id="ALH7_WS_BU13">
<g id="BU13_WS">
<ellipse id="Ellipse 327_18" cx="3.60006" cy="3.72494" rx="3.60006" ry="3.72494" transform="matrix(-1 0 -0.00149771 -0.999999 1006.61 339.449)" fill="#AFA089"></ellipse>
<ellipse id="Ellipse 328_18" cx="3.60006" cy="3.72494" rx="3.60006" ry="3.72494" transform="matrix(-1 0 -0.00149771 -0.999999 994.012 339.45)" fill="#AFA089"></ellipse>
<path id="Line 656_18" d="M1008.41 335.725L985.005 335.725" stroke="#D9D9D9"></path>
</g>
<text id="BU13_WS_TEXT" transform="matrix(0.99999 0 0.00103768 1.00001 983 317)" fill="white" xml:space="preserve" style="white-space: pre" font-family="Open Sans" font-size="10" letter-spacing="0em"><tspan x="0" y="10.8794">BU13</tspan></text>
</g> -->
<g id="ALH7_WS_BD25">
<g id="BD25_WS">
<ellipse id="Ellipse 327_19" cx="3.60006" cy="3.72494" rx="3.60006" ry="3.72494" transform="matrix(-1 0 -0.00149771 -0.999999 776.611 166.449)" fill="#AFA089"></ellipse>
<ellipse id="Ellipse 328_19" cx="3.60006" cy="3.72494" rx="3.60006" ry="3.72494" transform="matrix(-1 0 -0.00149771 -0.999999 764.012 166.45)" fill="#AFA089"></ellipse>
<path id="Line 656_19" d="M778.406 162.725L755.005 162.725" stroke="#D9D9D9"></path>
</g>
<text id="BD25_WS_TEXT" transform="matrix(0.99999 0 0.00103768 1.00001 754 167)" fill="white" xml:space="preserve" style="white-space: pre" font-family="Open Sans" font-size="10" letter-spacing="0em"><tspan x="0.416992" y="10.8794">BD25</tspan></text>
</g>
<g id="ALH7_WS_SD13">
<g id="SD13_WS">
<ellipse id="Ellipse 327_20" cx="3.60006" cy="3.72494" rx="3.60006" ry="3.72494" transform="matrix(-1 0 -0.00149771 -0.999999 776.2 211.449)" fill="#AFA089"></ellipse>
<ellipse id="Ellipse 328_20" cx="3.60006" cy="3.72494" rx="3.60006" ry="3.72494" transform="matrix(-1 0 -0.00149771 -0.999999 763.6 211.45)" fill="#AFA089"></ellipse>
<path id="Line 656_20" d="M777.994 207.725L754.594 207.725" stroke="#D9D9D9"></path>
</g>
<text id="SD13_WS_TEXT" transform="matrix(0.99999 0 0.00103768 1.00001 754 189)" fill="white" xml:space="preserve" style="white-space: pre" font-family="Open Sans" font-size="10" letter-spacing="0em"><tspan x="0" y="10.8794">SD13</tspan></text>
</g>
<!-- <g id="ALH7_WS_SD14">
<g id="SD14_WS">
<ellipse id="Ellipse 327_21" cx="3.60006" cy="3.72494" rx="3.60006" ry="3.72494" transform="matrix(-1 0 -0.00149771 -0.999999 999.611 211.45)" fill="#AFA089"></ellipse>
<ellipse id="Ellipse 328_21" cx="3.60006" cy="3.72494" rx="3.60006" ry="3.72494" transform="matrix(-1 0 -0.00149771 -0.999999 987.012 211.45)" fill="#AFA089"></ellipse>
<path id="Line 656_21" d="M1001.41 207.725L978.005 207.725" stroke="#D9D9D9"></path>
</g>
<text id="SD14_WS_TEXT" transform="matrix(0.99999 0 0.00103768 1.00001 977 189)" fill="white" xml:space="preserve" style="white-space: pre" font-family="Open Sans" font-size="10" letter-spacing="0em"><tspan x="0.405273" y="10.8794">SD14</tspan></text>
</g> -->
<!-- <g id="ALH7_WS_BD26">
<g id="BD26_WS">
<ellipse id="Ellipse 327_22" cx="3.60006" cy="3.72494" rx="3.60006" ry="3.72494" transform="matrix(-1 0 -0.00149771 -0.999999 997.611 166.449)" fill="#AFA089"></ellipse>
<ellipse id="Ellipse 328_22" cx="3.60006" cy="3.72494" rx="3.60006" ry="3.72494" transform="matrix(-1 0 -0.00149771 -0.999999 985.012 166.45)" fill="#AFA089"></ellipse>
<path id="Line 656_22" d="M999.406 162.725L976.005 162.725" stroke="#D9D9D9"></path>
</g>
<text id="BD26_WS_TEXT" transform="matrix(0.99999 0 0.00103768 1.00001 975 167)" fill="white" xml:space="preserve" style="white-space: pre" font-family="Open Sans" font-size="10" letter-spacing="0em"><tspan x="0" y="10.8794">BD26</tspan></text>
</g> -->
<g id="UP MARK">
<text id="UP" fill="#47C4EB" stroke="white" xml:space="preserve" style="white-space: pre" font-family="Open Sans" font-size="15" letter-spacing="0em"><tspan x="282.017" y="421.819">UP</tspan></text>
<path id="Arrow 1" d="M240.646 415.646C240.451 415.842 240.451 416.158 240.646 416.354L243.828 419.536C244.024 419.731 244.34 419.731 244.536 419.536C244.731 419.34 244.731 419.024 244.536 418.828L241.707 416L244.536 413.172C244.731 412.976 244.731 412.66 244.536 412.464C244.34 412.269 244.024 412.269 243.828 412.464L240.646 415.646ZM270 415.5H241V416.5H270V415.5Z" fill="white"></path>
</g>
<g id="DN MARK">
<text id="DN" fill="#47C4EB" stroke="white" xml:space="preserve" style="white-space: pre" font-family="Open Sans" font-size="15" letter-spacing="0em"><tspan x="241" y="81.8191">DN</tspan></text>
<path id="Arrow 2" d="M302.354 76.3536C302.549 76.1583 302.549 75.8417 302.354 75.6464L299.172 72.4645C298.976 72.2692 298.66 72.2692 298.464 72.4645C298.269 72.6597 298.269 72.9763 298.464 73.1716L301.293 76L298.464 78.8284C298.269 79.0237 298.269 79.3403 298.464 79.5355C298.66 79.7308 298.976 79.7308 299.172 79.5355L302.354 76.3536ZM273 76.5H302V75.5H273V76.5Z" fill="white"></path>
</g>
<text id="ALH7 (NEW ATELI)" stroke="white" xml:space="preserve" style="white-space: pre" font-family="Open Sans" font-size="20" letter-spacing="0em"><tspan x="514" y="58.2588">ALH7 (NEW ATELI)</tspan></text>
</g>
</svg>