<svg width="1229" height="476" viewBox="0 0 1229 476" fill="none" xmlns="http://www.w3.org/2000/svg">
<rect width="1229" height="476" fill="#F5F5F5"></rect>
<g id="ALH 005">
<rect width="1229" height="476" fill="black"></rect>
<text id="2108XT" fill="#47C4EB" xml:space="preserve" style="white-space: pre" font-family="Open Sans" font-size="12" letter-spacing="0em"><tspan x="301" y="145.655">2108XT</tspan></text>
<text id="2106XT" fill="#47C4EB" xml:space="preserve" style="white-space: pre" font-family="Open Sans" font-size="12" letter-spacing="0em"><tspan x="484" y="145.655">2106XT</tspan></text>
<text id="2104XT" fill="#47C4EB" xml:space="preserve" style="white-space: pre" font-family="Open Sans" font-size="12" letter-spacing="0em"><tspan x="658" y="145.655">2104XT</tspan></text>
<text id="2102XT" fill="#47C4EB" xml:space="preserve" style="white-space: pre" font-family="Open Sans" font-size="12" letter-spacing="0em"><tspan x="876" y="145.655">2102XT</tspan></text>
<text id="2110XT_2108XT" fill="#47C4EB" xml:space="preserve" style="white-space: pre" font-family="Open Sans" font-size="12" letter-spacing="0em"><tspan x="276" y="232.655">2110XT_2108XT</tspan></text>
<text id="2106XT_2104XT" fill="#47C4EB" xml:space="preserve" style="white-space: pre" font-family="Open Sans" font-size="12" letter-spacing="0em"><tspan x="454" y="232.655">2106XT_2104XT</tspan></text>
<text id="2102XT_SUP" fill="#47C4EB" xml:space="preserve" style="white-space: pre" font-family="Open Sans" font-size="12" letter-spacing="0em"><tspan x="781" y="232.655">2102XT_SUP</tspan></text>
<text id="2133XT_2131XT" fill="#47C4EB" xml:space="preserve" style="white-space: pre" font-family="Open Sans" font-size="12" letter-spacing="0em"><tspan x="371" y="268.655">2133XT_2131XT</tspan></text>
<text id="99AXT_2135XT" fill="#47C4EB" xml:space="preserve" style="white-space: pre" font-family="Open Sans" font-size="12" letter-spacing="0em"><tspan x="773" y="268.655">99AXT_2135XT</tspan></text>
<text id="2131XT" fill="#47C4EB" xml:space="preserve" style="white-space: pre" font-family="Open Sans" font-size="12" letter-spacing="0em"><tspan x="316" y="359.655">2131XT</tspan></text>
<text id="2133XT" fill="#47C4EB" xml:space="preserve" style="white-space: pre" font-family="Open Sans" font-size="12" letter-spacing="0em"><tspan x="517" y="359.655">2133XT</tspan></text>
<text id="2135XT" fill="#47C4EB" xml:space="preserve" style="white-space: pre" font-family="Open Sans" font-size="12" letter-spacing="0em"><tspan x="694" y="359.655">2135XT</tspan></text>
<text id="99AXT" fill="#47C4EB" xml:space="preserve" style="white-space: pre" font-family="Open Sans" font-size="12" letter-spacing="0em"><tspan x="894" y="356.655">99AXT</tspan></text>
<path id="2108XT_LINE" d="M242 154.155H402.862" stroke="#6B7280" stroke-width="4"></path>
<path id="2106XT_LINE" d="M408.061 154.155H601.031" stroke="#6B7280" stroke-width="4"></path>
<path id="2104XT_LINE" d="M604 154L754 154" stroke="#6B7280" stroke-width="4"></path>
<path id="2102XT_LINE" d="M756.712 154.058L1032 154" stroke="#6B7280" stroke-width="4"></path>
<path id="2110XT_2108XT_LINE" d="M242 215.158L398.469 215.158" stroke="#6B7280" stroke-width="4" stroke-dasharray="2.5 2.5"></path>
<path id="2106XT_2104XT_LINE" d="M406 215.153L590.738 215.153" stroke="#6B7280" stroke-width="4" stroke-dasharray="2.5 2.5"></path>
<path id="2102XT_SUP_LINE" d="M598 215H1032" stroke="#6B7280" stroke-width="4" stroke-dasharray="2.5 2.5"></path>
<path id="2133XT_2131XT_LINE" d="M242 280.626H587.466" stroke="#6B7280" stroke-width="4" stroke-dasharray="2.5 2.5"></path>
<path id="99AXT_2135XT_LINE" d="M595 280.375H1032" stroke="#6B7280" stroke-width="4" stroke-dasharray="2.5 2.5"></path>
<path id="2131XT_LINE" d="M242 341.5L431.5 342" stroke="#6B7280" stroke-width="4"></path>
<path id="2133XT_LINE" d="M436 341.985H640.289" stroke="#6B7280" stroke-width="4"></path>
<path id="2135XT_LINE" d="M644 342L786 342" stroke="#6B7280" stroke-width="4"></path>
<path id="99AXT_LINE" d="M791 342L1033 342" stroke="#6B7280" stroke-width="4"></path>
<text id="A2106" fill="#47C4EB" xml:space="preserve" style="white-space: pre" font-family="Open Sans" font-size="12" letter-spacing="0em"><tspan x="422" y="111.655">A2106</tspan></text>
<text id="A2104" fill="#47C4EB" xml:space="preserve" style="white-space: pre" font-family="Open Sans" font-size="12" letter-spacing="0em"><tspan x="618" y="111.655">A2104</tspan></text>
<text id="A2102" fill="#47C4EB" xml:space="preserve" style="white-space: pre" font-family="Open Sans" font-size="12" letter-spacing="0em"><tspan x="772" y="111.655">A2102</tspan></text>
<text id="A2131" fill="#47C4EB" xml:space="preserve" style="white-space: pre" font-family="Open Sans" font-size="12" letter-spacing="0em"><tspan x="381" y="394.655">A2131</tspan></text>
<text id="A2133" fill="#47C4EB" xml:space="preserve" style="white-space: pre" font-family="Open Sans" font-size="12" letter-spacing="0em"><tspan x="587" y="394.655">A2133</tspan></text>
<text id="A2135" fill="#47C4EB" xml:space="preserve" style="white-space: pre" font-family="Open Sans" font-size="12" letter-spacing="0em"><tspan x="738" y="394.655">A2135</tspan></text>
<!-- <g id="ALH5_WS_BD31">
<g id="BD31_WS">
<ellipse id="Ellipse 327" cx="4.0002" cy="3.99982" rx="4.0002" ry="3.99982" transform="matrix(0.999667 0.0237872 -0.0223606 0.999796 260.803 158)" fill="#AFA089"></ellipse>
<ellipse id="Ellipse 328" cx="4" cy="4.00001" rx="4" ry="4.00001" transform="matrix(1 -2.17511e-09 -0.0006948 0.999997 272.739 158.371)" fill="#AFA089"></ellipse>
<path id="Line 656" d="M258.998 161.83L281.991 162.374" stroke="#AFA089"></path>
</g>
<text id="BD31_WS_TEXT" transform="matrix(0.99999 0 0.00099026 1.00001 258 167)" fill="white" xml:space="preserve" style="white-space: pre" font-family="Open Sans" font-size="10" letter-spacing="0em"><tspan x="0" y="10.8794">BD31</tspan></text>
</g> -->
<g id="ALH5_WS_BD32">
<g id="BD32_WS">
<ellipse id="Ellipse 327_2" cx="4.0002" cy="3.99982" rx="4.0002" ry="3.99982" transform="matrix(0.999667 0.0237872 -0.0223606 0.999796 369.89 158.272)" fill="#AFA089"></ellipse>
<ellipse id="Ellipse 328_2" cx="4" cy="4.00001" rx="4" ry="4.00001" transform="matrix(1 -2.17511e-09 -0.0006948 0.999997 381.827 158.643)" fill="#AFA089"></ellipse>
<path id="Line 656_2" d="M368.094 161.731L391.087 162.274" stroke="#AFA089"></path>
</g>
<text id="BD32_WS_TEXT" transform="matrix(0.99999 0 0.000990259 1.00001 366 167)" fill="white" xml:space="preserve" style="white-space: pre" font-family="Open Sans" font-size="10" letter-spacing="0em"><tspan x="0" y="10.8794">BD32</tspan></text>
</g>
<g id="ALH5_WS_BD33">
<g id="BD33_WS">
<ellipse id="Ellipse 327_3" cx="4.0002" cy="3.99982" rx="4.0002" ry="3.99982" transform="matrix(0.999667 0.0237872 -0.0223606 0.999796 425.89 158.272)" fill="#AFA089"></ellipse>
<ellipse id="Ellipse 328_3" cx="4" cy="4.00001" rx="4" ry="4.00001" transform="matrix(1 -2.17511e-09 -0.0006948 0.999997 437.827 158.643)" fill="#AFA089"></ellipse>
<path id="Line 656_3" d="M424.094 161.731L447.087 162.274" stroke="#AFA089"></path>
</g>
<text id="BD33_WS_TEXT" transform="matrix(0.99999 0 0.000990259 1.00001 423 167)" fill="white" xml:space="preserve" style="white-space: pre" font-family="Open Sans" font-size="10" letter-spacing="0em"><tspan x="0" y="10.8794">BD33</tspan></text>
</g>
<g id="ALH5_WS_SD17">
<g id="SD17_WS">
<ellipse id="Ellipse 327_4" cx="4.0002" cy="3.99982" rx="4.0002" ry="3.99982" transform="matrix(0.999667 0.0237872 -0.0223606 0.999796 425.806 203)" fill="#AFA089"></ellipse>
<ellipse id="Ellipse 328_4" cx="4" cy="4.00001" rx="4" ry="4.00001" transform="matrix(1 -2.17511e-09 -0.0006948 0.999997 437.743 203.371)" fill="#AFA089"></ellipse>
<path id="Line 656_4" d="M424.01 206.458L447.003 207.002" stroke="#AFA089"></path>
</g>
<text id="SD17_WS_TEXT" transform="matrix(0.99999 0 0.000990259 1.00001 423.006 189)" fill="white" xml:space="preserve" style="white-space: pre" font-family="Open Sans" font-size="10" letter-spacing="0em"><tspan x="0" y="10.8794">SD17</tspan></text>
</g>
<g id="ALH5_WS_SD16">
<g id="SD16_WS">
<ellipse id="Ellipse 327_5" cx="4.0002" cy="3.99982" rx="4.0002" ry="3.99982" transform="matrix(0.999667 0.0237872 -0.0223606 0.999796 369.896 203.272)" fill="#AFA089"></ellipse>
<ellipse id="Ellipse 328_5" cx="4" cy="4.00001" rx="4" ry="4.00001" transform="matrix(1 -2.17511e-09 -0.0006948 0.999997 381.833 203.643)" fill="#AFA089"></ellipse>
<path id="Line 656_5" d="M368.1 206.731L391.094 207.274" stroke="#AFA089"></path>
</g>
<text id="SD16_WS_TEXT" transform="matrix(0.99999 0 0.000990259 1.00001 366.006 189)" fill="white" xml:space="preserve" style="white-space: pre" font-family="Open Sans" font-size="10" letter-spacing="0em"><tspan x="0" y="10.8794">SD16</tspan></text>
</g>
<!-- <g id="ALH5_WS_SD15">
<g id="SD15_WS">
<ellipse id="Ellipse 327_6" cx="4.0002" cy="3.99982" rx="4.0002" ry="3.99982" transform="matrix(0.999667 0.0237872 -0.0223606 0.999796 260.794 203.272)" fill="#AFA089"></ellipse>
<ellipse id="Ellipse 328_6" cx="4" cy="4.00001" rx="4" ry="4.00001" transform="matrix(1 -2.17511e-09 -0.0006948 0.999997 272.73 203.643)" fill="#AFA089"></ellipse>
<path id="Line 656_6" d="M258.998 206.73L281.991 207.274" stroke="#AFA089"></path>
</g>
<text id="SD15_WS_TEXT" transform="matrix(0.99999 0 0.000990259 1.00001 258 189)" fill="white" xml:space="preserve" style="white-space: pre" font-family="Open Sans" font-size="10" letter-spacing="0em"><tspan x="0" y="10.8794">SD15</tspan></text>
</g> -->
<g id="ALH5_WS_SD18">
<g id="SD18_WS">
<ellipse id="Ellipse 327_7" cx="4.0002" cy="3.99982" rx="4.0002" ry="3.99982" transform="matrix(0.999667 0.0237872 -0.0223606 0.999796 568.806 203)" fill="#AFA089"></ellipse>
<ellipse id="Ellipse 328_7" cx="4" cy="4.00001" rx="4" ry="4.00001" transform="matrix(1 -2.17511e-09 -0.0006948 0.999997 580.743 203.371)" fill="#AFA089"></ellipse>
<path id="Line 656_7" d="M567.01 206.458L590.003 207.002" stroke="#AFA089"></path>
</g>
<text id="SD18_WS_TEXT" transform="matrix(0.99999 0 0.000990259 1.00001 565.006 189)" fill="white" xml:space="preserve" style="white-space: pre" font-family="Open Sans" font-size="10" letter-spacing="0em"><tspan x="0" y="10.8794">SD18</tspan></text>
</g>
<g id="ALH5_WS_SD19">
<g id="SD19_WS">
<ellipse id="Ellipse 327_8" cx="4.0002" cy="3.99982" rx="4.0002" ry="3.99982" transform="matrix(0.999667 0.0237872 -0.0223606 0.999796 623.806 203)" fill="#AFA089"></ellipse>
<ellipse id="Ellipse 328_8" cx="4" cy="4.00001" rx="4" ry="4.00001" transform="matrix(1 -2.17511e-09 -0.0006948 0.999997 635.743 203.371)" fill="#AFA089"></ellipse>
<path id="Line 656_8" d="M622.01 206.458L645.003 207.002" stroke="#AFA089"></path>
</g>
<text id="SD19_WS_TEXT" transform="matrix(0.99999 0 0.000990259 1.00001 620.006 189)" fill="white" xml:space="preserve" style="white-space: pre" font-family="Open Sans" font-size="10" letter-spacing="0em"><tspan x="0" y="10.8794">SD19</tspan></text>
</g>
<!-- <g id="ALH5_WS_SD20">
<g id="SD20_WS">
<ellipse id="Ellipse 327_9" cx="4.0002" cy="3.99982" rx="4.0002" ry="3.99982" transform="matrix(0.999667 0.0237872 -0.0223606 0.999796 991.806 203)" fill="#AFA089"></ellipse>
<ellipse id="Ellipse 328_9" cx="4" cy="4.00001" rx="4" ry="4.00001" transform="matrix(1 -2.17511e-09 -0.0006948 0.999997 1003.74 203.371)" fill="#AFA089"></ellipse>
<path id="Line 656_9" d="M990.01 206.458L1013 207.002" stroke="#AFA089"></path>
</g>
<text id="SD20_WS_TEXT" transform="matrix(0.99999 0 0.000990259 1.00001 988.006 189)" fill="white" xml:space="preserve" style="white-space: pre" font-family="Open Sans" font-size="10" letter-spacing="0em"><tspan x="0" y="10.8794">SD20</tspan></text>
</g> -->
<!-- <g id="ALH5_WS_SD20_2">
<g id="SD20_WS_2">
<ellipse id="Ellipse 327_10" cx="4.0002" cy="3.99982" rx="4.0002" ry="3.99982" transform="matrix(0.999667 0.0237872 -0.0223606 0.999796 989.8 284)" fill="#AFA089"></ellipse>
<ellipse id="Ellipse 328_10" cx="4" cy="4.00001" rx="4" ry="4.00001" transform="matrix(1 -2.17511e-09 -0.0006948 0.999997 1001.74 284.371)" fill="#AFA089"></ellipse>
<path id="Line 656_10" d="M988.003 287.458L1011 288.002" stroke="#AFA089"></path>
</g>
<text id="SD20_WS_TEXT_2" transform="matrix(0.99999 0 0.000990259 1.00001 988 292)" fill="white" xml:space="preserve" style="white-space: pre" font-family="Open Sans" font-size="10" letter-spacing="0em"><tspan x="0" y="10.8794">SU01</tspan></text>
</g> -->
<!-- <g id="ALH5_WS_BU01">
<g id="BU01_WS">
<ellipse id="Ellipse 327_11" cx="4.0002" cy="3.99982" rx="4.0002" ry="3.99982" transform="matrix(0.999667 0.0237872 -0.0223606 0.999796 990.8 330)" fill="#AFA089"></ellipse>
<ellipse id="Ellipse 328_11" cx="4" cy="4.00001" rx="4" ry="4.00001" transform="matrix(1 -2.17511e-09 -0.0006948 0.999997 1002.74 330.371)" fill="#AFA089"></ellipse>
<path id="Line 656_11" d="M989.003 333.458L1012 334.002" stroke="#AFA089"></path>
</g>
<text id="BU01_WS_TEXT" transform="matrix(0.99999 0 0.000990262 1.00001 987 316)" fill="white" xml:space="preserve" style="white-space: pre" font-family="Open Sans" font-size="10" letter-spacing="0em"><tspan x="0" y="10.8794">BU01</tspan></text>
</g> -->
<g id="ALH5_WS_BU02">
<g id="BU02_WS">
<ellipse id="Ellipse 327_12" cx="4.0002" cy="3.99982" rx="4.0002" ry="3.99982" transform="matrix(0.999667 0.0237872 -0.0223606 0.999796 804.8 330)" fill="#AFA089"></ellipse>
<ellipse id="Ellipse 328_12" cx="4" cy="4.00001" rx="4" ry="4.00001" transform="matrix(1 -2.17511e-09 -0.0006948 0.999997 816.736 330.371)" fill="#AFA089"></ellipse>
<path id="Line 656_12" d="M803.003 333.458L825.328 333.986" stroke="#AFA089"></path>
</g>
<text id="BU02_WS_TEXT" transform="matrix(0.99999 0 0.000990262 1.00001 801 316)" fill="white" xml:space="preserve" style="white-space: pre" font-family="Open Sans" font-size="10" letter-spacing="0em"><tspan x="0" y="10.8794">BU02</tspan></text>
</g>
<g id="ALH5_WS_BU03">
<g id="BU03_WS">
<ellipse id="Ellipse 327_13" cx="4.0002" cy="3.99982" rx="4.0002" ry="3.99982" transform="matrix(0.999667 0.0237872 -0.0223606 0.999796 755.8 330)" fill="#AFA089"></ellipse>
<ellipse id="Ellipse 328_13" cx="4" cy="4.00001" rx="4" ry="4.00001" transform="matrix(1 -2.17511e-09 -0.0006948 0.999997 767.736 330.371)" fill="#AFA089"></ellipse>
<path id="Line 656_13" d="M754.003 333.458L776.997 334.002" stroke="#AFA089"></path>
</g>
<text id="BU03_WS_TEXT" transform="matrix(0.99999 0 0.000990262 1.00001 752 316)" fill="white" xml:space="preserve" style="white-space: pre" font-family="Open Sans" font-size="10" letter-spacing="0em"><tspan x="0" y="10.8794">BU03</tspan></text>
</g>
<g id="ALH5_WS_BU04">
<g id="BU04_WS">
<ellipse id="Ellipse 327_14" cx="4.0002" cy="3.99982" rx="4.0002" ry="3.99982" transform="matrix(0.999667 0.0237872 -0.0223606 0.999796 656.8 330)" fill="#AFA089"></ellipse>
<ellipse id="Ellipse 328_14" cx="4" cy="4.00001" rx="4" ry="4.00001" transform="matrix(1 -2.17511e-09 -0.0006948 0.999997 668.736 330.371)" fill="#AFA089"></ellipse>
<path id="Line 656_14" d="M655.003 333.458L677.997 334.002" stroke="#AFA089"></path>
</g>
<text id="BU04_WS_TEXT" transform="matrix(0.99999 0 0.000990263 1.00001 653 316)" fill="white" xml:space="preserve" style="white-space: pre" font-family="Open Sans" font-size="10" letter-spacing="0em"><tspan x="0" y="10.8794">BU04</tspan></text>
</g>
<g id="ALH5_WS_BU05">
<g id="BU05_WS">
<ellipse id="Ellipse 327_15" cx="4.0002" cy="3.99982" rx="4.0002" ry="3.99982" transform="matrix(0.999667 0.0237872 -0.0223606 0.999796 605.799 330)" fill="#AFA089"></ellipse>
<ellipse id="Ellipse 328_15" cx="4" cy="4.00001" rx="4" ry="4.00001" transform="matrix(1 -2.17511e-09 -0.0006948 0.999997 617.736 330.371)" fill="#AFA089"></ellipse>
<path id="Line 656_15" d="M604.003 333.458L626.996 334.002" stroke="#AFA089"></path>
</g>
<text id="BU05_WS_TEXT" transform="matrix(0.99999 0 0.000990262 1.00001 603 316)" fill="white" xml:space="preserve" style="white-space: pre" font-family="Open Sans" font-size="10" letter-spacing="0em"><tspan x="0" y="10.8794">BU05</tspan></text>
</g>
<g id="ALH5_WS_BU06">
<g id="BU06_WS">
<ellipse id="Ellipse 327_16" cx="4.0002" cy="3.99982" rx="4.0002" ry="3.99982" transform="matrix(0.999667 0.0237872 -0.0223606 0.999796 452.8 330)" fill="#AFA089"></ellipse>
<ellipse id="Ellipse 328_16" cx="4" cy="4.00001" rx="4" ry="4.00001" transform="matrix(1 -2.17511e-09 -0.0006948 0.999997 464.736 330.371)" fill="#AFA089"></ellipse>
<path id="Line 656_16" d="M451.003 333.458L473.997 334.002" stroke="#AFA089"></path>
</g>
<text id="BU06_WS_TEXT" transform="matrix(0.99999 0 0.000990263 1.00001 449 316)" fill="white" xml:space="preserve" style="white-space: pre" font-family="Open Sans" font-size="10" letter-spacing="0em"><tspan x="0" y="10.8794">BU06</tspan></text>
</g>
<g id="ALH5_WS_BU07">
<g id="BU07_WS">
<ellipse id="Ellipse 327_17" cx="4.0002" cy="3.99982" rx="4.0002" ry="3.99982" transform="matrix(0.999667 0.0237872 -0.0223606 0.999796 399.8 330)" fill="#AFA089"></ellipse>
<ellipse id="Ellipse 328_17" cx="4" cy="4.00001" rx="4" ry="4.00001" transform="matrix(1 -2.17511e-09 -0.0006948 0.999997 411.736 330.371)" fill="#AFA089"></ellipse>
<path id="Line 656_17" d="M398.003 333.458L420.997 334.002" stroke="#D9D9D9"></path>
</g>
<text id="BU07_WS_TEXT" transform="matrix(0.99999 0 0.000990263 1.00001 397 316)" fill="white" xml:space="preserve" style="white-space: pre" font-family="Open Sans" font-size="10" letter-spacing="0em"><tspan x="0" y="10.8794">BU07</tspan></text>
</g>
<!-- <g id="ALH5_WS_BU08">
<g id="BU08_WS">
<ellipse id="Ellipse 327_18" cx="4.0002" cy="3.99982" rx="4.0002" ry="3.99982" transform="matrix(0.999667 0.0237872 -0.0223606 0.999796 261.794 329.861)" fill="#AFA089"></ellipse>
<ellipse id="Ellipse 328_18" cx="4" cy="4.00001" rx="4" ry="4.00001" transform="matrix(1 -2.17511e-09 -0.0006948 0.999997 273.73 330.232)" fill="#AFA089"></ellipse>
<path id="Line 656_18" d="M259.998 333.319L282.991 333.863" stroke="#D9D9D9"></path>
</g>
<text id="BU08_WS_TEXT" transform="matrix(0.99999 0 0.000990263 1.00001 258 316)" fill="white" xml:space="preserve" style="white-space: pre" font-family="Open Sans" font-size="10" letter-spacing="0em"><tspan x="0" y="10.8794">BU08</tspan></text>
</g> -->
<g id="ALH5_WS_SU02">
<g id="SU02_WS">
<ellipse id="Ellipse 327_19" cx="4.0002" cy="3.99982" rx="4.0002" ry="3.99982" transform="matrix(0.999667 0.0237872 -0.0223606 0.999796 614.8 284)" fill="#AFA089"></ellipse>
<ellipse id="Ellipse 328_19" cx="4" cy="4.00001" rx="4" ry="4.00001" transform="matrix(1 -2.17511e-09 -0.0006948 0.999997 626.737 284.371)" fill="#AFA089"></ellipse>
<path id="Line 656_19" d="M613.004 287.458L635.997 288.002" stroke="#D9D9D9"></path>
</g>
<text id="SU02_WS_TEXT" transform="matrix(0.99999 0 0.000990259 1.00001 612 292)" fill="white" xml:space="preserve" style="white-space: pre" font-family="Open Sans" font-size="10" letter-spacing="0em"><tspan x="0" y="10.8794">SU02</tspan></text>
</g>
<g id="ALH5_WS_SU03">
<g id="SU03_WS">
<ellipse id="Ellipse 327_20" cx="4.0002" cy="3.99982" rx="4.0002" ry="3.99982" transform="matrix(0.999667 0.0237872 -0.0223606 0.999796 549.8 284)" fill="#AFA089"></ellipse>
<ellipse id="Ellipse 328_20" cx="4" cy="4.00001" rx="4" ry="4.00001" transform="matrix(1 -2.17511e-09 -0.0006948 0.999997 561.736 284.371)" fill="#AFA089"></ellipse>
<path id="Line 656_20" d="M548.003 287.458L570.997 288.002" stroke="#D9D9D9"></path>
</g>
<text id="SU03_WS_TEXT" transform="matrix(0.99999 0 0.000990259 1.00001 546 292)" fill="white" xml:space="preserve" style="white-space: pre" font-family="Open Sans" font-size="10" letter-spacing="0em"><tspan x="0" y="10.8794">SU03</tspan></text>
</g>
<!-- <g id="ALH5_WS_SU03_2">
<g id="SU03_WS_2">
<ellipse id="Ellipse 327_21" cx="4.0002" cy="3.99982" rx="4.0002" ry="3.99982" transform="matrix(0.999667 0.0237872 -0.0223606 0.999796 261.49 284)" fill="#AFA089"></ellipse>
<ellipse id="Ellipse 328_21" cx="4" cy="4.00001" rx="4" ry="4.00001" transform="matrix(1 -2.17511e-09 -0.0006948 0.999997 273.427 284.371)" fill="#AFA089"></ellipse>
<path id="Line 656_21" d="M259.694 287.458L282.687 288.002" stroke="#D9D9D9"></path>
</g>
<text id="SU03_WS_TEXT_2" transform="matrix(0.99999 0 0.000990259 1.00001 258.018 292.139)" fill="white" xml:space="preserve" style="white-space: pre" font-family="Open Sans" font-size="10" letter-spacing="0em"><tspan x="0" y="10.8794">SU03</tspan></text>
</g> -->
<g id="ALH5_WS_BD34">
<g id="BD34_WS">
<ellipse id="Ellipse 327_22" cx="4.0002" cy="3.99982" rx="4.0002" ry="3.99982" transform="matrix(-0.99995 3.38111e-10 -0.00142933 -1.00004 587.387 166.412)" fill="#AFA089"></ellipse>
<ellipse id="Ellipse 328_22" cx="4" cy="4.00001" rx="4" ry="4.00001" transform="matrix(-0.999717 0.0237884 -0.0230938 -0.99973 575.445 166.325)" fill="#AFA089"></ellipse>
<path id="Line 656_22" d="M589.1 162.912L566.1 162.915" stroke="#D9D9D9"></path>
</g>
<text id="BD34_WS_TEXT" transform="matrix(0.99999 0 0.00099026 1.00001 565 167)" fill="white" xml:space="preserve" style="white-space: pre" font-family="Open Sans" font-size="10" letter-spacing="0em"><tspan x="0" y="10.8794">BD34</tspan></text>
</g>
<g id="ALH5_WS_BD35">
<g id="BD35_WS">
<ellipse id="Ellipse 327_23" cx="4.0002" cy="3.99982" rx="4.0002" ry="3.99982" transform="matrix(-0.99995 3.38111e-10 -0.00142933 -1.00004 642.387 166.411)" fill="#AFA089"></ellipse>
<ellipse id="Ellipse 328_23" cx="4" cy="4.00001" rx="4" ry="4.00001" transform="matrix(-0.999717 0.0237884 -0.0230938 -0.99973 630.445 166.325)" fill="#AFA089"></ellipse>
<path id="Line 656_23" d="M644.101 162.911L621.101 162.915" stroke="#D9D9D9"></path>
</g>
<text id="BD35_WS_TEXT" transform="matrix(0.99999 0 0.00099026 1.00001 620 167)" fill="white" xml:space="preserve" style="white-space: pre" font-family="Open Sans" font-size="10" letter-spacing="0em"><tspan x="0" y="10.8794">BD35</tspan></text>
</g>
<g id="ALH5_WS_BD36">
<g id="BD36_WS">
<ellipse id="Ellipse 327_24" cx="4.0002" cy="3.99982" rx="4.0002" ry="3.99982" transform="matrix(-0.99995 3.38111e-10 -0.00142933 -1.00004 739.387 166.411)" fill="#AFA089"></ellipse>
<ellipse id="Ellipse 328_24" cx="4" cy="4.00001" rx="4" ry="4.00001" transform="matrix(-0.999717 0.0237884 -0.0230938 -0.99973 727.445 166.325)" fill="#AFA089"></ellipse>
<path id="Line 656_24" d="M741.101 162.911L718.101 162.915" stroke="#D9D9D9"></path>
</g>
<text id="BD36_WS_TEXT" transform="matrix(0.99999 0 0.00099026 1.00001 717 167)" fill="white" xml:space="preserve" style="white-space: pre" font-family="Open Sans" font-size="10" letter-spacing="0em"><tspan x="0" y="10.8794">BD36</tspan></text>
</g>
<g id="ALH5_WS_BD37">
<g id="BD37_WS">
<ellipse id="Ellipse 327_25" cx="4.0002" cy="3.99982" rx="4.0002" ry="3.99982" transform="matrix(-0.99995 3.38111e-10 -0.00142933 -1.00004 793.387 166.411)" fill="#AFA089"></ellipse>
<ellipse id="Ellipse 328_25" cx="4" cy="4.00001" rx="4" ry="4.00001" transform="matrix(-0.999717 0.0237884 -0.0230938 -0.99973 781.445 166.325)" fill="#AFA089"></ellipse>
<path id="Line 656_25" d="M795.101 162.911L772.101 162.915" stroke="#D9D9D9"></path>
</g>
<text id="BD37_WS_TEXT" transform="matrix(0.99999 0 0.00099026 1.00001 771 167)" fill="white" xml:space="preserve" style="white-space: pre" font-family="Open Sans" font-size="10" letter-spacing="0em"><tspan x="0" y="10.8794">BD37</tspan></text>
</g>
<!-- <g id="ALH5_WS_D03">
<g id="D03_WS">
<ellipse id="Ellipse 327_26" cx="4.0002" cy="3.99982" rx="4.0002" ry="3.99982" transform="matrix(-0.99995 3.38111e-10 -0.00142933 -1.00004 1010.39 166.411)" fill="#AFA089"></ellipse>
<ellipse id="Ellipse 328_26" cx="4" cy="4.00001" rx="4" ry="4.00001" transform="matrix(-0.999717 0.0237884 -0.0230938 -0.99973 998.445 166.325)" fill="#AFA089"></ellipse>
<path id="Line 656_26" d="M1012.1 162.911L989.1 162.915" stroke="#D9D9D9"></path>
</g>
<text id="D03_WS_TEXT" transform="matrix(0.99999 0 0.00099026 1.00001 991 167)" fill="white" xml:space="preserve" style="white-space: pre" font-family="Open Sans" font-size="10" letter-spacing="0em"><tspan x="0" y="10.8794">D03</tspan></text>
</g> -->
<g id="ALH5_SG_A2131">
<circle id="ALH5_SG_A2131_ASPECT4" cx="356.5" cy="373.5" r="8.25" stroke="white" stroke-width="0.5"></circle>
<circle id="ALH5_SG_A2131_ASPECT3" cx="373.5" cy="373.5" r="8.25" stroke="white" stroke-width="0.5"></circle>
<circle id="ALH5_SG_A2131_ASPECT2" cx="390.5" cy="373.5" r="8.25" stroke="white" stroke-width="0.5"></circle>
<circle id="ALH5_SG_A2131_ASPECT1" cx="407.5" cy="373.5" r="8.25" stroke="white" stroke-width="0.5"></circle>
<path id="Line 390" d="M416 373H424" stroke="white" stroke-width="0.5"></path>
<line id="Line 388" x1="424.625" y1="365" x2="424.625" y2="382" stroke="white" stroke-width="1.25"></line>
</g>
<g id="ALH5_SG_A2133">
<circle id="ALH5_SG_A2133_ASPECT4" cx="563.5" cy="373.5" r="8.25" stroke="white" stroke-width="0.5"></circle>
<circle id="ALH5_SG_A2133_ASPECT3" cx="580.5" cy="373.5" r="8.25" stroke="white" stroke-width="0.5"></circle>
<circle id="ALH5_SG_A2133_ASPECT2" cx="597.5" cy="373.5" r="8.25" stroke="white" stroke-width="0.5"></circle>
<circle id="ALH5_SG_A2133_ASPECT1" cx="614.5" cy="373.5" r="8.25" stroke="white" stroke-width="0.5"></circle>
<path id="Line 390_2" d="M623 373H631" stroke="white" stroke-width="0.5"></path>
<line id="Line 388_2" x1="631.625" y1="365" x2="631.625" y2="382" stroke="white" stroke-width="1.25"></line>
</g>
<g id="ALH5_SG_A2135">
<circle id="ALH5_SG_A2135_ASPECT4" cx="713.5" cy="373.5" r="8.25" stroke="white" stroke-width="0.5"></circle>
<circle id="ALH5_SG_A2135_ASPECT3" cx="730.5" cy="373.5" r="8.25" stroke="white" stroke-width="0.5"></circle>
<circle id="ALH5_SG_A2135_ASPECT2" cx="747.5" cy="373.5" r="8.25" stroke="white" stroke-width="0.5"></circle>
<circle id="ALH5_SG_A2135_ASPECT1" cx="764.5" cy="373.5" r="8.25" stroke="white" stroke-width="0.5"></circle>
<path id="Line 390_3" d="M773 373H781" stroke="white" stroke-width="0.5"></path>
<line id="Line 388_3" x1="781.625" y1="365" x2="781.625" y2="382" stroke="white" stroke-width="1.25"></line>
</g>
<g id="ALH5_SG_A2102">
<circle id="ALH5_SG_A2102_ASPECT4" cx="8.5" cy="8.5" r="8.25" transform="matrix(-1 0 0 1 840 115)" stroke="white" stroke-width="0.5"></circle>
<circle id="ALH5_SG_A2102_ASPECT3" cx="8.5" cy="8.5" r="8.25" transform="matrix(-1 0 0 1 822.997 115)" stroke="white" stroke-width="0.5"></circle>
<circle id="ALH5_SG_A2102_ASPECT2" cx="8.5" cy="8.5" r="8.25" transform="matrix(-1 0 0 1 806 115)" stroke="white" stroke-width="0.5"></circle>
<circle id="ALH5_SG_A2102_ASPECT1" cx="8.5" cy="8.5" r="8.25" transform="matrix(-1 0 0 1 789 115)" stroke="white" stroke-width="0.5"></circle>
<path id="Line 399" d="M772 123H764" stroke="white" stroke-width="0.5"></path>
<line id="Line 397" y1="-0.625" x2="17" y2="-0.625" transform="matrix(0 1 1 0 764 115)" stroke="white" stroke-width="1.25"></line>
</g>
<g id="ALH5_SG_A2104">
<circle id="ALH5_SG_A2104_ASPECT4" cx="8.5" cy="8.5" r="8.25" transform="matrix(-1 0 0 1 686 115)" stroke="white" stroke-width="0.5"></circle>
<circle id="ALH5_SG_A2104_ASPECT3" cx="8.5" cy="8.5" r="8.25" transform="matrix(-1 0 0 1 668.997 115)" stroke="white" stroke-width="0.5"></circle>
<circle id="ALH5_SG_A2104_ASPECT2" cx="8.5" cy="8.5" r="8.25" transform="matrix(-1 0 0 1 652 115)" stroke="white" stroke-width="0.5"></circle>
<circle id="ALH5_SG_A2104_ASPECT1" cx="8.5" cy="8.5" r="8.25" transform="matrix(-1 0 0 1 635 115)" stroke="white" stroke-width="0.5"></circle>
<path id="Line 399_2" d="M618 123H610" stroke="white" stroke-width="0.5"></path>
<line id="Line 397_2" y1="-0.625" x2="17" y2="-0.625" transform="matrix(0 1 1 0 610 115)" stroke="white" stroke-width="1.25"></line>
</g>
<g id="ALH5_SG_A2106">
<circle id="ALH5_SG_A2106_ASPECT4" cx="8.5" cy="8.5" r="8.25" transform="matrix(-1 0 0 1 490 115)" stroke="white" stroke-width="0.5"></circle>
<circle id="ALH5_SG_A2106_ASPECT3" cx="8.5" cy="8.5" r="8.25" transform="matrix(-1 0 0 1 472.997 115)" stroke="white" stroke-width="0.5"></circle>
<circle id="ALH5_SG_A2106_ASPECT2" cx="8.5" cy="8.5" r="8.25" transform="matrix(-1 0 0 1 456 115)" stroke="white" stroke-width="0.5"></circle>
<circle id="ALH5_SG_A2106_ASPECT1" cx="8.5" cy="8.5" r="8.25" transform="matrix(-1 0 0 1 439 115)" stroke="white" stroke-width="0.5"></circle>
<path id="Line 399_3" d="M422 123H414" stroke="white" stroke-width="0.5"></path>
<line id="Line 397_3" y1="-0.625" x2="17" y2="-0.625" transform="matrix(0 1 1 0 414 115)" stroke="white" stroke-width="1.25"></line>
</g>
<g id="UP MARK">
<text id="UP" fill="#47C4EB" stroke="white" xml:space="preserve" style="white-space: pre" font-family="Open Sans" font-size="15" letter-spacing="0em"><tspan x="282.017" y="421.819">UP</tspan></text>
<path id="Arrow 1" d="M240.646 415.646C240.451 415.842 240.451 416.158 240.646 416.354L243.828 419.536C244.024 419.731 244.34 419.731 244.536 419.536C244.731 419.34 244.731 419.024 244.536 418.828L241.707 416L244.536 413.172C244.731 412.976 244.731 412.66 244.536 412.464C244.34 412.269 244.024 412.269 243.828 412.464L240.646 415.646ZM270 415.5H241V416.5H270V415.5Z" fill="white"></path>
</g>
<g id="DN MARK">
<text id="DN" fill="#47C4EB" stroke="white" xml:space="preserve" style="white-space: pre" font-family="Open Sans" font-size="15" letter-spacing="0em"><tspan x="241" y="81.8191">DN</tspan></text>
<path id="Arrow 2" d="M302.354 76.3536C302.549 76.1583 302.549 75.8417 302.354 75.6464L299.172 72.4645C298.976 72.2692 298.66 72.2692 298.464 72.4645C298.269 72.6597 298.269 72.9763 298.464 73.1716L301.293 76L298.464 78.8284C298.269 79.0237 298.269 79.3403 298.464 79.5355C298.66 79.7308 298.976 79.7308 299.172 79.5355L302.354 76.3536ZM273 76.5H302V75.5H273V76.5Z" fill="white"></path>
</g>
<text id="ALH5 (NEW ATELI)" fill="#47C4EB" stroke="white" xml:space="preserve" style="white-space: pre" font-family="Open Sans" font-size="20" letter-spacing="0em"><tspan x="537" y="69.2588">ALH5 (NEW ATELI)</tspan></text>
</g>
</svg>