<svg width="1366" height="687" viewBox="0 0 1366 687" fill="none" xmlns="http://www.w3.org/2000/svg">
	<g id="ALH 004">
		<rect width="1366" height="687" fill="black">
		</rect>
		<g id="ICDMXT_LINE">
			<path id="Line 587" d="M584.2 418.975H711.2" stroke="#6B7280" stroke-width="4">
			</path>
		</g>
		<text id="ALH4 (NEW ATELI)" fill="#47C4EB" stroke="white" font-family="Open Sans" font-size="20" letter-spacing="0em">
			<tspan x="548" y="70.2588">
				ALH4 (NEW ATELI)
			</tspan>
		</text>
		<path id="PM_239A_Reverse" d="M492.384 426L512.884 483.5" stroke="white" stroke-width="2.5">
		</path>
		<path id="PM_239A_REVERSE" d="M463 419H489.897L515 490H541" stroke="#6B7280" stroke-width="3">
		</path>
		<g id="TRACK_SECTION">
			<path id="2022XT_LINE" d="M808.5 138H983" stroke="#6B7280" stroke-width="4">
			</path>
			<path id="2022XT_2020XT_LINE" d="M156 199H1211.5" stroke="#6B7280" stroke-width="4" stroke-dasharray="3 3">
			</path>
			<path id="2001XT_SUP_LINE" d="M159 248H328.5" stroke="#6B7280" stroke-width="4" stroke-dasharray="3 3">
			</path>
			<path id="2005XT_LINE" d="M817 309L1213.5 309" stroke="#6B7280" stroke-width="4">
			</path>
			<path id="2003XT_LINE" d="M329 309L814 309" stroke="#6B7280" stroke-width="4">
			</path>
			<path id="2005XT_2003XT_LINE" d="M337.5 248H1213.5" stroke="#6B7280" stroke-width="4" stroke-dasharray="3 3">
			</path>
			<path id="2024XT_LINE" d="M158.5 138H807.5" stroke="#6B7280" stroke-width="4">
			</path>
			<path id="2001XT_LINE" d="M158 309H327.5" stroke="#6B7280" stroke-width="4">
			</path>
			<path id="17XT_LINE" d="M388 419H460" stroke="#6B7280" stroke-width="4">
			</path>
			<path id="20XT_LINE" d="M159 419L383 419" stroke="#6B7280" stroke-width="4">
			</path>
			<path id="C20XT_LINE" d="M174 436H319" stroke="#6B7280" stroke-width="4" stroke-dasharray="3 3">
			</path>
			<path id="237BXT_LINE" d="M715 419L959 419" stroke="#6B7280" stroke-width="4">
			</path>
			<path id="2020XT_LINE" d="M987.5 138L1211 138" stroke="#6B7280" stroke-width="4">
			</path>
			<g id="ICDLXT_LINE">
				<path id="Line 600" d="M456.6 489.887L708.8 489.887" stroke="#6B7280" stroke-width="4">
				</path>
			</g>
			<g id="237AXT_LINE">
				<path id="237AXT_LINE_2" d="M713 489.655H816.388" stroke="#6B7280" stroke-width="4">
				</path>
				<path id="Line 630" d="M818.08 502L825.465 489.931H963.312" stroke="#6B7280" stroke-width="4">
				</path>
			</g>
			<path id="239AXT_LINE" d="M463 419L581 419" stroke="#6B7280" stroke-width="4">
			</path>
		</g>
		<text id="2022XT_2020XT" fill="#47C4EB" font-family="Open Sans" font-size="10" letter-spacing="0em">
			<tspan x="999" y="215.879">
				2022XT_2020XT
			</tspan>
		</text>
		<text id="2005XT_2003XT" fill="#47C4EB" font-family="Open Sans" font-size="10" letter-spacing="0em">
			<tspan x="668" y="241.879">
				2005XT_2003XT
			</tspan>
		</text>
		<text id="2AXT_2024XT" fill="#47C4EB" font-family="Open Sans" font-size="10" letter-spacing="0em">
			<tspan x="467" y="214.879">
				2AXT_2024XT
			</tspan>
		</text>
		<text id="2001XT_SUP" fill="#47C4EB" font-family="Open Sans" font-size="10" letter-spacing="0em">
			<tspan x="214" y="238.879">
				2001XT_SUP
			</tspan>
		</text>
		<g id="SIGNAL">
			<g id="ALH4_SG_A2020">
				<circle id="ALH4_SG_A2020_ASPECT4" cx="5.5" cy="5.5" r="5.25" transform="matrix(-1 0 0 1 1044.7 105)" stroke="white" stroke-width="0.5">
				</circle>
				<circle id="ALH4_SG_A2020_ASPECT3" cx="5.5" cy="5.5" r="5.25" transform="matrix(-1 0 0 1 1033.7 105)" stroke="white" stroke-width="0.5">
				</circle>
				<circle id="ALH4_SG_A2020_ASPECT2" cx="5.5" cy="5.5" r="5.25" transform="matrix(-1 0 0 1 1022.7 105)" stroke="white" stroke-width="0.5">
				</circle>
				<circle id="ALH4_SG_A2020_ASPECT1" cx="5.5" cy="5.5" r="5.25" transform="matrix(-1 0 0 1 1011.7 105)" stroke="white" stroke-width="0.5">
				</circle>
				<path id="Line 411" d="M1001 110.75H997" stroke="white" stroke-width="0.5">
				</path>
				<line id="Line 409" y1="-0.625" x2="11" y2="-0.625" transform="matrix(0 1 1 0 997.7 105)" stroke="white" stroke-width="1.25">
				</line>
			</g>
			<g id="ALH4_SG_A2022">
				<circle id="ALH4_SG_A2022_ASPECT1" cx="825.5" cy="110.5" r="5.25" stroke="white" stroke-width="0.5">
				</circle>
				<circle id="ALH4_SG_A2022_ASPECT2" cx="836.5" cy="110.5" r="5.25" stroke="white" stroke-width="0.5">
				</circle>
				<circle id="ALH4_SG_A2022_ASPECT3" cx="847.5" cy="110.5" r="5.25" stroke="white" stroke-width="0.5">
				</circle>
				<circle id="ALH4_SG_A2022_ASPECT4" cx="858.5" cy="110.5" r="5.25" stroke="white" stroke-width="0.5">
				</circle>
				<line id="Line 658" x1="816" y1="110.75" x2="820" y2="110.75" stroke="white" stroke-width="0.5">
				</line>
				<line id="Line 656" x1="815.5" y1="116" x2="815.5" y2="105" stroke="white">
				</line>
			</g>
			<g id="ALH4_SG_A2001">
				<circle id="ALH4_SG_A2001_ASPECT1" cx="306.5" cy="336.5" r="5.25" transform="rotate(-180 306.5 336.5)" stroke="white" stroke-width="0.5">
				</circle>
				<circle id="ALH4_SG_A2001_ASPECT2" cx="295.5" cy="336.5" r="5.25" transform="rotate(-180 295.5 336.5)" stroke="white" stroke-width="0.5">
				</circle>
				<circle id="ALH4_SG_A2001_ASPECT3" cx="284.5" cy="336.5" r="5.25" transform="rotate(-180 284.5 336.5)" stroke="white" stroke-width="0.5">
				</circle>
				<circle id="ALH4_SG_A2001_ASPECT4" cx="273.5" cy="336.5" r="5.25" transform="rotate(-180 273.5 336.5)" stroke="white" stroke-width="0.5">
				</circle>
				<line id="Line 662" x1="316.5" y1="331" x2="316.5" y2="342" stroke="white">
				</line>
				<path id="Line 664" d="M316 336.25H312" stroke="white" stroke-width="0.5">
				</path>
			</g>
			<g id="ALH4_SG_A2024">
				<circle id="ALH4_SG_A2024_ASPECT1" cx="291.5" cy="110.5" r="5.25" stroke="white" stroke-width="0.5">
				</circle>
				<circle id="ALH4_SG_A2024_ASPECT2" cx="302.5" cy="110.5" r="5.25" stroke="white" stroke-width="0.5">
				</circle>
				<circle id="ALH4_SG_A2024_ASPECT3" cx="313.5" cy="110.5" r="5.25" stroke="white" stroke-width="0.5">
				</circle>
				<circle id="ALH4_SG_A2024_ASPECT4" cx="324.5" cy="110.5" r="5.25" stroke="white" stroke-width="0.5">
				</circle>
				<line id="Line 661" x1="282" y1="110.75" x2="286" y2="110.75" stroke="white" stroke-width="0.5">
				</line>
				<line id="Line 659" x1="281.5" y1="116" x2="281.5" y2="105" stroke="white">
				</line>
			</g>
			<g id="ALH4_SG_A2005">
				<circle id="ALH4_SG_A2005_ASPECT4" cx="5.5" cy="5.5" r="5.25" transform="matrix(1 0 0 -1 1155 342)" stroke="white" stroke-width="0.5">
				</circle>
				<circle id="ALH4_SG_A2005_ASPECT3" cx="5.5" cy="5.5" r="5.25" transform="matrix(1 0 0 -1 1166 342)" stroke="white" stroke-width="0.5">
				</circle>
				<circle id="ALH4_SG_A2005_ASPECT2" cx="5.5" cy="5.5" r="5.25" transform="matrix(1 0 0 -1 1177 342)" stroke="white" stroke-width="0.5">
				</circle>
				<circle id="ALH4_SG_A2005_ASPECT1" cx="5.5" cy="5.5" r="5.25" transform="matrix(1 0 0 -1 1188 342)" stroke="white" stroke-width="0.5">
				</circle>
				<line id="Line 419" y1="-0.25" x2="4" y2="-0.25" transform="matrix(-1 0 0 1 1203 337)" stroke="white" stroke-width="0.5">
				</line>
				<line id="Line 417" y1="-0.625" x2="14" y2="-0.625" transform="matrix(0 1 1 0 1204 330)" stroke="white" stroke-width="1.25">
				</line>
			</g>
		</g>
		<path id="PM_237B_Reverse" d="M786.795 424.342L758 483.922" stroke="white" stroke-width="2.5">
		</path>
		<path id="PM_237A_REVERSE" d="M810 419.5L789 419.5L755 489.5L731.5 489.5" stroke="#6B7280" stroke-width="2.5">
		</path>
		<g id="ALH4_SG_A2003">
			<circle id="ALH4_SG_A2003_ASPECT1" cx="798.85" cy="336.5" r="5.25" transform="rotate(-180 798.85 336.5)" stroke="white" stroke-width="0.5">
			</circle>
			<circle id="ALH4_SG_A2003_ASPECT2" cx="788.4" cy="336.5" r="5.25" transform="rotate(-180 788.4 336.5)" stroke="white" stroke-width="0.5">
			</circle>
			<circle id="ALH4_SG_A2003_ASPECT3" cx="777.95" cy="336.5" r="5.25" transform="rotate(-180 777.95 336.5)" stroke="white" stroke-width="0.5">
			</circle>
			<circle id="ALH4_SG_A2003_ASPECT4" cx="767.5" cy="336.5" r="5.25" transform="rotate(-180 767.5 336.5)" stroke="white" stroke-width="0.5">
			</circle>
			<line id="Line 450" x1="809.85" y1="330" x2="809.85" y2="343" stroke="white">
			</line>
			<line id="Line 452" x1="809.35" y1="336.25" x2="804.35" y2="336.25" stroke="white" stroke-width="0.5">
			</line>
		</g>
		<circle id="ALH4_PM_239A" cx="504.5" cy="407.5" r="3.25" stroke="white" stroke-width="0.5">
		</circle>
		<g id="Group 297">
			<line id="Line 275" y1="-0.25" x2="7.79345" y2="-0.25" transform="matrix(0.629863 -0.776706 0.755103 0.655607 494 419.053)" stroke="white" stroke-width="0.5">
			</line>
			<line id="Line 276" y1="-0.25" x2="7.34774" y2="-0.25" transform="matrix(0.629863 -0.776706 0.755103 0.655607 499.4 418.707)" stroke="white" stroke-width="0.5">
			</line>
			<line id="Line 277" y1="-0.25" x2="7.34774" y2="-0.25" transform="matrix(0.629863 -0.776706 0.755103 0.655607 504.8 418.707)" stroke="white" stroke-width="0.5">
			</line>
		</g>
		<g id="Group 422">
			<path id="ALH4_PM_239B" d="M535.95 501.175C535.95 503.102 534.442 504.65 532.6 504.65C530.758 504.65 529.25 503.102 529.25 501.175C529.25 499.248 530.758 497.7 532.6 497.7C534.442 497.7 535.95 499.248 535.95 501.175Z" stroke="white" stroke-width="0.5">
			</path>
			<g id="Group 276">
				<line id="Line 275_2" y1="-0.25" x2="7.79345" y2="-0.25" transform="matrix(0.629863 -0.776706 0.755103 0.655607 529 496.053)" stroke="white" stroke-width="0.5">
				</line>
				<line id="Line 276_2" y1="-0.25" x2="7.34774" y2="-0.25" transform="matrix(0.629863 -0.776706 0.755103 0.655607 532.712 495.94)" stroke="white" stroke-width="0.5">
				</line>
				<line id="Line 277_2" y1="-0.25" x2="7.34774" y2="-0.25" transform="matrix(0.629863 -0.776706 0.755103 0.655607 536.221 496.254)" stroke="white" stroke-width="0.5">
				</line>
			</g>
		</g>
		<g id="TEXT">
			<text id="2001XT" fill="#47C4EB" font-family="Open Sans" font-size="10" letter-spacing="0em">
				<tspan x="225.4" y="324.879">
					2001XT
				</tspan>
			</text>
			<text id="A2001" fill="#47C4EB" font-family="Open Sans" font-size="10" letter-spacing="0em">
				<tspan x="282.4" y="352.879">
					A2001
				</tspan>
			</text>
			<text id="2003XT" fill="#47C4EB" font-family="Open Sans" font-size="10" letter-spacing="0em">
				<tspan x="539.4" y="324.879">
					2003XT
				</tspan>
			</text>
			<text id="2005XT" fill="#47C4EB" font-family="Open Sans" font-size="10" letter-spacing="0em">
				<tspan x="980.4" y="300.879">
					2005XT
				</tspan>
			</text>
			<text id="A2003" fill="#47C4EB" font-family="Open Sans" font-size="10" letter-spacing="0em">
				<tspan x="774" y="353.879">
					A2003
				</tspan>
			</text>
			<text id="C20XT" fill="#47C4EB" font-family="Open Sans" font-size="10" letter-spacing="0em">
				<tspan x="233.4" y="451.879">
					C20XT
				</tspan>
			</text>
			<text id="239AXT" fill="#47C4EB" font-family="Open Sans" font-size="10" letter-spacing="0em">
				<tspan x="601.4" y="462.879">
					239AXT
				</tspan>
			</text>
			<text id="S17" fill="#47C4EB" font-family="Open Sans" font-size="10" letter-spacing="0em">
				<tspan x="554.4" y="381.879">
					S17
				</tspan>
			</text>
			<text id="S15" fill="#47C4EB" font-family="Open Sans" font-size="10" letter-spacing="0em">
				<tspan x="587.4" y="534.879">
					S15
				</tspan>
			</text>
			<text id="239A" fill="#47C4EB" font-family="Open Sans" font-size="10" letter-spacing="0em">
				<tspan x="493.4" y="400.879">
					239A
				</tspan>
			</text>
			<text id="17XT" fill="#47C4EB" font-family="Open Sans" font-size="10" letter-spacing="0em">
				<tspan x="412.4" y="409.879">
					17XT
				</tspan>
			</text>
			<text id="239B" fill="#47C4EB" font-family="Open Sans" font-size="10" letter-spacing="0em">
				<tspan x="520.4" y="515.879">
					239B
				</tspan>
			</text>
			<text id="C20 / S20" fill="#47C4EB" font-family="Open Sans" font-size="10" letter-spacing="0em">
				<tspan x="222" y="381.879">
					C20 / S20
				</tspan>
			</text>
			<text id="20XT" fill="#47C4EB" font-family="Open Sans" font-size="10" letter-spacing="0em">
				<tspan x="244.4" y="409.879">
					20XT
				</tspan>
			</text>
			<text id="S19" fill="#47C4EB" font-family="Open Sans" font-size="10" letter-spacing="0em">
				<tspan x="351.4" y="463.879">
					S19
				</tspan>
			</text>
			<text id="237B" fill="#47C4EB" font-family="Open Sans" font-size="10" letter-spacing="0em">
				<tspan x="759.4" y="398.879">
					237B
				</tspan>
			</text>
			<text id="S18" fill="#47C4EB" font-family="Open Sans" font-size="10" letter-spacing="0em">
				<tspan x="725.4" y="382.879">
					S18
				</tspan>
			</text>
			<text id="237BXT" fill="#47C4EB" font-family="Open Sans" font-size="10" letter-spacing="0em">
				<tspan x="820.4" y="410.879">
					237BXT
				</tspan>
			</text>
			<text id="S13" fill="#47C4EB" font-family="Open Sans" font-size="10" letter-spacing="0em">
				<tspan x="925.4" y="462.879">
					S13
				</tspan>
			</text>
			<text id="237A" fill="#47C4EB" font-family="Open Sans" font-size="10" letter-spacing="0em">
				<tspan x="783.4" y="516.879">
					237A
				</tspan>
			</text>
			<text id="235" fill="#47C4EB" font-family="Open Sans" font-size="10" letter-spacing="0em">
				<tspan x="824.4" y="518.879">
					235
				</tspan>
			</text>
			<text id="237AXT" fill="#47C4EB" font-family="Open Sans" font-size="10" letter-spacing="0em">
				<tspan x="878.4" y="483.879">
					237AXT
				</tspan>
			</text>
			<text id="S16" fill="#47C4EB" font-family="Open Sans" font-size="10" letter-spacing="0em">
				<tspan x="723.4" y="450.879">
					S16
				</tspan>
			</text>
			<text id="2020XT" fill="#47C4EB" font-family="Open Sans" font-size="10" letter-spacing="0em">
				<tspan x="1086" y="129.879">
					2020XT
				</tspan>
			</text>
			<text id="2022XT" fill="#47C4EB" font-family="Open Sans" font-size="10" letter-spacing="0em">
				<tspan x="888" y="129.879">
					2022XT
				</tspan>
			</text>
			<text id="2024XT" fill="#47C4EB" font-family="Open Sans" font-size="10" letter-spacing="0em">
				<tspan x="417" y="129.879">
					2024XT
				</tspan>
			</text>
			<text id="A2020" fill="#47C4EB" font-family="Open Sans" font-size="10" letter-spacing="0em">
				<tspan x="1001" y="101.879">
					A2020
				</tspan>
			</text>
			<text id="A2005" fill="#47C4EB" font-family="Open Sans" font-size="10" letter-spacing="0em">
				<tspan x="1170.4" y="353.879">
					A2005
				</tspan>
			</text>
		</g>
		<g id="ALH4_SG_S18">
			<circle id="ALH4_SG_S18_ASPECT1" cx="730.5" cy="391.5" r="5.25" stroke="white" stroke-width="0.5">
			</circle>
			<path id="Line 571" d="M725 392H720" stroke="white">
			</path>
			<line id="Line 667" x1="719.5" y1="397" x2="719.5" y2="386" stroke="white">
			</line>
		</g>
		<g id="ALH4_SG_S13">
			<line id="Line 569" x1="946" y1="446.5" x2="942" y2="446.5" stroke="white">
			</line>
			<line id="Line 573" x1="946.5" y1="453" x2="946.5" y2="441" stroke="white">
			</line>
			<circle id="ALH4_SG_S13_ASPECT1" cx="936.5" cy="446.5" r="5.25" stroke="white" stroke-width="0.5">
			</circle>
		</g>
		<g id="ALH4_SG_S16">
			<circle id="ALH4_SG_S16_ASPECT1" cx="728.5" cy="459.5" r="5.25" stroke="white" stroke-width="0.5">
			</circle>
			<path id="Line 572" d="M723 460H718" stroke="white">
			</path>
			<line id="Line 666" x1="717.5" y1="467" x2="717.5" y2="453" stroke="white">
			</line>
		</g>
		<g id="ALH4_SG_S17">
			<circle id="ALH4_SG_S17_ASPECT1" cx="565.5" cy="389.5" r="5.25" stroke="white" stroke-width="0.5">
			</circle>
			<circle id="ALH4_SG_S17_ASPECT2" cx="554.5" cy="389.5" r="5.25" stroke="white" stroke-width="0.5">
			</circle>
			<circle id="ALH4_SG_S17_ASPECT4" cx="532.5" cy="389.5" r="5.25" stroke="white" stroke-width="0.5">
			</circle>
			<circle id="ALH4_SG_S17_ASPECT3" cx="543.5" cy="389.5" r="5.25" fill="white" stroke="white" stroke-width="0.5">
			</circle>
			<path id="Line 579" d="M575 389.5H570.5" stroke="white">
			</path>
			<line id="Line 581" x1="575.5" y1="396" x2="575.5" y2="383" stroke="white">
			</line>
		</g>
		<g id="ALH4_SG_S15">
			<circle id="ALH4_SG_S15_ASPECT1" cx="598.9" cy="518.425" r="5.25" stroke="white" stroke-width="0.5">
			</circle>
			<circle id="ALH4_SG_S15_ASPECT2" cx="588.1" cy="518.425" r="5.25" stroke="white" stroke-width="0.5">
			</circle>
			<circle id="ALH4_SG_S15_ASPECT3" cx="577.3" cy="518.425" r="5.25" fill="white" stroke="white" stroke-width="0.5">
			</circle>
			<circle id="ALH4_SG_S15_ASPECT4" cx="566.5" cy="518.425" r="5.25" stroke="white" stroke-width="0.5">
			</circle>
			<line id="Line 584" x1="608.7" y1="525" x2="608.7" y2="512" stroke="white">
			</line>
			<line id="Line 582" x1="608.2" y1="518.5" x2="604.2" y2="518.5" stroke="white">
			</line>
		</g>
		<circle id="ALH4_PM_235" cx="833" cy="504" r="3.75" stroke="white" stroke-width="0.5">
		</circle>
		<g id="Group 433">
			<line id="Line 275_3" y1="-0.25" x2="8.37137" y2="-0.25" transform="matrix(-0.483623 -0.875277 0.705794 -0.708417 827.649 501.802)" stroke="white" stroke-width="0.5">
			</line>
			<line id="Line 276_3" y1="-0.25" x2="7.92326" y2="-0.25" transform="matrix(-0.474507 -0.880251 0.799629 -0.600494 829.16 499.587)" stroke="white" stroke-width="0.5">
			</line>
			<line id="Line 277_3" y1="-0.25" x2="7.92326" y2="-0.25" transform="matrix(-0.474507 -0.880251 0.799629 -0.600494 830.96 497.725)" stroke="white" stroke-width="0.5">
			</line>
		</g>
		<circle id="ALH4_PM_237A" cx="795" cy="502" r="3.75" stroke="white" stroke-width="0.5">
		</circle>
		<g id="Group 434">
			<line id="Line 275_4" y1="-0.25" x2="6.86627" y2="-0.25" transform="matrix(-0.41945 -0.907778 0.640106 -0.768286 789.88 496.337)" stroke="white" stroke-width="0.5">
			</line>
			<line id="Line 276_4" y1="-0.25" x2="6.5079" y2="-0.25" transform="matrix(-0.410965 -0.911651 0.74403 -0.668146 793.362 496.155)" stroke="white" stroke-width="0.5">
			</line>
			<line id="Line 277_4" y1="-0.25" x2="6.5079" y2="-0.25" transform="matrix(-0.410965 -0.911651 0.74403 -0.668146 797.357 495.933)" stroke="white" stroke-width="0.5">
			</line>
		</g>
		<text id="ICDLXT" fill="#47C4EB" font-family="Open Sans" font-size="12" letter-spacing="0em">
			<tspan x="626" y="508.655">
				ICDLXT
			</tspan>
		</text>
		<text id="ICDMXT" fill="#47C4EB" font-family="Open Sans" font-size="12" letter-spacing="0em">
			<tspan x="655" y="431.655">
				ICDMXT
			</tspan>
		</text>
		<path id="Line 624" d="M446 483H456V497H446" stroke="white">
		</path>
		<g id="ALH4_SG_S19">
			<circle id="ALH4_SG_S19_ASPECT2" cx="351.5" cy="447.5" r="5.25" transform="rotate(-180 351.5 447.5)" stroke="white" stroke-width="0.5">
			</circle>
			<circle id="ALH4_SG_S19_ASPECT1" cx="362.5" cy="447.5" r="5.25" transform="rotate(-180 362.5 447.5)" stroke="white" stroke-width="0.5">
			</circle>
			<circle id="ALH4_SG_S19_ASPECT3" cx="5.5" cy="5.5" r="5.25" transform="matrix(-1 0 0 1 346 442)" fill="white" stroke="white" stroke-width="0.5">
			</circle>
			<circle id="ALH4_SG_S19_ASPECT4" cx="5.5" cy="5.5" r="5.25" transform="matrix(-1 0 0 1 335 442)" stroke="white" stroke-width="0.5">
			</circle>
			<line id="Line 517" x1="372.5" y1="442" x2="372.5" y2="453" stroke="white">
			</line>
			<line id="Line 519" x1="372" y1="448.25" x2="368" y2="448.25" stroke="white" stroke-width="0.5">
			</line>
		</g>
		<g id="ALH4_SG_S20/C20">
			<g id="ALH4_SG_S20">
				<circle id="ALH4_SG_S20_ASPECT2" cx="251.1" cy="391.5" r="5.25" transform="rotate(-180 251.1 391.5)" stroke="white" stroke-width="0.5">
				</circle>
				<circle id="ALH4_SG_S20_ASPECT1" cx="240.1" cy="391.163" r="5.25" transform="rotate(-180 240.1 391.163)" stroke="white" stroke-width="0.5">
				</circle>
			</g>
			<g id="NOT_TO_SET">
				<path id="Line 305" d="M234.6 391.075H232.6" stroke="white" stroke-width="0.5">
				</path>
				<line id="Line 306" x1="222" y1="391.325" x2="218" y2="391.325" stroke="white" stroke-width="0.5">
				</line>
				<line id="Line 303" x1="217.775" y1="396.663" x2="217.775" y2="385.488" stroke="white" stroke-width="1.25">
				</line>
			</g>
		</g>
		<g id="ALH4_SG_CO20">
			<circle id="ALH4_SG_CO20_ASPECT1" cx="227.1" cy="390.5" r="5.25" transform="rotate(-180 227.1 390.5)" stroke="white" stroke-width="0.5">
			</circle>
			<text id="C" transform="matrix(1 0 0.00153166 0.999999 223.6 383)" fill="white" font-family="Open Sans" font-size="10" letter-spacing="0em">
				<tspan x="0" y="10.8794">
					C
				</tspan>
			</text>
		</g>
		<g id="Group 447">
			<line id="Line 275_5" x1="773.178" y1="417.123" x2="769.782" y2="411.123" stroke="white" stroke-width="0.5">
			</line>
			<path id="Line 276_5" d="M777 417L773.534 411" stroke="white" stroke-width="0.5">
			</path>
			<path id="Line 277_5" d="M780.817 417.014L777.175 411" stroke="white" stroke-width="0.5">
			</path>
			<circle id="ALH4_PM_237B" cx="772.5" cy="406.5" r="3.25" stroke="white" stroke-width="0.5">
			</circle>
		</g>
		<g id="Wheel_Sensor">
			<g id="ALH04_WS_BU23">
				<g id="BU23_WS">
					<ellipse id="Ellipse 327" cx="4" cy="4" rx="4" ry="4" transform="matrix(1 -1.91349e-09 0.00149771 0.999999 346.006 297)" fill="#AFA089">
					</ellipse>
					<ellipse id="Ellipse 328" cx="4" cy="4" rx="4" ry="4" transform="matrix(1 -1.91349e-09 0.00149771 0.999999 358.006 297)" fill="#AFA089">
					</ellipse>
					<path id="Line 656_2" d="M344.006 301H368.006" stroke="#D9D9D9">
					</path>
				</g>
				<text id="BU23_WS_TEXT" transform="matrix(0.99999 0 0.00103768 1.00001 343.006 283)" fill="white" font-family="Open Sans" font-size="10" letter-spacing="0em">
					<tspan x="0" y="10.8794">
						BU23
					</tspan>
				</text>
			</g>
			<g id="ALH04_WS_U23">
				<g id="U23_WS">
					<ellipse id="Ellipse 327_2" cx="4" cy="4" rx="4" ry="4" transform="matrix(1 -1.91349e-09 0.00149771 0.999999 354.885 407.265)" fill="#AFA089">
					</ellipse>
					<ellipse id="Ellipse 328_2" cx="4" cy="4" rx="4" ry="4" transform="matrix(1 -1.91349e-09 0.00149771 0.999999 367 407)" fill="#AFA089">
					</ellipse>
					<path id="Line 656_3" d="M353 411H377" stroke="#D9D9D9">
					</path>
				</g>
				<text id="U23_WS_TEXT" transform="matrix(0.99999 0 0.00103768 1.00001 355 393)" fill="white" font-family="Open Sans" font-size="10" letter-spacing="0em">
					<tspan x="0" y="10.8794">
						U23
					</tspan>
				</text>
			</g>
			<g id="ALH04_WS_U22">
				<g id="U22_WS">
					<ellipse id="Ellipse 327_3" cx="4.0002" cy="3.99982" rx="4.0002" ry="3.99982" transform="matrix(0.999667 0.0237872 -0.0223606 0.999796 438.179 423)" fill="#AFA089">
					</ellipse>
					<ellipse id="Ellipse 328_3" cx="4" cy="4.00001" rx="4" ry="4.00001" transform="matrix(1 -2.17511e-09 -0.0006948 0.999997 448.006 423)" fill="#AFA089">
					</ellipse>
					<path id="Line 656_4" d="M435.349 426.947H458" stroke="#D9D9D9">
					</path>
				</g>
				<text id="U22_WS_TEXT" transform="matrix(0.99999 0 0.000990259 1.00001 437 431)" fill="white" font-family="Open Sans" font-size="10" letter-spacing="0em">
					<tspan x="0" y="10.8794">
						U22
					</tspan>
				</text>
			</g>
			<g id="ALH04_WS_U28">
				<g id="U28_WS">
					<ellipse id="Ellipse 327_4" cx="4.0002" cy="3.99982" rx="4.0002" ry="3.99982" transform="matrix(-0.99995 3.38111e-10 -0.00142933 -1.00004 862.012 486)" fill="#AFA089">
					</ellipse>
					<ellipse id="Ellipse 328_4" cx="4" cy="4.00001" rx="4" ry="4.00001" transform="matrix(-7.3691e-10 -1 0.999997 0.000694802 844 486)" fill="#AFA089">
					</ellipse>
					<path id="Line 656_5" d="M842 482L863.907 482" stroke="#D9D9D9">
					</path>
				</g>
				<text id="U28_WS_TEXT" transform="matrix(0.99999 0 0.000990259 1.00001 843 464)" fill="white" font-family="Open Sans" font-size="10" letter-spacing="0em">
					<tspan x="0" y="10.8794">
						U28
					</tspan>
				</text>
			</g>
			<g id="ALH04_WS_U21">
				<g id="U21_WS">
					<ellipse id="Ellipse 327_5" cx="4.0002" cy="3.99982" rx="4.0002" ry="3.99982" transform="matrix(-0.99995 3.38111e-10 -0.00142933 -1.00004 528.012 432)" fill="#AFA089">
					</ellipse>
					<ellipse id="Ellipse 328_5" cx="4" cy="4.00001" rx="4" ry="4.00001" transform="matrix(1 6.69639e-10 -0.000694802 0.999997 510.005 424)" fill="#AFA089">
					</ellipse>
					<path id="Line 656_6" d="M508 428L529.906 428" stroke="#D9D9D9">
					</path>
				</g>
				<text id="U21_WS_TEXT" transform="matrix(0.99999 0 0.000990259 1.00001 510 432)" fill="white" font-family="Open Sans" font-size="10" letter-spacing="0em">
					<tspan x="0" y="10.8794">
						U21
					</tspan>
				</text>
			</g>
			<g id="ALH04_WS_U24">
				<g id="U24_WS">
					<ellipse id="Ellipse 327_6" cx="4" cy="4" rx="4" ry="4" transform="matrix(1 -1.91349e-09 0.00149771 0.999999 290.916 407)" fill="#AFA089">
					</ellipse>
					<ellipse id="Ellipse 328_6" cx="4" cy="4" rx="4" ry="4" transform="matrix(1 -1.91349e-09 0.00149771 0.999999 302.916 407)" fill="#AFA089">
					</ellipse>
					<path id="Line 656_7" d="M289.006 410.99H312.916" stroke="#D9D9D9">
					</path>
				</g>
				<text id="U24_WS_TEXT" transform="matrix(0.99999 0 0.00103768 1.00001 291 393)" fill="white" font-family="Open Sans" font-size="10" letter-spacing="0em">
					<tspan x="0" y="10.8794">
						U24
					</tspan>
				</text>
			</g>
			<g id="ALH04_WS_BU24">
				<g id="BU24_WS">
					<ellipse id="Ellipse 327_7" cx="4" cy="4" rx="4" ry="4" transform="matrix(1 -1.91349e-09 0.00149771 0.999999 763.932 297)" fill="#AFA089">
					</ellipse>
					<ellipse id="Ellipse 328_7" cx="4" cy="4" rx="4" ry="4" transform="matrix(1 -1.91349e-09 0.00149771 0.999999 775.932 297)" fill="#AFA089">
					</ellipse>
					<path id="Line 656_8" d="M762.022 300.99H785.932" stroke="#D9D9D9">
					</path>
				</g>
				<text id="BU24_WS_TEXT" transform="matrix(0.99999 0 0.00103768 1.00001 762 283)" fill="white" font-family="Open Sans" font-size="10" letter-spacing="0em">
					<tspan x="0" y="10.8794">
						BU24
					</tspan>
				</text>
			</g>
			<g id="ALH04_WS_SU11">
				<g id="SU11_WS">
					<ellipse id="Ellipse 327_8" cx="4" cy="4" rx="4" ry="4" transform="matrix(-1 0 -0.00149771 -0.999999 364.012 261)" fill="#AFA089">
					</ellipse>
					<ellipse id="Ellipse 328_8" cx="4" cy="4" rx="4" ry="4" transform="matrix(-1 0 -0.00149771 -0.999999 353.012 261)" fill="#AFA089">
					</ellipse>
					<path id="Line 656_9" d="M366.406 257.275L343.006 257.275" stroke="#D9D9D9">
					</path>
				</g>
				<text id="SU11_WS_TTEXT" transform="matrix(0.999965 -0.00697621 0.008014 0.999978 342 261.174)" fill="white" font-family="Open Sans" font-size="10" letter-spacing="0em">
					<tspan x="0.385742" y="10.8794">
						SU11
					</tspan>
				</text>
			</g>
			<g id="ALH04_WS_U27">
				<g id="U27_WS">
					<ellipse id="Ellipse 327_9" cx="4" cy="4" rx="4" ry="4" transform="matrix(-0.394921 -0.918715 0.918122 -0.396297 496.245 472.015)" fill="#AFA089">
					</ellipse>
					<ellipse id="Ellipse 328_9" cx="4" cy="4" rx="4" ry="4" transform="matrix(-0.394921 -0.918715 0.918122 -0.396297 491.269 460.439)" fill="#AFA089">
					</ellipse>
					<path id="Line 656_10" d="M500.375 472.192L491.134 450.694" stroke="#D9D9D9">
					</path>
				</g>
				<text id="U27_WS_TEXT" transform="matrix(0.401317 0.915928 -0.91553 0.402275 488.817 454)" fill="white" font-family="Open Sans" font-size="10" letter-spacing="0em">
					<tspan x="0" y="10.8794">
						U27
					</tspan>
				</text>
			</g>
			<g id="ALH04_WS_U26">
				<g id="U26_WS">
					<ellipse id="Ellipse 327_10" cx="4" cy="4" rx="4" ry="4" transform="matrix(0.474432 -0.880292 0.881002 0.473113 770.581 463.257)" fill="#AFA089">
					</ellipse>
					<ellipse id="Ellipse 328_10" cx="4" cy="4" rx="4" ry="4" transform="matrix(0.474432 -0.880292 0.881002 0.473113 776.559 452.166)" fill="#AFA089">
					</ellipse>
					<path id="Line 656_11" d="M773.009 466.604L784.111 446.005" stroke="#D9D9D9">
					</path>
				</g>
				<text id="U26_WS_TEXT" transform="matrix(0.520227 -0.854016 0.854573 0.519351 776 465.226)" fill="white" font-family="Open Sans" font-size="10" letter-spacing="0em">
					<tspan x="0" y="10.8794">
						U26
					</tspan>
				</text>
			</g>
			<g id="Group 634">
				<g id="U01_WS">
					<circle id="Ellipse 327_11" cx="4" cy="4" r="4" transform="matrix(-1 1.91349e-09 -0.00149771 -0.999999 1198.01 260)" fill="#AFA089">
					</circle>
					<circle id="Ellipse 328_11" cx="4" cy="4" r="4" transform="matrix(-1 1.91349e-09 -0.00149771 -0.999999 1187.01 260)" fill="#AFA089">
					</circle>
					<path id="Line 656_12" d="M1200.4 256L1177 256" stroke="#D9D9D9">
					</path>
				</g>
				<text id="SU12" transform="matrix(0.99999 0 0.00103768 1.00001 1176 260)" fill="white" font-family="Open Sans" font-size="10" letter-spacing="0em">
					<tspan x="0.385742" y="10.8794">
						SU12
					</tspan>
				</text>
			</g>
			<g id="ALH04_WS_SU13">
				<g id="SU13_WS">
					<circle id="Ellipse 327_12" cx="4" cy="4" r="4" transform="matrix(-1 0 -0.00149771 -0.999999 186.012 261)" fill="#AFA089">
					</circle>
					<circle id="Ellipse 328_12" cx="4" cy="4" r="4" transform="matrix(-1 0 -0.00149771 -0.999999 175.012 261)" fill="#AFA089">
					</circle>
					<path id="Line 656_13" d="M188 257.492L165 257.492" stroke="#D9D9D9">
					</path>
				</g>
				<text id="SU13_WS_TEXT" transform="matrix(0.99999 0 0.00099675 1.00001 164 261)" fill="white" font-family="Open Sans" font-size="10" letter-spacing="0em">
					<tspan x="0" y="10.8794">
						SU13
					</tspan>
				</text>
			</g>
			<!--
			<g id="ALH04_WS_SD01">
			<g id="SD01_WS">
			<circle id="Ellipse 327_13" cx="4" cy="4" r="4" transform="matrix(-1 0 -0.00149771 -0.999999 219.012 195)" fill="#AFA089"></circle>
			<circle id="Ellipse 328_13" cx="4" cy="4" r="4" transform="matrix(-1 0 -0.00149771 -0.999999 207.012 195)" fill="#AFA089"></circle>
			<path id="Line 656_14" d="M221 191L197 191" stroke="#D9D9D9"></path>
			</g>
			<text id="SD01_WS_TEXT" transform="matrix(0.99999 0 0.00103768 1.00001 197 173)" fill="white"  font-family="Open Sans" font-size="10" letter-spacing="0em"><tspan x="0" y="10.8794">SD01</tspan></text>
			</g>
			-->
			<g id="ALH04_WS_SD02">
				<g id="SD02_WS">
					<circle id="Ellipse 327_14" cx="4" cy="4" r="4" transform="matrix(-1 0 -0.00149771 -0.999999 726.41 195.908)" fill="#AFA089">
					</circle>
					<circle id="Ellipse 328_14" cx="4" cy="4" r="4" transform="matrix(-1 0 -0.00149771 -0.999999 713.811 195.908)" fill="#AFA089">
					</circle>
					<path id="Line 656_15" d="M728.205 192.183L704.804 192.183" stroke="#D9D9D9">
					</path>
				</g>
				<text id="SD02_WS_TEXT" transform="matrix(0.99999 0 0.00103768 1.00001 705 174)" fill="white" font-family="Open Sans" font-size="10" letter-spacing="0em">
					<tspan x="0" y="10.8794">
						SD02
					</tspan>
				</text>
			</g>
			<g id="ALH04_WS_U20">
				<g id="U20_WS">
					<circle id="Ellipse 327_15" cx="4" cy="4" r="4" transform="matrix(-1 0 -0.00149771 -0.999999 616.012 414.994)" fill="#AFA089">
					</circle>
					<circle id="Ellipse 328_15" cx="4" cy="4" r="4" transform="matrix(-1 0 -0.00149771 -0.999999 605.012 414.994)" fill="#AFA089">
					</circle>
					<path id="Line 656_16" d="M617.993 411.005L595 411" stroke="#D9D9D9">
					</path>
				</g>
				<text id="U20_WS_TEXT" transform="matrix(0.99999 0 0.00103768 1.00001 596 393)" fill="white" font-family="Open Sans" font-size="10" letter-spacing="0em">
					<tspan x="0" y="10.8794">
						U20
					</tspan>
				</text>
			</g>
			<g id="ALH04_WS_U30">
				<g id="U30_WS">
					<circle id="Ellipse 327_16" cx="4" cy="4" r="4" transform="matrix(-1 0 -0.00149771 -0.999999 552.411 484.908)" fill="#AFA089">
					</circle>
					<circle id="Ellipse 328_16" cx="4" cy="4" r="4" transform="matrix(-1 0 -0.00149771 -0.999999 539.811 484.908)" fill="#AFA089">
					</circle>
					<path id="Line 656_17" d="M554.205 481.183L530.805 481.183" stroke="#D9D9D9">
					</path>
				</g>
				<text id="U30_WS_TEXT" transform="matrix(0.99999 0 0.00103768 1.00001 533 463)" fill="white" font-family="Open Sans" font-size="10" letter-spacing="0em">
					<tspan x="0" y="10.8794">
						U30
					</tspan>
				</text>
			</g>
			<g id="ALH04_WS_U29">
				<g id="U29_WS">
					<circle id="Ellipse 327_17" cx="4" cy="4" r="4" transform="matrix(-1 0 -0.00149771 -0.999999 743.018 502)" fill="#AFA089">
					</circle>
					<circle id="Ellipse 328_17" cx="4" cy="4" r="4" transform="matrix(-1 0 -0.00149771 -0.999999 732.018 502)" fill="#AFA089">
					</circle>
					<path id="Line 656_18" d="M745 498L722.006 498" stroke="#D9D9D9">
					</path>
				</g>
				<text id="U29_WS_TEXT" transform="matrix(0.99999 0 0.00103768 1.00001 724 502)" fill="white" font-family="Open Sans" font-size="10" letter-spacing="0em">
					<tspan x="0" y="10.8794">
						U29
					</tspan>
				</text>
			</g>
			<g id="ALH04_WS_U19">
				<g id="U19_WS">
					<circle id="Ellipse 327_18" cx="4" cy="4" r="4" transform="matrix(-1 0 -0.00149771 -0.999999 933.012 416)" fill="#AFA089">
					</circle>
					<circle id="Ellipse 328_18" cx="4" cy="4" r="4" transform="matrix(-1 0 -0.00149771 -0.999999 922.012 416)" fill="#AFA089">
					</circle>
					<path id="Line 656_19" d="M934.994 412L912 412" stroke="#D9D9D9">
					</path>
				</g>
				<text id="U19_WS_TEXT" transform="matrix(0.99999 0 0.00103768 1.00001 913 394)" fill="white" font-family="Open Sans" font-size="10" letter-spacing="0em">
					<tspan x="0.129883" y="10.8794">
						U19
					</tspan>
				</text>
			</g>
			<g id="ALH04_WS_SD03">
				<g id="SD03_WS">
					<circle id="Ellipse 327_19" cx="4" cy="4" r="4" transform="matrix(-1 0 -0.00149771 -0.999999 922.628 195.982)" fill="#AFA089">
					</circle>
					<circle id="Ellipse 328_19" cx="4" cy="4" r="4" transform="matrix(-1 0 -0.00149771 -0.999999 910.029 195.982)" fill="#AFA089">
					</circle>
					<path id="Line 656_20" d="M924.423 192.257L901.023 192.257" stroke="#D9D9D9">
					</path>
				</g>
				<text id="SD03_WS_TEXT" transform="matrix(0.99999 0 0.00103768 1.00001 900 174)" fill="white" font-family="Open Sans" font-size="10" letter-spacing="0em">
					<tspan x="0" y="10.8794">
						SD03
					</tspan>
				</text>
			</g>
			<g id="ALH04_WS_BU21">
				<g id="BU21_WS">
					<circle id="Ellipse 327_20" cx="4" cy="4" r="4" transform="matrix(-1 0 -0.00149771 -0.999999 848.012 305)" fill="#AFA089">
					</circle>
					<circle id="Ellipse 328_20" cx="4" cy="4" r="4" transform="matrix(-1 0 -0.00149771 -0.999999 836.012 305)" fill="#AFA089">
					</circle>
					<path id="Line 656_21" d="M850 301.275L826.006 301.275" stroke="#D9D9D9">
					</path>
				</g>
				<text id="BU21_WS_TEXT" transform="matrix(0.99999 0 0.00103768 1.00001 825 283)" fill="white" font-family="Open Sans" font-size="10" letter-spacing="0em">
					<tspan x="0" y="10.8794">
						BU21
					</tspan>
				</text>
			</g>
			<g id="ALH04_WS_BU22">
				<g id="BU22_WS">
					<circle id="Ellipse 327_21" cx="4" cy="4" r="4" transform="matrix(-1 0 -0.00149771 -0.999999 1197.02 305)" fill="#AFA089">
					</circle>
					<circle id="Ellipse 328_21" cx="4" cy="4" r="4" transform="matrix(-1 0 -0.00149771 -0.999999 1186.02 305)" fill="#AFA089">
					</circle>
					<path id="Line 656_22" d="M1199 301L1176 301" stroke="#D9D9D9">
					</path>
				</g>
				<text id="BU22_WS_TEXT" transform="matrix(0.99999 0 0.00103768 1.00001 1175 283)" fill="white" font-family="Open Sans" font-size="10" letter-spacing="0em">
					<tspan x="0" y="10.8794">
						BU22
					</tspan>
				</text>
			</g>
			<g id="ALH04_WS_SD04">
				<g id="SD04_WS">
					<circle id="Ellipse 327_22" cx="4" cy="4" r="4" transform="matrix(-1 0 -0.00149771 -0.999999 1196.01 196)" fill="#AFA089">
					</circle>
					<circle id="Ellipse 328_22" cx="4" cy="4" r="4" transform="matrix(-1 0 -0.00149771 -0.999999 1184.01 196)" fill="#AFA089">
					</circle>
					<path id="Line 656_23" d="M1197.99 192L1173.99 192" stroke="#D9D9D9">
					</path>
				</g>
				<text id="SD04_WS_TEXT" transform="matrix(0.99999 0 0.00103768 1.00001 1173 174)" fill="white" font-family="Open Sans" font-size="10" letter-spacing="0em">
					<tspan x="0" y="10.8794">
						SD04
					</tspan>
				</text>
			</g>
			<g id="ALH04_WS_BD02">
				<g id="BD02_WS">
					<circle id="Ellipse 327_23" cx="4" cy="4" r="4" transform="matrix(-1 0 -0.00149771 -0.999999 195.012 150)" fill="#AFA089">
					</circle>
					<circle id="Ellipse 328_23" cx="4" cy="4" r="4" transform="matrix(-1 0 -0.00149771 -0.999999 184.012 150)" fill="#AFA089">
					</circle>
					<path id="Line 656_24" d="M197.406 146.275L174.006 146.275" stroke="#D9D9D9">
					</path>
				</g>
				<text id="BD02_WS_TEXT" transform="matrix(0.99999 0 0.00103769 1.00001 174 150)" fill="white" font-family="Open Sans" font-size="10" letter-spacing="0em">
					<tspan x="0" y="10.8794">
						BD02
					</tspan>
				</text>
			</g>
			<g id="ALH04_WS_BD05">
				<g id="BD05_WS">
					<circle id="Ellipse 327_24" cx="4" cy="4" r="4" transform="matrix(-1 0 -0.00149771 -0.999999 849.612 150)" fill="#AFA089">
					</circle>
					<circle id="Ellipse 328_24" cx="4" cy="4" r="4" transform="matrix(-1 0 -0.00149771 -0.999999 837.012 150)" fill="#AFA089">
					</circle>
					<path id="Line 656_25" d="M851.406 146.275L828.006 146.275" stroke="#D9D9D9">
					</path>
				</g>
				<text id="BD05_WS_TEXT" transform="matrix(0.99999 0 0.00103769 1.00001 827 150)" fill="white" font-family="Open Sans" font-size="10" letter-spacing="0em">
					<tspan x="0" y="10.8794">
						BD05
					</tspan>
				</text>
			</g>
			<g id="ALH04_WS_BD04">
				<g id="BD04_WS">
					<circle id="Ellipse 327_25" cx="4" cy="4" r="4" transform="matrix(-1 0 -0.00149771 -0.999999 634.612 150)" fill="#AFA089">
					</circle>
					<circle id="Ellipse 328_25" cx="4" cy="4" r="4" transform="matrix(-1 0 -0.00149771 -0.999999 622.012 150)" fill="#AFA089">
					</circle>
					<path id="Line 656_26" d="M636.406 146.275L613.006 146.275" stroke="#D9D9D9">
					</path>
				</g>
				<text id="BD04_WS_TEXT" transform="matrix(0.99999 0 0.00103769 1.00001 611 150)" fill="white" font-family="Open Sans" font-size="10" letter-spacing="0em">
					<tspan x="0" y="10.8794">
						BD04
					</tspan>
				</text>
			</g>
			<g id="ALH04_WS_BU25">
				<g id="BU25_WS">
					<circle id="Ellipse 327_26" cx="4" cy="4" r="4" transform="matrix(-1 0 -0.00149771 -0.999999 186.015 305)" fill="#AFA089">
					</circle>
					<circle id="Ellipse 328_26" cx="4" cy="4" r="4" transform="matrix(-1 0 -0.00149771 -0.999999 175.015 305)" fill="#AFA089">
					</circle>
					<path id="Line 656_27" d="M188.003 301.275L165.009 301.275" stroke="#D9D9D9">
					</path>
				</g>
				<text id="BU25_WS_TEXT" transform="matrix(0.99999 0 0.00103769 1.00001 164.003 283)" fill="white" font-family="Open Sans" font-size="10" letter-spacing="0em">
					<tspan x="0" y="10.8794">
						BU25
					</tspan>
				</text>
			</g>
			<g id="ALH04_WS_BD06">
				<g id="BD06_WS">
					<circle id="Ellipse 327_27" cx="4" cy="4" r="4" transform="matrix(-1 1.91349e-09 -0.00149771 -0.999999 976.613 150)" fill="#AFA089">
					</circle>
					<circle id="Ellipse 328_27" cx="4" cy="4" r="4" transform="matrix(-1 1.91349e-09 -0.00149771 -0.999999 964.013 150)" fill="#AFA089">
					</circle>
					<path id="Line 656_28" d="M978.407 146.275L955.007 146.275" stroke="#D9D9D9">
					</path>
				</g>
				<text id="BD06_WS_TEXT" transform="matrix(0.99999 0 0.00103768 1.00001 954 150)" fill="white" font-family="Open Sans" font-size="10" letter-spacing="0em">
					<tspan x="0" y="10.8794">
						BD06
					</tspan>
				</text>
			</g>
			<g id="ALH04_WS_BD07">
				<g id="BD07_WS">
					<circle id="Ellipse 327_28" cx="4" cy="4" r="4" transform="matrix(-1 1.91349e-09 -0.00149771 -0.999999 1023.61 150)" fill="#AFA089">
					</circle>
					<circle id="Ellipse 328_28" cx="4" cy="4" r="4" transform="matrix(-1 1.91349e-09 -0.00149771 -0.999999 1011.01 150)" fill="#AFA089">
					</circle>
					<path id="Line 656_29" d="M1025.41 146.275L1002.01 146.275" stroke="#D9D9D9">
					</path>
				</g>
				<text id="BD07_WS_TEXT" transform="matrix(0.99999 0 0.00103768 1.00001 1002 150)" fill="white" font-family="Open Sans" font-size="10" letter-spacing="0em">
					<tspan x="0" y="10.8794">
						BD07
					</tspan>
				</text>
			</g>
			<!--
			<g id="ALH04_WS_BD08">
			<g id="BD08_WS">
			<circle id="Ellipse 327_29" cx="4" cy="4" r="4" transform="matrix(-1 1.91349e-09 -0.00149771 -0.999999 1195.61 150)" fill="#AFA089"></circle>
			<circle id="Ellipse 328_29" cx="4" cy="4" r="4" transform="matrix(-1 1.91349e-09 -0.00149771 -0.999999 1183.01 150)" fill="#AFA089"></circle>
			<path id="Line 656_30" d="M1197.41 146.275L1174.01 146.275" stroke="#D9D9D9"></path>
			</g>
			<text id="BD08_WS_TEXT" transform="matrix(0.99999 0 0.00103768 1.00001 1173 150)" fill="white"  font-family="Open Sans" font-size="10" letter-spacing="0em"><tspan x="0" y="10.8794">BD08</tspan></text>
			</g>
			-->
		</g>
		<text id="A2024" fill="#47C4EB" font-family="Open Sans" font-size="12" letter-spacing="0em">
			<tspan x="286" y="101.655">
				A2024
			</tspan>
		</text>
		<text id="A2022" fill="#47C4EB" font-family="Open Sans" font-size="12" letter-spacing="0em">
			<tspan x="820" y="101.655">
				A2022
			</tspan>
		</text>
		<g id="DN MARK">
			<text id="DN" fill="#47C4EB" stroke="white" font-family="Open Sans" font-size="15" letter-spacing="0em">
				<tspan x="157" y="91.8191">
					DN
				</tspan>
			</text>
			<path id="Arrow 3" d="M216.354 86.3536C216.549 86.1583 216.549 85.8417 216.354 85.6464L213.172 82.4645C212.976 82.2692 212.66 82.2692 212.464 82.4645C212.269 82.6597 212.269 82.9763 212.464 83.1716L215.293 86L212.464 88.8284C212.269 89.0237 212.269 89.3403 212.464 89.5355C212.66 89.7308 212.976 89.7308 213.172 89.5355L216.354 86.3536ZM187 86.5H216V85.5H187V86.5Z" fill="white">
			</path>
		</g>
		<g id="UP MARK">
			<g id="Group 651">
				<text id="UP" fill="#47C4EB" stroke="white" font-family="Open Sans" font-size="15" letter-spacing="0em">
					<tspan x="198" y="543.819">
						UP
					</tspan>
				</text>
				<path id="Arrow 3_2" d="M158.646 537.646C158.451 537.842 158.451 538.158 158.646 538.354L161.828 541.536C162.024 541.731 162.34 541.731 162.536 541.536C162.731 541.34 162.731 541.024 162.536 540.828L159.707 538L162.536 535.172C162.731 534.976 162.731 534.66 162.536 534.464C162.34 534.269 162.024 534.269 161.828 534.464L158.646 537.646ZM188 537.5H159V538.5H188V537.5Z" fill="white">
				</path>
			</g>
		</g>
	</g>
</svg>
