<svg width="1366" height="476" viewBox="0 0 1366 476" fill="none" xmlns="http://www.w3.org/2000/svg">
	<g id="ALH 003">
		<rect width="1366" height="476" fill="black">
		</rect>
		<text id="2018XT" fill="#47C4EB" xml:space="preserve" style="white-space: pre" font-family="Open Sans" font-size="12" letter-spacing="0em">
			<tspan x="464" y="138.655">
				2018XT
			</tspan>
		</text>
		<text id="2020XT" fill="#47C4EB" xml:space="preserve" style="white-space: pre" font-family="Open Sans" font-size="12" letter-spacing="0em">
			<tspan x="272" y="138.655">
				2020XT
			</tspan>
		</text>
		<text id="2014XT" fill="#47C4EB" xml:space="preserve" style="white-space: pre" font-family="Open Sans" font-size="12" letter-spacing="0em">
			<tspan x="915" y="138.655">
				2014XT
			</tspan>
		</text>
		<text id="2014XT_2012XT" fill="#47C4EB" xml:space="preserve" style="white-space: pre" font-family="Open Sans" font-size="12" letter-spacing="0em">
			<tspan x="891" y="224.655">
				2014XT_2012XT
			</tspan>
		</text>
		<text id="2009XT_2007XT" fill="#47C4EB" xml:space="preserve" style="white-space: pre" font-family="Open Sans" font-size="12" letter-spacing="0em">
			<tspan x="612" y="263.655">
				2009XT_2007XT
			</tspan>
		</text>
		<text id="2009XT" fill="#47C4EB" xml:space="preserve" style="white-space: pre" font-family="Open Sans" font-size="12" letter-spacing="0em">
			<tspan x="551" y="349.655">
				2009XT
			</tspan>
		</text>
		<text id="2011XT" fill="#47C4EB" xml:space="preserve" style="white-space: pre" font-family="Open Sans" font-size="12" letter-spacing="0em">
			<tspan x="767" y="349.655">
				2011XT
			</tspan>
		</text>
		<text id="2013XT" fill="#47C4EB" xml:space="preserve" style="white-space: pre" font-family="Open Sans" font-size="12" letter-spacing="0em">
			<tspan x="969" y="349.655">
				2013XT
			</tspan>
		</text>
		<text id="2007XT" fill="#47C4EB" xml:space="preserve" style="white-space: pre" font-family="Open Sans" font-size="12" letter-spacing="0em">
			<tspan x="301" y="349.655">
				2007XT
			</tspan>
		</text>
		<text id="2016XT" fill="#47C4EB" xml:space="preserve" style="white-space: pre" font-family="Open Sans" font-size="12" letter-spacing="0em">
			<tspan x="655" y="138.655">
				2016XT
			</tspan>
		</text>
		<text id="2018XT_2016XT" fill="#47C4EB" stroke="#47C4EB" xml:space="preserve" style="white-space: pre" font-family="Open Sans" font-size="12" letter-spacing="0em">
			<tspan x="531" y="224.655">
				2018XT_2016XT
			</tspan>
		</text>
		<text id="2022XT_2020XT" fill="#47C4EB" xml:space="preserve" style="white-space: pre" font-family="Open Sans" font-size="12" letter-spacing="0em">
			<tspan x="249" y="224.655">
				2022XT_2020XT
			</tspan>
		</text>
		<path id="2018XT_LINE" d="M382 146.909L586.501 146.5" stroke="#6B7280" stroke-width="4">
		</path>
		<path id="2014XT_LINE" d="M765 146.375L1106.5 146.375" stroke="#6B7280" stroke-width="4">
		</path>
		<path id="2014XT_2012XT_LINE" d="M765 208.5L1106.5 208.5" stroke="#6B7280" stroke-width="4" stroke-dasharray="2.5 2.5">
		</path>
		<path id="2011XT_LINE" d="M705 331.875L871.5 331" stroke="#6B7280" stroke-width="4">
		</path>
		<path id="2009XT_LINE" d="M441 332L702.5 332" stroke="#6B7280" stroke-width="4">
		</path>
		<path id="2016XT_LINE" d="M589 146.5H763" stroke="#6B7280" stroke-width="4">
		</path>
		<line id="2007XT_LINE" x1="206" y1="332" x2="438.009" y2="332" stroke="#6B7280" stroke-width="4">
		</line>
		<line id="2020XT_LINE" x1="206" y1="147" x2="380" y2="147" stroke="#6B7280" stroke-width="4">
		</line>
		<line id="2022XT_2020XT_LINE" x1="206" y1="208" x2="380" y2="208" stroke="#6B7280" stroke-width="4" stroke-dasharray="2.5 2.5">
		</line>
		<path id="2018XT_2016XT_LINE" d="M386 208.375H763" stroke="#6B7280" stroke-width="4" stroke-dasharray="2.5 2.5">
		</path>
		<path id="2009XT_2007XT_LINE" d="M206 272L1106 273" stroke="#6B7280" stroke-width="4" stroke-dasharray="2.5 2.5">
		</path>
		<path id="2013XT_LINE" d="M875 331H1104.5" stroke="#6B7280" stroke-width="4">
		</path>
		<g id="ALH3_SG_A2007">
			<circle id="ALH3_SG_A2007_ASPECT1" cx="414.5" cy="362.5" r="8.25" transform="rotate(-180 414.5 362.5)" stroke="white" stroke-width="0.5">
			</circle>
			<circle id="ALH3_SG_A2007_ASPECT2" cx="397.5" cy="362.5" r="8.25" transform="rotate(-180 397.5 362.5)" stroke="white" stroke-width="0.5">
			</circle>
			<circle id="ALH3_SG_A2007_ASPECT3" cx="380.5" cy="362.5" r="8.25" transform="rotate(-180 380.5 362.5)" stroke="white" stroke-width="0.5">
			</circle>
			<circle id="ALH3_SG_A2007_ASPECT4" cx="363.5" cy="362.5" r="8.25" transform="rotate(-180 363.5 362.5)" stroke="white" stroke-width="0.5">
			</circle>
			<line id="Line 450" x1="426.503" y1="354" x2="426.503" y2="371" stroke="white">
			</line>
			<line id="Line 452" x1="422.589" y1="362.75" x2="426.589" y2="362.75" stroke="white" stroke-width="0.5">
			</line>
		</g>
		<g id="ALH3_SG_A2009">
			<circle id="ALH3_SG_A2009_ASPECT1" cx="679.5" cy="362.5" r="8.25" transform="rotate(-180 679.5 362.5)" stroke="white" stroke-width="0.5">
			</circle>
			<circle id="ALH3_SG_A2009_ASPECT2" cx="662.5" cy="362.5" r="8.25" transform="rotate(-180 662.5 362.5)" stroke="white" stroke-width="0.5">
			</circle>
			<circle id="ALH3_SG_A2009_ASPECT3" cx="645.5" cy="362.5" r="8.25" transform="rotate(-180 645.5 362.5)" stroke="white" stroke-width="0.5">
			</circle>
			<circle id="ALH3_SG_A2009_ASPECT4" cx="628.5" cy="362.5" r="8.25" transform="rotate(-180 628.5 362.5)" stroke="white" stroke-width="0.5">
			</circle>
			<line id="Line 450_2" x1="692.5" y1="354" x2="692.5" y2="371" stroke="white">
			</line>
			<line id="Line 452_2" x1="692" y1="362.265" x2="688" y2="362.265" stroke="white" stroke-width="0.5">
			</line>
		</g>
		<g id="ALH3_SG_A2011">
			<circle id="ALH3_SG_A2011_ASPECT1" cx="851.5" cy="362.5" r="8.25" transform="rotate(-180 851.5 362.5)" stroke="white" stroke-width="0.5">
			</circle>
			<circle id="ALH3_SG_A2011_ASPECT2" cx="834.5" cy="362.5" r="8.25" transform="rotate(-180 834.5 362.5)" stroke="white" stroke-width="0.5">
			</circle>
			<circle id="ALH3_SG_A2011_ASPECT3" cx="817.5" cy="362.5" r="8.25" transform="rotate(-180 817.5 362.5)" stroke="white" stroke-width="0.5">
			</circle>
			<circle id="ALH3_SG_A2011_ASPECT4" cx="800.5" cy="362.5" r="8.25" transform="rotate(-180 800.5 362.5)" stroke="white" stroke-width="0.5">
			</circle>
			<line id="Line 450_3" x1="864.5" y1="354" x2="864.5" y2="371" stroke="white">
			</line>
			<line id="Line 452_3" x1="864" y1="362.265" x2="860" y2="362.265" stroke="white" stroke-width="0.5">
			</line>
		</g>
		<g id="ALH3_SG_A2018">
			<circle id="ALH3_SG_A2018_ASPECT1" cx="405.5" cy="116.5" r="8.25" stroke="white" stroke-width="0.5">
			</circle>
			<circle id="ALH3_SG_A2018_ASPECT2" cx="422.5" cy="116.5" r="8.25" stroke="white" stroke-width="0.5">
			</circle>
			<circle id="ALH3_SG_A2018_ASPECT3" cx="439.5" cy="116.5" r="8.25" stroke="white" stroke-width="0.5">
			</circle>
			<circle id="ALH3_SG_A2018_ASPECT4" cx="456.5" cy="116.5" r="8.25" stroke="white" stroke-width="0.5">
			</circle>
			<line id="Line 450_4" x1="391.5" y1="125" x2="391.5" y2="108" stroke="white">
			</line>
			<line id="Line 452_4" x1="392" y1="115.75" x2="397" y2="115.75" stroke="white" stroke-width="0.5">
			</line>
		</g>
		<g id="ALH3_SG_A2016">
			<circle id="ALH3_SG_A2016_ASPECT1" cx="612.5" cy="116.5" r="8.25" stroke="white" stroke-width="0.5">
			</circle>
			<circle id="ALH3_SG_A2016_ASPECT2" cx="629.5" cy="116.5" r="8.25" stroke="white" stroke-width="0.5">
			</circle>
			<circle id="ALH3_SG_A2016_ASPECT3" cx="646.5" cy="116.5" r="8.25" stroke="white" stroke-width="0.5">
			</circle>
			<circle id="ALH3_SG_A2016_ASPECT4" cx="663.5" cy="116.5" r="8.25" stroke="white" stroke-width="0.5">
			</circle>
			<line id="Line 450_5" x1="598.5" y1="125" x2="598.5" y2="108" stroke="white">
			</line>
			<line id="Line 452_5" x1="599" y1="115.75" x2="604" y2="115.75" stroke="white" stroke-width="0.5">
			</line>
		</g>
		<g id="ALH3_SG_A2014">
			<circle id="ALH3_SG_A2014_ASPECT1" cx="792.5" cy="116.5" r="8.25" stroke="white" stroke-width="0.5">
			</circle>
			<circle id="ALH3_SG_A2014_ASPECT2" cx="809.5" cy="116.5" r="8.25" stroke="white" stroke-width="0.5">
			</circle>
			<circle id="ALH3_SG_A2014_ASPECT3" cx="826.5" cy="116.5" r="8.25" stroke="white" stroke-width="0.5">
			</circle>
			<circle id="ALH3_SG_A2014_ASPECT4" cx="843.5" cy="116.5" r="8.25" stroke="white" stroke-width="0.5">
			</circle>
			<line id="Line 450_6" x1="778.5" y1="125" x2="778.5" y2="108" stroke="white">
			</line>
			<line id="Line 452_6" x1="779" y1="115.75" x2="784" y2="115.75" stroke="white" stroke-width="0.5">
			</line>
		</g>
		<text id="A2018" fill="#47C4EB" xml:space="preserve" style="white-space: pre" font-family="Open Sans" font-size="12" letter-spacing="0em">
			<tspan x="397" y="104.655">
				A2018
			</tspan>
		</text>
		<text id="A2014" fill="#47C4EB" xml:space="preserve" style="white-space: pre" font-family="Open Sans" font-size="12" letter-spacing="0em">
			<tspan x="784" y="104.655">
				A2014
			</tspan>
		</text>
		<text id="A2007" fill="#47C4EB" xml:space="preserve" style="white-space: pre" font-family="Open Sans" font-size="12" letter-spacing="0em">
			<tspan x="387" y="383.655">
				A2007
			</tspan>
		</text>
		<text id="A2009" fill="#47C4EB" xml:space="preserve" style="white-space: pre" font-family="Open Sans" font-size="12" letter-spacing="0em">
			<tspan x="652" y="383.655">
				A2009
			</tspan>
		</text>
		<text id="A2011" fill="#47C4EB" xml:space="preserve" style="white-space: pre" font-family="Open Sans" font-size="12" letter-spacing="0em">
			<tspan x="824" y="383.655">
				A2011
			</tspan>
		</text>
		<text id="A2016" fill="#47C4EB" xml:space="preserve" style="white-space: pre" font-family="Open Sans" font-size="12" letter-spacing="0em">
			<tspan x="604" y="104.655">
				A2016
			</tspan>
		</text>
		<g id="ALH3_WS_BD09">
			<g id="BD09_WS">
				<circle id="Ellipse 327" cx="4" cy="4" r="4" transform="matrix(1 -1.83785e-10 0.00267959 0.999997 396 151)" fill="#AFA089">
				</circle>
				<circle id="Ellipse 328" cx="4" cy="4" r="4" transform="matrix(1 -1.83785e-10 0.00267959 0.999997 414 151)" fill="#AFA089">
				</circle>
				<path id="Line 656" d="M424 155L394 155" stroke="#D9D9D9">
				</path>
			</g>
			<text id="BD09_WS_TEXT" transform="matrix(1 0 0.000665819 1 396 159)" fill="white" xml:space="preserve" style="white-space: pre" font-family="Open Sans" font-size="10" letter-spacing="0em">
				<tspan x="0" y="10.8794">
					BD09
				</tspan>
			</text>
		</g>
		<g id="ALH3_WS_BD08">
			<g id="BD08_WS">
				<ellipse id="Ellipse 327_2" cx="4" cy="4" rx="4" ry="4" transform="matrix(1 -1.83785e-10 0.00267959 0.999996 347 151)" fill="#AFA089">
				</ellipse>
				<ellipse id="Ellipse 328_2" cx="4" cy="4" rx="4" ry="4" transform="matrix(1 -1.83785e-10 0.00267959 0.999996 365 151)" fill="#AFA089">
				</ellipse>
				<path id="Line 656_2" d="M345 155H375" stroke="#D9D9D9">
				</path>
			</g>
			<text id="BD08_WS_TEXT" transform="matrix(1 0 0.000665819 1 347 159)" fill="white" xml:space="preserve" style="white-space: pre" font-family="Open Sans" font-size="10" letter-spacing="0em">
				<tspan x="0.416992" y="10.8794">
					BD08
				</tspan>
			</text>
		</g>
		<!--
		<g id="ALH3_WS_BD07">
		<g id="BD07_WS">
		<ellipse id="Ellipse 327_3" cx="4" cy="4" rx="4" ry="4" transform="matrix(1 -1.83785e-10 0.00267959 0.999996 223 151)" fill="#AFA089"></ellipse>
		<ellipse id="Ellipse 328_3" cx="4" cy="4" rx="4" ry="4" transform="matrix(1 -1.83785e-10 0.00267959 0.999996 241 151)" fill="#AFA089"></ellipse>
		<path id="Line 656_3" d="M221 155H251" stroke="#D9D9D9"></path>
		</g>
		<text id="BD07_WS_TEXT" transform="matrix(1 0 0.000665819 1 223 159)" fill="white" xml:space="preserve" style="white-space: pre" font-family="Open Sans" font-size="10" letter-spacing="0em"><tspan x="0" y="10.8794">BD07</tspan></text>
		</g>
		-->
		<!--
		<g id="ALH3_WS_SD03">
		<g id="SD03_WS">
		<ellipse id="Ellipse 327_4" cx="4.61218" cy="4.39038" rx="4.61218" ry="4.39038" transform="matrix(1 -1.83785e-10 0.00267959 0.999996 223 196)" fill="#AFA089"></ellipse>
		<ellipse id="Ellipse 328_4" cx="4.61218" cy="4.39038" rx="4.61218" ry="4.39038" transform="matrix(1 -1.83785e-10 0.00267959 0.999996 240 196)" fill="#AFA089"></ellipse>
		<path id="Line 656_4" d="M221.012 200H251.012" stroke="#D9D9D9"></path>
		</g>
		<text id="SD03_WS_TEXT" transform="matrix(1 0 0.000665819 1 224 182)" fill="white" xml:space="preserve" style="white-space: pre" font-family="Open Sans" font-size="10" letter-spacing="0em"><tspan x="0" y="10.8794">SD03</tspan></text>
		</g>
		-->
		<g id="ALH3_WS_SD04">
			<g id="SD03_WS_2">
				<ellipse id="Ellipse 327_5" cx="4" cy="4" rx="4" ry="4" transform="matrix(1 -1.83785e-10 0.00267959 0.999996 347 196)" fill="#AFA089">
				</ellipse>
				<ellipse id="Ellipse 328_5" cx="4" cy="4" rx="4" ry="4" transform="matrix(1 -1.83785e-10 0.00267959 0.999996 364 196)" fill="#AFA089">
				</ellipse>
				<path id="Line 656_5" d="M345 200H375" stroke="#D9D9D9">
				</path>
			</g>
			<text id="SD04_WS_TEXT" transform="matrix(1 0 0.000665819 1 347 182)" fill="white" xml:space="preserve" style="white-space: pre" font-family="Open Sans" font-size="10" letter-spacing="0em">
				<tspan x="0" y="10.8794">
					SD04
				</tspan>
			</text>
		</g>
		<g id="ALH3_WS_SD05">
			<g id="SD05_WS">
				<ellipse id="Ellipse 327_6" cx="4" cy="4" rx="4" ry="4" transform="matrix(1 -1.83785e-10 0.00267959 0.999996 396 196)" fill="#AFA089">
				</ellipse>
				<ellipse id="Ellipse 328_6" cx="4" cy="4" rx="4" ry="4" transform="matrix(1 -1.83785e-10 0.00267959 0.999996 414 196)" fill="#AFA089">
				</ellipse>
				<path id="Line 656_6" d="M424 200H394" stroke="#D9D9D9">
				</path>
			</g>
			<text id="SD05_WS_TEXT" transform="matrix(1 0 0.000665819 1 396 182)" fill="white" xml:space="preserve" style="white-space: pre" font-family="Open Sans" font-size="10" letter-spacing="0em">
				<tspan x="0" y="10.8794">
					SD05
				</tspan>
			</text>
		</g>
		<g id="ALH3_WS_SD06">
			<g id="SD06_WS">
				<ellipse id="Ellipse 327_7" cx="4" cy="4" rx="4" ry="4" transform="matrix(1 -1.83785e-10 0.00267959 0.999996 723 196)" fill="#AFA089">
				</ellipse>
				<ellipse id="Ellipse 328_7" cx="4" cy="4" rx="4" ry="4" transform="matrix(1 -1.83785e-10 0.00267959 0.999996 741 196)" fill="#AFA089">
				</ellipse>
				<path id="Line 656_7" d="M751 200H721" stroke="#D9D9D9">
				</path>
			</g>
			<text id="SD06_WS_TEXT" transform="matrix(1 0 0.000665819 1 723 182)" fill="white" xml:space="preserve" style="white-space: pre" font-family="Open Sans" font-size="10" letter-spacing="0em">
				<tspan x="0.405273" y="10.8794">
					SD06
				</tspan>
			</text>
		</g>
		<!--
		<g id="ALH3_WS_SD06_2">
		<g id="SD06_WS_2">
		<ellipse id="Ellipse 327_8" cx="4" cy="4" rx="4" ry="4" transform="matrix(1 -1.83785e-10 0.00267959 0.999996 1072 277)" fill="#AFA089"></ellipse>
		<ellipse id="Ellipse 328_8" cx="4" cy="4" rx="4" ry="4" transform="matrix(1 -1.83785e-10 0.00267959 0.999996 1090 277)" fill="#AFA089"></ellipse>
		<path id="Line 656_8" d="M1070 281H1100" stroke="#D9D9D9"></path>
		</g>
		<text id="SD06_WS_TEXT_2" transform="matrix(1 0 0.000665819 1 1072 285)" fill="white" xml:space="preserve" style="white-space: pre" font-family="Open Sans" font-size="10" letter-spacing="0em"><tspan x="0.385742" y="10.8794">SU10</tspan></text>
		</g>
		-->
		<g id="ALH3_WS_SU09">
			<g id="SU09_WS">
				<ellipse id="Ellipse 327_9" cx="4" cy="4" rx="4" ry="4" transform="matrix(-1 1.83785e-10 -0.00267959 -0.999996 248.021 285)" fill="#AFA089">
				</ellipse>
				<ellipse id="Ellipse 328_9" cx="4" cy="4" rx="4" ry="4" transform="matrix(-1 1.83785e-10 -0.00267959 -0.999996 230.021 285)" fill="#AFA089">
				</ellipse>
				<path id="Line 656_9" d="M220.106 280.809H250.106" stroke="#D9D9D9">
				</path>
			</g>
			<text id="SU09_WS_TEXT" transform="matrix(1 0 0.000665819 1 222 285)" fill="white" xml:space="preserve" style="white-space: pre" font-family="Open Sans" font-size="10" letter-spacing="0em">
				<tspan x="0" y="10.8794">
					SU09
				</tspan>
			</text>
		</g>
		<g id="ALH3_WS_BD10">
			<g id="BD10_WS">
				<ellipse id="Ellipse 327_10" cx="4" cy="4" rx="4" ry="4" transform="matrix(1 -1.83785e-10 0.00267959 0.999996 551 151)" fill="#AFA089">
				</ellipse>
				<ellipse id="Ellipse 328_10" cx="4" cy="4" rx="4" ry="4" transform="matrix(1 -1.83785e-10 0.00267959 0.999996 569 151)" fill="#AFA089">
				</ellipse>
				<path id="Line 656_10" d="M549 155H579" stroke="#D9D9D9">
				</path>
			</g>
			<text id="BD10_WS_TEXT" transform="matrix(1 0 0.000665819 1 551 159)" fill="white" xml:space="preserve" style="white-space: pre" font-family="Open Sans" font-size="10" letter-spacing="0em">
				<tspan x="0" y="10.8794">
					BD10
				</tspan>
			</text>
		</g>
		<g id="ALH3_WS_BU17">
			<g id="BU17_WS">
				<ellipse id="Ellipse 327_11" cx="4" cy="4" rx="4" ry="4" transform="matrix(1 -1.83785e-10 0.00267959 0.999996 450 320)" fill="#AFA089">
				</ellipse>
				<ellipse id="Ellipse 328_11" cx="4" cy="4" rx="4" ry="4" transform="matrix(1 -1.83785e-10 0.00267959 0.999996 468 320)" fill="#AFA089">
				</ellipse>
				<path id="Line 656_11" d="M448 324H478" stroke="#D9D9D9">
				</path>
			</g>
			<text id="BU17_WS_TEXT" transform="matrix(1 0 0.000665819 1 450 306)" fill="white" xml:space="preserve" style="white-space: pre" font-family="Open Sans" font-size="10" letter-spacing="0em">
				<tspan x="0.397461" y="10.8794">
					BU17
				</tspan>
			</text>
		</g>
		<g id="ALH3_WS_BU19">
			<g id="BU19_WS">
				<circle id="Ellipse 327_12" cx="4" cy="4" r="4" transform="matrix(1 -1.83785e-10 0.00267959 0.999996 222 320)" fill="#AFA089">
				</circle>
				<circle id="Ellipse 328_12" cx="4" cy="4" r="4" transform="matrix(1 -1.83785e-10 0.00267959 0.999996 240 320)" fill="#AFA089">
				</circle>
				<path id="Line 656_12" d="M220 324H250" stroke="#D9D9D9">
				</path>
			</g>
			<text id="BU19_WS_TEXT" transform="matrix(1 0 0.000665819 1 222 306)" fill="white" xml:space="preserve" style="white-space: pre" font-family="Open Sans" font-size="10" letter-spacing="0em">
				<tspan x="0" y="10.8794">
					BU19
				</tspan>
			</text>
		</g>
		<!--
		<g id="ALH3_WS_BU20">
		<g id="BU20_WS">
		<ellipse id="Ellipse 327_13" cx="4" cy="4" rx="4" ry="4" transform="matrix(1 -1.83785e-10 0.00267959 0.999996 403 320)" fill="#AFA089"></ellipse>
		<ellipse id="Ellipse 328_13" cx="4" cy="4" rx="4" ry="4" transform="matrix(1 -1.83785e-10 0.00267959 0.999996 421 320)" fill="#AFA089"></ellipse>
		<path id="Line 656_13" d="M401.012 324.39H431.012" stroke="#D9D9D9"></path>
		</g>
		<text id="BU20_WS_TEXT" transform="matrix(1 0 0.000665819 1 403 306)" fill="white" xml:space="preserve" style="white-space: pre" font-family="Open Sans" font-size="10" letter-spacing="0em"><tspan x="0" y="10.8794">BU20</tspan></text>
		</g>
		-->
		<g id="ALH3_WS_BU18">
			<g id="BU18_WS">
				<ellipse id="Ellipse 327_14" cx="4" cy="4" rx="4" ry="4" transform="matrix(1 -1.83785e-10 0.00267959 0.999996 664 320)" fill="#AFA089">
				</ellipse>
				<ellipse id="Ellipse 328_14" cx="4" cy="4" rx="4" ry="4" transform="matrix(1 -1.83785e-10 0.00267959 0.999996 682 320)" fill="#AFA089">
				</ellipse>
				<path id="Line 656_14" d="M662 324H692" stroke="#D9D9D9">
				</path>
			</g>
			<text id="BU18_WS_TEXT" transform="matrix(1 0 0.000665819 1 664 306)" fill="white" xml:space="preserve" style="white-space: pre" font-family="Open Sans" font-size="10" letter-spacing="0em">
				<tspan x="0.397461" y="10.8794">
					BU18
				</tspan>
			</text>
		</g>
		<g id="ALH3_WS_BU15">
			<g id="BU15_WS">
				<ellipse id="Ellipse 327_15" cx="4" cy="4" rx="4" ry="4" transform="matrix(1 -1.83785e-10 0.00267959 0.999996 717 320)" fill="#AFA089">
				</ellipse>
				<ellipse id="Ellipse 328_15" cx="4" cy="4" rx="4" ry="4" transform="matrix(1 -1.83785e-10 0.00267959 0.999996 735 320)" fill="#AFA089">
				</ellipse>
				<path id="Line 656_15" d="M715 324H745" stroke="#D9D9D9">
				</path>
			</g>
			<text id="BU15_WS_TEXT" transform="matrix(1 0 0.000665819 1 717 306)" fill="white" xml:space="preserve" style="white-space: pre" font-family="Open Sans" font-size="10" letter-spacing="0em">
				<tspan x="0.397461" y="10.8794">
					BU15
				</tspan>
			</text>
		</g>
		<g id="ALH3_WS_BU16">
			<g id="BU16_WS">
				<ellipse id="Ellipse 327_16" cx="4" cy="4" rx="4" ry="4" transform="matrix(1 -1.83785e-10 0.00267959 0.999996 833 320)" fill="#AFA089">
				</ellipse>
				<ellipse id="Ellipse 328_16" cx="4" cy="4" rx="4" ry="4" transform="matrix(1 -1.83785e-10 0.00267959 0.999996 851 320)" fill="#AFA089">
				</ellipse>
				<path id="Line 656_16" d="M831 324H861" stroke="#D9D9D9">
				</path>
			</g>
			<text id="BU16_WS_TEXT" transform="matrix(1 0 0.000665819 1 833 306)" fill="white" xml:space="preserve" style="white-space: pre" font-family="Open Sans" font-size="10" letter-spacing="0em">
				<tspan x="0.397461" y="10.8794">
					BU16
				</tspan>
			</text>
		</g>
		<!--
		<g id="ALH3_WS_BU13">
		<g id="BU13_WS">
		<ellipse id="Ellipse 327_17" cx="4" cy="4" rx="4" ry="4" transform="matrix(1 -1.83785e-10 0.00267959 0.999996 888 320)" fill="#AFA089"></ellipse>
		<ellipse id="Ellipse 328_17" cx="4" cy="4" rx="4" ry="4" transform="matrix(1 -1.83785e-10 0.00267959 0.999996 906 320)" fill="#AFA089"></ellipse>
		<path id="Line 656_17" d="M886 324H916" stroke="#D9D9D9"></path>
		</g>
		<text id="BU13_WS_TEXT" transform="matrix(1 0 0.000665819 1 888 306)" fill="white" xml:space="preserve" style="white-space: pre" font-family="Open Sans" font-size="10" letter-spacing="0em"><tspan x="0.397461" y="10.8794">BU13</tspan></text>
		</g>
		-->
		<g id="ALH3_WS_BU14">
			<g id="BU14_WS">
				<ellipse id="Ellipse 327_18" cx="4" cy="4" rx="4" ry="4" transform="matrix(1 -1.83785e-10 0.00267959 0.999996 1072.01 320)" fill="#AFA089">
				</ellipse>
				<ellipse id="Ellipse 328_18" cx="4" cy="4" rx="4" ry="4" transform="matrix(1 -1.83785e-10 0.00267959 0.999996 1090.01 320)" fill="#AFA089">
				</ellipse>
				<path id="Line 656_18" d="M1070.01 324H1100.01" stroke="#D9D9D9">
				</path>
			</g>
			<text id="BU14_WS_TEXT" transform="matrix(1 0 0.000665819 1 1072 306)" fill="white" xml:space="preserve" style="white-space: pre" font-family="Open Sans" font-size="10" letter-spacing="0em">
				<tspan x="0.397461" y="10.8794">
					BU14
				</tspan>
			</text>
		</g>
		<g id="ALH3_WS_SD07">
			<g id="SD07_WS">
				<ellipse id="Ellipse 327_19" cx="4" cy="4" rx="4" ry="4" transform="matrix(1 -1.83785e-10 0.00267959 0.999996 776 196)" fill="#AFA089">
				</ellipse>
				<ellipse id="Ellipse 328_19" cx="4" cy="4" rx="4" ry="4" transform="matrix(1 -1.83785e-10 0.00267959 0.999996 794 196)" fill="#AFA089">
				</ellipse>
				<path id="Line 656_19" d="M774 200H804" stroke="#D9D9D9">
				</path>
			</g>
			<text id="SD07_WS_TEXT" transform="matrix(1 0 0.000665819 1 776 182)" fill="white" xml:space="preserve" style="white-space: pre" font-family="Open Sans" font-size="10" letter-spacing="0em">
				<tspan x="0.405273" y="10.8794">
					SD07
				</tspan>
			</text>
		</g>
		<g id="ALH3_WS_BD13">
			<g id="BD13_WS">
				<ellipse id="Ellipse 327_20" cx="4" cy="4" rx="4" ry="4" transform="matrix(1 -1.83785e-10 0.00267959 0.999996 776 151)" fill="#AFA089">
				</ellipse>
				<ellipse id="Ellipse 328_20" cx="4" cy="4" rx="4" ry="4" transform="matrix(1 -1.83785e-10 0.00267959 0.999996 794 151)" fill="#AFA089">
				</ellipse>
				<path id="Line 656_20" d="M774 155H804" stroke="#D9D9D9">
				</path>
			</g>
			<text id="BD13_WS_TEXT" transform="matrix(1 0 0.000665819 1 776 159)" fill="white" xml:space="preserve" style="white-space: pre" font-family="Open Sans" font-size="10" letter-spacing="0em">
				<tspan x="0.416992" y="10.8794">
					BD13
				</tspan>
			</text>
		</g>
		<g id="ALH3_WS_BD12">
			<g id="BD12_WS">
				<ellipse id="Ellipse 327_21" cx="4" cy="4" rx="4" ry="4" transform="matrix(1 -1.83785e-10 0.00267959 0.999996 723 151)" fill="#AFA089">
				</ellipse>
				<ellipse id="Ellipse 328_21" cx="4" cy="4" rx="4" ry="4" transform="matrix(1 -1.83785e-10 0.00267959 0.999996 741 151)" fill="#AFA089">
				</ellipse>
				<path id="Line 656_21" d="M721 155H751" stroke="#D9D9D9">
				</path>
			</g>
			<text id="BD12_WS_TEXT" transform="matrix(1 0 0.00066582 1 723 159)" fill="white" xml:space="preserve" style="white-space: pre" font-family="Open Sans" font-size="10" letter-spacing="0em">
				<tspan x="0.416992" y="10.8794">
					BD12
				</tspan>
			</text>
		</g>
		<g id="ALH3_WS_BD11">
			<g id="BD11_WS">
				<ellipse id="Ellipse 327_22" cx="4" cy="4" rx="4" ry="4" transform="matrix(1 -1.83785e-10 0.00267959 0.999996 604.327 151)" fill="#AFA089">
				</ellipse>
				<ellipse id="Ellipse 328_22" cx="4" cy="4" rx="4" ry="4" transform="matrix(1 -1.83785e-10 0.00267959 0.999996 622 151)" fill="#AFA089">
				</ellipse>
				<path id="Line 656_22" d="M602 155H632" stroke="#D9D9D9">
				</path>
			</g>
			<text id="BD11_WS_TEXT" transform="matrix(1 0 0.00066582 1 604 159)" fill="white" xml:space="preserve" style="white-space: pre" font-family="Open Sans" font-size="10" letter-spacing="0em">
				<tspan x="0.416992" y="10.8794">
					BD11
				</tspan>
			</text>
		</g>
		<!--
		<g id="ALH3_WS_BD14">
		<g id="BD14_WS">
		<ellipse id="Ellipse 327_23" cx="4" cy="4" rx="4" ry="4" transform="matrix(1 -1.83785e-10 0.00267959 0.999996 1068 151)" fill="#AFA089"></ellipse>
		<ellipse id="Ellipse 328_23" cx="4" cy="4" rx="4" ry="4" transform="matrix(1 -1.83785e-10 0.00267959 0.999996 1086 151)" fill="#AFA089"></ellipse>
		<path id="Line 656_23" d="M1066 155H1096" stroke="#D9D9D9"></path>
		</g>
		<text id="BD14_WS_TEXT" transform="matrix(1 0 0.000665819 1 1068 159)" fill="white" xml:space="preserve" style="white-space: pre" font-family="Open Sans" font-size="10" letter-spacing="0em"><tspan x="0.416992" y="10.8794">BD14</tspan></text>
		</g>
		-->
		<!--
		<g id="ALH3_WS_SD08">
		<g id="SD08_WS">
		<ellipse id="Ellipse 327_24" cx="4" cy="4" rx="4" ry="4" transform="matrix(1 -1.83785e-10 0.00267959 0.999996 1068 196)" fill="#AFA089"></ellipse>
		<ellipse id="Ellipse 328_24" cx="4" cy="4" rx="4" ry="4" transform="matrix(1 -1.83785e-10 0.00267959 0.999996 1086 196)" fill="#AFA089"></ellipse>
		<path id="Line 656_24" d="M1066 200H1096" stroke="#D9D9D9"></path>
		</g>
		<text id="SD08_WS_TEXT" transform="matrix(1 0 0.000665819 1 1068 182)" fill="white" xml:space="preserve" style="white-space: pre" font-family="Open Sans" font-size="10" letter-spacing="0em"><tspan x="0.405273" y="10.8794">SD08</tspan></text>
		</g>
		-->
		<text id="ALH 3 (NEW ATELI)" fill="white" xml:space="preserve" style="white-space: pre" font-family="Open Sans" font-size="20" letter-spacing="0em">
			<tspan x="524" y="37.2588">
				ALH 3 (NEW ATELI)
			</tspan>
		</text>
		<g id="DN MARK">
			<text id="DN" fill="#47C4EB" stroke="white" xml:space="preserve" style="white-space: pre" font-family="Open Sans" font-size="15" letter-spacing="0em">
				<tspan x="206" y="73.8191">
					DN
				</tspan>
			</text>
			<path id="Arrow 3" d="M265.354 68.3536C265.549 68.1583 265.549 67.8417 265.354 67.6464L262.172 64.4645C261.976 64.2692 261.66 64.2692 261.464 64.4645C261.269 64.6597 261.269 64.9763 261.464 65.1716L264.293 68L261.464 70.8284C261.269 71.0237 261.269 71.3403 261.464 71.5355C261.66 71.7308 261.976 71.7308 262.172 71.5355L265.354 68.3536ZM236 68.5H265V67.5H236V68.5Z" fill="white">
			</path>
		</g>
		<g id="UP MARK">
			<g id="Group 651">
				<text id="UP" fill="#47C4EB" stroke="white" xml:space="preserve" style="white-space: pre" font-family="Open Sans" font-size="15" letter-spacing="0em">
					<tspan x="245" y="413.819">
						UP
					</tspan>
				</text>
				<path id="Arrow 3_2" d="M205.646 407.646C205.451 407.842 205.451 408.158 205.646 408.354L208.828 411.536C209.024 411.731 209.34 411.731 209.536 411.536C209.731 411.34 209.731 411.024 209.536 410.828L206.707 408L209.536 405.172C209.731 404.976 209.731 404.66 209.536 404.464C209.34 404.269 209.024 404.269 208.828 404.464L205.646 407.646ZM235 407.5H206V408.5H235V407.5Z" fill="white">
				</path>
			</g>
		</g>
	</g>
</svg>
