<svg width="1229" height="476" viewBox="0 0 1229 476" fill="none" xmlns="http://www.w3.org/2000/svg">
<g id="ALH 006">
<rect width="1229" height="476" fill="black"></rect>
<path id="2114XT_LINE" d="M224 147L400 147" stroke="#6B7280" stroke-width="4"></path>
<path id="2112XT_LINE" d="M403 147H607" stroke="#6B7280" stroke-width="4"></path>
<path id="2110XT_LINE" d="M609 147L817 147" stroke="#6B7280" stroke-width="4"></path>
<path id="2108XT_LINE" d="M821 147L1035.5 147" stroke="#6B7280" stroke-width="4"></path>
<path id="2110XT_2108XT_LINE" d="M613 207L1036.5 207" stroke="#6B7280" stroke-width="4" stroke-dasharray="2.5 2.5"></path>
<path id="2129XT_LINE" d="M710 329.375L889.5 329.375" stroke="#6B7280" stroke-width="4"></path>
<path id="2127XT_LINE" d="M493 330L704 329.5" stroke="#6B7280" stroke-width="4"></path>
<line id="2114XT_2112XT_LINE" x1="224" y1="207" x2="607" y2="207" stroke="#6B7280" stroke-width="4" stroke-dasharray="2.5 2.5"></line>
<line id="2125XT_2123XT_LINE" y1="-2" x2="232.408" y2="-2" transform="matrix(0.999998 -0.00215139 0.00287621 0.999996 224 271.5)" stroke="#6B7280" stroke-width="4" stroke-dasharray="2.5 2.5"></line>
<path id="2125XT_LINE" d="M224 330H482.5" stroke="#6B7280" stroke-width="4"></path>
<path id="2133XT_2131XT_LINE" d="M868 267.375H1041" stroke="#6B7280" stroke-width="4" stroke-dasharray="2.5 2.5"></path>
<line id="2131XT_LINE" x1="894" y1="329" x2="1041" y2="329" stroke="#6B7280" stroke-width="4"></line>
<path id="2129XT_2127XT_LINE" d="M473 268L859.5 267.375" stroke="#6B7280" stroke-width="4" stroke-dasharray="2.5 2.5"></path>
<text id="2110XT" fill="#47C4EB" xml:space="preserve" style="white-space: pre" font-family="Open Sans" font-size="12" letter-spacing="0em"><tspan x="692" y="138.655">2110XT</tspan></text>
<text id="2108XT" fill="#47C4EB" xml:space="preserve" style="white-space: pre" font-family="Open Sans" font-size="12" letter-spacing="0em"><tspan x="907" y="138.655">2108XT</tspan></text>
<text id="2131XT" fill="#47C4EB" xml:space="preserve" style="white-space: pre" font-family="Open Sans" font-size="12" letter-spacing="0em"><tspan x="947" y="346.655">2131XT</tspan></text>
<text id="2110XT_2108XT" fill="#47C4EB" xml:space="preserve" style="white-space: pre" font-family="Open Sans" font-size="12" letter-spacing="0em"><tspan x="781" y="224.655">2110XT_2108XT</tspan></text>
<text id="2129XT_2127XT" fill="#47C4EB" xml:space="preserve" style="white-space: pre" font-family="Open Sans" font-size="12" letter-spacing="0em"><tspan x="622" y="260.655">2129XT_2127XT</tspan></text>
<text id="2114XT_2112XT" fill="#47C4EB" xml:space="preserve" style="white-space: pre" font-family="Open Sans" font-size="12" letter-spacing="0em"><tspan x="419" y="225.655">2114XT_2112XT</tspan></text>
<text id="2125XT" fill="#47C4EB" xml:space="preserve" style="white-space: pre" font-family="Open Sans" font-size="12" letter-spacing="0em"><tspan x="338" y="347.655">2125XT</tspan></text>
<text id="2127XT" fill="#47C4EB" xml:space="preserve" style="white-space: pre" font-family="Open Sans" font-size="12" letter-spacing="0em"><tspan x="577" y="347.655">2127XT</tspan></text>
<text id="2129XT" fill="#47C4EB" xml:space="preserve" style="white-space: pre" font-family="Open Sans" font-size="12" letter-spacing="0em"><tspan x="779" y="347.655">2129XT</tspan></text>
<text id="2112XT" fill="#47C4EB" xml:space="preserve" style="white-space: pre" font-family="Open Sans" font-size="12" letter-spacing="0em"><tspan x="485" y="138.655">2112XT</tspan></text>
<text id="2133XT_2131XT" fill="#47C4EB" xml:space="preserve" style="white-space: pre" font-family="Open Sans" font-size="12" letter-spacing="0em"><tspan x="911" y="260.655">2133XT_2131XT</tspan></text>
<text id="2114XT" fill="#47C4EB" xml:space="preserve" style="white-space: pre" font-family="Open Sans" font-size="12" letter-spacing="0em"><tspan x="291" y="138.655">2114XT</tspan></text>
<text id="2125XT_2123XT" fill="#47C4EB" xml:space="preserve" style="white-space: pre" font-family="Open Sans" font-size="12" letter-spacing="0em"><tspan x="303" y="260.655">2125XT_2123XT</tspan></text>
<g id="ALH6_SG_A2125">
<circle id="ALH6_SG_A2125_ASPECT4" cx="405.5" cy="360.5" r="8.25" stroke="white" stroke-width="0.5"></circle>
<circle id="ALH6_SG_A2125_ASPECT3" cx="422.5" cy="360.5" r="8.25" stroke="white" stroke-width="0.5"></circle>
<circle id="ALH6_SG_A2125_ASPECT2" cx="439.5" cy="360.5" r="8.25" stroke="white" stroke-width="0.5"></circle>
<circle id="ALH6_SG_A2125_ASPECT1" cx="456.5" cy="360.5" r="8.25" stroke="white" stroke-width="0.5"></circle>
<path id="Line 390" d="M465 360H473" stroke="white" stroke-width="0.5"></path>
<line id="Line 388" x1="473.625" y1="352" x2="473.625" y2="369" stroke="white" stroke-width="1.25"></line>
</g>
<g id="ALH6_SG_A2127">
<circle id="ALH6_SG_A2127_ASPECT4" cx="624.5" cy="360.5" r="8.25" stroke="white" stroke-width="0.5"></circle>
<circle id="ALH6_SG_A2127_ASPECT3" cx="641.5" cy="360.5" r="8.25" stroke="white" stroke-width="0.5"></circle>
<circle id="ALH6_SG_A2127_ASPECT2" cx="658.5" cy="360.5" r="8.25" stroke="white" stroke-width="0.5"></circle>
<circle id="ALH6_SG_A2127_ASPECT1" cx="675.5" cy="360.5" r="8.25" stroke="white" stroke-width="0.5"></circle>
<path id="Line 390_2" d="M684 360H692" stroke="white" stroke-width="0.5"></path>
<line id="Line 388_2" x1="692.625" y1="352" x2="692.625" y2="369" stroke="white" stroke-width="1.25"></line>
</g>
<g id="ALH6_SG_A2129">
<circle id="ALH6_SG_A2129_ASPECT4" cx="808.5" cy="359.5" r="8.25" stroke="white" stroke-width="0.5"></circle>
<circle id="ALH6_SG_A2129_ASPECT3" cx="825.5" cy="359.5" r="8.25" stroke="white" stroke-width="0.5"></circle>
<circle id="ALH6_SG_A2129_ASPECT2" cx="842.5" cy="359.5" r="8.25" stroke="white" stroke-width="0.5"></circle>
<circle id="ALH6_SG_A2129_ASPECT1" cx="859.5" cy="359.5" r="8.25" stroke="white" stroke-width="0.5"></circle>
<path id="Line 390_3" d="M868 359H876" stroke="white" stroke-width="0.5"></path>
<line id="Line 388_3" x1="876.625" y1="351" x2="876.625" y2="368" stroke="white" stroke-width="1.25"></line>
</g>
<g id="ALH6_SG_A2112">
<circle id="ALH6_SG_A2112_ASPECT4" cx="8.5" cy="8.5" r="8.25" transform="matrix(-1 0 0 1 490 107)" stroke="white" stroke-width="0.5"></circle>
<circle id="ALH6_SG_A2112_ASPECT3" cx="8.5" cy="8.5" r="8.25" transform="matrix(-1 0 0 1 472.997 107)" stroke="white" stroke-width="0.5"></circle>
<circle id="ALH6_SG_A2112_ASPECT2" cx="8.5" cy="8.5" r="8.25" transform="matrix(-1 0 0 1 456 107)" stroke="white" stroke-width="0.5"></circle>
<circle id="ALH6_SG_A2112_ASPECT1" cx="8.5" cy="8.5" r="8.25" transform="matrix(-1 0 0 1 439 107)" stroke="white" stroke-width="0.5"></circle>
<line id="Line 398" x1="422" y1="115.25" x2="413" y2="115.25" stroke="white" stroke-width="0.5"></line>
<line id="Line 397" y1="-0.625" x2="17" y2="-0.625" transform="matrix(0 1 1 0 413 107)" stroke="white" stroke-width="1.25"></line>
</g>
<g id="ALH6_SG_A2110">
<circle id="ALH6_SG_A2110_ASPECT4" cx="8.5" cy="8.5" r="8.25" transform="matrix(-1 0 0 1 698 108)" stroke="white" stroke-width="0.5"></circle>
<circle id="ALH6_SG_A2110_ASPECT3" cx="8.5" cy="8.5" r="8.25" transform="matrix(-1 0 0 1 681 108)" stroke="white" stroke-width="0.5"></circle>
<circle id="ALH6_SG_A2110_ASPECT2" cx="8.5" cy="8.5" r="8.25" transform="matrix(-1 0 0 1 664 108)" stroke="white" stroke-width="0.5"></circle>
<circle id="ALH6_SG_A2110_ASPECT1" cx="8.5" cy="8.5" r="8.25" transform="matrix(-1 0 0 1 647 108)" stroke="white" stroke-width="0.5"></circle>
<line id="Line 402" y1="-0.25" x2="8" y2="-0.25" transform="matrix(-1 0 0 1 630 116.794)" stroke="white" stroke-width="0.5"></line>
<line id="Line 400" y1="-0.625" x2="17" y2="-0.625" transform="matrix(0 1 1 0 622 108)" stroke="white" stroke-width="1.25"></line>
</g>
<g id="ALH6_SG_A2108">
<circle id="ALH6_SG_A2108_ASPECT4" cx="8.5" cy="8.5" r="8.25" transform="matrix(-1 0 0 1 907 108)" stroke="white" stroke-width="0.5"></circle>
<circle id="ALH6_SG_A2108_ASPECT3" cx="8.5" cy="8.5" r="8.25" transform="matrix(-1 0 0 1 890 108)" stroke="white" stroke-width="0.5"></circle>
<circle id="ALH6_SG_A2108_ASPECT2" cx="8.5" cy="8.5" r="8.25" transform="matrix(-1 0 0 1 873 108)" stroke="white" stroke-width="0.5"></circle>
<circle id="ALH6_SG_A2108_ASPECT1" cx="8.5" cy="8.5" r="8.25" transform="matrix(-1 0 0 1 856 108)" stroke="white" stroke-width="0.5"></circle>
<line id="Line 405" y1="-0.25" x2="8" y2="-0.25" transform="matrix(-1 0 0 1 839 117)" stroke="white" stroke-width="0.5"></line>
<line id="Line 403" y1="-0.625" x2="17" y2="-0.625" transform="matrix(0 1 1 0 831 108)" stroke="white" stroke-width="1.25"></line>
</g>
<text id="A2112" fill="#47C4EB" xml:space="preserve" style="white-space: pre" font-family="Open Sans" font-size="12" letter-spacing="0em"><tspan x="422" y="103.655">A2112</tspan></text>
<text id="A2110" fill="#47C4EB" xml:space="preserve" style="white-space: pre" font-family="Open Sans" font-size="12" letter-spacing="0em"><tspan x="630" y="104.655">A2110</tspan></text>
<text id="A2108" fill="#47C4EB" xml:space="preserve" style="white-space: pre" font-family="Open Sans" font-size="12" letter-spacing="0em"><tspan x="839" y="103.655">A2108</tspan></text>
<text id="A2125" fill="#47C4EB" xml:space="preserve" style="white-space: pre" font-family="Open Sans" font-size="12" letter-spacing="0em"><tspan x="429" y="381.655">A2125</tspan></text>
<text id="A2127" fill="#47C4EB" xml:space="preserve" style="white-space: pre" font-family="Open Sans" font-size="12" letter-spacing="0em"><tspan x="648" y="381.655">A2127</tspan></text>
<text id="A2129" fill="#47C4EB" xml:space="preserve" style="white-space: pre" font-family="Open Sans" font-size="12" letter-spacing="0em"><tspan x="832" y="380.655">A2129</tspan></text>
<!-- <g id="ALH6_WS_BD32">
<g id="BD32_WS">
<ellipse id="Ellipse 327" cx="4.0002" cy="3.99982" rx="4.0002" ry="3.99982" transform="matrix(0.999949 0 0.00142933 1.00004 1008 151)" fill="#AFA089"></ellipse>
<ellipse id="Ellipse 328" cx="4" cy="4.00001" rx="4" ry="4.00001" transform="matrix(1 -2.17511e-09 -0.0006948 0.999997 1019.01 151)" fill="#AFA089"></ellipse>
<path id="Line 656" d="M1006 155.5H1029" stroke="#D9D9D9"></path>
</g>
<text id="BD32_WS_TEXT" transform="matrix(0.99999 0 0.000990259 1.00001 1005 159)" fill="white" xml:space="preserve" style="white-space: pre" font-family="Open Sans" font-size="10" letter-spacing="0em"><tspan x="0" y="10.8794">BD32</tspan></text>
</g> -->
<g id="ALH6_WS_BD31">
<g id="BD31_WS">
<ellipse id="Ellipse 327_2" cx="4.0002" cy="3.99982" rx="4.0002" ry="3.99982" transform="matrix(0.999949 0 0.00142933 1.00004 831 151)" fill="#AFA089"></ellipse>
<ellipse id="Ellipse 328_2" cx="4" cy="4.00001" rx="4" ry="4.00001" transform="matrix(1 -2.17511e-09 -0.0006948 0.999997 842.005 151)" fill="#AFA089"></ellipse>
<path id="Line 656_2" d="M829 155.5H852" stroke="#D9D9D9"></path>
</g>
<text id="BD31_WS_TEXT" transform="matrix(0.99999 0 0.000990259 1.00001 827 159)" fill="white" xml:space="preserve" style="white-space: pre" font-family="Open Sans" font-size="10" letter-spacing="0em"><tspan x="0.416992" y="10.8794">BD31</tspan></text>
</g>
<g id="ALH6_WS_BD30">
<g id="BD30_WS">
<ellipse id="Ellipse 327_3" cx="4.0002" cy="3.99982" rx="4.0002" ry="3.99982" transform="matrix(0.999949 0 0.00142933 1.00004 787 151)" fill="#AFA089"></ellipse>
<ellipse id="Ellipse 328_3" cx="4" cy="4.00001" rx="4" ry="4.00001" transform="matrix(1 -2.17511e-09 -0.0006948 0.999997 798.004 151)" fill="#AFA089"></ellipse>
<path id="Line 656_3" d="M785 155.5H808" stroke="#D9D9D9"></path>
</g>
<text id="BD30_WS_TEXT" transform="matrix(0.99999 0 0.000990259 1.00001 783 159)" fill="white" xml:space="preserve" style="white-space: pre" font-family="Open Sans" font-size="10" letter-spacing="0em"><tspan x="0" y="10.8794">BD30</tspan></text>
</g>
<g id="ALH6_WS_BD29">
<g id="BD29_WS">
<ellipse id="Ellipse 327_4" cx="4.0002" cy="3.99982" rx="4.0002" ry="3.99982" transform="matrix(0.999949 0 0.00142933 1.00004 624 151)" fill="#AFA089"></ellipse>
<ellipse id="Ellipse 328_4" cx="4" cy="4.00001" rx="4" ry="4.00001" transform="matrix(1 -2.17511e-09 -0.0006948 0.999997 635.005 151)" fill="#AFA089"></ellipse>
<path id="Line 656_4" d="M622 155.5H645" stroke="#D9D9D9"></path>
</g>
<text id="BD29_WS_TEXT" transform="matrix(0.99999 0 0.000990259 1.00001 620 159)" fill="white" xml:space="preserve" style="white-space: pre" font-family="Open Sans" font-size="10" letter-spacing="0em"><tspan x="0" y="10.8794">BD29</tspan></text>
</g>
<g id="ALH6_WS_BD28">
<g id="BD28_WS">
<ellipse id="Ellipse 327_5" cx="4.0002" cy="3.99982" rx="4.0002" ry="3.99982" transform="matrix(0.999949 0 0.00142933 1.00004 576 151)" fill="#AFA089"></ellipse>
<ellipse id="Ellipse 328_5" cx="4" cy="4.00001" rx="4" ry="4.00001" transform="matrix(1 -2.17511e-09 -0.0006948 0.999997 586.005 151)" fill="#AFA089"></ellipse>
<path id="Line 656_5" d="M574 155.5H596.331" stroke="#D9D9D9"></path>
</g>
<text id="BD28_WS_TEXT" transform="matrix(0.99999 0 0.000990259 1.00001 572 159)" fill="white" xml:space="preserve" style="white-space: pre" font-family="Open Sans" font-size="10" letter-spacing="0em"><tspan x="0" y="10.8794">BD28</tspan></text>
</g>
<g id="ALH6_WS_BD27">
<g id="BD27_WS">
<ellipse id="Ellipse 327_6" cx="4.0002" cy="3.99982" rx="4.0002" ry="3.99982" transform="matrix(0.999949 0 0.00142933 1.00004 415 151)" fill="#AFA089"></ellipse>
<ellipse id="Ellipse 328_6" cx="4" cy="4.00001" rx="4" ry="4.00001" transform="matrix(1 0 -0.000694802 0.999997 426.005 151)" fill="#AFA089"></ellipse>
<path id="Line 656_6" d="M413 155.5H436" stroke="#D9D9D9"></path>
</g>
<text id="BD27_WS_TEXT" transform="matrix(0.99999 0 0.00099026 1.00001 412 159)" fill="white" xml:space="preserve" style="white-space: pre" font-family="Open Sans" font-size="10" letter-spacing="0em"><tspan x="0" y="10.8794">BD27</tspan></text>
</g>
<g id="ALH6_WS_BD26">
<g id="BD26_WS">
<ellipse id="Ellipse 327_7" cx="4.0002" cy="3.99982" rx="4.0002" ry="3.99982" transform="matrix(0.99995 -3.38111e-10 0.00142933 1.00004 383.048 151.497)" fill="#AFA089"></ellipse>
<ellipse id="Ellipse 328_7" cx="4" cy="4.00001" rx="4" ry="4.00001" transform="matrix(1 6.69639e-10 -0.000694802 0.999997 372.097 151.497)" fill="#AFA089"></ellipse>
<path id="Line 656_7" d="M370.091 155.497L393.091 155.497" stroke="#D9D9D9"></path>
</g>
<text id="BD26_WS_TEXT" transform="matrix(0.99999 0 0.000990259 1.00001 369 159)" fill="white" xml:space="preserve" style="white-space: pre" font-family="Open Sans" font-size="10" letter-spacing="0em"><tspan x="0.416992" y="10.8794">BD26</tspan></text>
</g>
<!-- <g id="ALH6_WS_BD25">
<g id="BD25_WS">
<ellipse id="Ellipse 327_8" cx="4.0002" cy="3.99982" rx="4.0002" ry="3.99982" transform="matrix(0.999949 0 0.00142933 1.00004 236.997 151)" fill="#AFA089"></ellipse>
<ellipse id="Ellipse 328_8" cx="4" cy="4.00001" rx="4" ry="4.00001" transform="matrix(1 -1.86212e-09 -0.000694799 0.999997 248.003 151)" fill="#AFA089"></ellipse>
<path id="Line 656_8" d="M234.997 155H257.997" stroke="#D9D9D9"></path>
</g>
<text id="BD25_WS_TEXT" transform="matrix(0.99999 0 0.00099026 1.00001 233 159)" fill="white" xml:space="preserve" style="white-space: pre" font-family="Open Sans" font-size="10" letter-spacing="0em"><tspan x="0.416992" y="10.8794">BD25</tspan></text>
</g> -->
<!-- <g id="ALH6_WS_SD16">
<g id="SD16_WS">
<ellipse id="Ellipse 327_9" cx="4.0002" cy="3.99982" rx="4.0002" ry="3.99982" transform="matrix(0.999949 0 0.00142933 1.00004 1009 195)" fill="#AFA089"></ellipse>
<ellipse id="Ellipse 328_9" cx="4" cy="4.00001" rx="4" ry="4.00001" transform="matrix(1 -2.17511e-09 -0.0006948 0.999997 1020.01 195)" fill="#AFA089"></ellipse>
<path id="Line 656_9" d="M1007 199H1030" stroke="#D9D9D9"></path>
</g>
<text id="SD16_WS_TEXT" transform="matrix(0.99999 0 0.000990259 1.00001 1005.01 181)" fill="white" xml:space="preserve" style="white-space: pre" font-family="Open Sans" font-size="10" letter-spacing="0em"><tspan x="0" y="10.8794">SD16</tspan></text>
</g> -->
<g id="ALH6_WS_SD15">
<g id="SD15_WS">
<ellipse id="Ellipse 327_10" cx="4.0002" cy="3.99982" rx="4.0002" ry="3.99982" transform="matrix(0.999949 0 0.00142933 1.00004 624 195)" fill="#AFA089"></ellipse>
<ellipse id="Ellipse 328_10" cx="4" cy="4.00001" rx="4" ry="4.00001" transform="matrix(1 -2.17511e-09 -0.0006948 0.999997 635.005 195)" fill="#AFA089"></ellipse>
<path id="Line 656_10" d="M622 198.5H645" stroke="#D9D9D9"></path>
</g>
<text id="SD15_WS_TEXT" transform="matrix(0.99999 0 0.00099026 1.00001 620 181)" fill="white" xml:space="preserve" style="white-space: pre" font-family="Open Sans" font-size="10" letter-spacing="0em"><tspan x="0.405273" y="10.8794">SD15</tspan></text>
</g>
<g id="ALH6_WS_SD14">
<g id="SD14_WS">
<ellipse id="Ellipse 327_11" cx="4.0002" cy="3.99982" rx="4.0002" ry="3.99982" transform="matrix(0.999949 0 0.00142933 1.00004 576 195)" fill="#AFA089"></ellipse>
<ellipse id="Ellipse 328_11" cx="4" cy="4.00001" rx="4" ry="4.00001" transform="matrix(1 -2.17511e-09 -0.0006948 0.999997 587.005 195)" fill="#AFA089"></ellipse>
<path id="Line 656_11" d="M574.003 198.73H597.003" stroke="#D9D9D9"></path>
</g>
<text id="SD14_WS_TEXT" transform="matrix(0.99999 0 0.000990259 1.00001 573 181)" fill="white" xml:space="preserve" style="white-space: pre" font-family="Open Sans" font-size="10" letter-spacing="0em"><tspan x="0" y="10.8794">SD14</tspan></text>
</g>
<!-- <g id="ALH6_WS_SD13">
<g id="SD13_WS">
<ellipse id="Ellipse 327_12" cx="4.0002" cy="3.99982" rx="4.0002" ry="3.99982" transform="matrix(0.999949 0 0.00142933 1.00004 237 194)" fill="#AFA089"></ellipse>
<ellipse id="Ellipse 328_12" cx="4" cy="4.00001" rx="4" ry="4.00001" transform="matrix(1 -2.17511e-09 -0.0006948 0.999997 248.005 194)" fill="#AFA089"></ellipse>
<path id="Line 656_12" d="M235 198H258" stroke="#D9D9D9"></path>
</g>
<text id="SD13_WS_TEXT" transform="matrix(0.99999 0 0.000990259 1.00001 234 180)" fill="white" xml:space="preserve" style="white-space: pre" font-family="Open Sans" font-size="10" letter-spacing="0em"><tspan x="0" y="10.8794">SD13</tspan></text>
</g> -->
<!-- <g id="ALH6_WS_SU08">
<g id="SU08_WS">
<ellipse id="Ellipse 327_13" cx="4.0002" cy="3.99982" rx="4.0002" ry="3.99982" transform="matrix(0.99995 0 0.00142933 1.00004 236 273)" fill="#AFA089"></ellipse>
<ellipse id="Ellipse 328_13" cx="4" cy="4.00001" rx="4" ry="4.00001" transform="matrix(1 -2.17511e-09 -0.0006948 0.999997 247.004 273)" fill="#AFA089"></ellipse>
<path id="Line 656_13" d="M234 277H256.331" stroke="#D9D9D9"></path>
</g>
<text id="SU08_WS_TEXT" transform="matrix(0.99999 0 0.00099026 1.00001 233 281)" fill="white" xml:space="preserve" style="white-space: pre" font-family="Open Sans" font-size="10" letter-spacing="0em"><tspan x="0" y="10.8794">SU08</tspan></text>
</g> -->
<g id="ALH6_WS_SU07">
<g id="SU07_WS">
<ellipse id="Ellipse 327_14" cx="4.0002" cy="3.99982" rx="4.0002" ry="3.99982" transform="matrix(0.99995 0 0.00142933 1.00004 427.707 273)" fill="#AFA089"></ellipse>
<ellipse id="Ellipse 328_14" cx="4" cy="4.00001" rx="4" ry="4.00001" transform="matrix(1 -2.17511e-09 -0.0006948 0.999997 440.006 273)" fill="#AFA089"></ellipse>
<path id="Line 656_14" d="M426 277L450 277" stroke="#D9D9D9"></path>
</g>
<text id="SU07_WS_TEXT" transform="matrix(0.99999 0 0.00099026 1.00001 425 281)" fill="white" xml:space="preserve" style="white-space: pre" font-family="Open Sans" font-size="10" letter-spacing="0em"><tspan x="0" y="10.8794">SU07</tspan></text>
</g>
<g id="ALH6_WS_SU06">
<g id="SU06_WS">
<ellipse id="Ellipse 327_15" cx="4.0002" cy="3.99982" rx="4.0002" ry="3.99982" transform="matrix(0.99995 0 0.00142933 1.00004 482.703 273)" fill="#AFA089"></ellipse>
<ellipse id="Ellipse 328_15" cx="4" cy="4.00001" rx="4" ry="4.00001" transform="matrix(1 -2.17511e-09 -0.0006948 0.999997 494.005 273)" fill="#AFA089"></ellipse>
<path id="Line 656_15" d="M481 276.636H504" stroke="#D9D9D9"></path>
</g>
<text id="SU06_WS_TEXT" transform="matrix(0.99999 0 0.000990259 1.00001 481 281)" fill="white" xml:space="preserve" style="white-space: pre" font-family="Open Sans" font-size="10" letter-spacing="0em"><tspan x="0" y="10.8794">SU06</tspan></text>
</g>
<g id="ALH6_WS_SU05">
<g id="SU05_WS">
<ellipse id="Ellipse 327_16" cx="4.0002" cy="3.99982" rx="4.0002" ry="3.99982" transform="matrix(0.999949 0 0.00142933 1.00004 827.376 270.955)" fill="#AFA089"></ellipse>
<ellipse id="Ellipse 328_16" cx="4" cy="4.00001" rx="4" ry="4.00001" transform="matrix(1 -2.17511e-09 -0.0006948 0.999997 839.409 271.232)" fill="#AFA089"></ellipse>
<path id="Line 656_16" d="M825.673 274.591H848.673" stroke="#D9D9D9"></path>
</g>
<text id="SU05_WS_TEXT" transform="matrix(0.99999 0 0.000990259 1.00001 827.946 277.908)" fill="white" xml:space="preserve" style="white-space: pre" font-family="Open Sans" font-size="10" letter-spacing="0em"><tspan x="0" y="10.8794">SU05</tspan></text>
</g>
<g id="ALH6_WS_SU04">
<g id="SU04_WS">
<ellipse id="Ellipse 327_17" cx="4.0002" cy="3.99982" rx="4.0002" ry="3.99982" transform="matrix(0.999949 0 0.00142933 1.00004 881.376 270.955)" fill="#AFA089"></ellipse>
<ellipse id="Ellipse 328_17" cx="4" cy="4.00001" rx="4" ry="4.00001" transform="matrix(1 -2.17511e-09 -0.0006948 0.999997 893.409 271.232)" fill="#AFA089"></ellipse>
<path id="Line 656_17" d="M879.673 274.591H902.673" stroke="#D9D9D9"></path>
</g>
<text id="SU04_WS_TEXT" transform="matrix(0.99999 0 0.000990259 1.00001 878 279)" fill="white" xml:space="preserve" style="white-space: pre" font-family="Open Sans" font-size="10" letter-spacing="0em"><tspan x="0" y="10.8794">SU04</tspan></text>
</g>
<!-- <g id="ALH6_WS_SU03">
<g id="SU03_WS">
<ellipse id="Ellipse 327_18" cx="4.0002" cy="3.99982" rx="4.0002" ry="3.99982" transform="matrix(0.999949 0 0.00142933 1.00004 1009 271)" fill="#AFA089"></ellipse>
<ellipse id="Ellipse 328_18" cx="4" cy="4.00001" rx="4" ry="4.00001" transform="matrix(1 -2.17511e-09 -0.0006948 0.999997 1020.01 271)" fill="#AFA089"></ellipse>
<path id="Line 656_18" d="M1007 275H1030" stroke="#D9D9D9"></path>
</g>
<text id="SU03_WS_TEXT" transform="matrix(0.99999 0 0.00099026 1.00001 1007 279)" fill="white" xml:space="preserve" style="white-space: pre" font-family="Open Sans" font-size="10" letter-spacing="0em"><tspan x="0" y="10.8794">SU03</tspan></text>
</g> -->
<!-- <g id="ALH6_WS_BU07">
<g id="BU07_WS">
<ellipse id="Ellipse 327_19" cx="4.0002" cy="3.99982" rx="4.0002" ry="3.99982" transform="matrix(0.999949 0 0.00142933 1.00004 1008.71 318)" fill="#AFA089"></ellipse>
<ellipse id="Ellipse 328_19" cx="4" cy="4.00001" rx="4" ry="4.00001" transform="matrix(1 -2.17511e-09 -0.0006948 0.999997 1020.74 318.277)" fill="#AFA089"></ellipse>
<path id="Line 656_19" d="M1007 321.636H1030" stroke="#D9D9D9"></path>
</g>
<text id="BU07_WS_TEXT" transform="matrix(0.99999 0 0.000990259 1.00001 1006 304)" fill="white" xml:space="preserve" style="white-space: pre" font-family="Open Sans" font-size="10" letter-spacing="0em"><tspan x="0" y="10.8794">BU07</tspan></text>
</g> -->
<g id="ALH6_WS_BU08">
<g id="BU08_WS">
<ellipse id="Ellipse 327_20" cx="4.0002" cy="3.99982" rx="4.0002" ry="3.99982" transform="matrix(0.999949 0 0.00142933 1.00004 903 318)" fill="#AFA089"></ellipse>
<ellipse id="Ellipse 328_20" cx="4" cy="4.00001" rx="4" ry="4.00001" transform="matrix(1 -2.17511e-09 -0.0006948 0.999997 914.006 318)" fill="#AFA089"></ellipse>
<path id="Line 656_20" d="M901 322H924" stroke="#D9D9D9"></path>
</g>
<text id="BU08_WS_TEXT" transform="matrix(0.99999 0 0.00099026 1.00001 900 304)" fill="white" xml:space="preserve" style="white-space: pre" font-family="Open Sans" font-size="10" letter-spacing="0em"><tspan x="0" y="10.8794">BU08</tspan></text>
</g>
<g id="ALH6_WS_BU09">
<g id="BU09_WS">
<ellipse id="Ellipse 327_21" cx="4.00036" cy="3.99969" rx="4.00036" ry="3.99969" transform="matrix(0.999909 0 0.00142937 1.00008 854 318)" fill="#AFA089"></ellipse>
<ellipse id="Ellipse 328_21" cx="4" cy="4.00002" rx="4" ry="4.00002" transform="matrix(0.999999 -2.77505e-09 -0.00225195 0.999993 865.018 318)" fill="#AFA089"></ellipse>
<path id="Line 656_21" d="M852 322H875" stroke="#D9D9D9"></path>
</g>
<text id="BU09_WS_TEXT" transform="matrix(0.99999 0 0.00100504 1.00001 850 304)" fill="white" xml:space="preserve" style="white-space: pre" font-family="Open Sans" font-size="10" letter-spacing="0em"><tspan x="0" y="10.8794">BU09</tspan></text>
</g>
<g id="ALH6_WS_BU10">
<g id="BU10_WS">
<ellipse id="Ellipse 327_22" cx="4.00036" cy="3.99969" rx="4.00036" ry="3.99969" transform="matrix(0.999909 0 0.00142937 1.00008 726 318)" fill="#AFA089"></ellipse>
<ellipse id="Ellipse 328_22" cx="4" cy="4.00002" rx="4" ry="4.00002" transform="matrix(0.999999 -2.77505e-09 -0.00225195 0.999993 737.018 318)" fill="#AFA089"></ellipse>
<path id="Line 656_22" d="M724 322H747" stroke="#D9D9D9"></path>
</g>
<text id="BU10_WS_TEXT" transform="matrix(0.99999 0 0.00100504 1.00001 723 304)" fill="white" xml:space="preserve" style="white-space: pre" font-family="Open Sans" font-size="10" letter-spacing="0em"><tspan x="0" y="10.8794">BU10</tspan></text>
</g>
<g id="ALH6_WS_BU11">
<g id="BU11_WS">
<ellipse id="Ellipse 327_23" cx="4.00036" cy="3.99969" rx="4.00036" ry="3.99969" transform="matrix(0.999909 0 0.00142937 1.00008 674 318)" fill="#AFA089"></ellipse>
<ellipse id="Ellipse 328_23" cx="4" cy="4.00002" rx="4" ry="4.00002" transform="matrix(0.999999 -2.77505e-09 -0.00225195 0.999993 685.019 318)" fill="#AFA089"></ellipse>
<path id="Line 656_23" d="M672 322H695" stroke="#D9D9D9"></path>
</g>
<text id="BU11_WS_TEXT" transform="matrix(0.99999 0 0.00100504 1.00001 670 304)" fill="white" xml:space="preserve" style="white-space: pre" font-family="Open Sans" font-size="10" letter-spacing="0em"><tspan x="0.397461" y="10.8794">BU11</tspan></text>
</g>
<g id="ALH6_WS_BU12">
<g id="BU12_WS">
<ellipse id="Ellipse 327_24" cx="4.00036" cy="3.99969" rx="4.00036" ry="3.99969" transform="matrix(0.999909 0 0.00142937 1.00008 513 318)" fill="#AFA089"></ellipse>
<ellipse id="Ellipse 328_24" cx="4" cy="4.00002" rx="4" ry="4.00002" transform="matrix(0.999999 -2.77505e-09 -0.00225195 0.999993 524.018 318)" fill="#AFA089"></ellipse>
<path id="Line 656_24" d="M511 322L534 322.002" stroke="#D9D9D9"></path>
</g>
<text id="BU12_WS_TEXT" transform="matrix(0.99999 0 0.00100504 1.00001 509 304)" fill="white" xml:space="preserve" style="white-space: pre" font-family="Open Sans" font-size="10" letter-spacing="0em"><tspan x="0" y="10.8794">BU12</tspan></text>
</g>
<g id="ALH6_WS_BU13">
<g id="BU13_WS">
<ellipse id="Ellipse 327_25" cx="4.00036" cy="3.99969" rx="4.00036" ry="3.99969" transform="matrix(0.999909 0 0.00142937 1.00008 439 318)" fill="#AFA089"></ellipse>
<ellipse id="Ellipse 328_25" cx="4" cy="4.00002" rx="4" ry="4.00002" transform="matrix(0.999999 -2.77505e-09 -0.00225195 0.999993 450.018 318)" fill="#AFA089"></ellipse>
<path id="Line 656_25" d="M437 322H460" stroke="#D9D9D9"></path>
</g>
<text id="BU13_WS_TEXT" transform="matrix(0.99999 0 0.00100504 1.00001 436 304)" fill="white" xml:space="preserve" style="white-space: pre" font-family="Open Sans" font-size="10" letter-spacing="0em"><tspan x="0" y="10.8794">BU13</tspan></text>
</g>
<!-- <g id="ALH6_WS_BU14">
<g id="BU14_WS">
<ellipse id="Ellipse 327_26" cx="4.00036" cy="3.99969" rx="4.00036" ry="3.99969" transform="matrix(0.999909 0 0.00142937 1.00008 236.005 318)" fill="#AFA089"></ellipse>
<ellipse id="Ellipse 328_26" cx="4" cy="4.00002" rx="4" ry="4.00002" transform="matrix(0.999999 -2.77505e-09 -0.00225195 0.999993 247.021 318)" fill="#AFA089"></ellipse>
<path id="Line 656_26" d="M234.006 322H256.006" stroke="#D9D9D9"></path>
</g>
<text id="BU14_WS_TEXT" transform="matrix(0.99999 0 0.00100504 1.00001 232.006 304)" fill="white" xml:space="preserve" style="white-space: pre" font-family="Open Sans" font-size="10" letter-spacing="0em"><tspan x="0" y="10.8794">BU14</tspan></text>
</g> -->
<g id="DN MARK">
<text id="DN" fill="#47C4EB" stroke="white" xml:space="preserve" style="white-space: pre" font-family="Open Sans" font-size="15" letter-spacing="0em"><tspan x="242" y="73.8191">DN</tspan></text>
<path id="Arrow 3" d="M301.354 68.3536C301.549 68.1583 301.549 67.8417 301.354 67.6464L298.172 64.4645C297.976 64.2692 297.66 64.2692 297.464 64.4645C297.269 64.6597 297.269 64.9763 297.464 65.1716L300.293 68L297.464 70.8284C297.269 71.0237 297.269 71.3403 297.464 71.5355C297.66 71.7308 297.976 71.7308 298.172 71.5355L301.354 68.3536ZM272 68.5H301V67.5H272V68.5Z" fill="white"></path>
</g>
<g id="UP MARK">
<g id="Group 651">
<text id="UP" fill="#47C4EB" stroke="white" xml:space="preserve" style="white-space: pre" font-family="Open Sans" font-size="15" letter-spacing="0em"><tspan x="281" y="413.819">UP</tspan></text>
<path id="Arrow 3_2" d="M241.646 407.646C241.451 407.842 241.451 408.158 241.646 408.354L244.828 411.536C245.024 411.731 245.34 411.731 245.536 411.536C245.731 411.34 245.731 411.024 245.536 410.828L242.707 408L245.536 405.172C245.731 404.976 245.731 404.66 245.536 404.464C245.34 404.269 245.024 404.269 244.828 404.464L241.646 407.646ZM271 407.5H242V408.5H271V407.5Z" fill="white"></path>
</g>
</g>
<text id="ALH6 (NEW ATELI)" fill="#47C4EB" stroke="white" xml:space="preserve" style="white-space: pre" font-family="Open Sans" font-size="20" letter-spacing="0em"><tspan x="539" y="69.2588">ALH6 (NEW ATELI)</tspan></text>
</g>
</svg>