<svg width="411" height="393" viewBox="0 0 411 393" fill="none" xmlns="http://www.w3.org/2000/svg">
<g id="ALH04_IOM">
<g id="ALH04_IOM_Rack1">
<g id="IOM1">
<g id="Group01">
<rect id="IOM1 SLOT1" x="15.5" y="94.5" width="35" height="77" fill="#D3D3D3" stroke="black"></rect>
<text id="POW3" transform="matrix(0 1 -1 0 39 111)" fill="black" xml:space="preserve" style="white-space: pre" font-family="Inter" font-size="10" letter-spacing="0em"><tspan x="0" y="9.63636">POW3</tspan></text>
<text id="S-1" fill="black" xml:space="preserve" style="white-space: pre" font-family="Inter" font-size="7" letter-spacing="0em"><tspan x="27" y="57.5455">S-1</tspan></text>
</g>
<g id="Group02">
<rect id="IOM1 SLOT2" x="50.5" y="94.5" width="35" height="77" fill="#D3D3D3" stroke="black"></rect>
<text id="FFC2" transform="matrix(0 1 -1 0 74 111)" fill="black" xml:space="preserve" style="white-space: pre" font-family="Inter" font-size="10" letter-spacing="0em"><tspan x="0" y="9.63636">FFC2</tspan></text>
<text id="S-2" fill="black" xml:space="preserve" style="white-space: pre" font-family="Inter" font-size="7" letter-spacing="0em"><tspan x="62" y="57.5455">S-2</tspan></text>
</g>
<g id="Group03">
<rect id="IOM1 SLOT3" x="93.5" y="66.5" width="17" height="105" fill="#D3D3D3" stroke="black"></rect>
<text id="S-3" fill="black" xml:space="preserve" style="white-space: pre" font-family="Inter" font-size="7" letter-spacing="0em"><tspan x="95" y="57.5455">S-3</tspan></text>
<text id="FDI" transform="matrix(0 1 -1 0 108 103)" fill="black" xml:space="preserve" style="white-space: pre" font-family="Inter" font-size="10" letter-spacing="0em"><tspan x="0" y="9.63636">FDI</tspan></text>
</g>
<g id="Group04">
<rect id="IOM1 SLOT4" x="110.5" y="66.5" width="17" height="105" fill="#D3D3D3" stroke="black"></rect>
<text id="S-4" fill="black" xml:space="preserve" style="white-space: pre" font-family="Inter" font-size="7" letter-spacing="0em"><tspan x="112" y="57.5455">S-4</tspan></text>
<text id="FDI_2" transform="matrix(0 1 -1 0 125 103)" fill="black" xml:space="preserve" style="white-space: pre" font-family="Inter" font-size="10" letter-spacing="0em"><tspan x="0" y="9.63636">FDI</tspan></text>
</g>
<g id="Group05">
<rect id="IOM1 SLOT5" x="127.5" y="66.5" width="17" height="105" fill="#D3D3D3" stroke="black"></rect>
<text id="S-5" fill="black" xml:space="preserve" style="white-space: pre" font-family="Inter" font-size="7" letter-spacing="0em"><tspan x="130" y="57.5455">S-5</tspan></text>
<text id="FDI_3" transform="matrix(0 1 -1 0 142 103)" fill="black" xml:space="preserve" style="white-space: pre" font-family="Inter" font-size="10" letter-spacing="0em"><tspan x="0" y="9.63636">FDI</tspan></text>
</g>
<g id="Group06">
<rect id="IOM1 SLOT6" x="144.5" y="66.5" width="17" height="105" fill="#D3D3D3" stroke="black"></rect>
<text id="S-6" fill="black" xml:space="preserve" style="white-space: pre" font-family="Inter" font-size="7" letter-spacing="0em"><tspan x="146" y="57.5455">S-6</tspan></text>
<text id="FDI_4" transform="matrix(0 1 -1 0 159 103)" fill="black" xml:space="preserve" style="white-space: pre" font-family="Inter" font-size="10" letter-spacing="0em"><tspan x="0" y="9.63636">FDI</tspan></text>
</g>
<g id="Group07">
<rect id="IOM1 SLOT7" x="161.5" y="66.5" width="17" height="105" fill="#D3D3D3" stroke="black"></rect>
<text id="S-7" fill="black" xml:space="preserve" style="white-space: pre" font-family="Inter" font-size="7" letter-spacing="0em"><tspan x="164" y="57.5455">S-7</tspan></text>
<text id="FD0" transform="matrix(0 1 -1 0 176 103)" fill="black" xml:space="preserve" style="white-space: pre" font-family="Inter" font-size="10" letter-spacing="0em"><tspan x="0" y="9.63636">FD0</tspan></text>
</g>
<g id="Group08">
<rect id="IOM1 SLOT8" x="178.5" y="66.5" width="17" height="105" fill="#D3D3D3" stroke="black"></rect>
<text id="S-8" fill="black" xml:space="preserve" style="white-space: pre" font-family="Inter" font-size="7" letter-spacing="0em"><tspan x="181" y="57.5455">S-8</tspan></text>
<text id="FD0_2" transform="matrix(0 1 -1 0 193 103)" fill="black" xml:space="preserve" style="white-space: pre" font-family="Inter" font-size="10" letter-spacing="0em"><tspan x="0" y="9.63636">FD0</tspan></text>
</g>
<g id="Group09">
<rect id="IOM1 SLOT9" x="195.5" y="66.5" width="17" height="105" fill="#D3D3D3" stroke="black"></rect>
<text id="S-9" fill="black" xml:space="preserve" style="white-space: pre" font-family="Inter" font-size="7" letter-spacing="0em"><tspan x="198" y="57.5455">S-9</tspan></text>
<text id="FD0_3" transform="matrix(0 1 -1 0 210 102)" fill="black" xml:space="preserve" style="white-space: pre" font-family="Inter" font-size="10" letter-spacing="0em"><tspan x="0" y="9.63636">FD0</tspan></text>
</g>
<g id="Group10">
<rect id="IOM1 SLOT10" x="212.5" y="66.5" width="17" height="105" fill="#D3D3D3" stroke="black"></rect>
<text id="S-10" fill="black" xml:space="preserve" style="white-space: pre" font-family="Inter" font-size="7" letter-spacing="0em"><tspan x="213" y="57.5455">S-10</tspan></text>
<text id="FD0_4" transform="matrix(0 1 -1 0 227 103)" fill="black" xml:space="preserve" style="white-space: pre" font-family="Inter" font-size="10" letter-spacing="0em"><tspan x="0" y="9.63636">FD0</tspan></text>
</g>
<g id="Group11">
<rect id="IOM1 SLOT11" x="229.5" y="66.5" width="17" height="105" fill="white" stroke="black"></rect>
<text id="S-11" fill="black" xml:space="preserve" style="white-space: pre" font-family="Inter" font-size="7" letter-spacing="0em"><tspan x="230" y="57.5455">S-11</tspan></text>
<text id="SPARE" transform="matrix(0 1 -1 0 244 103)" fill="black" xml:space="preserve" style="white-space: pre" font-family="Inter" font-size="10" letter-spacing="0em"><tspan x="0" y="9.63636">SPARE</tspan></text>
</g>
<g id="Group12">
<rect id="IOM1 SLOT12" x="246.5" y="66.5" width="17" height="105" fill="white" stroke="black"></rect>
<text id="S-12" fill="black" xml:space="preserve" style="white-space: pre" font-family="Inter" font-size="7" letter-spacing="0em"><tspan x="247" y="57.5455">S-12</tspan></text>
<text id="SPARE_2" transform="matrix(0 1 -1 0 261 103)" fill="black" xml:space="preserve" style="white-space: pre" font-family="Inter" font-size="10" letter-spacing="0em"><tspan x="0" y="9.63636">SPARE</tspan></text>
</g>
<g id="Group13">
<rect id="IOM1 SLOT13" x="263.5" y="66.5" width="17" height="105" fill="white" stroke="black"></rect>
<text id="S-13" fill="black" xml:space="preserve" style="white-space: pre" font-family="Inter" font-size="7" letter-spacing="0em"><tspan x="264" y="57.5455">S-13</tspan></text>
<text id="SPARE_3" transform="matrix(0 1 -1 0 278 103)" fill="black" xml:space="preserve" style="white-space: pre" font-family="Inter" font-size="10" letter-spacing="0em"><tspan x="0" y="9.63636">SPARE</tspan></text>
</g>
<g id="Group14">
<rect id="IOM1 SLOT14" x="280.5" y="66.5" width="17" height="105" fill="white" stroke="black"></rect>
<text id="S-14" fill="black" xml:space="preserve" style="white-space: pre" font-family="Inter" font-size="7" letter-spacing="0em"><tspan x="281" y="57.5455">S-14</tspan></text>
<text id="SPARE_4" transform="matrix(0 1 -1 0 295 103)" fill="black" xml:space="preserve" style="white-space: pre" font-family="Inter" font-size="10" letter-spacing="0em"><tspan x="0" y="9.63636">SPARE</tspan></text>
</g>
<g id="Group15">
<rect id="IOM1 SLOT15" x="-0.5" y="0.5" width="35" height="77" transform="matrix(-1 0 0 1 340 94)" fill="#D3D3D3" stroke="black"></rect>
<text id="FFC2_2" transform="matrix(0 1 -1 0 330 110)" fill="black" xml:space="preserve" style="white-space: pre" font-family="Inter" font-size="10" letter-spacing="0em"><tspan x="0" y="9.63636">FFC2</tspan></text>
<text id="S-15" fill="black" xml:space="preserve" style="white-space: pre" font-family="Inter" font-size="7" letter-spacing="0em"><tspan x="315" y="57.5455">S-15</tspan></text>
</g>
<g id="Group16">
<rect id="IOM1 SLOT16" x="-0.5" y="0.5" width="35" height="77" transform="matrix(-1 0 0 1 375 94)" fill="#D3D3D3" stroke="black"></rect>
<text id="POW3_2" transform="matrix(0 1 -1 0 362 110)" fill="black" xml:space="preserve" style="white-space: pre" font-family="Inter" font-size="10" letter-spacing="0em"><tspan x="0" y="9.63636">POW3</tspan></text>
<text id="S-16" fill="black" xml:space="preserve" style="white-space: pre" font-family="Inter" font-size="7" letter-spacing="0em"><tspan x="350" y="57.5455">S-16</tspan></text>
</g>
<g id="IOM1_NOT_TO_SET">
<path id="Vector 211" d="M390 43H396V171.5H390" stroke="black"></path>
<text id="IOM 1" transform="matrix(0 1 -1 0 410.5 93)" fill="black" xml:space="preserve" style="white-space: pre" font-family="Inter" font-size="10" letter-spacing="0em"><tspan x="0" y="9.63636">IOM 1</tspan></text>
<line id="Line 66" y1="171.5" x2="390" y2="171.5" stroke="black"></line>
<path id="Vector 207" d="M0.5 43H15.5M389.5 43H375.5M15.5 43V66.5M15.5 43H50.5M15.5 66.5H50.5M15.5 66.5V94.5H85.5V66.5M50.5 66.5V43M50.5 66.5H85.5M50.5 43H85.5M85.5 66.5V43M85.5 66.5H93.5M85.5 43H93.5M93.5 66.5V43M93.5 66.5H110.5M93.5 43H110.5M110.5 66.5V43M110.5 66.5H127.5M110.5 43H127.5M127.5 66.5V43M127.5 66.5H144.5M127.5 43H144.5M144.5 66.5V43M144.5 66.5H161.5M144.5 43H161.5M161.5 66.5V43M161.5 66.5H178.5M161.5 43H178.5M178.5 66.5V43M178.5 66.5H195.5M178.5 43H195.5M195.5 66.5V43M195.5 66.5H212.5M195.5 43H212.5M212.5 66.5V43M212.5 66.5H229.5M212.5 43H229.5M229.5 66.5V43M229.5 66.5H246.5M229.5 43H246.5M246.5 66.5V43M246.5 66.5H263.5M246.5 43H263.5M263.5 66.5V43M263.5 66.5H280.5M263.5 43H280.5M280.5 66.5V43M280.5 66.5H297.5M280.5 43H297.5M297.5 66.5V43M297.5 66.5H305.5M297.5 43H305.5M305.5 66.5H340.5M305.5 66.5V53.5V43M305.5 43H340.5M340.5 66.5V43M340.5 66.5H375.5V43M340.5 43H375.5" stroke="black"></path>
<line id="Line 64" x1="305.5" y1="66" x2="305.5" y2="95" stroke="black"></line>
<line id="Line 65" x1="375.5" y1="66" x2="375.5" y2="95" stroke="black"></line>
</g>
</g>
<g id="IOM2">
<g id="Group01_2">
<rect id="IOM2 SLOT1" x="15.5" y="296.5" width="35" height="77" fill="#D3D3D3" stroke="black"></rect>
<text id="POW3_3" transform="matrix(0 1 -1 0 39 313)" fill="black" xml:space="preserve" style="white-space: pre" font-family="Inter" font-size="10" letter-spacing="0em"><tspan x="0" y="9.63636">POW3</tspan></text>
<text id="S-1_2" fill="black" xml:space="preserve" style="white-space: pre" font-family="Inter" font-size="7" letter-spacing="0em"><tspan x="26" y="259.545">S-1</tspan></text>
</g>
<g id="Group02_2">
<rect id="IOM2 SLOT2" x="50.5" y="296.5" width="35" height="77" fill="#D3D3D3" stroke="black"></rect>
<text id="FFC2_3" transform="matrix(0 1 -1 0 74 314)" fill="black" xml:space="preserve" style="white-space: pre" font-family="Inter" font-size="10" letter-spacing="0em"><tspan x="0" y="9.63636">FFC2</tspan></text>
<text id="S-2_2" fill="black" xml:space="preserve" style="white-space: pre" font-family="Inter" font-size="7" letter-spacing="0em"><tspan x="62" y="259.545">S-2</tspan></text>
</g>
<g id="Group03_2">
<rect id="IOM2 SLOT3" x="93.5" y="268.5" width="17" height="105" fill="#D3D3D3" stroke="black"></rect>
<text id="S-3_2" fill="black" xml:space="preserve" style="white-space: pre" font-family="Inter" font-size="7" letter-spacing="0em"><tspan x="96" y="259.545">S-3</tspan></text>
<text id="FDI_5" transform="matrix(0 1 -1 0 108 305)" fill="black" xml:space="preserve" style="white-space: pre" font-family="Inter" font-size="10" letter-spacing="0em"><tspan x="0" y="9.63636">FDI</tspan></text>
</g>
<g id="Group04_2">
<rect id="IOM2 SLOT4" x="110.5" y="268.5" width="17" height="105" fill="#D3D3D3" stroke="black"></rect>
<text id="S-4_2" fill="black" xml:space="preserve" style="white-space: pre" font-family="Inter" font-size="7" letter-spacing="0em"><tspan x="113" y="259.545">S-4</tspan></text>
<text id="FDI_6" transform="matrix(0 1 -1 0 125 305)" fill="black" xml:space="preserve" style="white-space: pre" font-family="Inter" font-size="10" letter-spacing="0em"><tspan x="0" y="9.63636">FDI</tspan></text>
</g>
<g id="Group05_2">
<rect id="IOM2 SLOT5" x="127.5" y="268.5" width="17" height="105" fill="#D3D3D3" stroke="black"></rect>
<text id="S-5_2" fill="black" xml:space="preserve" style="white-space: pre" font-family="Inter" font-size="7" letter-spacing="0em"><tspan x="130" y="259.545">S-5</tspan></text>
<text id="FD0_5" transform="matrix(0 1 -1 0 142 305)" fill="black" xml:space="preserve" style="white-space: pre" font-family="Inter" font-size="10" letter-spacing="0em"><tspan x="0" y="9.63636">FD0</tspan></text>
</g>
<g id="Group06_2">
<rect id="IOM2 SLOT6" x="144.5" y="268.5" width="17" height="105" fill="#D3D3D3" stroke="black"></rect>
<text id="S-6_2" fill="black" xml:space="preserve" style="white-space: pre" font-family="Inter" font-size="7" letter-spacing="0em"><tspan x="147" y="259.545">S-6</tspan></text>
<text id="FD0_6" transform="matrix(0 1 -1 0 159 305)" fill="black" xml:space="preserve" style="white-space: pre" font-family="Inter" font-size="10" letter-spacing="0em"><tspan x="0" y="9.63636">FD0</tspan></text>
</g>
<g id="Group07_2">
<rect id="IOM2 SLOT7" x="161.5" y="268.5" width="17" height="105" fill="white" stroke="black"></rect>
<text id="S-7_2" fill="black" xml:space="preserve" style="white-space: pre" font-family="Inter" font-size="7" letter-spacing="0em"><tspan x="164" y="259.545">S-7</tspan></text>
<text id="SPARE_5" transform="matrix(0 1 -1 0 176 305)" fill="black" xml:space="preserve" style="white-space: pre" font-family="Inter" font-size="10" letter-spacing="0em"><tspan x="0" y="9.63636">SPARE</tspan></text>
</g>
<g id="Group08_2">
<rect id="IOM2 SLOT8" x="178.5" y="268.5" width="17" height="105" fill="white" stroke="black"></rect>
<text id="S-8_2" fill="black" xml:space="preserve" style="white-space: pre" font-family="Inter" font-size="7" letter-spacing="0em"><tspan x="181" y="259.545">S-8</tspan></text>
<text id="SPARE_6" transform="matrix(0 1 -1 0 193 305)" fill="black" xml:space="preserve" style="white-space: pre" font-family="Inter" font-size="10" letter-spacing="0em"><tspan x="0" y="9.63636">SPARE</tspan></text>
</g>
<g id="Group09_2">
<rect id="IOM2 SLOT9" x="195.5" y="268.5" width="17" height="105" fill="white" stroke="black"></rect>
<text id="S-9_2" fill="black" xml:space="preserve" style="white-space: pre" font-family="Inter" font-size="7" letter-spacing="0em"><tspan x="198" y="259.545">S-9</tspan></text>
<text id="SPARE_7" transform="matrix(0 1 -1 0 210 305)" fill="black" xml:space="preserve" style="white-space: pre" font-family="Inter" font-size="10" letter-spacing="0em"><tspan x="0" y="9.63636">SPARE</tspan></text>
</g>
<g id="Group10_2">
<rect id="IOM2 SLOT10" x="212.5" y="268.5" width="17" height="105" fill="white" stroke="black"></rect>
<text id="S-10_2" fill="black" xml:space="preserve" style="white-space: pre" font-family="Inter" font-size="7" letter-spacing="0em"><tspan x="213" y="259.545">S-10</tspan></text>
<text id="SPARE_8" transform="matrix(0 1 -1 0 227 305)" fill="black" xml:space="preserve" style="white-space: pre" font-family="Inter" font-size="10" letter-spacing="0em"><tspan x="0" y="9.63636">SPARE</tspan></text>
</g>
<g id="Group11_2">
<rect id="IOM2 SLOT11" x="229.5" y="268.5" width="17" height="105" fill="white" stroke="black"></rect>
<text id="S-11_2" fill="black" xml:space="preserve" style="white-space: pre" font-family="Inter" font-size="7" letter-spacing="0em"><tspan x="230" y="259.545">S-11</tspan></text>
<text id="SPARE_9" transform="matrix(0 1 -1 0 244 305)" fill="black" xml:space="preserve" style="white-space: pre" font-family="Inter" font-size="10" letter-spacing="0em"><tspan x="0" y="9.63636">SPARE</tspan></text>
</g>
<g id="Group12_2">
<rect id="IOM2 SLOT12" x="246.5" y="268.5" width="17" height="105" fill="white" stroke="black"></rect>
<text id="S-12_2" fill="black" xml:space="preserve" style="white-space: pre" font-family="Inter" font-size="7" letter-spacing="0em"><tspan x="247" y="259.545">S-12</tspan></text>
<text id="SPARE_10" transform="matrix(0 1 -1 0 261 305)" fill="black" xml:space="preserve" style="white-space: pre" font-family="Inter" font-size="10" letter-spacing="0em"><tspan x="0" y="9.63636">SPARE</tspan></text>
</g>
<g id="Group13_2">
<rect id="IOM2 SLOT13" x="263.5" y="268.5" width="17" height="105" stroke="black"></rect>
<text id="S-13_2" fill="black" xml:space="preserve" style="white-space: pre" font-family="Inter" font-size="7" letter-spacing="0em"><tspan x="264" y="259.545">S-13</tspan></text>
<text id="SPARE_11" transform="matrix(0 1 -1 0 278 305)" fill="black" xml:space="preserve" style="white-space: pre" font-family="Inter" font-size="10" letter-spacing="0em"><tspan x="0" y="9.63636">SPARE</tspan></text>
</g>
<g id="Group14_2">
<rect id="IOM2 SLOT14" x="280.5" y="268.5" width="17" height="105" stroke="black"></rect>
<text id="S-14_2" fill="black" xml:space="preserve" style="white-space: pre" font-family="Inter" font-size="7" letter-spacing="0em"><tspan x="281" y="259.545">S-14</tspan></text>
<text id="SPARE_12" transform="matrix(0 1 -1 0 295 305)" fill="black" xml:space="preserve" style="white-space: pre" font-family="Inter" font-size="10" letter-spacing="0em"><tspan x="0" y="9.63636">SPARE</tspan></text>
</g>
<g id="Group15_2">
<rect id="IOM2 SLOT15" x="-0.5" y="0.5" width="35" height="77" transform="matrix(-1 0 0 1 340 296)" fill="#D3D3D3" stroke="black"></rect>
<text id="FFC2_4" transform="matrix(0 1 -1 0 329 314)" fill="black" xml:space="preserve" style="white-space: pre" font-family="Inter" font-size="10" letter-spacing="0em"><tspan x="0" y="9.63636">FFC2</tspan></text>
<text id="S-15_2" fill="black" xml:space="preserve" style="white-space: pre" font-family="Inter" font-size="7" letter-spacing="0em"><tspan x="315" y="259.545">S-15</tspan></text>
</g>
<g id="Group16_2">
<rect id="IOM2 SLOT16" x="-0.5" y="0.5" width="35" height="77" transform="matrix(-1 0 0 1 375 296)" fill="#D3D3D3" stroke="black"></rect>
<text id="POW3_4" transform="matrix(0 1 -1 0 364 314)" fill="black" xml:space="preserve" style="white-space: pre" font-family="Inter" font-size="10" letter-spacing="0em"><tspan x="0" y="9.63636">POW3</tspan></text>
<text id="S-16_2" fill="black" xml:space="preserve" style="white-space: pre" font-family="Inter" font-size="7" letter-spacing="0em"><tspan x="350" y="259.545">S-16</tspan></text>
</g>
<g id="IOM2_NOT_TO_SET">
<path id="Vector 212" d="M390 245H397V373.5H390" stroke="black"></path>
<text id="IOM 2" transform="matrix(0 1 -1 0 411 297)" fill="black" xml:space="preserve" style="white-space: pre" font-family="Inter" font-size="10" letter-spacing="0em"><tspan x="0" y="9.63636">IOM 2</tspan></text>
<line id="Line 70" y1="373.5" x2="390" y2="373.5" stroke="black"></line>
<path id="Vector 207_2" d="M0.5 245H15.5M389.5 245H375.5M15.5 245V268.5M15.5 245H50.5M15.5 268.5H50.5M15.5 268.5V296.5H85.5V268.5M50.5 268.5V245M50.5 268.5H85.5M50.5 245H85.5M85.5 268.5V245M85.5 268.5H93.5M85.5 245H93.5M93.5 268.5V245M93.5 268.5H110.5M93.5 245H110.5M110.5 268.5V245M110.5 268.5H127.5M110.5 245H127.5M127.5 268.5V245M127.5 268.5H144.5M127.5 245H144.5M144.5 268.5V245M144.5 268.5H161.5M144.5 245H161.5M161.5 268.5V245M161.5 268.5H178.5M161.5 245H178.5M178.5 268.5V245M178.5 268.5H195.5M178.5 245H195.5M195.5 268.5V245M195.5 268.5H212.5M195.5 245H212.5M212.5 268.5V245M212.5 268.5H229.5M212.5 245H229.5M229.5 268.5V245M229.5 268.5H246.5M229.5 245H246.5M246.5 268.5V245M246.5 268.5H263.5M246.5 245H263.5M263.5 268.5V245M263.5 268.5H280.5M263.5 245H280.5M280.5 268.5V245M280.5 268.5H297.5M280.5 245H297.5M297.5 268.5V245M297.5 268.5H305.5M297.5 245H305.5M305.5 268.5H340.5M305.5 268.5V255.5V245M305.5 245H340.5M340.5 268.5V245M340.5 268.5H375.5V245M340.5 245H375.5" stroke="black"></path>
<line id="Line 64_2" x1="305.5" y1="268" x2="305.5" y2="297" stroke="black"></line>
<line id="Line 65_2" x1="375.5" y1="268" x2="375.5" y2="297" stroke="black"></line>
</g>
</g>
<rect id="Rectangle 133" x="0.5" y="23.5" width="389" height="369" stroke="black"></rect>
</g>
<text id="IOM RACK 1" fill="black" xml:space="preserve" style="white-space: pre" font-family="Inter" font-size="12" letter-spacing="0em"><tspan x="172" y="11.8636">IOM RACK 1</tspan></text>
</g>
</svg>