<svg width="12" height="24" viewBox="0 0 18 34" fill="none" xmlns="http://www.w3.org/2000/svg">
<path d="M8.35355 0.646447C8.15829 0.451184 7.84171 0.451184 7.64645 0.646447L4.46447 3.82843C4.2692 4.02369 4.2692 4.34027 4.46447 4.53553C4.65973 4.7308 4.97631 4.7308 5.17157 4.53553L8 1.70711L10.8284 4.53553C11.0237 4.7308 11.3403 4.7308 11.5355 4.53553C11.7308 4.34027 11.7308 4.02369 11.5355 3.82843L8.35355 0.646447ZM8.5 32L8.5 1H7.5L7.5 32H8.5Z" fill="black"/>
<circle cx="8" cy="16" r="7.5" fill="white" stroke="black"/>
<path d="M10.4541 20L9.5752 17.7344H6.71387L5.83984 20H5L7.79297 12.832H8.54004L11.3135 20H10.4541ZM9.32617 16.9971L8.49121 14.7461C8.47168 14.6875 8.43913 14.5915 8.39355 14.458C8.35124 14.3245 8.30729 14.1862 8.26172 14.043C8.21615 13.8997 8.17871 13.7842 8.14941 13.6963C8.11686 13.8298 8.08105 13.9632 8.04199 14.0967C8.00618 14.2269 7.97038 14.349 7.93457 14.4629C7.89876 14.5736 7.86784 14.668 7.8418 14.7461L6.99219 16.9971H9.32617Z" fill="black"/>
</svg>
