<svg width="12" height="24" viewBox="0 0 18 34" fill="none" xmlns="http://www.w3.org/2000/svg">
<path d="M8.35355 0.646447C8.15829 0.451184 7.84171 0.451184 7.64645 0.646447L4.46447 3.82843C4.2692 4.02369 4.2692 4.34027 4.46447 4.53553C4.65973 4.7308 4.97631 4.7308 5.17157 4.53553L8 1.70711L10.8284 4.53553C11.0237 4.7308 11.3403 4.7308 11.5355 4.53553C11.7308 4.34027 11.7308 4.02369 11.5355 3.82843L8.35355 0.646447ZM8.5 32L8.5 1H7.5L7.5 32H8.5Z" fill="black"/>
<circle cx="8" cy="16" r="7.5" fill="white" stroke="black"/>
<path d="M1.5 16.5C1.5 16.5 3.5 14.5 5.5 14.5C7.5 14.5 8.20427 17.5 11 17.5C12.5 17.5 14.5 15.5 14.5 15.5" stroke="black"/>
</svg>
