<svg width="12" height="24" viewBox="0 0 18 34" fill="none" xmlns="http://www.w3.org/2000/svg">
<path d="M8.35355 0.646447C8.15829 0.451184 7.84171 0.451184 7.64645 0.646447L4.46447 3.82843C4.2692 4.02369 4.2692 4.34027 4.46447 4.53553C4.65973 4.7308 4.97631 4.7308 5.17157 4.53553L8 1.70711L10.8284 4.53553C11.0237 4.7308 11.3403 4.7308 11.5355 4.53553C11.7308 4.34027 11.7308 4.02369 11.5355 3.82843L8.35355 0.646447ZM8.5 32L8.5 1H7.5L7.5 32H8.5Z" fill="black"/>
<circle cx="8" cy="16" r="7.5" fill="white" stroke="black"/>
<path d="M10.9619 12.8613L8.39844 20H7.56348L5 12.8613H5.86914L7.53906 17.5635C7.60742 17.7523 7.66764 17.9329 7.71973 18.1055C7.77507 18.278 7.82389 18.444 7.86621 18.6035C7.90853 18.763 7.94596 18.9176 7.97852 19.0674C8.01107 18.9176 8.0485 18.763 8.09082 18.6035C8.13314 18.4408 8.18197 18.2731 8.2373 18.1006C8.29264 17.9248 8.35449 17.7409 8.42285 17.5488L10.083 12.8613H10.9619Z" fill="black"/>
</svg>
